<svg width="24" height="24" viewBox="0 0 24 24" fill="none" xmlns="http://www.w3.org/2000/svg">
<g clip-path="url(#clip0_510_5)">
<path d="M12.006 1.764C11.9309 1.76326 11.8569 1.78186 11.791 1.818C11.7266 1.8541 11.6728 1.90652 11.635 1.97L9.36001 5.835C9.28591 5.96111 9.2469 6.10474 9.24701 6.251C9.24701 6.397 9.28601 6.541 9.36001 6.667L14.311 15.079C14.3868 15.2064 14.4947 15.3116 14.624 15.384C14.7533 15.4571 14.8994 15.4953 15.048 15.495H19.597C19.6716 15.4949 19.745 15.4756 19.81 15.439C19.8739 15.4025 19.927 15.3497 19.964 15.286C20.0018 15.2235 20.0221 15.152 20.023 15.079C20.0228 15.0055 20.0031 14.9334 19.966 14.87L12.37 1.975C12.3331 1.91127 12.28 1.85847 12.216 1.822C12.1519 1.78471 12.0802 1.76472 12.006 1.764ZM8.02001 8.505C7.94602 8.50511 7.87332 8.52441 7.80901 8.561C7.74414 8.59732 7.68999 8.65009 7.65201 8.714L0.0580063 21.61C0.0200087 21.673 -0.000238335 21.7451 -0.000590421 21.8187C-0.000942507 21.8923 0.0186135 21.9646 0.0560063 22.028C0.0939735 22.0917 0.148149 22.1441 0.213006 22.18C0.277845 22.2172 0.351259 22.2368 0.426006 22.237H4.97601C5.12465 22.237 5.27074 22.1984 5.40001 22.125C5.52835 22.0523 5.63528 21.9471 5.71001 21.82L10.664 13.408C10.7381 13.2819 10.7771 13.1383 10.777 12.992C10.7772 12.8451 10.7382 12.7008 10.664 12.574L8.38901 8.714C8.35089 8.65045 8.29675 8.59804 8.23201 8.562C8.16699 8.52537 8.09363 8.50608 8.01901 8.506L8.02001 8.505ZM11.031 17.329C10.8817 17.3289 10.735 17.3675 10.605 17.441C10.4768 17.5134 10.3699 17.6182 10.295 17.745L8.02001 21.608C7.9827 21.6713 7.96302 21.7435 7.96301 21.817C7.96309 21.8899 7.98278 21.9614 8.02001 22.024C8.05702 22.0879 8.11011 22.141 8.17401 22.178C8.23907 22.2144 8.31245 22.2334 8.38701 22.233H23.577C23.6512 22.2332 23.7242 22.2142 23.789 22.178C23.8533 22.1412 23.9068 22.088 23.944 22.024C23.9809 21.9613 24.0002 21.8898 24 21.817C24.0005 21.7432 23.9811 21.6707 23.944 21.607L21.67 17.747C21.5953 17.6198 21.4884 17.5146 21.36 17.442C21.2308 17.3685 21.0847 17.3299 20.936 17.33L11.031 17.329Z" fill="black"/>
</g>
<defs>
<clipPath id="clip0_510_5">
<rect width="24" height="24" fill="white"/>
</clipPath>
</defs>
</svg>
