<svg width="24" height="24" viewBox="0 0 24 24" fill="none" xmlns="http://www.w3.org/2000/svg">
<g clip-path="url(#clip0_428_57)">
<path d="M2.90625 0.890625C1.84983 0.890625 0.984375 1.75608 0.984375 2.8125C0.984375 3.86892 1.84983 4.73438 2.90625 4.73438C3.96267 4.73438 4.82812 3.86892 4.82812 2.8125C4.82812 1.75608 3.96267 0.890625 2.90625 0.890625ZM10.9208 1.35797C10.125 1.31475 8.43656 4.73709 8.39733 6.67031C8.36639 8.1923 10.177 9.33881 10.2131 10.8606C10.2532 12.5562 8.87498 13.6239 8.41322 15.6199C8.20101 16.3448 8.78475 17.413 9.12084 17.9626C9.3863 18.39 9.69272 18.7434 9.99675 18.9849C9.70786 17.6305 9.75319 16.2056 9.98784 14.8733C10.1407 14.0052 10.6376 13.2952 11.0422 12.6313C11.4467 11.9674 11.7517 11.3711 11.7157 10.7648C11.6781 10.1305 11.2293 9.54375 10.682 8.89125C10.1347 8.23875 9.49364 7.53112 9.35616 6.57028C9.25453 5.76577 9.66159 4.68548 9.94711 3.89358L10.7251 4.22002C10.419 4.96819 10.2093 5.63977 10.1914 6.4508C10.2826 7.08858 10.7753 7.68961 11.3285 8.34905C11.8816 9.00853 12.5 9.73711 12.558 10.7148C12.6119 11.6225 12.1816 12.3828 11.7627 13.0703C11.3437 13.7579 10.9289 14.3942 10.8187 15.0197C10.557 16.5058 10.5566 18.0945 11.0027 19.4932C11.1547 19.97 11.4449 20.5648 11.7871 21.1637C11.838 21.0434 11.881 20.9198 11.9159 20.7939C12.0379 20.3495 12.027 19.8674 11.8892 19.6642L12.5875 19.1905C12.9707 19.7555 12.8855 20.449 12.7296 21.0173C12.6516 21.3013 12.5475 21.5588 12.4332 21.7695C12.3887 21.8513 12.343 21.9259 12.2926 21.9948C12.3853 22.1388 12.48 22.2814 12.5766 22.4228C12.7469 22.6718 12.9236 22.9163 13.1064 23.1562H14.6381C15.1564 21.2036 11.9946 18.6118 11.9823 16.2613C11.9721 14.3065 13.8592 12.567 13.6119 10.6278C13.4156 9.08855 11.6872 8.10881 11.2373 6.62377C10.7282 4.94302 11.6282 1.4977 10.958 1.36266C10.9457 1.3602 10.9333 1.35863 10.9208 1.35797ZM3.98437 2.8125C3.98437 3.41297 3.50672 3.89062 2.90625 3.89062C2.30578 3.89062 1.82812 3.41297 1.82812 2.8125C1.82812 2.80669 1.8285 2.80092 1.82859 2.79511C1.95966 2.88994 2.11941 2.9468 2.29102 2.9468C2.72611 2.9468 3.08789 2.58502 3.08789 2.14992C3.08789 1.99903 3.04359 1.85742 3.29152 1.8127C3.53939 1.76794 3.98437 2.23303 3.98437 2.8125ZM15.5854 3.62437C14.736 3.62437 14.0385 4.32197 14.0385 5.17125C14.0385 6.02063 14.736 6.71813 15.5854 6.71813C16.4347 6.71813 17.1322 6.02063 17.1322 5.17125C17.1322 4.32197 16.4347 3.62437 15.5854 3.62437ZM15.8345 4.51312C16.1017 4.61203 16.2885 4.86619 16.2885 5.17125C16.2885 5.56458 15.9787 5.87437 15.5854 5.87437C15.221 5.87437 14.9289 5.60831 14.8877 5.25652C14.9674 5.28877 15.0539 5.30714 15.144 5.30714C15.5246 5.30714 15.8421 4.98961 15.8421 4.60903C15.8421 4.57645 15.839 4.54462 15.8345 4.51312ZM14.0854 6.62438C13.6503 6.62438 13.2885 6.98616 13.2885 7.42125C13.2885 7.85639 13.6503 8.21813 14.0854 8.21813C14.5205 8.21813 14.8822 7.85639 14.8822 7.42125C14.8822 6.98616 14.5205 6.62438 14.0854 6.62438ZM17.2189 7.75809C17.2095 7.75788 17.2002 7.75849 17.1909 7.75992C16.6986 7.83867 18.0973 11.134 17.6442 12.7372C17.38 13.672 16.0984 14.121 15.8999 15.072C15.67 16.1728 16.6942 17.2326 16.669 18.3569C16.6346 19.8891 14.6891 21.5558 15.6084 22.7821C15.8548 23.1106 16.1604 22.7336 16.4554 22.5147C16.6729 22.3169 16.8842 22.1124 17.089 21.9015C17.0054 21.8094 16.9295 21.7105 16.8623 21.6058C16.5904 21.1818 16.4592 20.6828 16.4876 20.1799L17.3301 20.2261C17.3088 20.6142 17.4277 20.9248 17.5722 21.1497C17.6001 21.1931 17.6289 21.2318 17.6575 21.2679C17.7341 21.1734 17.8055 21.0817 17.8642 20.9971C18.154 20.5804 18.3955 20.1458 18.3994 19.7814C18.4065 19.1276 17.9592 18.4409 17.4617 17.6867C16.9642 16.9325 16.4098 16.0872 16.5665 15.0729C16.6612 14.4595 17.1243 14.1043 17.4857 13.8144C17.847 13.5245 18.1178 13.2822 18.181 13.053L18.9945 13.2771C18.8325 13.8649 18.3659 14.1899 18.0136 14.4725C17.6614 14.7551 17.4349 14.9775 17.4003 15.2017C17.3027 15.8341 17.6764 16.4801 18.1659 17.2221C18.6554 17.964 19.2541 18.7782 19.2432 19.7906C19.2358 20.4762 18.8667 21.0335 18.557 21.4788C18.1771 22.0252 17.5757 22.637 17.0226 23.1393C17.0162 23.1451 17.01 23.1505 17.0036 23.1562H18.6408C19.0678 22.9869 19.4497 22.7514 19.7264 22.4678C20.6959 21.4746 20.2727 19.7636 19.9284 18.3088C19.7249 17.4492 18.3731 16.3604 18.3967 15.2078C18.4157 14.28 19.7167 13.6922 19.7306 12.7644C19.7583 10.9231 17.8252 7.76892 17.2189 7.75809ZM3.70706 7.99889C3.69759 7.99936 3.68831 8.00044 3.67941 8.00208C3.18708 8.09302 4.28587 10.3418 4.13259 11.5113C4.00481 12.486 3.10987 13.2617 3.01383 14.24C2.889 15.511 3.81492 16.7245 3.75 18C3.66919 19.5882 1.37508 21.3488 2.28431 22.581C2.50767 22.3756 2.77903 22.1071 3.06127 21.8018C3.693 21.1182 4.36866 20.249 4.64245 19.6305C4.88531 19.082 4.93777 18.4001 4.86905 17.7518C4.67719 16.7587 3.96619 15.8813 3.906 14.968C3.85556 13.9978 4.33509 13.2115 4.464 12.5258C4.56483 11.9896 4.70508 10.8199 4.70508 10.8199L5.54297 10.9191C5.54297 10.9191 5.40816 12.0704 5.29322 12.6818C5.12569 13.5728 4.71581 14.2924 4.74867 14.9242C4.89319 15.9197 5.60105 16.7637 5.70811 17.6628C5.78775 18.4134 5.74064 19.2343 5.41406 19.972C5.05809 20.7761 4.34602 21.6547 3.68086 22.3744C3.47144 22.6012 3.25528 22.8217 3.03267 23.0356C3.8805 23.2072 5.04989 22.7475 5.65514 22.2097C7.00805 21.0075 7.16592 19.2094 6.6353 17.1072C6.29606 15.7634 5.59167 14.8137 5.6753 13.6066C5.72616 12.8715 6.95039 12.4008 6.5482 11.5755C5.88947 10.2239 4.30242 7.96823 3.70706 7.99889ZM21.5072 13.5931C21.1501 13.5931 20.82 13.7168 20.5572 13.9229C20.457 13.9817 20.3727 14.0641 20.3115 14.1628C20.0925 14.4299 19.9603 14.7705 19.9603 15.14C19.9603 15.9893 20.6579 16.6868 21.5072 16.6868C22.3566 16.6868 23.0541 15.9893 23.0541 15.14C23.0541 14.2907 22.3566 13.5931 21.5072 13.5931ZM21.5974 14.4431C21.9467 14.4864 22.2103 14.7773 22.2103 15.14C22.2103 15.5333 21.9005 15.8431 21.5072 15.8431C21.1395 15.8431 20.845 15.5723 20.8081 15.2158C20.8401 15.2207 20.8724 15.2232 20.9048 15.2235C21.2853 15.2235 21.6029 14.906 21.6029 14.5254C21.6029 14.4975 21.6007 14.4702 21.5974 14.4431ZM8.06423 17.7966C7.89202 19.9578 8.34187 21.8055 9.70533 23.1562H12.0593C11.999 23.0711 11.9393 22.9854 11.8803 22.8993C11.291 22.038 10.6814 21.0187 10.329 20.1146C9.53091 19.9021 8.89636 19.2005 8.40408 18.4078C8.28135 18.2094 8.16794 18.0055 8.06423 17.7966Z" fill="#228B22"/>
</g>
<defs>
<clipPath id="clip0_428_57">
<rect width="24" height="24" fill="white"/>
</clipPath>
</defs>
</svg>
