<svg width="24" height="24" viewBox="0 0 24 24" fill="none" xmlns="http://www.w3.org/2000/svg">
<path d="M10.6172 4.35469C11.2875 6.36563 10.6031 8.39532 9.08904 8.89219C7.57498 9.38907 5.8031 8.16094 5.13279 6.15C4.46248 4.13907 5.14685 2.10938 6.66091 1.6125C8.17498 1.11563 9.94685 2.34375 10.6172 4.35469ZM4.70623 9.30938C5.59216 10.8281 5.37654 12.5953 4.2281 13.2516C3.07966 13.9078 1.42966 13.2094 0.548414 11.6906C-0.332835 10.1719 -0.126586 8.40469 1.02185 7.74844C2.17029 7.09219 3.82029 7.79063 4.70154 9.30938H4.70623ZM3.24373 18.8063C5.69998 12.1828 10.064 10.5 12 10.5C13.9359 10.5 18.3 12.1828 20.7562 18.8063C20.925 19.2609 21 19.7484 21 20.2359V20.3109C21 21.5203 20.0203 22.5 18.8109 22.5C18.2719 22.5 17.7375 22.4344 17.2172 22.3031L13.0922 21.2719C12.375 21.0938 11.625 21.0938 10.9078 21.2719L6.78279 22.3031C6.26248 22.4344 5.7281 22.5 5.18904 22.5C3.97966 22.5 2.99998 21.5203 2.99998 20.3109V20.2359C2.99998 19.7484 3.07498 19.2609 3.24373 18.8063ZM19.7719 13.2516C18.6234 12.5953 18.4078 10.8281 19.2937 9.30938C20.1797 7.79063 21.825 7.09219 22.9734 7.74844C24.1219 8.40469 24.3375 10.1719 23.4515 11.6906C22.5656 13.2094 20.9203 13.9078 19.7719 13.2516ZM14.5359 8.89219C13.0219 8.39532 12.3375 6.36563 13.0078 4.35469C13.6781 2.34375 15.45 1.11563 16.964 1.6125C18.4781 2.10938 19.1625 4.13907 18.4922 6.15C17.8219 8.16094 16.05 9.38907 14.5359 8.89219Z" fill="#8B4513"/>
</svg>
