<svg width="24" height="24" viewBox="0 0 24 24" fill="none" xmlns="http://www.w3.org/2000/svg">
<path d="M11.1764 3.78608C9.52856 3.79761 7.79957 4.19207 6.09126 5.09577C-1.40391 9.43114 1.61385 15.6998 2.16253 17.3534C3.138 18.4993 4.45003 18.8883 5.65326 19.5218L5.60732 18.575L6.48482 18.8989L6.41854 18.1959L7.42575 18.1941L5.86715 16.4438C6.32728 15.816 6.46528 14.5021 6.58012 13.8167L9.36117 14.4203L11.9894 14.1185C12.1366 15.5468 12.3593 16.9753 12.9367 18.4036L16.2067 20.2141L16.0321 19.3139L17.1444 19.5087L17.034 18.7175L18.1321 18.7657L15.9928 16.8043L16.0147 14.8462C16.691 14.1005 18.1229 14.0493 18.4595 14.2729C18.3678 15.06 18.6352 15.4004 18.8961 16.1102C19.23 17.0187 19.9788 17.6377 20.6685 18.2828L20.7659 17.403L21.8188 17.5983L21.7532 16.8298L22.8995 16.9551L21.7687 15.2048C21.7915 14.229 21.7943 13.2532 21.663 12.2774C21.503 12.5442 21.2675 12.7743 21.0109 12.963C20.5205 13.3235 19.9131 13.5639 19.3116 13.5408C18.897 13.5248 17.309 13.7133 16.4589 12.4787L17.1539 12.0001C17.7055 12.8013 18.7072 12.6731 19.344 12.6977C19.6744 12.7104 20.1582 12.5427 20.5111 12.2832C20.864 12.0237 21.0429 11.7023 21.0297 11.5228L21.0142 11.3129L21.1725 11.1743C21.1725 11.1743 21.3575 11.0117 21.5423 10.7897C21.7272 10.5677 21.8677 10.2738 21.869 10.2041C21.8695 10.1766 21.8133 10.0374 21.708 9.82583C21.6028 9.61428 21.4576 9.25916 21.6203 8.89068C21.7307 8.64069 21.8602 8.50293 21.9287 8.38297C21.9949 8.26686 22.0419 8.14841 22.0475 7.8741C22.028 7.67943 21.9937 7.62828 21.9165 7.56364C21.8358 7.4961 21.6532 7.41463 21.3661 7.3235C21.2166 7.27602 21.2022 7.29716 21.0823 7.3941C20.9624 7.49103 20.8202 7.68393 20.6118 7.87161L20.4607 8.00769L20.2602 7.97427C19.2887 7.8125 18.3339 7.88282 17.4381 8.2371L17.2702 8.30347L17.1063 8.228C16.5281 7.96152 16.0868 7.72091 15.8311 7.66639C15.7032 7.63911 15.6397 7.64624 15.5734 7.67535C15.507 7.70441 15.4138 7.77332 15.2933 7.95322C15.1474 8.17114 15.0678 8.5205 15.1182 8.81891C15.1685 9.11736 15.3088 9.35141 15.624 9.48908L15.2863 10.2622C14.7036 10.0078 14.3743 9.48196 14.2861 8.95921C14.198 8.43646 14.3113 7.90325 14.5923 7.48372C14.7711 7.21672 14.9807 7.0138 15.2349 6.90247C15.4891 6.7911 15.7642 6.78932 16.0071 6.84111C16.444 6.93425 16.8443 7.16347 17.3094 7.38833C17.8758 7.18639 18.4597 7.08013 19.0484 7.05711C17.2331 5.18474 14.4352 3.81079 11.3357 3.78618C11.2827 3.78575 11.2296 3.78571 11.1764 3.78608ZM20.0114 8.56607C20.3279 8.56607 20.5845 8.8768 20.5845 9.26014C20.5845 9.64344 20.3279 9.95422 20.0115 9.95418C19.695 9.95418 19.4385 9.64339 19.4385 9.26014C19.4385 8.87685 19.695 8.56611 20.0114 8.56607ZM17.7271 8.80738C18.0435 8.80743 18.3001 9.11816 18.3001 9.50146C18.3001 9.88475 18.0436 10.1955 17.7271 10.1955C17.4107 10.1955 17.1541 9.88475 17.1541 9.50146C17.1541 9.11811 17.4107 8.80738 17.7271 8.80738ZM19.1848 10.7286C19.6054 10.7207 19.9539 10.9047 19.9632 11.1394C19.9688 11.2828 19.8446 11.4188 19.6329 11.5013L19.6562 12.2454L18.8129 12.2719L18.7891 11.5136C18.5766 11.4385 18.4458 11.3089 18.4401 11.1678C18.4307 10.9331 18.7642 10.7364 19.1848 10.7286ZM7.00532 14.7627L7.35056 16.5291L9.15735 17.7263L9.04382 17.0278L9.84904 17.1501L9.59325 16.5892L10.4677 16.6347L9.50868 15.7269L9.44329 15.4022L7.00532 14.7627Z" fill="#A0522D"/>
</svg>
