<svg width="32" height="31" viewBox="0 0 32 31" fill="none" xmlns="http://www.w3.org/2000/svg">
<g filter="url(#filter0_d_431_6)">
<path d="M9.625 4.5C9.415 4.5 9.25 4.68825 9.25 4.92825V5.57175C9.25 5.81175 9.415 6 9.625 6C9.835 6 10 5.81175 10 5.57175V4.9275C10 4.68825 9.835 4.5 9.625 4.5Z" fill="#8B4513"/>
<path d="M27.25 12.3165C27.25 7.98376 23.7228 4.48276 19.375 4.48276H16.48C16.4631 4.48279 16.4462 4.48078 16.4298 4.47676C16.6392 4.16445 16.7507 3.79678 16.75 3.42076C16.7499 3.16798 16.6999 2.91771 16.603 2.68428C16.506 2.45084 16.3639 2.23884 16.1848 2.06041C16.0058 1.88199 15.7933 1.74064 15.5595 1.64448C15.3257 1.54831 15.0753 1.49922 14.8225 1.50001C14.5609 1.49974 14.302 1.55273 14.0615 1.65576C13.821 1.75878 13.604 1.90968 13.4238 2.09926C12.7414 1.92969 12.0269 1.93769 11.3485 2.12251L5.99351 3.57751H5.99051C5.63529 3.67444 5.32165 3.88512 5.0976 4.17731C4.87355 4.46949 4.75145 4.82706 4.75001 5.19526V5.57551C4.74862 6.49613 5.00956 7.39808 5.50226 8.17576V9.45751C5.50226 9.61501 5.63726 9.75001 5.79476 9.75001H6.70976C6.79976 9.75001 6.88151 9.70651 6.93551 9.64051C7.19126 9.81001 7.46351 9.95626 7.75001 10.0763V10.0778H7.21076C6.68276 10.0778 6.25001 10.5105 6.25001 11.0393C6.25001 11.5673 6.68276 12 7.21076 12H7.91876C8.31626 13.3575 9.38201 14.466 10.75 14.8628V15.3398L10.4425 15.2288C10.438 15.2283 10.4336 15.2268 10.4298 15.2243C10.4262 15.2219 10.422 15.2206 10.4178 15.2205L10.3938 15.2123C9.96531 15.0581 9.51163 14.9861 9.05651 15C7.11701 15.0653 5.53526 16.6545 5.50301 18.603C5.49495 19.0899 5.58383 19.5736 5.76447 20.0258C5.94511 20.4781 6.21391 20.8899 6.55521 21.2373C6.89652 21.5846 7.30351 21.8607 7.7525 22.0492C8.2015 22.2378 8.68352 22.3352 9.17051 22.3358H19.7095C21.742 22.3358 23.4595 21.006 24.04 19.167C25.99 17.502 27.25 14.9033 27.25 12.3165ZM14.4243 3.26626C14.4567 3.18736 14.5119 3.11991 14.5828 3.0725C14.6538 3.02508 14.7372 2.99985 14.8225 3.00001C15.0648 3.00001 15.25 3.19051 15.25 3.42076C15.2495 3.49461 15.2292 3.56697 15.1912 3.63029C15.1532 3.69362 15.0989 3.74558 15.034 3.78076L14.2915 4.19551L15.1105 5.30701L15.118 5.31601C15.4435 5.73001 15.943 5.98351 16.48 5.98351H19.375C22.9023 5.98351 25.75 8.82001 25.75 12.3165C25.75 14.7128 24.418 17.1668 22.4575 18.489L22.315 18.5865C21.2374 18.8148 20.1174 18.7358 19.0825 18.3585L12.25 15.8835V14.2905C13.102 14.2208 13.8333 13.9118 14.3733 13.3823C14.9913 12.7748 15.3205 11.9145 15.3205 10.8983C15.3205 10.7988 15.281 10.7034 15.2107 10.6331C15.1403 10.5628 15.045 10.5233 14.9455 10.5233C14.846 10.5233 14.7507 10.5628 14.6803 10.6331C14.61 10.7034 14.5705 10.7988 14.5705 10.8983C14.5705 11.7495 14.2983 12.405 13.8475 12.8468C13.4223 13.2653 12.805 13.5248 12.019 13.5525L11.5825 13.5045C10.4125 13.3755 9.44726 12.402 9.27701 11.202H10.2325C10.9518 11.202 11.5825 10.8248 11.9395 10.2623L11.9418 10.2578C11.9913 10.179 12.0348 10.0965 12.073 10.0103L12.3655 9.35176C12.517 9.14026 12.5905 8.87176 12.5905 8.55751C12.5905 7.86451 12.0723 7.31476 11.5315 6.96451C10.9765 6.60601 10.276 6.37501 9.69251 6.37501H8.69501C8.48946 6.37478 8.28862 6.31339 8.11807 6.19867C7.94751 6.08394 7.81495 5.92106 7.73726 5.73076L7.34426 4.76401L11.7415 3.57001C12.3029 3.41633 12.8996 3.45487 13.4365 3.67951L14.1415 3.97501L14.4243 3.26626ZM11.8398 8.55751C11.8398 8.79376 11.7775 8.90026 11.7198 8.95726H9.64751C8.15501 8.95726 6.88751 7.99726 6.43076 6.66676C6.68726 6.50926 6.89951 6.28426 7.04051 6.00751L7.04276 6.01501C7.17681 6.34318 7.40554 6.62401 7.6998 6.82169C7.99405 7.01938 8.34051 7.12497 8.69501 7.12501H9.69251C10.1065 7.12501 10.6675 7.29901 11.1243 7.59451C11.5953 7.89901 11.8398 8.25301 11.8398 8.55751Z" fill="#8B4513"/>
</g>
<defs>
<filter id="filter0_d_431_6" x="0" y="0" width="32" height="32" filterUnits="userSpaceOnUse" color-interpolation-filters="sRGB">
<feFlood flood-opacity="0" result="BackgroundImageFix"/>
<feColorMatrix in="SourceAlpha" type="matrix" values="0 0 0 0 0 0 0 0 0 0 0 0 0 0 0 0 0 0 127 0" result="hardAlpha"/>
<feOffset dy="4"/>
<feGaussianBlur stdDeviation="2"/>
<feComposite in2="hardAlpha" operator="out"/>
<feColorMatrix type="matrix" values="0 0 0 0 0 0 0 0 0 0 0 0 0 0 0 0 0 0 0.25 0"/>
<feBlend mode="normal" in2="BackgroundImageFix" result="effect1_dropShadow_431_6"/>
<feBlend mode="normal" in="SourceGraphic" in2="effect1_dropShadow_431_6" result="shape"/>
</filter>
</defs>
</svg>
