<svg width="24" height="24" viewBox="0 0 24 24" fill="none" xmlns="http://www.w3.org/2000/svg">
<path d="M12 7.5C10.8065 7.5 9.66193 7.97411 8.81802 8.81802C7.97411 9.66193 7.5 10.8065 7.5 12V18C7.5 19.1935 7.97411 20.3381 8.81802 21.182C9.66193 22.0259 10.8065 22.5 12 22.5C13.1935 22.5 14.3381 22.0259 15.182 21.182C16.0259 20.3381 16.5 19.1935 16.5 18V12C16.5 10.8065 16.0259 9.66193 15.182 8.81802C14.3381 7.97411 13.1935 7.5 12 7.5ZM8.8125 13.4025H15.1875V16.59H8.8125V13.4025ZM12 21.1875C11.1558 21.1836 10.3474 20.8465 9.75046 20.2495C9.15354 19.6526 8.81644 18.8442 8.8125 18V17.9025H15.1875V18C15.1836 18.8442 14.8465 19.6526 14.2495 20.2495C13.6526 20.8465 12.8442 21.1836 12 21.1875ZM15.1875 12.09H8.8125V12C8.8125 11.1546 9.14832 10.3439 9.7461 9.7461C10.3439 9.14833 11.1546 8.8125 12 8.8125C12.8454 8.8125 13.6561 9.14833 14.2539 9.7461C14.8517 10.3439 15.1875 11.1546 15.1875 12V12.09ZM22.995 14.4075L18 9.75V16.575C18 17.3707 18.3161 18.1337 18.8787 18.6963C19.4413 19.2589 20.2044 19.575 21 19.575C21.7956 19.575 22.5587 19.2589 23.1213 18.6963C23.6839 18.1337 24 17.3707 24 16.575C23.9978 16.1628 23.907 15.7558 23.7335 15.3818C23.5601 15.0078 23.3082 14.6755 22.995 14.4075ZM21 18.2625C20.5524 18.2625 20.1232 18.0847 19.8068 17.7682C19.4903 17.4518 19.3125 17.0226 19.3125 16.575V12.75L22.1025 15.3525C22.2703 15.4937 22.406 15.6691 22.5004 15.867C22.5948 16.0649 22.6459 16.2808 22.65 16.5C22.66 16.7247 22.6251 16.9492 22.5471 17.1602C22.4692 17.3712 22.3498 17.5645 22.1961 17.7287C22.0424 17.8929 21.8574 18.0247 21.652 18.1164C21.4465 18.208 21.2249 18.2577 21 18.2625ZM0 16.575C0 17.3707 0.316071 18.1337 0.87868 18.6963C1.44129 19.2589 2.20435 19.575 3 19.575C3.79565 19.575 4.55871 19.2589 5.12132 18.6963C5.68393 18.1337 6 17.3707 6 16.575V9.75L1.005 14.4075C0.693637 14.6771 0.443048 15.0097 0.2698 15.3834C0.0965523 15.757 0.0045922 16.1632 0 16.575ZM1.86 15.405L4.6875 12.75V16.575C4.6875 17.0226 4.50971 17.4518 4.19324 17.7682C3.87677 18.0847 3.44755 18.2625 3 18.2625C2.55245 18.2625 2.12322 18.0847 1.80676 17.7682C1.49029 17.4518 1.3125 17.0226 1.3125 16.575C1.31342 16.3519 1.36287 16.1318 1.45742 15.9297C1.55196 15.7277 1.68933 15.5486 1.86 15.405ZM11.25 4.125C11.25 3.60583 11.096 3.09831 10.8076 2.66663C10.5192 2.23495 10.1092 1.8985 9.62954 1.69982C9.14989 1.50114 8.62209 1.44915 8.11289 1.55044C7.60369 1.65173 7.13596 1.90173 6.76884 2.26885C6.40173 2.63596 6.15172 3.10369 6.05044 3.61289C5.94915 4.12209 6.00114 4.64989 6.19982 5.12955C6.3985 5.6092 6.73495 6.01917 7.16663 6.30761C7.59831 6.59605 8.10582 6.75 8.625 6.75C9.32119 6.75 9.98887 6.47344 10.4812 5.98116C10.9734 5.48887 11.25 4.82119 11.25 4.125ZM7.3125 4.125C7.3125 3.86541 7.38948 3.61165 7.5337 3.39582C7.67792 3.17998 7.8829 3.01175 8.12273 2.91241C8.36256 2.81307 8.62646 2.78708 8.88106 2.83772C9.13566 2.88836 9.36952 3.01337 9.55308 3.19692C9.73663 3.38048 9.86164 3.61434 9.91228 3.86895C9.96292 4.12355 9.93693 4.38744 9.83759 4.62727C9.73825 4.8671 9.57003 5.07209 9.35419 5.21631C9.13835 5.36052 8.88459 5.4375 8.625 5.4375C8.27811 5.4336 7.94653 5.29407 7.70123 5.04877C7.45593 4.80347 7.3164 4.47189 7.3125 4.125ZM15.375 1.5C14.8558 1.5 14.3483 1.65395 13.9166 1.94239C13.4849 2.23083 13.1485 2.6408 12.9498 3.12046C12.7511 3.60011 12.6992 4.12791 12.8004 4.63711C12.9017 5.14631 13.1517 5.61404 13.5188 5.98116C13.886 6.34827 14.3537 6.59828 14.8629 6.69956C15.3721 6.80085 15.8999 6.74887 16.3795 6.55019C16.8592 6.35151 17.2692 6.01505 17.5576 5.58337C17.846 5.15169 18 4.64418 18 4.125C18 3.42881 17.7234 2.76113 17.2312 2.26885C16.7389 1.77656 16.0712 1.5 15.375 1.5ZM15.375 5.4375C15.1154 5.4375 14.8617 5.36052 14.6458 5.21631C14.43 5.07209 14.2617 4.8671 14.1624 4.62727C14.0631 4.38744 14.0371 4.12355 14.0877 3.86895C14.1384 3.61434 14.2634 3.38048 14.4469 3.19692C14.6305 3.01337 14.8643 2.88836 15.1189 2.83772C15.3735 2.78708 15.6374 2.81307 15.8773 2.91241C16.1171 3.01175 16.3221 3.17998 16.4663 3.39582C16.6105 3.61165 16.6875 3.86541 16.6875 4.125C16.6836 4.47189 16.5441 4.80347 16.2988 5.04877C16.0535 5.29407 15.7219 5.4336 15.375 5.4375Z" fill="#FFD700"/>
</svg>
