<svg width="24" height="24" viewBox="0 0 24 24" fill="none" xmlns="http://www.w3.org/2000/svg">
<path d="M15.4359 4.67062L13.575 5.16094C12.1594 6.38437 10.6359 7.54687 9.04219 8.68125L8.72813 9.66562L7.12969 10.0078C6.07031 10.725 4.99219 11.4328 3.90375 12.1406L9.54375 13.0031L19.5703 5.17031C18.2719 4.99219 16.9031 4.81875 15.4359 4.67062ZM20.2828 5.68125L17.4047 7.92656L15.3891 10.4156L13.2797 11.1516L10.2328 13.5281L11.2078 18.9234C14.2828 16.3641 17.1891 13.7953 19.9734 11.2781L19.7109 9.81562L21.6844 9.72656C22.0734 9.37969 22.4578 9.02812 22.8375 8.68125L20.2828 5.68125ZM2.88656 13.0125C1.89516 14.8828 1.38609 16.3219 1.16016 17.5031C1.59188 17.5547 2.01797 17.6062 2.43891 17.6672L3.22453 16.2328L3.48328 17.8266C5.98125 18.2297 8.31563 18.7875 10.6172 19.3312L9.35625 13.8187L6.2625 13.3453L2.88656 13.0125Z" fill="#B22222"/>
</svg>
