<svg width="24" height="24" viewBox="0 0 24 24" fill="none" xmlns="http://www.w3.org/2000/svg">
<path d="M12 21C10.9 21 9.89167 20.725 8.975 20.175C8.05833 19.625 7.33333 18.9 6.8 18H4V16H6.1C6.05 15.6167 6.02067 15.2873 6.012 15.012C6.00333 14.7367 5.99933 14.3993 6 14H4V12H6C6 11.55 6.00433 11.179 6.013 10.887C6.02167 10.595 6.05067 10.2993 6.1 10H4V8H6.8C7.03333 7.6 7.296 7.23733 7.588 6.912C7.88 6.58667 8.21733 6.29933 8.6 6.05L7 4.4L8.4 3L10.55 5.15C10.9333 5.01667 11.4083 4.95 11.975 4.95C12.5417 4.95 13.0167 5.01667 13.4 5.15L15.6 3L17 4.4L15.35 6.05C15.7333 6.3 16.0793 6.58767 16.388 6.913C16.6967 7.23833 16.9673 7.60067 17.2 8H20V10H17.9C17.95 10.3833 17.9793 10.7 17.988 10.95C17.9967 11.2 18.0007 11.55 18 12H20V14H18C18 14.4 17.9957 14.7373 17.987 15.012C17.9783 15.2867 17.9493 15.616 17.9 16H20V18H17.2C16.6667 18.9 15.9417 19.625 15.025 20.175C14.1083 20.725 13.1 21 12 21ZM10 16H14V14H10V16ZM10 12H14V10H10V12Z" fill="#778899"/>
</svg>
