<svg width="24" height="24" viewBox="0 0 24 24" fill="none" xmlns="http://www.w3.org/2000/svg">
<path d="M17.416 2.624C17.4991 2.56989 17.5707 2.49983 17.6266 2.41788C17.6824 2.33592 17.7215 2.2437 17.7415 2.14655C17.7615 2.0494 17.762 1.94925 17.743 1.8519C17.724 1.75454 17.6859 1.66192 17.6309 1.5794C17.5759 1.49687 17.505 1.42608 17.4225 1.37111C17.3399 1.31615 17.2473 1.27811 17.1499 1.25919C17.0525 1.24027 16.9524 1.24086 16.8553 1.26091C16.7581 1.28096 16.6659 1.32007 16.584 1.376L13.669 3.32C13.1381 3.10801 12.5716 2.9994 12 3C11.41 3 10.847 3.113 10.331 3.32L7.416 1.376C7.25049 1.26827 7.04917 1.23016 6.85573 1.26995C6.6623 1.30975 6.49237 1.42423 6.38282 1.58855C6.27328 1.75286 6.23296 1.95375 6.27063 2.14761C6.30829 2.34147 6.4209 2.51265 6.584 2.624L8.944 4.197C8.23349 4.85325 7.75372 5.72126 7.576 6.672C8.02093 6.55745 8.47856 6.49966 8.938 6.5H15.063C15.533 6.5 15.989 6.56 16.424 6.672C16.2463 5.72126 15.7665 4.85325 15.056 4.197L17.416 2.624ZM1.25 14C1.25 13.8011 1.32902 13.6103 1.46967 13.4697C1.61032 13.329 1.80109 13.25 2 13.25H5V11.938C5 11.102 5.26 10.327 5.704 9.69L3.221 8.696C3.04043 8.61922 2.89714 8.47474 2.82186 8.29354C2.74658 8.11234 2.74531 7.90886 2.81832 7.72674C2.89133 7.54461 3.0328 7.39835 3.21239 7.31932C3.39198 7.24029 3.5954 7.23479 3.779 7.304L6.915 8.558C7.5258 8.19177 8.22483 7.99887 8.937 8H15.063C15.802 8 16.493 8.204 17.085 8.558L20.221 7.304C20.3128 7.26494 20.4116 7.24462 20.5114 7.2442C20.6112 7.24379 20.71 7.2633 20.8022 7.30159C20.8944 7.33988 20.978 7.39618 21.0481 7.46719C21.1182 7.5382 21.1735 7.6225 21.2106 7.71514C21.2478 7.80777 21.266 7.90689 21.2644 8.00668C21.2627 8.10647 21.2411 8.20492 21.2009 8.29627C21.1607 8.38762 21.1027 8.47003 21.0303 8.53867C20.9578 8.60731 20.8724 8.6608 20.779 8.696L18.296 9.69C18.7556 10.3494 19.0014 11.1342 19 11.938V13.25H22C22.1989 13.25 22.3897 13.329 22.5303 13.4697C22.671 13.6103 22.75 13.8011 22.75 14C22.75 14.1989 22.671 14.3897 22.5303 14.5303C22.3897 14.671 22.1989 14.75 22 14.75H19V15C19.0019 16.1393 18.7245 17.2617 18.192 18.269L20.779 19.304C20.9637 19.378 21.1115 19.5223 21.1898 19.7053C21.2681 19.8882 21.2705 20.0948 21.1965 20.2795C21.1225 20.4642 20.9782 20.612 20.7952 20.6903C20.6123 20.7686 20.4057 20.771 20.221 20.697L17.329 19.539C16.1692 20.9028 14.5301 21.7694 12.75 21.96V15C12.75 14.8011 12.671 14.6103 12.5303 14.4697C12.3897 14.329 12.1989 14.25 12 14.25C11.8011 14.25 11.6103 14.329 11.4697 14.4697C11.329 14.6103 11.25 14.8011 11.25 15V21.96C9.47004 21.7696 7.83103 20.9034 6.671 19.54L3.78 20.696C3.68853 20.7326 3.59075 20.7509 3.49222 20.7497C3.3937 20.7486 3.29637 20.728 3.20578 20.6893C3.1152 20.6505 3.03314 20.5943 2.96429 20.5238C2.89543 20.4533 2.84114 20.37 2.8045 20.2785C2.76786 20.187 2.7496 20.0892 2.75075 19.9907C2.7519 19.8922 2.77245 19.7949 2.81122 19.7043C2.84999 19.6137 2.90622 19.5316 2.9767 19.4628C3.04718 19.3939 3.13053 19.3396 3.222 19.303L5.81 18.268C5.277 17.2612 4.99889 16.1392 5 15V14.75H2C1.80109 14.75 1.61032 14.671 1.46967 14.5303C1.32902 14.3897 1.25 14.1989 1.25 14Z" fill="#B8860B"/>
</svg>
