<svg width="24" height="24" viewBox="0 0 24 24" fill="none" xmlns="http://www.w3.org/2000/svg">
<g clip-path="url(#clip0_431_72)">
<path d="M20 2.66667C19.2928 2.66667 18.6145 2.94762 18.1144 3.44772C17.6143 3.94781 17.3334 4.62609 17.3334 5.33333V11.4167C17.3334 12.1407 16.742 12.7233 16 13.0487V4C16 2.93913 15.5786 1.92172 14.8285 1.17157C14.0783 0.421427 13.0609 0 12 0C10.9392 0 9.92176 0.421427 9.17161 1.17157C8.42147 1.92172 8.00004 2.93913 8.00004 4V15.7527C7.25204 15.436 6.66671 14.8387 6.66671 14.0833V10.6667C6.66671 9.95942 6.38576 9.28115 5.88566 8.78105C5.38556 8.28095 4.70728 8 4.00004 8C3.2928 8 2.61452 8.28095 2.11442 8.78105C1.61433 9.28115 1.33337 9.95942 1.33337 10.6667V15.3333C1.33337 16.806 2.50004 17.9167 3.58337 18.5413C4.41271 19.02 6.73737 19.608 8.00004 19.642V22C8.00004 24.2087 16 24.2087 16 22V16.9673C17.3207 16.888 19.5274 16.332 20.3194 15.8747C21.4027 15.25 22.6667 14.1393 22.6667 12.6667V5.33333C22.6667 4.62609 22.3858 3.94781 21.8857 3.44772C21.3856 2.94762 20.7073 2.66667 20 2.66667Z" fill="#77B255"/>
<path d="M7.99992 4.66668C8.36811 4.66668 8.66659 4.3682 8.66659 4.00001C8.66659 3.63182 8.36811 3.33334 7.99992 3.33334C7.63173 3.33334 7.33325 3.63182 7.33325 4.00001C7.33325 4.3682 7.63173 4.66668 7.99992 4.66668Z" fill="#3E721D"/>
<path d="M15.3333 2.66668C15.7015 2.66668 16 2.3682 16 2.00001C16 1.63182 15.7015 1.33334 15.3333 1.33334C14.9651 1.33334 14.6666 1.63182 14.6666 2.00001C14.6666 2.3682 14.9651 2.66668 15.3333 2.66668Z" fill="#3E721D"/>
<path d="M13.9999 6.66668C14.3681 6.66668 14.6666 6.3682 14.6666 6.00001C14.6666 5.63182 14.3681 5.33334 13.9999 5.33334C13.6317 5.33334 13.3333 5.63182 13.3333 6.00001C13.3333 6.3682 13.6317 6.66668 13.9999 6.66668Z" fill="#3E721D"/>
<path d="M9.33329 11.3333C9.70148 11.3333 9.99996 11.0349 9.99996 10.6667C9.99996 10.2985 9.70148 10 9.33329 10C8.9651 10 8.66663 10.2985 8.66663 10.6667C8.66663 11.0349 8.9651 11.3333 9.33329 11.3333Z" fill="#3E721D"/>
<path d="M13.3333 14C13.7015 14 14 13.7015 14 13.3333C14 12.9651 13.7015 12.6667 13.3333 12.6667C12.9651 12.6667 12.6666 12.9651 12.6666 13.3333C12.6666 13.7015 12.9651 14 13.3333 14Z" fill="#3E721D"/>
<path d="M8.66667 18C9.03486 18 9.33333 17.7015 9.33333 17.3333C9.33333 16.9651 9.03486 16.6667 8.66667 16.6667C8.29848 16.6667 8 16.9651 8 17.3333C8 17.7015 8.29848 18 8.66667 18Z" fill="#3E721D"/>
<path d="M3.33329 18.6667C3.70148 18.6667 3.99996 18.3682 3.99996 18C3.99996 17.6318 3.70148 17.3333 3.33329 17.3333C2.9651 17.3333 2.66663 17.6318 2.66663 18C2.66663 18.3682 2.9651 18.6667 3.33329 18.6667Z" fill="#3E721D"/>
<path d="M5.99992 14C6.36811 14 6.66659 13.7015 6.66659 13.3333C6.66659 12.9651 6.36811 12.6667 5.99992 12.6667C5.63173 12.6667 5.33325 12.9651 5.33325 13.3333C5.33325 13.7015 5.63173 14 5.99992 14Z" fill="#3E721D"/>
<path d="M1.33329 12.6667C1.70148 12.6667 1.99996 12.3682 1.99996 12C1.99996 11.6318 1.70148 11.3333 1.33329 11.3333C0.965103 11.3333 0.666626 11.6318 0.666626 12C0.666626 12.3682 0.965103 12.6667 1.33329 12.6667Z" fill="#3E721D"/>
<path d="M22.6667 6.00002C23.0349 6.00002 23.3333 5.70154 23.3333 5.33335C23.3333 4.96516 23.0349 4.66669 22.6667 4.66669C22.2985 4.66669 22 4.96516 22 5.33335C22 5.70154 22.2985 6.00002 22.6667 6.00002Z" fill="#3E721D"/>
<path d="M18.6667 8.00002C19.0349 8.00002 19.3333 7.70154 19.3333 7.33335C19.3333 6.96516 19.0349 6.66669 18.6667 6.66669C18.2985 6.66669 18 6.96516 18 7.33335C18 7.70154 18.2985 8.00002 18.6667 8.00002Z" fill="#3E721D"/>
<path d="M21.3333 11.3333C21.7015 11.3333 22 11.0349 22 10.6667C22 10.2985 21.7015 10 21.3333 10C20.9651 10 20.6666 10.2985 20.6666 10.6667C20.6666 11.0349 20.9651 11.3333 21.3333 11.3333Z" fill="#3E721D"/>
<path d="M19.3333 16.6667C19.7015 16.6667 20 16.3682 20 16C20 15.6318 19.7015 15.3333 19.3333 15.3333C18.9651 15.3333 18.6666 15.6318 18.6666 16C18.6666 16.3682 18.9651 16.6667 19.3333 16.6667Z" fill="#3E721D"/>
<path d="M14.6667 20.6667C15.0349 20.6667 15.3333 20.3682 15.3333 20C15.3333 19.6318 15.0349 19.3333 14.6667 19.3333C14.2985 19.3333 14 19.6318 14 20C14 20.3682 14.2985 20.6667 14.6667 20.6667Z" fill="#3E721D"/>
</g>
<defs>
<clipPath id="clip0_431_72">
<rect width="24" height="24" fill="white"/>
</clipPath>
</defs>
</svg>
