<svg width="24" height="24" viewBox="0 0 24 24" fill="none" xmlns="http://www.w3.org/2000/svg">
<path d="M6.84527 10.2105V7.48801H4.32527C3.95027 7.48801 3.65027 7.78801 3.65027 8.16301V9.78301C3.65027 10.3155 3.87527 10.788 4.23527 11.1255C4.34027 11.223 4.40027 11.3655 4.40027 11.508V12.018C4.40027 13.2405 5.39777 14.238 6.62027 14.238H7.64027V10.2105H6.84527Z" fill="url(#paint0_linear_431_124)"/>
<path d="M6.84527 10.2105V7.48801H4.32527C3.95027 7.48801 3.65027 7.78801 3.65027 8.16301V9.78301C3.65027 10.3155 3.87527 10.788 4.23527 11.1255C4.34027 11.223 4.40027 11.3655 4.40027 11.508V12.018C4.40027 13.2405 5.39777 14.238 6.62027 14.238H7.64027V10.2105H6.84527Z" fill="url(#paint1_radial_431_124)"/>
<path d="M6.84527 10.2105V7.48801H4.32527C3.95027 7.48801 3.65027 7.78801 3.65027 8.16301V9.78301C3.65027 10.3155 3.87527 10.788 4.23527 11.1255C4.34027 11.223 4.40027 11.3655 4.40027 11.508V12.018C4.40027 13.2405 5.39777 14.238 6.62027 14.238H7.64027V10.2105H6.84527Z" fill="url(#paint2_radial_431_124)"/>
<path d="M6.84527 10.2105V7.48801H4.32527C3.95027 7.48801 3.65027 7.78801 3.65027 8.16301V9.78301C3.65027 10.3155 3.87527 10.788 4.23527 11.1255C4.34027 11.223 4.40027 11.3655 4.40027 11.508V12.018C4.40027 13.2405 5.39777 14.238 6.62027 14.238H7.64027V10.2105H6.84527Z" fill="url(#paint3_linear_431_124)"/>
<path d="M16.8802 14.4405H18.6502C18.8002 14.4405 18.9127 14.583 18.8827 14.7255L17.2252 22.1955C17.1802 22.368 17.0227 22.488 16.8502 22.488H15.1927C15.1576 22.4875 15.1231 22.4794 15.0915 22.4641C15.06 22.4489 15.0321 22.4269 15.01 22.3997C14.9878 22.3726 14.9719 22.3409 14.9633 22.3069C14.9547 22.2729 14.9536 22.2374 14.9602 22.203L16.6477 14.628C16.6702 14.5155 16.7677 14.4405 16.8802 14.4405Z" fill="url(#paint4_radial_431_124)"/>
<path d="M16.8802 14.4405H18.6502C18.8002 14.4405 18.9127 14.583 18.8827 14.7255L17.2252 22.1955C17.1802 22.368 17.0227 22.488 16.8502 22.488H15.1927C15.1576 22.4875 15.1231 22.4794 15.0915 22.4641C15.06 22.4489 15.0321 22.4269 15.01 22.3997C14.9878 22.3726 14.9719 22.3409 14.9633 22.3069C14.9547 22.2729 14.9536 22.2374 14.9602 22.203L16.6477 14.628C16.6702 14.5155 16.7677 14.4405 16.8802 14.4405Z" fill="url(#paint5_linear_431_124)"/>
<path d="M16.8802 14.4405H18.6502C18.8002 14.4405 18.9127 14.583 18.8827 14.7255L17.2252 22.1955C17.1802 22.368 17.0227 22.488 16.8502 22.488H15.1927C15.1576 22.4875 15.1231 22.4794 15.0915 22.4641C15.06 22.4489 15.0321 22.4269 15.01 22.3997C14.9878 22.3726 14.9719 22.3409 14.9633 22.3069C14.9547 22.2729 14.9536 22.2374 14.9602 22.203L16.6477 14.628C16.6702 14.5155 16.7677 14.4405 16.8802 14.4405Z" fill="url(#paint6_linear_431_124)"/>
<path d="M16.8802 14.4405H18.6502C18.8002 14.4405 18.9127 14.583 18.8827 14.7255L17.2252 22.1955C17.1802 22.368 17.0227 22.488 16.8502 22.488H15.1927C15.1576 22.4875 15.1231 22.4794 15.0915 22.4641C15.06 22.4489 15.0321 22.4269 15.01 22.3997C14.9878 22.3726 14.9719 22.3409 14.9633 22.3069C14.9547 22.2729 14.9536 22.2374 14.9602 22.203L16.6477 14.628C16.6702 14.5155 16.7677 14.4405 16.8802 14.4405Z" fill="url(#paint7_linear_431_124)"/>
<path d="M12.1553 13.488H9.90527L11.8328 22.1955C11.8703 22.368 12.0278 22.488 12.2003 22.488H13.8578C14.0078 22.488 14.1203 22.353 14.0903 22.203L12.1553 13.488Z" fill="url(#paint8_radial_431_124)"/>
<path d="M12.1553 13.488H9.90527L11.8328 22.1955C11.8703 22.368 12.0278 22.488 12.2003 22.488H13.8578C14.0078 22.488 14.1203 22.353 14.0903 22.203L12.1553 13.488Z" fill="url(#paint9_linear_431_124)"/>
<path d="M12.1553 13.488H9.90527L11.8328 22.1955C11.8703 22.368 12.0278 22.488 12.2003 22.488H13.8578C14.0078 22.488 14.1203 22.353 14.0903 22.203L12.1553 13.488Z" fill="url(#paint10_linear_431_124)"/>
<path d="M12.1553 13.488H9.90527L11.8328 22.1955C11.8703 22.368 12.0278 22.488 12.2003 22.488H13.8578C14.0078 22.488 14.1203 22.353 14.0903 22.203L12.1553 13.488Z" fill="url(#paint11_linear_431_124)"/>
<path d="M6.04277 2.268L8.15027 2.688V4.233L4.40027 4.2105V3.6105C4.40074 3.40763 4.44617 3.20739 4.53331 3.02419C4.62044 2.84099 4.7471 2.67938 4.90417 2.55099C5.06125 2.42261 5.24483 2.33064 5.44171 2.2817C5.63859 2.23277 5.84387 2.22809 6.04277 2.268Z" fill="url(#paint12_radial_431_124)"/>
<path d="M6.04277 2.268L8.15027 2.688V4.233L4.40027 4.2105V3.6105C4.40074 3.40763 4.44617 3.20739 4.53331 3.02419C4.62044 2.84099 4.7471 2.67938 4.90417 2.55099C5.06125 2.42261 5.24483 2.33064 5.44171 2.2817C5.63859 2.23277 5.84387 2.22809 6.04277 2.268Z" fill="url(#paint13_radial_431_124)"/>
<path d="M6.04277 2.268L8.15027 2.688V4.233L4.40027 4.2105V3.6105C4.40074 3.40763 4.44617 3.20739 4.53331 3.02419C4.62044 2.84099 4.7471 2.67938 4.90417 2.55099C5.06125 2.42261 5.24483 2.33064 5.44171 2.2817C5.63859 2.23277 5.84387 2.22809 6.04277 2.268Z" fill="url(#paint14_radial_431_124)"/>
<path d="M6.04277 2.268L8.15027 2.688V4.233L4.40027 4.2105V3.6105C4.40074 3.40763 4.44617 3.20739 4.53331 3.02419C4.62044 2.84099 4.7471 2.67938 4.90417 2.55099C5.06125 2.42261 5.24483 2.33064 5.44171 2.2817C5.63859 2.23277 5.84387 2.22809 6.04277 2.268Z" fill="url(#paint15_linear_431_124)"/>
<path d="M22.41 10.8555L20.16 7.83301L19.3275 6.67051C19.1756 6.45823 18.9752 6.28525 18.743 6.16592C18.5108 6.04658 18.2535 5.98433 17.9925 5.98433C17.7315 5.98433 17.4742 6.04658 17.242 6.16592C17.0098 6.28525 16.8094 6.45823 16.6575 6.67051L15.75 7.94551C15.5625 8.20801 15.1725 8.20801 14.985 7.94551L14.0775 6.67051C13.9256 6.45823 13.7252 6.28525 13.493 6.16592C13.2608 6.04658 13.0035 5.98433 12.7425 5.98433C12.4815 5.98433 12.2242 6.04658 11.992 6.16592C11.7598 6.28525 11.5594 6.45823 11.4075 6.67051L9.705 9.04801C9.495 9.36301 9.0075 9.21301 9 8.83801V1.69051C9 1.57801 8.9025 1.48801 8.79 1.48801C8.0775 1.48801 7.5 2.44051 7.5 3.16051C7.5 3.27301 7.4025 3.36301 7.29 3.36301H4.1325C2.6775 3.36301 1.5 4.54051 1.5 5.99551V6.64801C1.5 7.11301 1.875 7.48801 2.34 7.48801H4.545C4.935 7.48051 5.25 7.79551 5.25 8.18551V9.97051C5.25 11.973 6.3525 13.728 7.98 14.658C8.145 14.7555 8.25 14.928 8.25 15.123V22.1055C8.25 22.3155 8.415 22.488 8.625 22.488H10.125C10.335 22.488 10.5 22.323 10.5 22.113V15.9255C10.5 15.8758 10.5198 15.8281 10.5549 15.7929C10.5901 15.7578 10.6378 15.738 10.6875 15.738H16.5C17.0168 15.738 17.5035 15.633 17.9512 15.4485C18.0412 15.411 18.1455 15.4635 18.1665 15.5595C18.2963 16.152 18.4935 16.7258 18.765 17.268L19.4025 18.5505C19.47 18.6705 19.5 18.813 19.5 18.948V22.0605C19.5 22.293 19.6875 22.488 19.9275 22.488H21.375C21.585 22.488 21.75 22.323 21.75 22.113L21.7425 11.4555C22.02 11.688 22.5 11.5155 22.5 11.1255C22.5 11.028 22.47 10.9305 22.41 10.8555Z" fill="url(#paint16_linear_431_124)"/>
<path d="M22.41 10.8555L20.16 7.83301L19.3275 6.67051C19.1756 6.45823 18.9752 6.28525 18.743 6.16592C18.5108 6.04658 18.2535 5.98433 17.9925 5.98433C17.7315 5.98433 17.4742 6.04658 17.242 6.16592C17.0098 6.28525 16.8094 6.45823 16.6575 6.67051L15.75 7.94551C15.5625 8.20801 15.1725 8.20801 14.985 7.94551L14.0775 6.67051C13.9256 6.45823 13.7252 6.28525 13.493 6.16592C13.2608 6.04658 13.0035 5.98433 12.7425 5.98433C12.4815 5.98433 12.2242 6.04658 11.992 6.16592C11.7598 6.28525 11.5594 6.45823 11.4075 6.67051L9.705 9.04801C9.495 9.36301 9.0075 9.21301 9 8.83801V1.69051C9 1.57801 8.9025 1.48801 8.79 1.48801C8.0775 1.48801 7.5 2.44051 7.5 3.16051C7.5 3.27301 7.4025 3.36301 7.29 3.36301H4.1325C2.6775 3.36301 1.5 4.54051 1.5 5.99551V6.64801C1.5 7.11301 1.875 7.48801 2.34 7.48801H4.545C4.935 7.48051 5.25 7.79551 5.25 8.18551V9.97051C5.25 11.973 6.3525 13.728 7.98 14.658C8.145 14.7555 8.25 14.928 8.25 15.123V22.1055C8.25 22.3155 8.415 22.488 8.625 22.488H10.125C10.335 22.488 10.5 22.323 10.5 22.113V15.9255C10.5 15.8758 10.5198 15.8281 10.5549 15.7929C10.5901 15.7578 10.6378 15.738 10.6875 15.738H16.5C17.0168 15.738 17.5035 15.633 17.9512 15.4485C18.0412 15.411 18.1455 15.4635 18.1665 15.5595C18.2963 16.152 18.4935 16.7258 18.765 17.268L19.4025 18.5505C19.47 18.6705 19.5 18.813 19.5 18.948V22.0605C19.5 22.293 19.6875 22.488 19.9275 22.488H21.375C21.585 22.488 21.75 22.323 21.75 22.113L21.7425 11.4555C22.02 11.688 22.5 11.5155 22.5 11.1255C22.5 11.028 22.47 10.9305 22.41 10.8555Z" fill="url(#paint17_radial_431_124)"/>
<path d="M22.41 10.8555L20.16 7.83301L19.3275 6.67051C19.1756 6.45823 18.9752 6.28525 18.743 6.16592C18.5108 6.04658 18.2535 5.98433 17.9925 5.98433C17.7315 5.98433 17.4742 6.04658 17.242 6.16592C17.0098 6.28525 16.8094 6.45823 16.6575 6.67051L15.75 7.94551C15.5625 8.20801 15.1725 8.20801 14.985 7.94551L14.0775 6.67051C13.9256 6.45823 13.7252 6.28525 13.493 6.16592C13.2608 6.04658 13.0035 5.98433 12.7425 5.98433C12.4815 5.98433 12.2242 6.04658 11.992 6.16592C11.7598 6.28525 11.5594 6.45823 11.4075 6.67051L9.705 9.04801C9.495 9.36301 9.0075 9.21301 9 8.83801V1.69051C9 1.57801 8.9025 1.48801 8.79 1.48801C8.0775 1.48801 7.5 2.44051 7.5 3.16051C7.5 3.27301 7.4025 3.36301 7.29 3.36301H4.1325C2.6775 3.36301 1.5 4.54051 1.5 5.99551V6.64801C1.5 7.11301 1.875 7.48801 2.34 7.48801H4.545C4.935 7.48051 5.25 7.79551 5.25 8.18551V9.97051C5.25 11.973 6.3525 13.728 7.98 14.658C8.145 14.7555 8.25 14.928 8.25 15.123V22.1055C8.25 22.3155 8.415 22.488 8.625 22.488H10.125C10.335 22.488 10.5 22.323 10.5 22.113V15.9255C10.5 15.8758 10.5198 15.8281 10.5549 15.7929C10.5901 15.7578 10.6378 15.738 10.6875 15.738H16.5C17.0168 15.738 17.5035 15.633 17.9512 15.4485C18.0412 15.411 18.1455 15.4635 18.1665 15.5595C18.2963 16.152 18.4935 16.7258 18.765 17.268L19.4025 18.5505C19.47 18.6705 19.5 18.813 19.5 18.948V22.0605C19.5 22.293 19.6875 22.488 19.9275 22.488H21.375C21.585 22.488 21.75 22.323 21.75 22.113L21.7425 11.4555C22.02 11.688 22.5 11.5155 22.5 11.1255C22.5 11.028 22.47 10.9305 22.41 10.8555Z" fill="url(#paint18_radial_431_124)"/>
<path d="M22.41 10.8555L20.16 7.83301L19.3275 6.67051C19.1756 6.45823 18.9752 6.28525 18.743 6.16592C18.5108 6.04658 18.2535 5.98433 17.9925 5.98433C17.7315 5.98433 17.4742 6.04658 17.242 6.16592C17.0098 6.28525 16.8094 6.45823 16.6575 6.67051L15.75 7.94551C15.5625 8.20801 15.1725 8.20801 14.985 7.94551L14.0775 6.67051C13.9256 6.45823 13.7252 6.28525 13.493 6.16592C13.2608 6.04658 13.0035 5.98433 12.7425 5.98433C12.4815 5.98433 12.2242 6.04658 11.992 6.16592C11.7598 6.28525 11.5594 6.45823 11.4075 6.67051L9.705 9.04801C9.495 9.36301 9.0075 9.21301 9 8.83801V1.69051C9 1.57801 8.9025 1.48801 8.79 1.48801C8.0775 1.48801 7.5 2.44051 7.5 3.16051C7.5 3.27301 7.4025 3.36301 7.29 3.36301H4.1325C2.6775 3.36301 1.5 4.54051 1.5 5.99551V6.64801C1.5 7.11301 1.875 7.48801 2.34 7.48801H4.545C4.935 7.48051 5.25 7.79551 5.25 8.18551V9.97051C5.25 11.973 6.3525 13.728 7.98 14.658C8.145 14.7555 8.25 14.928 8.25 15.123V22.1055C8.25 22.3155 8.415 22.488 8.625 22.488H10.125C10.335 22.488 10.5 22.323 10.5 22.113V15.9255C10.5 15.8758 10.5198 15.8281 10.5549 15.7929C10.5901 15.7578 10.6378 15.738 10.6875 15.738H16.5C17.0168 15.738 17.5035 15.633 17.9512 15.4485C18.0412 15.411 18.1455 15.4635 18.1665 15.5595C18.2963 16.152 18.4935 16.7258 18.765 17.268L19.4025 18.5505C19.47 18.6705 19.5 18.813 19.5 18.948V22.0605C19.5 22.293 19.6875 22.488 19.9275 22.488H21.375C21.585 22.488 21.75 22.323 21.75 22.113L21.7425 11.4555C22.02 11.688 22.5 11.5155 22.5 11.1255C22.5 11.028 22.47 10.9305 22.41 10.8555Z" fill="url(#paint19_radial_431_124)"/>
<path d="M22.41 10.8555L20.16 7.83301L19.3275 6.67051C19.1756 6.45823 18.9752 6.28525 18.743 6.16592C18.5108 6.04658 18.2535 5.98433 17.9925 5.98433C17.7315 5.98433 17.4742 6.04658 17.242 6.16592C17.0098 6.28525 16.8094 6.45823 16.6575 6.67051L15.75 7.94551C15.5625 8.20801 15.1725 8.20801 14.985 7.94551L14.0775 6.67051C13.9256 6.45823 13.7252 6.28525 13.493 6.16592C13.2608 6.04658 13.0035 5.98433 12.7425 5.98433C12.4815 5.98433 12.2242 6.04658 11.992 6.16592C11.7598 6.28525 11.5594 6.45823 11.4075 6.67051L9.705 9.04801C9.495 9.36301 9.0075 9.21301 9 8.83801V1.69051C9 1.57801 8.9025 1.48801 8.79 1.48801C8.0775 1.48801 7.5 2.44051 7.5 3.16051C7.5 3.27301 7.4025 3.36301 7.29 3.36301H4.1325C2.6775 3.36301 1.5 4.54051 1.5 5.99551V6.64801C1.5 7.11301 1.875 7.48801 2.34 7.48801H4.545C4.935 7.48051 5.25 7.79551 5.25 8.18551V9.97051C5.25 11.973 6.3525 13.728 7.98 14.658C8.145 14.7555 8.25 14.928 8.25 15.123V22.1055C8.25 22.3155 8.415 22.488 8.625 22.488H10.125C10.335 22.488 10.5 22.323 10.5 22.113V15.9255C10.5 15.8758 10.5198 15.8281 10.5549 15.7929C10.5901 15.7578 10.6378 15.738 10.6875 15.738H16.5C17.0168 15.738 17.5035 15.633 17.9512 15.4485C18.0412 15.411 18.1455 15.4635 18.1665 15.5595C18.2963 16.152 18.4935 16.7258 18.765 17.268L19.4025 18.5505C19.47 18.6705 19.5 18.813 19.5 18.948V22.0605C19.5 22.293 19.6875 22.488 19.9275 22.488H21.375C21.585 22.488 21.75 22.323 21.75 22.113L21.7425 11.4555C22.02 11.688 22.5 11.5155 22.5 11.1255C22.5 11.028 22.47 10.9305 22.41 10.8555Z" fill="url(#paint20_radial_431_124)"/>
<path d="M22.41 10.8555L20.16 7.83301L19.3275 6.67051C19.1756 6.45823 18.9752 6.28525 18.743 6.16592C18.5108 6.04658 18.2535 5.98433 17.9925 5.98433C17.7315 5.98433 17.4742 6.04658 17.242 6.16592C17.0098 6.28525 16.8094 6.45823 16.6575 6.67051L15.75 7.94551C15.5625 8.20801 15.1725 8.20801 14.985 7.94551L14.0775 6.67051C13.9256 6.45823 13.7252 6.28525 13.493 6.16592C13.2608 6.04658 13.0035 5.98433 12.7425 5.98433C12.4815 5.98433 12.2242 6.04658 11.992 6.16592C11.7598 6.28525 11.5594 6.45823 11.4075 6.67051L9.705 9.04801C9.495 9.36301 9.0075 9.21301 9 8.83801V1.69051C9 1.57801 8.9025 1.48801 8.79 1.48801C8.0775 1.48801 7.5 2.44051 7.5 3.16051C7.5 3.27301 7.4025 3.36301 7.29 3.36301H4.1325C2.6775 3.36301 1.5 4.54051 1.5 5.99551V6.64801C1.5 7.11301 1.875 7.48801 2.34 7.48801H4.545C4.935 7.48051 5.25 7.79551 5.25 8.18551V9.97051C5.25 11.973 6.3525 13.728 7.98 14.658C8.145 14.7555 8.25 14.928 8.25 15.123V22.1055C8.25 22.3155 8.415 22.488 8.625 22.488H10.125C10.335 22.488 10.5 22.323 10.5 22.113V15.9255C10.5 15.8758 10.5198 15.8281 10.5549 15.7929C10.5901 15.7578 10.6378 15.738 10.6875 15.738H16.5C17.0168 15.738 17.5035 15.633 17.9512 15.4485C18.0412 15.411 18.1455 15.4635 18.1665 15.5595C18.2963 16.152 18.4935 16.7258 18.765 17.268L19.4025 18.5505C19.47 18.6705 19.5 18.813 19.5 18.948V22.0605C19.5 22.293 19.6875 22.488 19.9275 22.488H21.375C21.585 22.488 21.75 22.323 21.75 22.113L21.7425 11.4555C22.02 11.688 22.5 11.5155 22.5 11.1255C22.5 11.028 22.47 10.9305 22.41 10.8555Z" fill="url(#paint21_radial_431_124)"/>
<path d="M22.41 10.8555L20.16 7.83301L19.3275 6.67051C19.1756 6.45823 18.9752 6.28525 18.743 6.16592C18.5108 6.04658 18.2535 5.98433 17.9925 5.98433C17.7315 5.98433 17.4742 6.04658 17.242 6.16592C17.0098 6.28525 16.8094 6.45823 16.6575 6.67051L15.75 7.94551C15.5625 8.20801 15.1725 8.20801 14.985 7.94551L14.0775 6.67051C13.9256 6.45823 13.7252 6.28525 13.493 6.16592C13.2608 6.04658 13.0035 5.98433 12.7425 5.98433C12.4815 5.98433 12.2242 6.04658 11.992 6.16592C11.7598 6.28525 11.5594 6.45823 11.4075 6.67051L9.705 9.04801C9.495 9.36301 9.0075 9.21301 9 8.83801V1.69051C9 1.57801 8.9025 1.48801 8.79 1.48801C8.0775 1.48801 7.5 2.44051 7.5 3.16051C7.5 3.27301 7.4025 3.36301 7.29 3.36301H4.1325C2.6775 3.36301 1.5 4.54051 1.5 5.99551V6.64801C1.5 7.11301 1.875 7.48801 2.34 7.48801H4.545C4.935 7.48051 5.25 7.79551 5.25 8.18551V9.97051C5.25 11.973 6.3525 13.728 7.98 14.658C8.145 14.7555 8.25 14.928 8.25 15.123V22.1055C8.25 22.3155 8.415 22.488 8.625 22.488H10.125C10.335 22.488 10.5 22.323 10.5 22.113V15.9255C10.5 15.8758 10.5198 15.8281 10.5549 15.7929C10.5901 15.7578 10.6378 15.738 10.6875 15.738H16.5C17.0168 15.738 17.5035 15.633 17.9512 15.4485C18.0412 15.411 18.1455 15.4635 18.1665 15.5595C18.2963 16.152 18.4935 16.7258 18.765 17.268L19.4025 18.5505C19.47 18.6705 19.5 18.813 19.5 18.948V22.0605C19.5 22.293 19.6875 22.488 19.9275 22.488H21.375C21.585 22.488 21.75 22.323 21.75 22.113L21.7425 11.4555C22.02 11.688 22.5 11.5155 22.5 11.1255C22.5 11.028 22.47 10.9305 22.41 10.8555Z" fill="url(#paint22_radial_431_124)"/>
<path d="M22.41 10.8555L20.16 7.83301L19.3275 6.67051C19.1756 6.45823 18.9752 6.28525 18.743 6.16592C18.5108 6.04658 18.2535 5.98433 17.9925 5.98433C17.7315 5.98433 17.4742 6.04658 17.242 6.16592C17.0098 6.28525 16.8094 6.45823 16.6575 6.67051L15.75 7.94551C15.5625 8.20801 15.1725 8.20801 14.985 7.94551L14.0775 6.67051C13.9256 6.45823 13.7252 6.28525 13.493 6.16592C13.2608 6.04658 13.0035 5.98433 12.7425 5.98433C12.4815 5.98433 12.2242 6.04658 11.992 6.16592C11.7598 6.28525 11.5594 6.45823 11.4075 6.67051L9.705 9.04801C9.495 9.36301 9.0075 9.21301 9 8.83801V1.69051C9 1.57801 8.9025 1.48801 8.79 1.48801C8.0775 1.48801 7.5 2.44051 7.5 3.16051C7.5 3.27301 7.4025 3.36301 7.29 3.36301H4.1325C2.6775 3.36301 1.5 4.54051 1.5 5.99551V6.64801C1.5 7.11301 1.875 7.48801 2.34 7.48801H4.545C4.935 7.48051 5.25 7.79551 5.25 8.18551V9.97051C5.25 11.973 6.3525 13.728 7.98 14.658C8.145 14.7555 8.25 14.928 8.25 15.123V22.1055C8.25 22.3155 8.415 22.488 8.625 22.488H10.125C10.335 22.488 10.5 22.323 10.5 22.113V15.9255C10.5 15.8758 10.5198 15.8281 10.5549 15.7929C10.5901 15.7578 10.6378 15.738 10.6875 15.738H16.5C17.0168 15.738 17.5035 15.633 17.9512 15.4485C18.0412 15.411 18.1455 15.4635 18.1665 15.5595C18.2963 16.152 18.4935 16.7258 18.765 17.268L19.4025 18.5505C19.47 18.6705 19.5 18.813 19.5 18.948V22.0605C19.5 22.293 19.6875 22.488 19.9275 22.488H21.375C21.585 22.488 21.75 22.323 21.75 22.113L21.7425 11.4555C22.02 11.688 22.5 11.5155 22.5 11.1255C22.5 11.028 22.47 10.9305 22.41 10.8555Z" fill="url(#paint23_radial_431_124)"/>
<path d="M5.52527 5.853C5.31527 5.853 5.15027 5.688 5.15027 5.478V4.8255C5.15027 4.6155 5.31527 4.4505 5.52527 4.4505C5.73527 4.4505 5.90027 4.6155 5.90027 4.8255V5.4855C5.90027 5.688 5.73527 5.853 5.52527 5.853Z" fill="url(#paint24_linear_431_124)"/>
<path d="M5.52527 5.853C5.31527 5.853 5.15027 5.688 5.15027 5.478V4.8255C5.15027 4.6155 5.31527 4.4505 5.52527 4.4505C5.73527 4.4505 5.90027 4.6155 5.90027 4.8255V5.4855C5.90027 5.688 5.73527 5.853 5.52527 5.853Z" fill="url(#paint25_linear_431_124)"/>
<path d="M5.52527 5.853C5.31527 5.853 5.15027 5.688 5.15027 5.478V4.8255C5.15027 4.6155 5.31527 4.4505 5.52527 4.4505C5.73527 4.4505 5.90027 4.6155 5.90027 4.8255V5.4855C5.90027 5.688 5.73527 5.853 5.52527 5.853Z" fill="url(#paint26_linear_431_124)"/>
<path d="M2.52527 6.73802C2.31527 6.73802 2.15027 6.57302 2.15027 6.36302V6.03302C2.15027 5.82302 2.31527 5.65802 2.52527 5.65802C2.73527 5.65802 2.90027 5.82302 2.90027 6.03302V6.36302C2.90027 6.57302 2.73527 6.73802 2.52527 6.73802Z" fill="url(#paint27_radial_431_124)"/>
<path d="M8.25528 15.1553C8.25528 14.7803 8.01828 14.7157 7.72278 14.496C7.72278 13.6057 8.44278 12 9.40428 12C10.3643 12 10.5053 13.4768 10.5053 14.0857V22.113C10.5053 22.323 10.3403 22.488 10.1303 22.488H8.63028C8.42028 22.488 8.25528 22.323 8.25528 22.113V15.1553Z" fill="url(#paint28_linear_431_124)"/>
<path d="M8.25528 15.1553C8.25528 14.7803 8.01828 14.7157 7.72278 14.496C7.72278 13.6057 8.44278 12 9.40428 12C10.3643 12 10.5053 13.4768 10.5053 14.0857V22.113C10.5053 22.323 10.3403 22.488 10.1303 22.488H8.63028C8.42028 22.488 8.25528 22.323 8.25528 22.113V15.1553Z" fill="url(#paint29_linear_431_124)"/>
<path d="M21.7425 22.191V11.1098C20.4532 11.1098 18.12 12.9608 18.12 15.441L18.129 15.4875C18.1478 15.5077 18.1607 15.5326 18.1665 15.5595C18.2962 16.152 18.4935 16.7258 18.765 17.268L19.4025 18.5505C19.47 18.6705 19.5 18.813 19.5 18.948V22.0605C19.5 22.293 19.6875 22.488 19.9275 22.488H21.375C21.4612 22.489 21.5451 22.4599 21.6122 22.4057C21.6793 22.3515 21.7254 22.2755 21.7425 22.191Z" fill="url(#paint30_radial_431_124)"/>
<path d="M21.7425 22.191V11.1098C20.4532 11.1098 18.12 12.9608 18.12 15.441L18.129 15.4875C18.1478 15.5077 18.1607 15.5326 18.1665 15.5595C18.2962 16.152 18.4935 16.7258 18.765 17.268L19.4025 18.5505C19.47 18.6705 19.5 18.813 19.5 18.948V22.0605C19.5 22.293 19.6875 22.488 19.9275 22.488H21.375C21.4612 22.489 21.5451 22.4599 21.6122 22.4057C21.6793 22.3515 21.7254 22.2755 21.7425 22.191Z" fill="url(#paint31_linear_431_124)"/>
<g filter="url(#filter0_f_431_124)">
<path d="M15.4463 12.2805L12.4628 6.198C12.9983 6.198 13.5023 6.44925 13.8255 6.87675L15.4455 9.02325L15.4463 12.2805Z" fill="url(#paint32_linear_431_124)"/>
</g>
<g filter="url(#filter1_f_431_124)">
<path d="M18.3149 6.92625V11.9573L21.3622 15.3683V10.473L18.6532 6.8145C18.6296 6.78302 18.5967 6.75976 18.5591 6.74803C18.5215 6.7363 18.4812 6.73668 18.4439 6.74912C18.4066 6.76157 18.3741 6.78544 18.3511 6.81737C18.3281 6.84929 18.3157 6.88765 18.3157 6.927L18.3149 6.92625Z" fill="url(#paint33_radial_431_124)"/>
</g>
<path fill-rule="evenodd" clip-rule="evenodd" d="M18.1695 15.5745V11.1098H10.5052V15.8798C10.5155 15.8392 10.5389 15.8032 10.572 15.7775C10.605 15.7518 10.6457 15.7379 10.6875 15.738H16.5C17.0167 15.738 17.5035 15.633 17.9512 15.4485C17.9737 15.4391 17.9981 15.4349 18.0225 15.4365C18.0468 15.438 18.0705 15.4452 18.0916 15.4574C18.1128 15.4696 18.1308 15.4865 18.1443 15.5068C18.1578 15.5271 18.1664 15.5503 18.1695 15.5745Z" fill="url(#paint34_radial_431_124)"/>
<path fill-rule="evenodd" clip-rule="evenodd" d="M18.1695 15.5745V11.1098H10.5052V15.8798C10.5155 15.8392 10.5389 15.8032 10.572 15.7775C10.605 15.7518 10.6457 15.7379 10.6875 15.738H16.5C17.0167 15.738 17.5035 15.633 17.9512 15.4485C17.9737 15.4391 17.9981 15.4349 18.0225 15.4365C18.0468 15.438 18.0705 15.4452 18.0916 15.4574C18.1128 15.4696 18.1308 15.4865 18.1443 15.5068C18.1578 15.5271 18.1664 15.5503 18.1695 15.5745Z" fill="url(#paint35_radial_431_124)"/>
<path fill-rule="evenodd" clip-rule="evenodd" d="M18.1695 15.5745V11.1098H10.5052V15.8798C10.5155 15.8392 10.5389 15.8032 10.572 15.7775C10.605 15.7518 10.6457 15.7379 10.6875 15.738H16.5C17.0167 15.738 17.5035 15.633 17.9512 15.4485C17.9737 15.4391 17.9981 15.4349 18.0225 15.4365C18.0468 15.438 18.0705 15.4452 18.0916 15.4574C18.1128 15.4696 18.1308 15.4865 18.1443 15.5068C18.1578 15.5271 18.1664 15.5503 18.1695 15.5745Z" fill="url(#paint36_radial_431_124)"/>
<g filter="url(#filter2_f_431_124)">
<path d="M8.76001 8.871V1.91025C8.12251 2.304 7.99351 6.71475 8.01001 8.871H8.76001Z" fill="url(#paint37_linear_431_124)"/>
</g>
<g filter="url(#filter3_f_431_124)">
<path d="M8.15028 5.39102H8.14953C7.86496 5.39102 7.63428 5.62171 7.63428 5.90627V9.34052C7.63428 9.62509 7.86496 9.85577 8.14953 9.85577H8.15028C8.43484 9.85577 8.66553 9.62509 8.66553 9.34052V5.90627C8.66553 5.62171 8.43484 5.39102 8.15028 5.39102Z" fill="url(#paint38_linear_431_124)"/>
</g>
<g filter="url(#filter4_f_431_124)">
<path d="M9.53027 13.9103H10.0253V21.7388H9.53027V13.9103Z" fill="#FEB98C"/>
</g>
<g filter="url(#filter5_f_431_124)">
<path d="M20.7772 11.3932H21.2722V21.8887H20.7772V11.3932Z" fill="url(#paint39_linear_431_124)"/>
</g>
<g filter="url(#filter6_f_431_124)">
<path d="M11.6422 15.855L13.119 21.9728" stroke="url(#paint40_linear_431_124)" stroke-width="0.5"/>
</g>
<g filter="url(#filter7_f_431_124)">
<path d="M17.478 15.855L16.002 21.9728" stroke="url(#paint41_linear_431_124)" stroke-width="0.5"/>
</g>
<g filter="url(#filter8_f_431_124)">
<path d="M10.0485 13.242C10.2007 13.539 10.506 14.3813 10.506 15.375" stroke="#FEB98C" stroke-width="0.3" stroke-linecap="round"/>
</g>
<defs>
<filter id="filter0_f_431_124" x="11.4628" y="5.198" width="4.98352" height="8.0825" filterUnits="userSpaceOnUse" color-interpolation-filters="sRGB">
<feFlood flood-opacity="0" result="BackgroundImageFix"/>
<feBlend mode="normal" in="SourceGraphic" in2="BackgroundImageFix" result="shape"/>
<feGaussianBlur stdDeviation="0.5" result="effect1_foregroundBlur_431_124"/>
</filter>
<filter id="filter1_f_431_124" x="17.0649" y="5.4895" width="5.54724" height="11.1288" filterUnits="userSpaceOnUse" color-interpolation-filters="sRGB">
<feFlood flood-opacity="0" result="BackgroundImageFix"/>
<feBlend mode="normal" in="SourceGraphic" in2="BackgroundImageFix" result="shape"/>
<feGaussianBlur stdDeviation="0.625" result="effect1_foregroundBlur_431_124"/>
</filter>
<filter id="filter2_f_431_124" x="7.50867" y="1.41025" width="1.75134" height="7.96075" filterUnits="userSpaceOnUse" color-interpolation-filters="sRGB">
<feFlood flood-opacity="0" result="BackgroundImageFix"/>
<feBlend mode="normal" in="SourceGraphic" in2="BackgroundImageFix" result="shape"/>
<feGaussianBlur stdDeviation="0.25" result="effect1_foregroundBlur_431_124"/>
</filter>
<filter id="filter3_f_431_124" x="6.63428" y="4.39102" width="3.03125" height="6.46475" filterUnits="userSpaceOnUse" color-interpolation-filters="sRGB">
<feFlood flood-opacity="0" result="BackgroundImageFix"/>
<feBlend mode="normal" in="SourceGraphic" in2="BackgroundImageFix" result="shape"/>
<feGaussianBlur stdDeviation="0.5" result="effect1_foregroundBlur_431_124"/>
</filter>
<filter id="filter4_f_431_124" x="8.53027" y="12.9103" width="2.495" height="9.82851" filterUnits="userSpaceOnUse" color-interpolation-filters="sRGB">
<feFlood flood-opacity="0" result="BackgroundImageFix"/>
<feBlend mode="normal" in="SourceGraphic" in2="BackgroundImageFix" result="shape"/>
<feGaussianBlur stdDeviation="0.5" result="effect1_foregroundBlur_431_124"/>
</filter>
<filter id="filter5_f_431_124" x="19.7772" y="10.3932" width="2.495" height="12.4955" filterUnits="userSpaceOnUse" color-interpolation-filters="sRGB">
<feFlood flood-opacity="0" result="BackgroundImageFix"/>
<feBlend mode="normal" in="SourceGraphic" in2="BackgroundImageFix" result="shape"/>
<feGaussianBlur stdDeviation="0.5" result="effect1_foregroundBlur_431_124"/>
</filter>
<filter id="filter6_f_431_124" x="10.6492" y="15.0464" width="3.46277" height="7.73506" filterUnits="userSpaceOnUse" color-interpolation-filters="sRGB">
<feFlood flood-opacity="0" result="BackgroundImageFix"/>
<feBlend mode="normal" in="SourceGraphic" in2="BackgroundImageFix" result="shape"/>
<feGaussianBlur stdDeviation="0.375" result="effect1_foregroundBlur_431_124"/>
</filter>
<filter id="filter7_f_431_124" x="15.0089" y="15.0464" width="3.46204" height="7.73503" filterUnits="userSpaceOnUse" color-interpolation-filters="sRGB">
<feFlood flood-opacity="0" result="BackgroundImageFix"/>
<feBlend mode="normal" in="SourceGraphic" in2="BackgroundImageFix" result="shape"/>
<feGaussianBlur stdDeviation="0.375" result="effect1_foregroundBlur_431_124"/>
</filter>
<filter id="filter8_f_431_124" x="9.14844" y="12.342" width="2.25757" height="3.93303" filterUnits="userSpaceOnUse" color-interpolation-filters="sRGB">
<feFlood flood-opacity="0" result="BackgroundImageFix"/>
<feBlend mode="normal" in="SourceGraphic" in2="BackgroundImageFix" result="shape"/>
<feGaussianBlur stdDeviation="0.375" result="effect1_foregroundBlur_431_124"/>
</filter>
<linearGradient id="paint0_linear_431_124" x1="4.77527" y1="6.50401" x2="4.77527" y2="13.9568" gradientUnits="userSpaceOnUse">
<stop stop-color="#9D481F"/>
<stop offset="1" stop-color="#C27550"/>
</linearGradient>
<radialGradient id="paint1_radial_431_124" cx="0" cy="0" r="1" gradientUnits="userSpaceOnUse" gradientTransform="translate(4.89191 7.32459) rotate(101.957) scale(2.03637 1.67786)">
<stop stop-color="#803815"/>
<stop offset="1" stop-color="#9D481F" stop-opacity="0"/>
</radialGradient>
<radialGradient id="paint2_radial_431_124" cx="0" cy="0" r="1" gradientUnits="userSpaceOnUse" gradientTransform="translate(7.40027 15.0825) rotate(-111.801) scale(4.03887 2.08024)">
<stop stop-color="#D15C76"/>
<stop offset="1" stop-color="#C26378" stop-opacity="0"/>
</radialGradient>
<linearGradient id="paint3_linear_431_124" x1="1.09577" y1="9.87901" x2="4.25927" y2="9.87901" gradientUnits="userSpaceOnUse">
<stop stop-color="#FEB98C"/>
<stop offset="1" stop-color="#FEB98C" stop-opacity="0"/>
</linearGradient>
<radialGradient id="paint4_radial_431_124" cx="0" cy="0" r="1" gradientUnits="userSpaceOnUse" gradientTransform="translate(17.9272 20.5185) rotate(74.3635) scale(9.79313 2.1493)">
<stop stop-color="#C56B44"/>
<stop offset="1" stop-color="#7E3834"/>
</radialGradient>
<linearGradient id="paint5_linear_431_124" x1="17.6654" y1="21.363" x2="19.6597" y2="14.4893" gradientUnits="userSpaceOnUse">
<stop stop-color="#7E3834" stop-opacity="0"/>
<stop offset="0.878" stop-color="#7E3834"/>
</linearGradient>
<linearGradient id="paint6_linear_431_124" x1="18.6314" y1="21.105" x2="18.4627" y2="16.3943" gradientUnits="userSpaceOnUse">
<stop stop-color="#D57446"/>
<stop offset="1" stop-color="#D57446" stop-opacity="0"/>
</linearGradient>
<linearGradient id="paint7_linear_431_124" x1="17.5664" y1="22.9358" x2="17.5664" y2="21.726" gradientUnits="userSpaceOnUse">
<stop stop-color="#C26378"/>
<stop offset="1" stop-color="#C26378" stop-opacity="0"/>
</linearGradient>
<radialGradient id="paint8_radial_431_124" cx="0" cy="0" r="1" gradientUnits="userSpaceOnUse" gradientTransform="translate(13.0725 20.2853) rotate(75.0686) scale(10.9154 2.29783)">
<stop stop-color="#C56B44"/>
<stop offset="1" stop-color="#7E3834"/>
</radialGradient>
<linearGradient id="paint9_linear_431_124" x1="12.7935" y1="21.2303" x2="11.7563" y2="14.6093" gradientUnits="userSpaceOnUse">
<stop stop-color="#7E3834" stop-opacity="0"/>
<stop offset="0.878" stop-color="#7E3834"/>
</linearGradient>
<linearGradient id="paint10_linear_431_124" x1="13.8218" y1="20.9415" x2="13.8218" y2="16.113" gradientUnits="userSpaceOnUse">
<stop stop-color="#D57446"/>
<stop offset="1" stop-color="#D57446" stop-opacity="0"/>
</linearGradient>
<linearGradient id="paint11_linear_431_124" x1="12.687" y1="22.989" x2="12.687" y2="21.6353" gradientUnits="userSpaceOnUse">
<stop stop-color="#C26378"/>
<stop offset="1" stop-color="#C26378" stop-opacity="0"/>
</linearGradient>
<radialGradient id="paint12_radial_431_124" cx="0" cy="0" r="1" gradientUnits="userSpaceOnUse" gradientTransform="translate(5.05652 2.0745) rotate(29.9536) scale(3.19198 3.11935)">
<stop offset="0.349" stop-color="#D98C47"/>
<stop offset="1" stop-color="#824530"/>
</radialGradient>
<radialGradient id="paint13_radial_431_124" cx="0" cy="0" r="1" gradientUnits="userSpaceOnUse" gradientTransform="translate(5.61902 2.78925) rotate(18.8396) scale(1.3868 0.910213)">
<stop stop-color="#D18F61"/>
<stop offset="1" stop-color="#C7885C" stop-opacity="0"/>
</radialGradient>
<radialGradient id="paint14_radial_431_124" cx="0" cy="0" r="1" gradientUnits="userSpaceOnUse" gradientTransform="translate(7.9504 3.72781) rotate(-151.518) scale(1.25325 0.726)">
<stop stop-color="#824530"/>
<stop offset="1" stop-color="#824530" stop-opacity="0"/>
</radialGradient>
<linearGradient id="paint15_linear_431_124" x1="6.84902" y1="4.08975" x2="6.84902" y2="3.0585" gradientUnits="userSpaceOnUse">
<stop offset="0.22" stop-color="#824530"/>
<stop offset="1" stop-color="#824530" stop-opacity="0"/>
</linearGradient>
<linearGradient id="paint16_linear_431_124" x1="12" y1="7.39426" x2="12" y2="17.2853" gradientUnits="userSpaceOnUse">
<stop stop-color="#E9B077"/>
<stop offset="1" stop-color="#D48153"/>
</linearGradient>
<radialGradient id="paint17_radial_431_124" cx="0" cy="0" r="1" gradientUnits="userSpaceOnUse" gradientTransform="translate(15.8375 6.73822) rotate(74.952) scale(5.16945 2.54597)">
<stop stop-color="#C98A55"/>
<stop offset="1" stop-color="#C98A55" stop-opacity="0"/>
</radialGradient>
<radialGradient id="paint18_radial_431_124" cx="0" cy="0" r="1" gradientUnits="userSpaceOnUse" gradientTransform="translate(10.1887 6.10501) rotate(106.345) scale(5.08032 2.01916)">
<stop stop-color="#C98A55"/>
<stop offset="1" stop-color="#C98A55" stop-opacity="0"/>
</radialGradient>
<radialGradient id="paint19_radial_431_124" cx="0" cy="0" r="1" gradientUnits="userSpaceOnUse" gradientTransform="translate(6.83775 15.8325) rotate(-70.594) scale(4.37347 4.36916)">
<stop stop-color="#BF7E48"/>
<stop offset="1" stop-color="#C98A55" stop-opacity="0"/>
</radialGradient>
<radialGradient id="paint20_radial_431_124" cx="0" cy="0" r="1" gradientUnits="userSpaceOnUse" gradientTransform="translate(0.579984 9.92578) rotate(-34.87) scale(6.31322 2.63197)">
<stop stop-color="#C9578E"/>
<stop offset="1" stop-color="#C9578E" stop-opacity="0"/>
</radialGradient>
<radialGradient id="paint21_radial_431_124" cx="0" cy="0" r="1" gradientUnits="userSpaceOnUse" gradientTransform="translate(4.728 15.6915) rotate(-44.1449) scale(4.44201 4.26857)">
<stop stop-color="#C26378"/>
<stop offset="1" stop-color="#C26378" stop-opacity="0"/>
</radialGradient>
<radialGradient id="paint22_radial_431_124" cx="0" cy="0" r="1" gradientUnits="userSpaceOnUse" gradientTransform="translate(24.228 9.36301) rotate(151.928) scale(5.57812 6.62358)">
<stop stop-color="#FBC791"/>
<stop offset="1" stop-color="#FBC791" stop-opacity="0"/>
</radialGradient>
<radialGradient id="paint23_radial_431_124" cx="0" cy="0" r="1" gradientUnits="userSpaceOnUse" gradientTransform="translate(22.3995 11.9884) rotate(-127.493) scale(2.15638 0.837772)">
<stop stop-color="#D57E34"/>
<stop offset="1" stop-color="#D47E34" stop-opacity="0"/>
</radialGradient>
<linearGradient id="paint24_linear_431_124" x1="5.77877" y1="5.15175" x2="5.31977" y2="5.15175" gradientUnits="userSpaceOnUse">
<stop stop-color="#574D50"/>
<stop offset="0.855" stop-color="#31232C"/>
</linearGradient>
<linearGradient id="paint25_linear_431_124" x1="6.01727" y1="6.01125" x2="6.01727" y2="5.502" gradientUnits="userSpaceOnUse">
<stop stop-color="#552D52"/>
<stop offset="1" stop-color="#552D52" stop-opacity="0"/>
</linearGradient>
<linearGradient id="paint26_linear_431_124" x1="4.99277" y1="5.238" x2="5.33177" y2="5.238" gradientUnits="userSpaceOnUse">
<stop stop-color="#574D50"/>
<stop offset="1" stop-color="#574D50" stop-opacity="0"/>
</linearGradient>
<radialGradient id="paint27_radial_431_124" cx="0" cy="0" r="1" gradientUnits="userSpaceOnUse" gradientTransform="translate(2.37827 6.31652) scale(0.328125 0.621098)">
<stop stop-color="#C78E72"/>
<stop offset="1" stop-color="#BC7748"/>
</radialGradient>
<linearGradient id="paint28_linear_431_124" x1="8.19678" y1="22.488" x2="8.19678" y2="15.4102" gradientUnits="userSpaceOnUse">
<stop stop-color="#D67F50"/>
<stop offset="1" stop-color="#D67F50" stop-opacity="0"/>
</linearGradient>
<linearGradient id="paint29_linear_431_124" x1="9.57078" y1="23.0715" x2="9.57078" y2="21.4942" gradientUnits="userSpaceOnUse">
<stop stop-color="#C26378"/>
<stop offset="1" stop-color="#C26378" stop-opacity="0"/>
</linearGradient>
<radialGradient id="paint30_radial_431_124" cx="0" cy="0" r="1" gradientUnits="userSpaceOnUse" gradientTransform="translate(17.3377 17.895) rotate(-32.6856) scale(3.08143 4.80248)">
<stop stop-color="#C26378"/>
<stop offset="1" stop-color="#C26378" stop-opacity="0"/>
</radialGradient>
<linearGradient id="paint31_linear_431_124" x1="20.5252" y1="23.121" x2="20.5252" y2="21.4103" gradientUnits="userSpaceOnUse">
<stop stop-color="#C26378"/>
<stop offset="1" stop-color="#C26378" stop-opacity="0"/>
</linearGradient>
<linearGradient id="paint32_linear_431_124" x1="13.1978" y1="6.198" x2="15.8843" y2="11.8005" gradientUnits="userSpaceOnUse">
<stop stop-color="#FBC791"/>
<stop offset="1" stop-color="#FBC791" stop-opacity="0"/>
</linearGradient>
<radialGradient id="paint33_radial_431_124" cx="0" cy="0" r="1" gradientUnits="userSpaceOnUse" gradientTransform="translate(19.8389 7.3005) rotate(106.24) scale(7.83607 25.1101)">
<stop stop-color="#FBC791"/>
<stop offset="1" stop-color="#FBC791" stop-opacity="0"/>
</radialGradient>
<radialGradient id="paint34_radial_431_124" cx="0" cy="0" r="1" gradientUnits="userSpaceOnUse" gradientTransform="translate(13.8922 16.746) rotate(-90) scale(3.11719 7.32412)">
<stop stop-color="#C26378"/>
<stop offset="1" stop-color="#C26378" stop-opacity="0"/>
</radialGradient>
<radialGradient id="paint35_radial_431_124" cx="0" cy="0" r="1" gradientUnits="userSpaceOnUse" gradientTransform="translate(13.8922 16.0665) rotate(-90) scale(1.6875 12.7494)">
<stop stop-color="#D86BA6"/>
<stop offset="0.407" stop-color="#D86BA6" stop-opacity="0"/>
</radialGradient>
<radialGradient id="paint36_radial_431_124" cx="0" cy="0" r="1" gradientUnits="userSpaceOnUse" gradientTransform="translate(11.9237 19.6988) rotate(-71.893) scale(7.76745 9.75172)">
<stop stop-color="#C26378"/>
<stop offset="1" stop-color="#C26378" stop-opacity="0"/>
</radialGradient>
<linearGradient id="paint37_linear_431_124" x1="8.86951" y1="1.1835" x2="11.1218" y2="2.51925" gradientUnits="userSpaceOnUse">
<stop stop-color="#F9CC9E"/>
<stop offset="1" stop-color="#F9CC9E" stop-opacity="0"/>
</linearGradient>
<linearGradient id="paint38_linear_431_124" x1="8.81703" y1="11.4255" x2="5.11428" y2="6.72677" gradientUnits="userSpaceOnUse">
<stop stop-color="#F9CC9E"/>
<stop offset="1" stop-color="#F9CC9E" stop-opacity="0"/>
</linearGradient>
<linearGradient id="paint39_linear_431_124" x1="20.4712" y1="22.8517" x2="20.4712" y2="14.8957" gradientUnits="userSpaceOnUse">
<stop stop-color="#FBC791"/>
<stop offset="1" stop-color="#FBC791" stop-opacity="0"/>
</linearGradient>
<linearGradient id="paint40_linear_431_124" x1="11.853" y1="16.0433" x2="13.119" y2="21.9728" gradientUnits="userSpaceOnUse">
<stop stop-color="#CA886C"/>
<stop offset="1" stop-color="#F9A372"/>
</linearGradient>
<linearGradient id="paint41_linear_431_124" x1="17.2672" y1="16.0433" x2="16.0012" y2="21.9728" gradientUnits="userSpaceOnUse">
<stop stop-color="#CA886C"/>
<stop offset="1" stop-color="#F9A372"/>
</linearGradient>
</defs>
</svg>
