<svg width="24" height="24" viewBox="0 0 24 24" fill="none" xmlns="http://www.w3.org/2000/svg">
<path d="M14.25 2.99999C13.138 3.04869 11.25 4.49999 9.75 5.24999C8.25 4.74997 6.04106 3.49968 5.25 3.74999C4.20956 4.07924 3.02934 5.81971 1.89689 7.07811H22.3212C21.9094 6.12205 20.8475 3.79157 20.25 3.74999C19.5001 3.69782 16.5 5.99999 16.5 5.99999C15.75 5 14.7858 2.97655 14.25 2.99999ZM1.27186 7.92186L3.34111 17.5781H5.57812V7.92186H1.27186ZM6.42188 7.92186V8.57811H8.57812V7.92186H6.42188ZM9.42188 7.92186V17.5781H20.659L22.7281 7.92186H9.42188ZM6.42188 9.42186V10.0781H8.57812V9.42186H6.42188ZM6.42188 10.9219V11.5781H8.57812V10.9219H6.42188ZM6.42188 12.4219V13.0781H8.57812V12.4219H6.42188ZM6.42188 13.9219V14.5781H8.57812V13.9219H6.42188ZM6.42188 15.4219V16.0781H8.57812V15.4219H6.42188ZM6.42188 16.9219V17.5781H8.57812V16.9219H6.42188ZM1.17188 18.4219V19.8281H22.8281V18.4219H1.17188ZM1.72603 20.6719C1.61189 20.8798 1.54688 21.1192 1.54688 21.375C1.54688 22.1825 2.19248 22.8281 3 22.8281C3.80752 22.8281 4.45312 22.1825 4.45312 21.375C4.45312 21.1192 4.38811 20.8798 4.27397 20.6719H1.72603ZM5.47603 20.6719C5.36189 20.8798 5.29688 21.1192 5.29688 21.375C5.29688 22.1825 5.94248 22.8281 6.75 22.8281C7.55752 22.8281 8.20312 22.1825 8.20312 21.375C8.20312 21.1192 8.13811 20.8798 8.02397 20.6719H5.47603ZM9.30759 20.6719L10.0107 22.0781H13.9892L14.6924 20.6719H9.30764H9.30759ZM15.976 20.6719C15.8619 20.8798 15.7969 21.1192 15.7969 21.375C15.7969 22.1825 16.4425 22.8281 17.25 22.8281C18.0575 22.8281 18.7031 22.1825 18.7031 21.375C18.7031 21.1192 18.6381 20.8798 18.524 20.6719H15.976ZM19.726 20.6719C19.6119 20.8798 19.5469 21.1192 19.5469 21.375C19.5469 22.1825 20.1925 22.8281 21 22.8281C21.8075 22.8281 22.4531 22.1825 22.4531 21.375C22.4531 21.1192 22.3881 20.8798 22.274 20.6719H19.726Z" fill="black"/>
</svg>
