<svg width="24" height="24" viewBox="0 0 24 24" fill="none" xmlns="http://www.w3.org/2000/svg">
<path d="M9.37498 4.86H9.38998C10.005 4.86 10.5 4.365 10.5 3.75H9.07498V3.759C7.83604 3.83467 6.6727 4.38037 5.82246 5.28469C4.97222 6.18901 4.4992 7.38375 4.49998 8.625H4.68148C4.61159 8.79096 4.60505 8.97682 4.66311 9.14728C4.72118 9.31775 4.83981 9.46096 4.99648 9.54975C4.90572 9.60884 4.83115 9.68966 4.77954 9.78488C4.72794 9.8801 4.70094 9.9867 4.70098 10.095C4.70098 10.8675 5.02048 11.5627 5.53273 12.06C5.40148 12.3855 5.31373 12.7575 5.27398 13.1805L2.79373 10.695C2.45623 10.365 1.89373 10.62 1.91623 11.0925C1.95373 12.03 2.33623 12.9525 3.04873 13.665C3.66424 14.2836 4.47155 14.675 5.33848 14.775C5.36848 14.9505 5.40448 15.123 5.44798 15.2925H2.01373C1.54123 15.2925 1.32373 15.87 1.66873 16.1925C2.24974 16.7263 2.98011 17.0695 3.76182 17.1762C4.54353 17.2829 5.33918 17.148 6.04198 16.7895C6.12898 16.947 6.22198 17.0992 6.32098 17.2485C5.74738 17.5546 5.26023 18.0005 4.90458 18.5448C4.54893 19.0891 4.33626 19.7142 4.28623 20.3625C4.24873 20.835 4.80373 21.105 5.14873 20.79L7.50673 18.5917C7.68223 18.7432 7.86598 18.8865 8.05723 19.0192C8.02053 19.2126 7.99847 19.4084 7.99123 19.605C7.95373 20.625 8.30623 21.5625 8.92123 22.2825C9.22873 22.6425 9.82123 22.4475 9.83623 21.9675L9.91273 19.932C10.5882 20.1437 11.2921 20.2509 12 20.25C12.7066 20.251 13.4092 20.144 14.0835 19.9327L14.1562 21.8775C14.1712 22.3575 14.7637 22.5525 15.0712 22.1925C15.6862 21.4725 16.0387 20.535 16.0012 19.515C15.9953 19.3471 15.9785 19.1797 15.951 19.014C16.131 18.888 16.3057 18.753 16.4722 18.6105L18.8137 20.79C19.1587 21.1125 19.7212 20.835 19.6837 20.3625C19.6087 19.425 19.1887 18.51 18.4462 17.8125C18.2144 17.5941 17.9564 17.4051 17.6782 17.25C17.7811 17.0951 17.8774 16.936 17.967 16.773C18.5035 17.0378 19.0937 17.1753 19.692 17.175C20.712 17.175 21.642 16.785 22.332 16.1475C22.6845 15.825 22.4595 15.24 21.987 15.24H18.5655C18.6078 15.0676 18.6429 14.8934 18.6705 14.718C19.5287 14.6101 20.3263 14.2183 20.9362 13.605C21.6562 12.885 22.0387 11.955 22.0762 11.01C22.0987 10.5375 21.5287 10.275 21.1912 10.6125L18.7162 13.0875C18.6781 12.7041 18.5825 12.3287 18.4327 11.9737C18.9135 11.4665 19.181 10.7939 19.1797 10.095C19.1797 9.98735 19.153 9.88139 19.102 9.78661C19.0509 9.69184 18.9771 9.61122 18.8872 9.552C19.0452 9.46389 19.1652 9.3206 19.2242 9.14956C19.2831 8.97852 19.2769 8.79175 19.2067 8.625H19.5C19.5007 7.39675 19.0375 6.21353 18.2031 5.31223C17.3687 4.41092 16.2247 3.85803 15 3.76425V3.75H13.5C13.5 4.365 13.995 4.86 14.61 4.86H14.625V5.1075H14.61C13.995 5.1075 13.5 5.6025 13.5 6.2175H14.7097C14.8744 6.90333 15.2652 7.51376 15.8191 7.95048C16.3729 8.3872 17.0577 8.6248 17.763 8.625H17.8515C17.7813 8.79175 17.7751 8.97852 17.8341 9.14956C17.893 9.3206 18.013 9.46389 18.171 9.552C18.0811 9.61122 18.0073 9.69184 17.9563 9.78661C17.9052 9.88139 17.8785 9.98735 17.8785 10.095C17.8785 10.3935 17.787 10.6702 17.631 10.8997C16.9732 10.3492 16.0597 10.0575 14.9835 9.906C15.0058 9.80198 15.0057 9.6944 14.9833 9.5904C14.9608 9.48641 14.9165 9.38838 14.8533 9.30283C14.79 9.21728 14.7093 9.14617 14.6165 9.09421C14.5236 9.04225 14.4208 9.01063 14.3148 9.00147C14.2088 8.9923 14.1021 9.00578 14.0017 9.04103C13.9013 9.07628 13.8096 9.13248 13.7326 9.2059C13.6556 9.27932 13.5951 9.36828 13.5551 9.46688C13.5152 9.56547 13.4966 9.67144 13.5007 9.77775C13.0007 9.75765 12.5004 9.7484 12 9.75C11.484 9.75 10.9822 9.7575 10.5 9.77775V9.75C10.4998 9.64492 10.4776 9.54104 10.4347 9.4451C10.3919 9.34916 10.3293 9.26329 10.2511 9.19308C10.173 9.12286 10.0809 9.06985 9.98094 9.03749C9.88096 9.00513 9.7753 8.99415 9.6708 9.00524C9.56631 9.01633 9.46531 9.04926 9.37436 9.10189C9.28341 9.15452 9.20453 9.22568 9.14284 9.31074C9.08114 9.39581 9.03802 9.49289 9.01625 9.5957C8.99448 9.6985 8.99456 9.80473 9.01648 9.9075C7.90048 10.065 6.95923 10.374 6.29623 10.965C6.10507 10.7153 6.00171 10.4095 6.00223 10.095C6.00223 9.87 5.88748 9.6705 5.71348 9.55425C5.87256 9.46658 5.99354 9.32312 6.05309 9.15152C6.11264 8.97993 6.10655 8.79237 6.03598 8.625H6.23698C6.94231 8.6248 7.62705 8.3872 8.18091 7.95048C8.73477 7.51376 9.12552 6.90333 9.29023 6.2175H10.5C10.5 5.6025 10.005 5.1075 9.38998 5.1075H9.37498V4.86Z" fill="#DC143C"/>
</svg>
