<svg width="24" height="24" viewBox="0 0 24 24" fill="none" xmlns="http://www.w3.org/2000/svg">
<g clip-path="url(#clip0_432_371)">
<path d="M17.1 0C15.2775 0 13.8 1.84688 13.8 4.125V5.49375L0.468757 18.3094C-0.0562433 18.8156 -0.153743 19.7578 0.247507 20.4141C0.648757 21.0703 1.40626 21.1922 1.93126 20.6906L4.72876 18H9.72001L11.4675 23.3016C11.655 23.8781 12.1838 24.15 12.6413 23.9156C13.0988 23.6813 13.32 23.0203 13.1325 22.4484L11.6663 18H13.32L15.0675 23.3063C15.255 23.8828 15.7838 24.1547 16.2413 23.9203C16.6988 23.6859 16.92 23.025 16.7325 22.4531L15.1575 17.6719C18.1838 16.5984 20.4 13.125 20.4 9V5.625L23.4188 4.68281C23.7413 4.58438 23.9363 4.17656 23.8538 3.77344C23.5875 2.4375 22.6275 1.5 21.525 1.5H19.6463C19.0388 0.585938 18.1238 0 17.1 0ZM17.1 3C17.2182 3 17.3352 3.0291 17.4444 3.08564C17.5536 3.14217 17.6528 3.22504 17.7364 3.3295C17.82 3.43397 17.8863 3.55799 17.9315 3.69448C17.9767 3.83097 18 3.97726 18 4.125C18 4.27274 17.9767 4.41903 17.9315 4.55552C17.8863 4.69201 17.82 4.81603 17.7364 4.9205C17.6528 5.02496 17.5536 5.10783 17.4444 5.16436C17.3352 5.2209 17.2182 5.25 17.1 5.25C16.9818 5.25 16.8648 5.2209 16.7556 5.16436C16.6464 5.10783 16.5472 5.02496 16.4636 4.9205C16.38 4.81603 16.3137 4.69201 16.2685 4.55552C16.2233 4.41903 16.2 4.27274 16.2 4.125C16.2 3.97726 16.2233 3.83097 16.2685 3.69448C16.3137 3.55799 16.38 3.43397 16.4636 3.3295C16.5472 3.22504 16.6464 3.14217 16.7556 3.08564C16.8648 3.0291 16.9818 3 17.1 3Z" fill="black"/>
</g>
<defs>
<clipPath id="clip0_432_371">
<rect width="24" height="24" fill="white"/>
</clipPath>
</defs>
</svg>
