<svg width="24" height="24" viewBox="0 0 24 24" fill="none" xmlns="http://www.w3.org/2000/svg">
<path d="M6.16936 1.01137C6.13813 1.01129 6.1069 1.01207 6.07571 1.01372C6.00458 1.01751 5.93379 1.02612 5.86383 1.0395C5.30255 1.14712 4.87702 1.65356 4.77633 2.30081C4.71089 2.72119 4.74314 3.21356 4.87646 3.79256C4.76529 3.74203 4.65229 3.69563 4.53769 3.65348C4.20347 3.53161 3.88144 3.45614 3.57966 3.44409C3.27792 3.43205 2.99639 3.48356 2.74341 3.61575C2.23744 3.88012 1.99135 4.48884 2.06653 5.15325C2.14163 5.81747 2.47083 6.60244 3.09014 7.55372C4.00303 8.95603 5.35781 10.6983 6.7725 11.8922C7.47174 12.4823 8.18424 12.9443 8.90925 13.1455C8.86964 12.8519 8.88188 12.543 8.93864 12.2343C8.45644 12.0539 7.89952 11.6971 7.33739 11.2227C6.03549 10.124 4.70081 8.42217 3.8243 7.07569C3.25031 6.19406 2.9873 5.49952 2.93696 5.05462C2.88666 4.60978 2.98172 4.47956 3.14921 4.39205C3.31664 4.30458 3.70247 4.28133 4.23746 4.47642C4.54017 4.58691 4.88396 4.76081 5.2523 5.00048C5.81152 6.50578 6.6923 8.36986 7.76096 9.78267C8.21827 10.3873 8.70867 10.912 9.24558 11.2855C9.36478 11.0266 9.51216 10.7706 9.68635 10.5217C9.28064 10.2232 8.86003 9.78356 8.45963 9.2542C7.78711 8.36508 7.16963 7.23375 6.67416 6.14545C8.19225 7.52226 9.11494 8.67933 10.0599 10.0454C10.2555 9.82248 10.4678 9.61497 10.6952 9.42469C9.64219 7.91784 8.56406 6.60703 6.70847 5.00601C6.46191 4.79334 6.21816 4.6028 5.97849 4.43367C5.65505 3.51211 5.58005 2.83373 5.64192 2.43548C5.70567 2.02612 5.81831 1.9403 6.02888 1.89989C6.23949 1.85958 6.65119 1.94723 7.14436 2.27067C7.63749 2.59411 8.20327 3.13186 8.75147 3.87319C10.1757 5.79947 10.8753 7.20928 11.5273 8.85084C11.7918 8.70445 12.0609 8.5875 12.3298 8.5019C11.6598 6.82509 10.9148 5.32542 9.45586 3.35236C8.85774 2.5433 8.23083 1.93561 7.62483 1.53811C7.12772 1.21209 6.63886 1.01297 6.16936 1.01137ZM13.7041 5.76516C13.5676 5.76498 13.4323 5.79179 13.3061 5.84407C13.1799 5.89634 13.0653 5.97304 12.9688 6.06975C12.5626 6.47592 12.5626 7.13451 12.9688 7.54069C13.1993 7.77122 13.511 7.87069 13.8117 7.83966C13.5938 8.39522 13.7102 9.04753 14.1619 9.49922C14.5998 9.93717 15.2264 10.0603 15.7704 9.86883C15.7503 10.1587 15.8506 10.4555 16.0722 10.677C16.4783 11.0833 17.1369 11.0832 17.5431 10.677C17.9492 10.2709 17.9492 9.61228 17.5431 9.20611C17.3197 8.9827 17.02 8.88244 16.7279 8.9048C16.9146 8.36292 16.7906 7.74122 16.3552 7.30589C16.0505 7.0012 15.6546 6.84886 15.2586 6.84886C15.0814 6.84886 14.9042 6.87966 14.7353 6.94064C14.7756 6.63136 14.6773 6.30736 14.4397 6.0697C14.3432 5.97297 14.2285 5.89627 14.1023 5.844C13.9761 5.79172 13.8408 5.76491 13.7042 5.76511L13.7041 5.76516ZM12.9828 9.2408C12.9424 9.2477 12.9022 9.25551 12.8622 9.26423C12.2511 9.39783 11.5456 9.78098 10.9392 10.3874C10.3328 10.9938 9.94964 11.6994 9.81605 12.3105C9.7141 12.7769 9.7523 13.1648 9.90614 13.4527C7.72599 15.1298 2.89575 19.0514 1.22536 19.9827C0.563815 22.1765 1.10597 23.7039 3.90474 22.662C4.78814 20.9592 8.8358 16.0475 10.5293 13.9522C10.7866 14.03 11.1006 14.0356 11.4621 13.9566C12.0731 13.823 12.7786 13.4398 13.3851 12.8334C13.9914 12.227 14.3745 11.5214 14.5081 10.9103C14.5223 10.845 14.5333 10.7816 14.5421 10.7194C14.1647 10.6042 13.8213 10.3979 13.5424 10.1187C13.294 9.87039 13.103 9.57076 12.9827 9.2408H12.9828ZM15.2786 11.4184C15.1947 11.6879 15.0789 11.958 14.9337 12.2235C16.7573 12.9255 18.237 13.6185 20.3219 15.1601C21.0631 15.7082 21.6009 16.2741 21.9243 16.7672C22.2478 17.2605 22.3353 17.6722 22.2949 17.8829C22.2545 18.0935 22.1686 18.2061 21.7593 18.2698C21.3499 18.3335 20.6455 18.2533 19.6844 17.9066C19.5976 17.8752 19.5111 17.8431 19.4247 17.8105C19.3035 17.6517 19.1775 17.4967 19.047 17.3455C17.3333 15.359 15.9468 14.2612 14.3005 13.1329C14.2059 13.2432 14.1071 13.3499 14.0045 13.4529C13.8969 13.5603 13.7851 13.6633 13.6693 13.7619C15.0695 14.7129 16.2275 15.5915 17.5676 17.0118C16.6338 16.5597 15.6991 16.0257 14.9408 15.4521C14.2777 14.9504 13.7549 14.4169 13.4752 13.9208C13.2371 14.1064 12.991 14.2669 12.7407 14.4011C13.1152 15.043 13.7099 15.6193 14.4124 16.1507C15.7256 17.1441 17.4288 17.9752 18.8715 18.5367C19.2062 19.0052 19.4401 19.4421 19.5765 19.8163C19.7717 20.3513 19.7484 20.7372 19.661 20.9047C19.5735 21.0722 19.4432 21.1672 18.9984 21.1169C18.5536 21.0666 17.8591 20.8035 16.9775 20.2296C15.6311 19.353 13.9294 18.0182 12.8307 16.7161C12.2813 16.0652 11.889 15.4209 11.7466 14.8918C11.7379 14.8596 11.7298 14.8273 11.7224 14.7949C11.698 14.8007 11.6736 14.8072 11.6492 14.8125C11.3808 14.8711 11.1108 14.8957 10.8494 14.8833C10.863 14.9624 10.8796 15.0413 10.9007 15.1193C11.098 15.8529 11.5642 16.5739 12.1612 17.2812C13.355 18.6959 15.0972 20.0508 16.4994 20.9638C17.4507 21.583 18.2357 21.9123 18.8999 21.9874C19.5643 22.0626 20.173 21.8163 20.4374 21.3104C20.7018 20.8045 20.6433 20.1847 20.3994 19.5162C20.3355 19.3409 20.257 19.1606 20.1647 18.9764C20.8481 19.1587 21.4172 19.2097 21.8939 19.1355C22.5411 19.0348 23.0476 18.6091 23.1552 18.048C23.2629 17.4867 23.0542 16.893 22.6568 16.287C22.2593 15.681 21.6516 15.0541 20.8427 14.4559C18.7085 12.8777 17.1283 12.1344 15.2785 11.4185L15.2786 11.4184Z" fill="#4169E1"/>
</svg>
