<svg width="24" height="24" viewBox="0 0 24 24" fill="none" xmlns="http://www.w3.org/2000/svg">
<path d="M13.6125 1.30453C10.2656 3.8175 6.10782 5.33907 2.45111 7.47188C2.17126 7.63594 2.08642 7.79532 2.04939 8.04844C2.01236 8.30157 2.06673 8.6625 2.18579 9.06094C2.25142 9.27657 2.33532 9.50625 2.42486 9.74063C2.70892 9.20157 3.13829 8.68594 3.65157 8.19844C4.73439 7.1625 6.24845 6.19688 7.83282 5.32969C11.0109 3.59672 14.5266 2.26688 15.5813 1.84266C14.8734 1.7025 14.1797 1.53891 13.6125 1.30453ZM18.0234 2.15907C17.3391 2.15907 16.6828 2.30907 15.9188 2.6175C14.8406 3.0511 11.3531 4.36922 8.23595 6.07032C6.6797 6.91875 5.22189 7.86094 4.23423 8.80782C3.24329 9.75469 2.76986 10.6453 2.93111 11.4234C3.12189 12.3422 4.01579 13.0219 5.41407 13.5188C6.82032 14.0156 8.6672 14.2969 10.4953 14.4703C12.3281 14.6391 14.1469 14.7047 15.5391 14.7938C16.2375 14.8406 16.8281 14.8922 17.2781 14.9719C17.5031 15.0141 17.6953 15.0609 17.8734 15.1313C18.0422 15.2016 18.2484 15.3094 18.3234 15.5859C18.4734 16.1344 18.2578 16.6922 17.8734 17.1141C17.4797 17.5406 16.9219 17.8969 16.2469 18.2344C14.9016 18.9141 13.0594 19.4953 11.1797 20.0156C9.29064 20.5313 7.36407 20.9766 5.86876 21.3563C5.12345 21.5484 4.48548 21.7172 4.02376 21.8719C3.83767 21.9328 3.70595 21.9844 3.58642 22.0359C3.94923 22.1344 4.6022 22.2047 5.42345 22.2141C7.12501 22.2375 9.5672 22.0359 12.0609 21.5813C14.55 21.1266 17.0859 20.4188 18.9984 19.4672C20.9063 18.5156 22.1156 17.3531 22.1953 16.0406C22.2844 14.7563 21.6281 13.9641 20.4563 13.3266C19.2844 12.6938 17.6016 12.3094 15.9047 12.0656C14.1984 11.8219 12.4641 11.7094 11.1328 11.5594C10.4578 11.4797 9.89532 11.4 9.46407 11.2734C9.23907 11.2078 9.05157 11.1375 8.88282 11.0156C8.71876 10.8984 8.55001 10.6922 8.53126 10.4344C8.51251 10.0594 8.71876 9.74532 8.97189 9.4875C9.22032 9.225 9.54845 8.99532 9.93751 8.77032C10.7109 8.325 11.7188 7.9125 12.7219 7.54688C14.7234 6.82032 16.7297 6.30938 16.7297 6.30938L16.8 6.29063L16.8656 6.29532C18.2297 6.39375 19.8797 6.11719 21.0703 5.55938C21.6703 5.28282 22.1438 4.93594 22.4297 4.56422C22.6125 4.3275 22.7109 4.08797 22.7391 3.82547C21.0141 4.41422 20.4609 4.68141 19.0688 4.73907L19.0266 3.89391C20.1938 3.84797 20.625 3.66516 21.9328 3.21094C20.7094 2.69672 19.7531 2.36672 18.9188 2.2336C18.6563 2.19094 18.4031 2.16657 18.1594 2.16047H18.0234V2.15907ZM17.5078 2.9611C17.7067 2.9611 17.8975 3.04012 18.0382 3.18077C18.1788 3.32142 18.2578 3.51218 18.2578 3.7111C18.2578 3.91001 18.1788 4.10078 18.0382 4.24143C17.8975 4.38208 17.7067 4.4611 17.5078 4.4611C17.3089 4.4611 17.1181 4.38208 16.9775 4.24143C16.8368 4.10078 16.7578 3.91001 16.7578 3.7111C16.7578 3.51218 16.8368 3.32142 16.9775 3.18077C17.1181 3.04012 17.3089 2.9611 17.5078 2.9611ZM10.0641 9.68438C9.86251 9.82032 9.68439 9.95625 9.5672 10.0734C9.44532 10.2 9.40782 10.2844 9.39845 10.3406C9.44532 10.3688 9.54376 10.4156 9.69845 10.4625C10.0359 10.5609 10.575 10.6453 11.2266 10.7203C12.5203 10.8656 14.2688 10.9828 16.0219 11.2313C17.7656 11.4844 19.5188 11.8594 20.8547 12.5859C21.6281 13.0031 22.2609 13.5609 22.6547 14.2688C22.6922 13.7813 22.6594 13.1719 22.4813 12.3375C19.0313 10.7813 14.0109 10.5 10.0641 9.68438ZM17.4609 16.2469C13.4016 17.4469 10.0313 19.1109 4.77657 19.7203C2.67751 19.9688 2.14454 21.0328 1.25861 22.0781C1.38001 22.2281 1.58532 22.3641 1.90501 22.4719C2.18954 22.575 2.54486 22.6453 2.93907 22.6969C2.83829 22.6406 2.74595 22.5703 2.66251 22.4719C2.57392 22.3641 2.50736 22.2 2.51345 22.0406C2.51954 21.8813 2.58611 21.7453 2.66486 21.6375C2.80314 21.4547 2.94751 21.3938 3.12376 21.3094C3.30048 21.2297 3.51189 21.15 3.76173 21.0656C4.26095 20.9063 4.91251 20.7281 5.66251 20.5406C7.17189 20.1563 9.09376 19.7109 10.9547 19.2C12.8156 18.6891 14.6203 18.1078 15.8719 17.4797C16.4953 17.1703 16.9734 16.8422 17.2453 16.5469C17.3484 16.4344 17.4188 16.3359 17.4609 16.2469Z" fill="#4169E1"/>
</svg>
