<svg width="32" height="32" viewBox="0 0 32 32" fill="none" xmlns="http://www.w3.org/2000/svg">
<path d="M8.73333 21.078H23.2667M17.3447 4.79333L24.0313 23.1813C24.3528 24.0653 24.5173 24.9987 24.5173 25.9393C24.5173 26.7512 24.1948 27.5299 23.6207 28.104C23.3364 28.3882 22.9989 28.6136 22.6275 28.7673C22.256 28.9211 21.858 29.0001 21.456 29H10.544C10.142 29 9.74389 28.9209 9.37247 28.767C9.00105 28.6132 8.66358 28.3876 8.37933 28.1033C7.80522 27.5292 7.48268 26.7506 7.48267 25.9387C7.48278 24.9983 7.64726 24.0651 7.96867 23.1813L14.6553 4.79333H13.7587C13.5209 4.79333 13.2928 4.69886 13.1246 4.53071C12.9565 4.36255 12.862 4.13448 12.862 3.89667C12.862 3.65886 12.9565 3.43079 13.1246 3.26263C13.2928 3.09447 13.5209 3 13.7587 3H18.2413C18.4791 3 18.7072 3.09447 18.8754 3.26263C19.0435 3.43079 19.138 3.65886 19.138 3.89667C19.138 4.13448 19.0435 4.36255 18.8754 4.53071C18.7072 4.69886 18.4791 4.79333 18.2413 4.79333H17.3447Z" stroke="black" stroke-linecap="round" stroke-linejoin="round"/>
<path d="M13.0147 18.3767C13.154 18.5161 13.3374 18.6029 13.5335 18.6223C13.7297 18.6417 13.9265 18.5925 14.0904 18.483C14.2543 18.3736 14.3753 18.2107 14.4325 18.0221C14.4898 17.8335 14.48 17.6309 14.4046 17.4487C14.3293 17.2666 14.1931 17.1162 14.0193 17.0232C13.8455 16.9302 13.6448 16.9004 13.4515 16.9387C13.2582 16.9771 13.0841 17.0813 12.959 17.2336C12.8339 17.3859 12.7654 17.5769 12.7653 17.774C12.7664 17.9998 12.8559 18.2161 13.0147 18.3767ZM16.2353 14.3273C16.3418 14.0081 16.5584 13.7371 16.8463 13.5629C17.1343 13.3888 17.4748 13.3227 17.807 13.3766C18.1392 13.4306 18.4413 13.6009 18.6594 13.8573C18.8775 14.1136 18.9972 14.4391 18.9972 14.7757C18.9972 15.1122 18.8775 15.4378 18.6594 15.6941C18.4413 15.9504 18.1392 16.1208 17.807 16.1747C17.4748 16.2286 17.1343 16.1626 16.8463 15.9884C16.5584 15.8142 16.3418 15.5433 16.2353 15.224C16.1395 14.9328 16.1395 14.6185 16.2353 14.3273ZM14.6553 11.9653C14.759 12.0688 14.8954 12.1331 15.0412 12.1473C15.1871 12.1616 15.3333 12.1248 15.455 12.0433C15.5768 11.9617 15.6665 11.8405 15.7089 11.7003C15.7513 11.5601 15.7438 11.4095 15.6876 11.2742C15.6314 11.1388 15.5301 11.0272 15.4008 10.9582C15.2715 10.8893 15.1224 10.8672 14.9787 10.8959C14.835 10.9246 14.7057 11.0022 14.6129 11.1155C14.52 11.2288 14.4693 11.3708 14.4693 11.5173C14.4703 11.6853 14.5371 11.8461 14.6553 11.9653Z" stroke="black" stroke-linecap="round" stroke-linejoin="round"/>
</svg>
