<svg width="24" height="24" viewBox="0 0 24 24" fill="none" xmlns="http://www.w3.org/2000/svg">
<path d="M5.96719 0.999847C5.55938 1.17516 5.23125 1.40157 4.94063 1.65657C5.05781 1.87688 5.17969 2.09766 5.30156 2.31985C5.62969 1.89469 5.87813 1.42547 5.96719 0.999847ZM2.25844 1.68094C2.00203 1.68563 1.73719 1.72078 1.46109 1.80235C1.92984 2.2875 2.70516 2.61938 3.43828 2.72297C3.33937 2.41079 3.2475 2.10094 3.16313 1.79391C2.87063 1.72266 2.57109 1.67672 2.25844 1.68094ZM4.03219 1.7311C5.09062 5.45157 7.30781 9.70782 10.0312 13.5234C12.9609 17.6203 16.4766 21.2109 19.6641 23.1563H23.0391C15.3141 18.5156 8.13281 9.58125 4.03219 1.7311ZM7.10625 1.75922C6.48281 2.03907 6.00469 2.4211 5.59688 2.85141C5.75625 3.13032 5.91562 3.41016 6.07969 3.69047C6.58125 3.09094 6.97969 2.38735 7.10625 1.75922ZM8.82187 2.2725C7.78125 2.7736 7.08281 3.53625 6.48281 4.3636C6.675 4.6786 6.86719 4.99219 7.06875 5.31094C7.90313 4.46719 8.625 3.29016 8.82187 2.2725ZM2.24344 3.21938C1.90078 3.21938 1.54641 3.25828 1.17609 3.34875C1.84219 3.91735 2.98828 4.28953 4.0125 4.3561C3.88969 4.03688 3.77391 3.71953 3.66469 3.40407C3.20719 3.29485 2.7375 3.21797 2.24344 3.21938ZM10.4297 3.66375C9.12656 4.17 8.29687 5.08594 7.53281 6.03282C7.69687 6.28594 7.86562 6.53907 8.03437 6.79219C9.08437 6.05157 10.1109 4.78125 10.4297 3.66375ZM11.7469 4.87969C10.2703 5.50782 9.375 6.52032 8.56875 7.57969C8.77031 7.87032 8.97656 8.16094 9.18281 8.44688C10.3687 7.57032 11.4797 6.1125 11.7469 4.87969ZM2.88984 4.95938C2.25234 4.96407 1.60266 5.0625 0.9375 5.32032C1.91016 5.92969 3.46687 6.20157 4.73438 6.08438C4.58063 5.74219 4.43438 5.40469 4.29469 5.06719C3.87281 5.00625 3.44766 4.96407 3.01734 4.95938H2.88984ZM13.1063 6.52969C11.5734 7.18125 10.6687 8.25 9.83906 9.35157C10.0406 9.62344 10.2469 9.89532 10.4531 10.1625C11.6766 9.3 12.8297 7.79532 13.1063 6.52969ZM4.42031 6.68438C3.40172 6.68907 2.38266 6.80157 1.39453 7.35938C2.49937 7.8375 4.19016 7.84219 5.38594 7.46719C5.25938 7.20938 5.13281 6.94688 5.01094 6.68907C4.88438 6.68438 4.75313 6.68438 4.62422 6.68438H4.42031ZM14.6906 7.79532C13.0266 8.53594 11.9859 9.7125 11.0672 10.95C11.3484 11.3109 11.6391 11.6719 11.9344 12.0281C13.2328 10.9125 14.3953 9.23438 14.6906 7.79532ZM5.57344 8.55469C4.31531 8.55 3.03844 8.6625 1.71 9.39375C2.94188 9.99375 4.9875 9.97032 6.45 9.46875C6.27656 9.16407 6.1125 8.86407 5.94844 8.55938C5.82188 8.55469 5.7 8.55469 5.57344 8.55469ZM16.65 9.36563C14.7938 10.1953 13.7156 11.5547 12.7125 12.9516C12.9844 13.2656 13.2563 13.5797 13.5328 13.8891C14.9719 12.7922 16.3266 10.9359 16.65 9.36563ZM6.32344 10.275C5.06719 10.275 3.78703 10.3828 2.45953 11.1141C3.75563 11.7422 5.94844 11.6906 7.41562 11.1094C7.24687 10.8375 7.08281 10.5609 6.91875 10.2844C6.72188 10.2797 6.525 10.275 6.32344 10.275ZM18.5859 10.6688C16.5469 11.5969 15.3656 13.125 14.2641 14.6953C14.5781 15.0281 14.8922 15.3609 15.2109 15.6891C16.7766 14.4656 18.2344 12.4125 18.5859 10.6688ZM20.7047 11.9578C18.4031 13.0453 17.1797 14.7609 15.9984 16.4813C16.3125 16.7906 16.6313 17.1 16.95 17.4C18.7172 16.1297 20.3953 13.8375 20.7047 11.9578ZM8.00625 12.0422C6.27656 12.1125 4.53469 12.2578 2.81109 13.3641C4.42031 14.0109 6.96563 13.8234 8.7 13.0922C8.46563 12.7453 8.23125 12.3938 8.00625 12.0422ZM22.7953 13.125C20.4047 14.3672 19.1625 16.3453 17.9484 18.3094C18.2953 18.6188 18.6469 18.9234 19.0031 19.2188C20.7891 17.7938 22.4812 15.2344 22.7953 13.125ZM9.50156 14.2266C7.60781 14.3813 5.69531 14.5266 3.85594 15.825C5.62969 16.4438 8.45156 16.0406 10.125 15.0797C9.91406 14.7984 9.70781 14.5125 9.50156 14.2266ZM23.1562 16.0594C21.6141 17.2594 20.9016 18.4781 19.95 19.9875C20.3625 20.3109 20.775 20.625 21.1922 20.925C22.0125 20.25 22.5141 19.3734 23.1562 18.4266V16.0594ZM11.1 16.3266C9.12656 16.7766 7.14375 17.2594 5.42813 18.8859C7.37344 19.2563 10.1906 18.4969 11.9062 17.3063C11.6344 16.9875 11.3625 16.6594 11.1 16.3266ZM12.7641 18.2906C10.8094 18.9516 8.84531 19.6688 7.19531 21.5625C9.16875 21.7875 11.9719 20.7 13.6641 19.2609C13.3594 18.9469 13.0594 18.6188 12.7641 18.2906ZM14.8922 20.4891C12.8719 21 10.8562 21.5719 9.10312 23.1563H12.4125C13.7484 22.8047 15.0469 22.2188 16.0172 21.5156C15.6422 21.1875 15.2672 20.8453 14.8922 20.4891ZM17.0672 22.3828C16.3359 22.6125 15.6 22.8516 14.8828 23.1563H18.1078C17.7609 22.9125 17.4141 22.6547 17.0672 22.3828Z" fill="#32CD32"/>
</svg>
