<svg width="24" height="24" viewBox="0 0 24 24" fill="none" xmlns="http://www.w3.org/2000/svg">
<path d="M12 22C9.76667 22 7.875 21.225 6.325 19.675C4.775 18.125 4 16.2333 4 14C4 12.1167 4.55833 10.3083 5.675 8.57499C6.79167 6.84166 8.325 5.32499 10.275 4.02499C10.6417 3.77499 11.0207 3.76232 11.412 3.98699C11.8033 4.21166 11.9993 4.54932 12 4.99999V6.29999C12 6.86666 12.196 7.34166 12.588 7.72499C12.98 8.10832 13.459 8.29999 14.025 8.29999C14.3083 8.29999 14.5793 8.23732 14.838 8.11199C15.0967 7.98666 15.3257 7.80766 15.525 7.57499C15.6583 7.40832 15.8293 7.30399 16.038 7.26199C16.2467 7.21999 16.4423 7.26599 16.625 7.39999C17.675 8.14999 18.5 9.10832 19.1 10.275C19.7 11.4417 20 12.6833 20 14C20 16.2333 19.225 18.125 17.675 19.675C16.125 21.225 14.2333 22 12 22ZM6 14C6 14.8667 6.175 15.6877 6.525 16.463C6.875 17.2383 7.375 17.9173 8.025 18.5C8.00833 18.4167 8 18.3417 8 18.275V18.05C8 17.5167 8.1 17.0167 8.3 16.55C8.5 16.0833 8.79167 15.6583 9.175 15.275L12 12.5L14.825 15.275C15.2083 15.6583 15.5 16.0833 15.7 16.55C15.9 17.0167 16 17.5167 16 18.05V18.275C16 18.3417 15.9917 18.4167 15.975 18.5C16.625 17.9167 17.125 17.2373 17.475 16.462C17.825 15.6867 18 14.866 18 14C18 13.1667 17.8457 12.379 17.537 11.637C17.2283 10.895 16.7827 10.2327 16.2 9.64999C15.8667 9.86666 15.5167 10.0293 15.15 10.138C14.7833 10.2467 14.4083 10.3007 14.025 10.3C12.9917 10.3 12.0957 9.95832 11.337 9.27499C10.5783 8.59166 10.141 7.74999 10.025 6.74999C8.725 7.84999 7.729 9.02099 7.037 10.263C6.345 11.505 5.99933 12.7507 6 14ZM12 15.3L10.575 16.7C10.3917 16.8833 10.25 17.0917 10.15 17.325C10.05 17.5583 10 17.8 10 18.05C10 18.5833 10.1957 19.0417 10.587 19.425C10.9783 19.8083 11.4493 20 12 20C12.55 20 13.0207 19.8083 13.412 19.425C13.8033 19.0417 13.9993 18.5833 14 18.05C14 17.7833 13.95 17.5373 13.85 17.312C13.75 17.0867 13.6083 16.8827 13.425 16.7L12 15.3Z" fill="#FF4500"/>
</svg>
