<svg width="24" height="24" viewBox="0 0 24 24" fill="none" xmlns="http://www.w3.org/2000/svg">
<path d="M21.0656 1.23233C20.8125 1.35233 20.3812 1.56046 19.7906 1.89514C18.9656 2.36296 18.0234 3.00327 17.639 3.50155C17.5547 3.61077 17.4047 3.98858 17.3203 4.31014C17.264 4.52061 17.2547 4.59233 17.2359 4.69686L19.2984 6.75936C19.4015 6.74061 19.4765 6.73124 19.6875 6.67499C20.0109 6.59061 20.3906 6.44061 20.4984 6.35624C20.9953 5.97186 21.6375 5.03436 22.1015 4.20983C22.439 3.61827 22.6453 3.18749 22.7672 2.93296L21.0656 1.23233ZM20.3906 2.54624L21.4547 3.60702L20.8547 4.20421L19.7906 3.14342L20.3906 2.54624ZM16.7765 5.42811L1.99168 20.2172C2.36012 20.3578 2.72574 20.6062 3.05903 20.939C3.39137 21.2719 3.63887 21.6375 3.78184 22.0031L18.5672 7.21874L16.7765 5.42811ZM16.3875 6.86717C16.389 6.86717 16.3906 6.86717 16.3922 6.86717C16.5877 6.86997 16.7744 6.94903 16.9125 7.08749C17.0527 7.22809 17.1315 7.41858 17.1315 7.61717C17.1315 7.81577 17.0527 8.00626 16.9125 8.14686C16.8428 8.21702 16.7599 8.27269 16.6686 8.31069C16.5772 8.34868 16.4793 8.36824 16.3804 8.36824C16.2815 8.36824 16.1836 8.34868 16.0923 8.31069C16.001 8.27269 15.9181 8.21702 15.8484 8.14686C15.7081 8.00626 15.6294 7.81577 15.6294 7.61717C15.6294 7.41858 15.7081 7.22809 15.8484 7.08749C15.919 7.01668 16.0031 6.96071 16.0957 6.92287C16.1883 6.88504 16.2875 6.8661 16.3875 6.86717ZM14.2734 8.99061C14.4666 8.99337 14.6514 9.07061 14.789 9.20624C14.8592 9.27594 14.9149 9.35883 14.9528 9.45014C14.9908 9.54145 15.0104 9.63937 15.0104 9.73827C15.0104 9.83716 14.9908 9.93508 14.9528 10.0264C14.9149 10.1177 14.8592 10.2006 14.789 10.2703C14.6484 10.4106 14.4579 10.4893 14.2593 10.4893C14.0607 10.4893 13.8703 10.4106 13.7297 10.2703C13.6595 10.2006 13.6038 10.1177 13.5658 10.0264C13.5278 9.93508 13.5083 9.83716 13.5083 9.73827C13.5083 9.63937 13.5278 9.54145 13.5658 9.45014C13.6038 9.35883 13.6595 9.27594 13.7297 9.20624C13.8012 9.1357 13.8862 9.08027 13.9796 9.04323C14.073 9.00619 14.1729 8.9883 14.2734 8.99061ZM12.15 11.1094C12.3455 11.1122 12.5322 11.1912 12.6703 11.3297C12.8105 11.4703 12.8893 11.6608 12.8893 11.8594C12.8893 12.058 12.8105 12.2484 12.6703 12.389C12.5297 12.5293 12.3392 12.6081 12.1406 12.6081C11.942 12.6081 11.7515 12.5293 11.6109 12.389C11.4706 12.2484 11.3919 12.058 11.3919 11.8594C11.3919 11.6608 11.4706 11.4703 11.6109 11.3297C11.6815 11.2589 11.7656 11.2029 11.8582 11.1651C11.9508 11.1272 12.05 11.1083 12.15 11.1094ZM10.0265 13.2328C10.0281 13.2328 10.0297 13.2328 10.0312 13.2328C10.2251 13.2368 10.4099 13.3158 10.5468 13.4531C10.6871 13.5937 10.7659 13.7842 10.7659 13.9828C10.7659 14.1814 10.6871 14.3719 10.5468 14.5125C10.4062 14.6527 10.2157 14.7315 10.0171 14.7315C9.81855 14.7315 9.62806 14.6527 9.48746 14.5125C9.3472 14.3719 9.26843 14.1814 9.26843 13.9828C9.26843 13.7842 9.3472 13.5937 9.48746 13.4531C9.55809 13.3823 9.64216 13.3263 9.73474 13.2885C9.82731 13.2507 9.92652 13.2317 10.0265 13.2328ZM7.90777 15.3562C8.10264 15.3578 8.28925 15.4351 8.42809 15.5719C8.49824 15.6416 8.55392 15.7245 8.59191 15.8158C8.6299 15.9071 8.64946 16.005 8.64946 16.1039C8.64946 16.2028 8.6299 16.3007 8.59191 16.392C8.55392 16.4833 8.49824 16.5662 8.42809 16.6359C8.35838 16.7061 8.27549 16.7618 8.18418 16.7997C8.09287 16.8377 7.99495 16.8573 7.89606 16.8573C7.79716 16.8573 7.69924 16.8377 7.60793 16.7997C7.51662 16.7618 7.43373 16.7061 7.36403 16.6359C7.29387 16.5662 7.23819 16.4833 7.2002 16.392C7.16221 16.3007 7.14265 16.2028 7.14265 16.1039C7.14265 16.005 7.16221 15.9071 7.2002 15.8158C7.23819 15.7245 7.29387 15.6416 7.36403 15.5719C7.43559 15.5013 7.5206 15.4459 7.61401 15.4089C7.70742 15.3718 7.80732 15.3539 7.90777 15.3562ZM1.36121 20.9297C1.29371 20.9297 1.26137 20.9484 1.25574 20.9531C1.2459 20.9625 1.19949 21.0609 1.2759 21.3047C1.35559 21.5484 1.55106 21.8719 1.83934 22.1578C2.12762 22.4484 2.44918 22.6453 2.69434 22.725C2.93621 22.8 3.03606 22.7531 3.0459 22.7437C3.05574 22.7344 3.10215 22.6312 3.02574 22.3922C2.94653 22.1484 2.75059 21.825 2.46231 21.5344C2.17403 21.2484 1.85246 21.0515 1.60731 20.9719C1.51684 20.9437 1.44606 20.9344 1.39262 20.9297H1.36121Z" fill="#B8860B"/>
</svg>
