<svg width="24" height="24" viewBox="0 0 24 24" fill="none" xmlns="http://www.w3.org/2000/svg">
<path d="M4.7275 15.497C3.87617 14.8434 3.18714 14.0022 2.71407 13.0388C2.241 12.0754 1.99663 11.0158 2 9.9425C2 6.1085 5.0525 3 8.818 3C11.9665 3 14.617 5.173 15.401 8.1265C16.0357 7.79843 16.74 7.62763 17.4545 7.6285C19.9645 7.6285 22 9.7005 22 12.257C22 14.1545 20.878 15.786 19.2725 16.5" stroke="#B0E0E6" stroke-width="4" stroke-linecap="round" stroke-linejoin="round"/>
<path d="M11.1215 7.8785C10.5573 7.32346 9.79672 7.01383 9.00531 7.01705C8.2139 7.02028 7.45582 7.33609 6.8962 7.89571C6.33659 8.45533 6.02077 9.2134 6.01755 10.0048C6.01433 10.7962 6.32396 11.5568 6.879 12.121M10 17H14M5 21H10M14 21H19M13 13H17" stroke="#B0E0E6" stroke-width="4" stroke-linecap="round" stroke-linejoin="round"/>
</svg>
