<svg width="24" height="24" viewBox="0 0 24 24" fill="none" xmlns="http://www.w3.org/2000/svg">
<path d="M7.56006 12.975C7.56006 12.4605 7.98306 12.0375 8.49756 12.0375C9.01206 12.0375 9.43506 12.4605 9.43506 12.975V14.1C9.43506 14.3486 9.33629 14.5871 9.16047 14.7629C8.98466 14.9387 8.7462 15.0375 8.49756 15.0375C8.24892 15.0375 8.01046 14.9387 7.83465 14.7629C7.65883 14.5871 7.56006 14.3486 7.56006 14.1V12.975ZM13.8751 12.975C13.8751 12.4605 14.2981 12.0375 14.8126 12.0375C15.3271 12.0375 15.7501 12.4605 15.7501 12.975V14.1C15.7501 14.3486 15.6513 14.5871 15.4755 14.7629C15.2997 14.9387 15.0612 15.0375 14.8126 15.0375C14.5639 15.0375 14.3255 14.9387 14.1496 14.7629C13.9738 14.5871 13.8751 14.3486 13.8751 14.1V12.975Z" fill="#FF4500"/>
<path d="M14.754 1.13324C14.2618 1.54177 13.8221 2.00985 13.4453 2.52674C12.9743 3.15524 12.5903 3.84674 12.3038 4.58174L12.0038 5.24999H12.075H11.2793C10.7992 3.63397 9.85675 2.19377 8.56801 1.10699C8.30699 0.903957 7.9906 0.784725 7.66051 0.764988C7.44624 0.734275 7.22796 0.747636 7.01904 0.804251C6.81011 0.860867 6.61495 0.959544 6.44551 1.09424L6.44326 1.09649C5.86576 1.56374 5.42926 2.12174 5.07226 2.71274C4.00641 4.20045 3.43381 5.98488 3.43501 7.81499V13.5H1.97251C1.78539 13.4995 1.60073 13.5427 1.43319 13.626C1.26564 13.7093 1.11981 13.8305 1.00726 13.98C0.891582 14.1304 0.812631 14.3058 0.776694 14.4921C0.740756 14.6784 0.748825 14.8706 0.800257 15.0532C1.4727 17.4094 2.89294 19.483 4.84682 20.9615C6.8007 22.44 9.18229 23.2432 11.6325 23.25H11.7375C14.1885 23.2438 16.5709 22.4403 18.5251 20.961C20.4793 19.4817 21.8993 17.4068 22.5705 15.0495C22.6205 14.8677 22.6278 14.6769 22.592 14.4918C22.5561 14.3068 22.4781 14.1325 22.3638 13.9825C22.2496 13.8326 22.1023 13.711 21.9334 13.6273C21.7645 13.5436 21.5785 13.5001 21.39 13.5H19.9275V7.81499C19.93 5.58848 19.0814 3.44522 17.5553 1.82399C17.321 1.55911 17.0643 1.31495 16.788 1.09424C16.5056 0.870248 16.1555 0.748864 15.795 0.749988C15.4338 0.748591 15.0829 0.869978 14.7998 1.09424L14.754 1.13324ZM4.93801 7.81574C4.93529 6.93949 5.0921 6.07007 5.40076 5.24999H5.93626C5.51647 6.23178 5.30084 7.28872 5.30251 8.35649V10.3125C5.5217 9.91689 5.77252 9.53967 6.05251 9.18449C6.99001 7.99649 8.22151 7.11299 9.62251 6.66749C9.51693 6.18148 9.36472 5.70678 9.16801 5.24999H9.70351C9.81676 5.55149 9.91126 5.86199 9.98476 6.17849L10.125 6.74999H13.2338L13.374 6.17774C13.447 5.86266 13.5407 5.55274 13.6545 5.24999H14.1795C13.9828 5.70809 13.8307 6.18403 13.725 6.67124C15.1305 7.11674 16.3665 8.00024 17.3025 9.18374C17.58 9.53474 17.8313 9.91199 18.0525 10.3125V8.37899C18.0525 7.27649 17.8283 6.21149 17.4135 5.24999H17.9648C18.2738 6.06971 18.4306 6.93895 18.4275 7.81499V13.6425C18.4279 14.0024 18.5711 14.3475 18.8255 14.6019C19.08 14.8564 19.4251 14.9996 19.785 15H21.018C20.9775 15.1237 20.9355 15.246 20.8905 15.3675H16.7025C15.5068 15.3677 14.3332 15.69 13.305 16.3005C13.4565 15.8572 13.14 15.3375 12.6113 15.3375H10.7063C10.5936 15.3367 10.4822 15.3618 10.3808 15.411C10.2794 15.4601 10.1907 15.532 10.1215 15.621C10.0524 15.71 10.0047 15.8138 9.98216 15.9242C9.95961 16.0346 9.96281 16.1488 9.99151 16.2577C8.98068 15.6748 7.83438 15.3678 6.66751 15.3675H2.47951C2.43451 15.246 2.39176 15.1237 2.35126 15H3.57751C3.93781 15.0004 4.28352 14.8577 4.53864 14.6033C4.79376 14.3489 4.93741 14.0035 4.93801 13.6432V7.81574ZM7.52026 4.04174C7.75276 4.30424 7.95976 4.58699 8.13901 4.88549L8.26801 5.10074C8.44951 5.45024 8.60176 5.81849 8.72326 6.20099C7.72126 6.62975 6.8154 7.25508 6.05926 8.03999C6.12451 6.53774 6.65251 5.13374 7.52026 4.04174ZM20.5755 16.1175C19.7876 17.7974 18.5385 19.2189 16.9738 20.2161C15.409 21.2133 13.593 21.7453 11.7375 21.75H11.6325C9.77694 21.7451 7.96096 21.213 6.39611 20.2158C4.83127 19.2186 3.58197 17.7973 2.79376 16.1175H6.66751C7.90205 16.1176 9.1055 16.5047 10.1085 17.2245L10.11 17.2252L11.2988 18.0727C11.2724 18.4597 11.1001 18.8222 10.8169 19.0871C10.5336 19.352 10.1603 19.4996 9.77251 19.5C9.56251 19.5 9.39751 19.665 9.39751 19.875C9.39751 20.085 9.56251 20.25 9.77251 20.25C10.5675 20.25 11.2725 19.8375 11.685 19.2225C12.09 19.8375 12.795 20.25 13.59 20.25C13.7925 20.25 13.9575 20.085 13.9575 19.875C13.9575 19.665 13.7925 19.5 13.5825 19.5C12.78 19.5 12.1148 18.8775 12.057 18.0825L13.26 17.2252H13.2615C14.2645 16.5053 15.4679 16.1179 16.7025 16.1175H20.5755ZM14.6243 6.20399C14.8725 5.40524 15.2692 4.66047 15.7935 4.00874C16.683 5.09774 17.2245 6.51599 17.295 8.03999C16.5363 7.25582 15.6282 6.63155 14.6243 6.20399Z" fill="#FF4500"/>
</svg>
