<svg width="24" height="24" viewBox="0 0 24 24" fill="none" xmlns="http://www.w3.org/2000/svg">
<g clip-path="url(#clip0_428_45)">
<path d="M15.3333 1.5C17.0708 1.5 18.4958 2.99062 18.6542 4.89844L22.2208 6.13125C23.2792 6.49688 24.0042 7.59844 24.0042 8.84531C24.0042 9.86719 23.5167 10.8094 22.725 11.3156L16.7 15.1641L20.5542 19.5H22.6667C23.4042 19.5 24 20.1703 24 21C24 21.8297 23.4042 22.5 22.6667 22.5H20C19.6458 22.5 19.3083 22.3406 19.0583 22.0594L14.4542 16.8844C14.9417 15.1969 14.5875 13.2703 13.3958 11.9297C11.7042 10.0266 8.96667 10.0266 7.275 11.925L4.20833 15.2062C3.94167 15.4922 3.92917 15.9656 4.18333 16.2656C4.4375 16.5656 4.85833 16.575 5.125 16.2938L8.2 13.0031L8.20417 12.9984L8.20833 12.9938C8.35417 12.8297 8.5125 12.6844 8.67917 12.5625C9.84167 11.6953 11.425 11.8406 12.45 12.9938C13.4792 14.1516 13.6042 15.9422 12.825 17.2547C12.7167 17.4328 12.5917 17.6062 12.45 17.7656L10.9083 19.5H14.6667C15.4042 19.5 16 20.1703 16 21C16 21.8297 15.4042 22.5 14.6667 22.5H2.66667C1.19583 22.5 0 21.1547 0 19.5C0 11.7 5.29167 5.29219 12.0542 4.57031C12.3417 2.82188 13.7 1.5 15.3333 1.5ZM15.3333 6.375C15.4647 6.375 15.5947 6.3459 15.716 6.28936C15.8373 6.23283 15.9476 6.14996 16.0404 6.0455C16.1333 5.94103 16.207 5.81701 16.2572 5.68052C16.3075 5.54403 16.3333 5.39774 16.3333 5.25C16.3333 5.10226 16.3075 4.95597 16.2572 4.81948C16.207 4.68299 16.1333 4.55897 16.0404 4.4545C15.9476 4.35004 15.8373 4.26717 15.716 4.21064C15.5947 4.1541 15.4647 4.125 15.3333 4.125C15.202 4.125 15.072 4.1541 14.9506 4.21064C14.8293 4.26717 14.7191 4.35004 14.6262 4.4545C14.5334 4.55897 14.4597 4.68299 14.4095 4.81948C14.3592 4.95597 14.3333 5.10226 14.3333 5.25C14.3333 5.39774 14.3592 5.54403 14.4095 5.68052C14.4597 5.81701 14.5334 5.94103 14.6262 6.0455C14.7191 6.14996 14.8293 6.23283 14.9506 6.28936C15.072 6.3459 15.202 6.375 15.3333 6.375Z" fill="#ADFF2F"/>
</g>
<defs>
<clipPath id="clip0_428_45">
<rect width="24" height="24" fill="white"/>
</clipPath>
</defs>
</svg>
