<svg width="26" height="29" viewBox="0 0 26 29" fill="none" xmlns="http://www.w3.org/2000/svg">
<g filter="url(#filter0_d_428_28)">
<path d="M20 3H6C4.9 3 4 3.9 4 5V19C4 20.1 4.9 21 6 21H20C21.1 21 22 20.1 22 19V5C22 3.9 21.1 3 20 3ZM20 11H14V5H20V11ZM12 5V11H6V5H12ZM6 13H12V19H6V13ZM14 19V13H20V19H14Z" fill="#F5FFFA"/>
</g>
<defs>
<filter id="filter0_d_428_28" x="-3" y="0" width="32" height="32" filterUnits="userSpaceOnUse" color-interpolation-filters="sRGB">
<feFlood flood-opacity="0" result="BackgroundImageFix"/>
<feColorMatrix in="SourceAlpha" type="matrix" values="0 0 0 0 0 0 0 0 0 0 0 0 0 0 0 0 0 0 127 0" result="hardAlpha"/>
<feOffset dy="4"/>
<feGaussianBlur stdDeviation="2"/>
<feComposite in2="hardAlpha" operator="out"/>
<feColorMatrix type="matrix" values="0 0 0 0 0 0 0 0 0 0 0 0 0 0 0 0 0 0 0.25 0"/>
<feBlend mode="normal" in2="BackgroundImageFix" result="effect1_dropShadow_428_28"/>
<feBlend mode="normal" in="SourceGraphic" in2="effect1_dropShadow_428_28" result="shape"/>
</filter>
</defs>
</svg>
