<svg width="24" height="24" viewBox="0 0 24 24" fill="none" xmlns="http://www.w3.org/2000/svg">
<path d="M19.1253 13.5413C19.1253 17.478 15.936 20.6667 12 20.6667C8.06466 20.6667 4.87466 17.478 4.87466 13.5413C4.87466 9.606 8.06533 6.41533 12 6.41533C15.936 6.416 19.1253 9.606 19.1253 13.5413Z" fill="#6D6E71"/>
<path d="M17.3333 22.3333H6.66667C5.55667 22.3333 5.014 21.4407 4.82467 20.7933L3.04867 20.756C2.99807 20.755 2.94836 20.7426 2.90332 20.7195C2.85828 20.6964 2.81909 20.6634 2.78875 20.6229C2.75841 20.5824 2.7377 20.5355 2.72822 20.4858C2.71873 20.4361 2.72071 20.3848 2.734 20.336L3.13 18.8587L1.49934 18.4247C1.44946 18.4113 1.40336 18.3865 1.36468 18.3523C1.32599 18.318 1.29577 18.2753 1.27639 18.2274C1.25701 18.1796 1.24899 18.1279 1.25298 18.0764C1.25696 18.0249 1.27283 17.975 1.29934 17.9307L2.09867 16.602L0.661336 15.8073C0.615816 15.7817 0.576908 15.7458 0.547712 15.7025C0.518516 15.6592 0.499839 15.6097 0.49317 15.5579C0.4865 15.5061 0.492023 15.4535 0.509298 15.4042C0.526572 15.3549 0.555121 15.3103 0.592669 15.274L1.74534 14.176L0.592669 13.0787C0.55499 13.0424 0.526323 12.9979 0.508967 12.9486C0.49161 12.8993 0.486047 12.8466 0.492722 12.7947C0.499398 12.7429 0.518126 12.6933 0.547407 12.65C0.576688 12.6067 0.615707 12.5709 0.661336 12.5453L2.09867 11.7493L1.29867 10.42C1.27202 10.3757 1.25603 10.3258 1.25198 10.2743C1.24793 10.2228 1.25592 10.171 1.27532 10.1231C1.29472 10.0752 1.32499 10.0324 1.36376 9.9982C1.40252 9.964 1.44871 9.93929 1.49867 9.92601L3.12934 9.49267L2.73334 8.01401C2.7203 7.96514 2.71853 7.91395 2.72817 7.8643C2.7378 7.81465 2.75859 7.76784 2.78895 7.72739C2.81932 7.68694 2.85848 7.65392 2.90347 7.63082C2.94846 7.60771 2.99811 7.59513 3.04867 7.59401L4.76534 7.55867L4.804 6.02401C4.8053 5.97487 4.81744 5.92662 4.83957 5.88272C4.8617 5.83883 4.89327 5.80037 4.93201 5.77011C4.97074 5.73984 5.0157 5.71852 5.06364 5.70767C5.11159 5.69682 5.16134 5.69671 5.20934 5.70734L6.89 6.08134L7.368 4.59201C7.38292 4.54645 7.40746 4.50464 7.43994 4.46939C7.47243 4.43414 7.5121 4.40628 7.55629 4.3877C7.60047 4.36911 7.64814 4.36024 7.69605 4.36167C7.74396 4.36311 7.79101 4.37481 7.834 4.39601L9.35667 5.15534L10.2507 3.81601C10.2771 3.7767 10.3116 3.74343 10.3518 3.71839C10.392 3.69334 10.4371 3.67708 10.484 3.67067C10.5309 3.66419 10.5787 3.66793 10.624 3.68162C10.6693 3.69531 10.7112 3.71864 10.7467 3.75001L12 4.83867L13.2533 3.74801C13.2891 3.71693 13.3311 3.69383 13.3765 3.68025C13.422 3.66666 13.4697 3.66289 13.5167 3.6692C13.5637 3.6755 13.6088 3.69174 13.649 3.71682C13.6892 3.7419 13.7237 3.77526 13.75 3.81467L14.6433 5.15401L16.1673 4.39467C16.2103 4.37325 16.2574 4.36136 16.3054 4.35981C16.3533 4.35827 16.4011 4.3671 16.4453 4.38571C16.4896 4.40432 16.5293 4.43227 16.5617 4.46765C16.5942 4.50302 16.6186 4.54499 16.6333 4.59067L17.1107 6.08001L18.7913 5.70601C18.8393 5.69537 18.8891 5.69548 18.937 5.70633C18.985 5.71719 19.0299 5.73851 19.0687 5.76877C19.1074 5.79904 19.139 5.83749 19.1611 5.88139C19.1832 5.92529 19.1954 5.97353 19.1967 6.02267L19.2353 7.55734L20.9513 7.59267C21.0019 7.59363 21.0516 7.60613 21.0967 7.6292C21.1417 7.65227 21.1809 7.68532 21.2113 7.72582C21.2416 7.76632 21.2623 7.81321 21.2718 7.86292C21.2813 7.91263 21.2793 7.96384 21.266 8.01267L20.8693 9.49067L22.502 9.92401C22.5518 9.93756 22.5978 9.96243 22.6364 9.99665C22.675 10.0309 22.7052 10.0736 22.7246 10.1214C22.744 10.1692 22.7521 10.2208 22.7483 10.2722C22.7445 10.3237 22.7289 10.3736 22.7027 10.418L21.902 11.7473L23.3387 12.5433C23.3845 12.5687 23.4238 12.6044 23.4532 12.6477C23.4827 12.691 23.5015 12.7407 23.5082 12.7926C23.5149 12.8445 23.5092 12.8973 23.4917 12.9467C23.4742 12.996 23.4453 13.0406 23.4073 13.0767L22.2547 14.174L23.4073 15.272C23.4453 15.3081 23.4742 15.3526 23.4917 15.402C23.5092 15.4513 23.5149 15.5041 23.5082 15.5561C23.5015 15.608 23.4827 15.6577 23.4532 15.701C23.4238 15.7443 23.3845 15.78 23.3387 15.8053L21.9027 16.6L22.7027 17.9287C22.7293 17.973 22.7453 18.0229 22.7494 18.0744C22.7534 18.1259 22.7454 18.1777 22.726 18.2256C22.7066 18.2735 22.6763 18.3163 22.6376 18.3505C22.5988 18.3847 22.5526 18.4094 22.5027 18.4227L20.8693 18.8567L21.266 20.334C21.2792 20.3828 21.281 20.434 21.2715 20.4837C21.262 20.5333 21.2412 20.5801 21.2109 20.6206C21.1806 20.6611 21.1415 20.6941 21.0965 20.7172C21.0515 20.7403 21.0019 20.7529 20.9513 20.754L19.176 20.7913C18.986 21.4407 18.4433 22.3333 17.3333 22.3333Z" fill="#662113"/>
<path d="M10.792 19.216C10.7371 19.216 10.6831 19.2024 10.6347 19.1764C10.5863 19.1505 10.5451 19.113 10.5147 19.0673L9.80933 18.0107L8.606 18.61C8.56293 18.6313 8.51578 18.6431 8.46776 18.6445C8.41973 18.646 8.37196 18.6371 8.32768 18.6184C8.28341 18.5997 8.24367 18.5718 8.21117 18.5364C8.17867 18.501 8.15417 18.459 8.13933 18.4133L7.76333 17.242L6.43667 17.5367C6.38855 17.5477 6.33858 17.5478 6.2904 17.5371C6.24222 17.5263 6.19704 17.505 6.15815 17.4746C6.11926 17.4442 6.08764 17.4055 6.06559 17.3614C6.04353 17.3172 6.0316 17.2687 6.03067 17.2193L6.00067 16.0167L4.648 15.988C4.5974 15.987 4.54769 15.9745 4.50265 15.9515C4.45761 15.9284 4.41842 15.8954 4.38808 15.8549C4.35774 15.8144 4.33703 15.7675 4.32755 15.7178C4.31806 15.668 4.32004 15.6168 4.33333 15.568L4.64267 14.4133L3.36267 14.0733C3.31279 14.0599 3.26669 14.0351 3.22801 14.0009C3.18932 13.9667 3.1591 13.924 3.13972 13.8761C3.12034 13.8282 3.11232 13.7765 3.11631 13.725C3.12029 13.6735 3.13616 13.6237 3.16267 13.5793L3.78733 12.5413L2.662 11.9187C2.61592 11.8936 2.57645 11.8579 2.54682 11.8146C2.5172 11.7713 2.49826 11.7216 2.49156 11.6695C2.48486 11.6175 2.49059 11.5646 2.50828 11.5152C2.52597 11.4658 2.55512 11.4213 2.59333 11.3853L3.49467 10.526L2.59333 9.66799C2.55565 9.63176 2.52699 9.5872 2.50963 9.53789C2.49227 9.48858 2.48671 9.43589 2.49339 9.38404C2.50006 9.33219 2.51879 9.28263 2.54807 9.23932C2.57735 9.19601 2.61637 9.16017 2.662 9.13466L3.788 8.51133L3.16333 7.47266C3.13668 7.42836 3.1207 7.37848 3.11664 7.32694C3.11259 7.27541 3.12058 7.22364 3.13998 7.17572C3.15938 7.1278 3.18966 7.08506 3.22842 7.05085C3.26719 7.01665 3.31337 6.99194 3.36333 6.97866L4.64467 6.63799L4.334 5.48333C4.32096 5.43446 4.3192 5.38327 4.32883 5.33362C4.33847 5.28397 4.35925 5.23715 4.38962 5.19671C4.41998 5.15626 4.45914 5.12324 4.50413 5.10014C4.54912 5.07703 4.59877 5.06444 4.64933 5.06333L6.002 5.03533L6.032 3.83199C6.03329 3.78285 6.04544 3.7346 6.06757 3.69071C6.0897 3.64681 6.12126 3.60835 6.16 3.57809C6.19874 3.54783 6.24369 3.5265 6.29164 3.51565C6.33959 3.5048 6.38934 3.50469 6.43733 3.51533L7.764 3.80999L8.14 2.63933C8.155 2.59375 8.1796 2.55193 8.21215 2.51668C8.2447 2.48143 8.28444 2.45357 8.32867 2.43499C8.37291 2.41641 8.42062 2.40754 8.46857 2.40898C8.51653 2.41042 8.56362 2.42213 8.60667 2.44333L9.81 3.04266L10.5153 1.98666C10.5418 1.94738 10.5763 1.91417 10.6165 1.88921C10.6568 1.86425 10.7019 1.84812 10.7488 1.84188C10.7958 1.83565 10.8435 1.83944 10.8889 1.85302C10.9342 1.8666 10.9762 1.88966 11.012 1.92066L12 2.78133L12.9893 1.92066C13.025 1.88945 13.067 1.86622 13.1124 1.85252C13.1578 1.83882 13.2056 1.83496 13.2526 1.84121C13.2996 1.84745 13.3448 1.86366 13.385 1.88874C13.4252 1.91383 13.4597 1.94721 13.486 1.98666L14.1907 3.04199L15.3953 2.44199C15.4383 2.42058 15.4855 2.40872 15.5335 2.40722C15.5815 2.40571 15.6293 2.4146 15.6735 2.43328C15.7178 2.45196 15.7575 2.47998 15.7899 2.51543C15.8223 2.55088 15.8467 2.59291 15.8613 2.63866L16.236 3.80933L17.5633 3.51466C17.6114 3.50402 17.6612 3.50414 17.7092 3.51503C17.7572 3.52592 17.8022 3.5473 17.8409 3.57764C17.8797 3.60797 17.9112 3.64652 17.9333 3.69049C17.9554 3.73447 17.9675 3.78279 17.9687 3.83199L17.9987 5.03466L19.3507 5.06266C19.4013 5.06362 19.451 5.07611 19.496 5.09918C19.5411 5.12226 19.5802 5.1553 19.6106 5.1958C19.6409 5.2363 19.6616 5.28319 19.6711 5.3329C19.6806 5.38261 19.6786 5.43383 19.6653 5.48266L19.3553 6.63866L20.638 6.97933C20.6881 6.9924 20.7345 7.01699 20.7734 7.05114C20.8123 7.08528 20.8427 7.12804 20.8622 7.17601C20.8817 7.22398 20.8897 7.27584 20.8856 7.32745C20.8815 7.37907 20.8655 7.42902 20.8387 7.47333L20.2133 8.51199L21.3393 9.13533C21.3852 9.16064 21.4244 9.19639 21.4539 9.2397C21.4833 9.28301 21.5022 9.33264 21.5089 9.38459C21.5155 9.43653 21.5099 9.48932 21.4924 9.53868C21.4749 9.58803 21.4459 9.63256 21.408 9.66866L20.506 10.5267L21.408 11.386C21.4459 11.4221 21.4749 11.4666 21.4924 11.516C21.5099 11.5653 21.5155 11.6181 21.5089 11.6701C21.5022 11.722 21.4833 11.7716 21.4539 11.815C21.4244 11.8583 21.3852 11.894 21.3393 11.9193L20.214 12.542L20.8393 13.58C20.866 13.6243 20.882 13.6742 20.886 13.7257C20.8901 13.7772 20.8821 13.829 20.8627 13.8769C20.8433 13.9249 20.813 13.9676 20.7742 14.0018C20.7355 14.036 20.6893 14.0607 20.6393 14.074L19.356 14.4153L19.666 15.57C19.6792 15.6188 19.681 15.67 19.6715 15.7196C19.662 15.7693 19.6412 15.8161 19.6109 15.8566C19.5806 15.8971 19.5415 15.9301 19.4965 15.9532C19.4515 15.9763 19.4019 15.9889 19.3513 15.99L17.9993 16.0187L17.9693 17.2213C17.9681 17.2705 17.9561 17.3188 17.934 17.3628C17.9119 17.4068 17.8803 17.4453 17.8416 17.4757C17.8028 17.506 17.7578 17.5274 17.7098 17.5383C17.6619 17.5492 17.612 17.5493 17.564 17.5387L16.2367 17.244L15.862 18.4153C15.8471 18.4609 15.8227 18.5028 15.7902 18.5381C15.7578 18.5735 15.7181 18.6014 15.6739 18.6201C15.6297 18.6387 15.582 18.6476 15.5341 18.6462C15.4861 18.6449 15.439 18.6332 15.396 18.612L14.192 18.0127L13.4867 19.0693C13.4602 19.1086 13.4257 19.1418 13.3855 19.1667C13.3453 19.1917 13.3002 19.2078 13.2533 19.2141C13.2064 19.2204 13.1587 19.2167 13.1133 19.2033C13.0679 19.1898 13.0259 19.1669 12.99 19.136L12 18.2713L11.0113 19.134C10.9505 19.1869 10.8726 19.216 10.792 19.216Z" fill="#8A4B38"/>
<path d="M9 18.0347H15C17.3473 18.0347 19.3333 19.7513 19.3333 21.0347C19.3333 22.1347 18.4333 22.368 17.3333 22.368H6.66666C5.56666 22.368 4.66666 22.1347 4.66666 21.0347C4.66666 19.7513 6.66 18.0347 9 18.0347Z" fill="#8A4B38"/>
<path d="M17.4813 15.186C17.4813 17.9113 15.028 20.118 12 20.118C8.972 20.118 6.51867 17.9113 6.51867 15.186C6.51867 12.4613 8.972 10.2527 12 10.2527C15.028 10.2527 17.4813 12.4613 17.4813 15.186Z" fill="#D99E82"/>
<path d="M14.1927 17.6527C14.1927 19.0147 13.2107 20.1187 12 20.1187C10.7893 20.1187 9.80733 19.0147 9.80733 17.6527C9.80733 16.2907 10.7887 15.1867 12 15.1867C13.2113 15.1867 14.1927 16.29 14.1927 17.6527Z" fill="#E6E7E8"/>
<path d="M13.0967 18.474C13.0967 18.7648 12.9811 19.0438 12.7755 19.2495C12.5698 19.4551 12.2909 19.5707 12 19.5707C11.7091 19.5707 11.4302 19.4551 11.2245 19.2495C11.0189 19.0438 10.9033 18.7648 10.9033 18.474C10.9033 17.8687 11.394 17.3793 12 17.3793C12.606 17.3793 13.0967 17.8687 13.0967 18.474ZM9.80733 14.3633C9.80742 14.4713 9.78624 14.5782 9.74501 14.6779C9.70379 14.7777 9.64331 14.8684 9.56704 14.9448C9.49078 15.0212 9.40021 15.0818 9.30051 15.1232C9.20082 15.1646 9.09394 15.1859 8.986 15.186C8.87805 15.1861 8.77114 15.1649 8.67138 15.1237C8.57162 15.0824 8.48095 15.022 8.40456 14.9457C8.32817 14.8694 8.26755 14.7789 8.22616 14.6792C8.18477 14.5795 8.16342 14.4726 8.16333 14.3647C8.16315 14.1467 8.24959 13.9375 8.40362 13.7832C8.55765 13.6289 8.76666 13.5422 8.98466 13.542C9.20267 13.5418 9.41182 13.6282 9.5661 13.7823C9.72038 13.9363 9.80715 14.1453 9.80733 14.3633ZM15.8367 14.3633C15.8368 14.4713 15.8156 14.5782 15.7743 14.6779C15.7331 14.7777 15.6726 14.8684 15.5964 14.9448C15.5201 15.0212 15.4295 15.0818 15.3298 15.1232C15.2301 15.1646 15.1233 15.1859 15.0153 15.186C14.9074 15.1861 14.8005 15.1649 14.7007 15.1237C14.601 15.0824 14.5103 15.022 14.4339 14.9457C14.3575 14.8694 14.2969 14.7789 14.2555 14.6792C14.2141 14.5795 14.1928 14.4726 14.1927 14.3647C14.1925 14.1467 14.2789 13.9375 14.4329 13.7832C14.587 13.6289 14.796 13.5422 15.014 13.542C15.232 13.5418 15.4412 13.6282 15.5954 13.7823C15.7497 13.9363 15.8365 14.1453 15.8367 14.3633Z" fill="#231F20"/>
<path d="M7.61467 11.8973C7.61467 11.8973 10.3553 10.8013 10.9033 11.8973C11.452 12.9933 12 12.9933 12 12.9933V9.70399C12 9.70466 7.61467 9.70466 7.61467 11.8973ZM16.3847 11.8973C16.3847 11.8973 13.6447 10.8013 13.096 11.8973C12.548 12.9933 12 12.9933 12 12.9933V9.70399C12 9.70466 16.3847 9.70466 16.3847 11.8973Z" fill="#C1694F"/>
<path d="M8.16333 12.1707C8.16342 12.3506 8.12807 12.5287 8.0593 12.695C7.99053 12.8612 7.88969 13.0123 7.76254 13.1396C7.63539 13.2669 7.48441 13.3679 7.31822 13.4368C7.15204 13.5057 6.97391 13.5412 6.794 13.5413C6.61409 13.5414 6.43592 13.5061 6.26967 13.4373C6.10342 13.3685 5.95235 13.2677 5.82507 13.1405C5.69779 13.0134 5.5968 12.8624 5.52787 12.6962C5.45894 12.53 5.42342 12.3519 5.42333 12.172C5.42316 11.8086 5.56733 11.4601 5.82412 11.2031C6.08092 10.946 6.42932 10.8015 6.79267 10.8013C7.15601 10.8012 7.50455 10.9453 7.7616 11.2021C8.01865 11.4589 8.16316 11.8073 8.16333 12.1707ZM18.5773 12.1707C18.5774 12.3506 18.542 12.5287 18.4732 12.695C18.4044 12.8612 18.3035 13.0122 18.1763 13.1395C18.0491 13.2667 17.8981 13.3677 17.7319 13.4366C17.5657 13.5055 17.3876 13.541 17.2077 13.541C17.0278 13.541 16.8496 13.5056 16.6834 13.4368C16.5171 13.368 16.3661 13.2672 16.2388 13.14C16.1116 13.0128 16.0106 12.8618 15.9417 12.6956C15.8729 12.5294 15.8374 12.3512 15.8373 12.1713C15.8372 11.808 15.9815 11.4595 16.2384 11.2025C16.4952 10.9455 16.8437 10.8011 17.207 10.801C17.5703 10.8009 17.9188 10.9452 18.1758 11.202C18.4328 11.4589 18.5772 11.8073 18.5773 12.1707ZM7.33333 23.3333C6 23.3333 6 20.6667 8.66667 20.6667C11.3333 20.6667 11.3747 23.3333 10 23.3333H7.33333ZM14 23.3333C12.6667 23.3333 12.6667 20.6667 15.3333 20.6667C18 20.6667 18.0413 23.3333 16.6667 23.3333H14Z" fill="#D99E82"/>
</svg>
