<svg width="24" height="24" viewBox="0 0 24 24" fill="none" xmlns="http://www.w3.org/2000/svg">
<path d="M21.1627 2.30859L17.8711 2.31445L17.6147 2.31305L17.4874 2.53125L15.8775 5.29102L13.1177 5.29688L11.6558 2.79492L11.5327 2.57367L11.2764 2.57086L7.98493 2.57667L7.72712 2.57517L7.60112 2.79342L6.00737 5.5268L2.93415 5.53266L2.67774 5.53125L2.55033 5.7495L0.90535 8.57081L0.77935 8.78906L0.909662 9.00881L2.36869 11.5063L0.786662 14.2222L0.659256 14.4404L0.789662 14.6602L2.43615 17.4771L2.55769 17.6997L2.81551 17.7011L5.99419 17.6953L7.44873 20.1811L7.57037 20.4037L7.82818 20.4053L10.9966 20.3994L12.4585 22.9014L12.5816 23.1225L12.838 23.1255L16.1295 23.1197L16.3785 23.124L16.506 22.9058L18.107 20.1694L21.1803 20.1636L21.4293 20.168L21.5553 19.9498L23.2091 17.1255L23.3351 16.9073L23.2048 16.6875L21.5582 13.8706L21.4366 13.6494L21.1788 13.6466L18.0104 13.6524L16.7359 11.4727L18.2799 8.83158L21.1642 8.82572L21.4132 8.83017L21.5392 8.61192L23.1915 5.7877L23.319 5.56941L23.1886 5.34966L21.5421 2.53275L21.4205 2.31159L21.1627 2.30869L21.1627 2.30859ZM20.9121 3.18309L22.2949 5.57812L20.9107 7.95413L18.1231 7.95848L16.7344 5.57231L18.1245 3.18609L20.9122 3.18309H20.9121ZM5.97516 6.40134L7.35798 8.79638L5.97366 11.1724L3.18601 11.1768L1.79738 8.79052L3.18751 6.40434L5.97516 6.40139V6.40134ZM10.9863 9.12009L12.3237 11.4404L10.8999 13.8838L8.19146 13.8882L6.80865 11.5108L8.19877 9.12455L10.9864 9.12014L10.9863 9.12009ZM15.9229 11.8081L17.2998 14.1958L15.9155 16.5733L13.128 16.5761L11.7818 14.2632L13.2144 11.8125L15.9229 11.8081ZM20.9282 14.521L22.311 16.9161L20.9268 19.2921L18.1391 19.295L16.7505 16.9102L18.1406 14.5239L20.9283 14.521H20.9282ZM10.8721 14.7643L12.2505 17.1533L10.8663 19.5293L8.07863 19.5323L6.68996 17.146L8.07558 14.7687L10.872 14.7643H10.8721Z" fill="#FFD700"/>
</svg>
