<svg width="24" height="24" viewBox="0 0 24 24" fill="none" xmlns="http://www.w3.org/2000/svg">
<path d="M12.7106 2.68124C12.7106 2.68124 13.5618 3.47999 14.8612 3.98812C16.3781 4.58249 18.9674 4.23937 19.5993 5.42624C20.2593 6.66749 18.8943 8.09249 19.1249 8.83124C19.3518 9.56062 21.5737 9.68624 21.8437 11.3925C22.1212 13.1475 20.7018 13.8731 20.8406 14.4544C21.0018 15.1275 22.5956 15.3919 22.6349 16.6444C22.6649 17.6212 21.7631 18.5212 21.6862 19.125C21.5549 20.1431 22.2112 20.6681 21.8306 21.66C21.6187 22.2112 21.1049 22.4775 20.7356 22.5581C20.3662 22.6387 18.0168 18.9675 18.0168 18.9675L12.3149 3.28874L12.7106 2.68124Z" fill="#845846"/>
<path d="M9.20995 5.97186C9.20995 5.97186 6.92245 7.55624 5.81433 8.82186C4.7062 10.0875 3.40308 11.6025 3.31495 11.6719C3.22683 11.7431 1.6612 12.57 1.29183 14.0475C1.0462 15.0281 1.6087 16.44 2.43558 16.8975C3.26245 17.355 4.06308 17.2725 4.98745 16.7737C5.90245 16.2806 6.55308 15.7706 6.55308 15.7706C6.55308 15.7706 8.3962 15.7912 9.14058 15.735C10.0912 15.6637 11.1825 15.4537 11.1825 15.4537C11.1825 15.4537 10.7006 17.3156 10.5487 18.5137C10.3593 20.0081 9.80995 22.1587 9.95058 22.335C10.0912 22.5112 11.4337 22.86 13.4175 23.0044C15.6993 23.1694 18.5475 22.9575 19.2318 22.8394C19.9912 22.7081 20.6681 22.635 20.7393 22.5037C20.8106 22.3725 20.4937 20.085 20.265 18.4781C19.7943 15.1819 18.1312 10.7775 17.55 9.66936C16.9687 8.56124 16.2881 7.46811 15.4256 6.53436C14.5631 5.60061 13.9818 5.30249 13.9818 5.30249C13.9818 5.30249 14.175 4.82811 14.1056 4.26374C14.0362 3.69936 13.1381 1.90499 12.9618 1.57124C12.7856 1.23749 12.4931 0.616862 12.1218 0.646862C11.7918 0.673112 11.5012 1.76436 11.2912 2.48624C11.0812 3.20811 10.5337 4.79061 10.5337 4.79061L9.20995 5.97186Z" fill="#FEAF5F"/>
<path d="M4.93314 4.2825C4.63689 4.46625 5.07564 5.865 5.79564 6.57C6.60564 7.36125 7.85814 7.8375 9.47814 7.38C11.0963 6.9225 11.4975 5.88375 11.4975 5.88375C11.4975 5.88375 10.9688 5.26875 10.935 4.54687C10.9013 3.825 11.235 2.71687 11.235 2.71687C11.235 2.71687 10.7063 2.47125 9.75752 2.8575C8.80877 3.24375 7.42689 4.73625 6.74627 4.82812C5.83127 4.95187 5.30252 4.05375 4.93314 4.2825Z" fill="#825948"/>
<path d="M10.1036 11.1376C10.5593 11.1087 10.9008 10.6429 10.8662 10.0973C10.8317 9.5516 10.4342 9.13264 9.97842 9.16151C9.52266 9.19038 9.18121 9.65613 9.21577 10.2018C9.25033 10.7475 9.64782 11.1664 10.1036 11.1376Z" fill="#00000D"/>
<path d="M12.7106 14.07C12.1031 14.5706 11.4112 14.9381 10.9725 15.1744C10.6556 15.3469 9.97873 15.5756 9.80623 15.6281C9.63373 15.6806 10.2375 15.6863 10.5844 15.6938C11.1919 15.7088 12.6431 15.5494 13.2244 15.1931C13.8056 14.8369 14.2575 13.5656 14.3512 13.2225C14.4431 12.8794 14.8519 11.5594 14.4825 11.5463C14.1131 11.5331 13.4456 13.4644 12.7106 14.07Z" fill="#CD935F"/>
<path d="M6.02064 9.22687C6.02064 9.22687 4.70064 10.7044 4.48877 10.9425C4.27689 11.1806 3.64502 12.1312 3.64502 12.1312C3.64502 12.1312 2.68127 12.4875 2.20689 13.0819C1.73252 13.6762 1.44189 14.64 1.83752 15.5494C2.23314 16.4587 2.91939 17.1206 4.02752 16.8037C5.23502 16.4587 6.28502 15.405 6.28502 15.405C6.28502 15.405 7.88252 15.4706 8.37002 15.4444C8.85752 15.4181 10.8113 14.7975 10.8113 14.7975L6.86439 8.29124L6.02064 9.22687Z" fill="url(#paint0_radial_432_323)"/>
<path d="M3.3675 13.1475C3.1125 13.3725 3.40688 13.8206 3.51188 14.0587C3.61688 14.2969 3.525 14.7581 3.855 14.7712C4.185 14.7844 4.4625 13.9669 4.30313 13.5431C4.14563 13.1212 3.6975 12.8569 3.3675 13.1475Z" fill="#513635"/>
<path d="M2.31189 16.8731C2.31189 16.8731 2.80501 16.5563 3.09564 16.3725C3.38626 16.1888 4.53939 15.2194 4.53939 15.2194L4.88252 15.5269C4.88252 15.5269 4.24876 16.1869 3.80064 16.5469C3.35251 16.9069 3.07876 17.0138 2.80689 17.04C2.53876 17.0663 2.31189 16.8731 2.31189 16.8731Z" fill="#2D3133"/>
<path d="M4.95193 14.8237C5.25943 14.9775 5.09068 15.315 5.00443 15.4481C4.89006 15.6244 4.61818 15.8344 4.39693 15.6506C4.17756 15.465 4.44943 15.0356 4.57318 14.9212C4.66318 14.835 4.84506 14.7712 4.95193 14.8237Z" fill="#000502"/>
<defs>
<radialGradient id="paint0_radial_432_323" cx="0" cy="0" r="1" gradientUnits="userSpaceOnUse" gradientTransform="translate(1.30839 16.4597) scale(7.33987)">
<stop offset="0.506" stop-color="#FFE5C6"/>
<stop offset="0.568" stop-color="#FFDAB2"/>
<stop offset="0.693" stop-color="#FEC88E"/>
<stop offset="0.811" stop-color="#FEBA74"/>
<stop offset="0.916" stop-color="#FEB264"/>
<stop offset="1" stop-color="#FEAF5F"/>
</radialGradient>
</defs>
</svg>
