<svg width="24" height="24" viewBox="0 0 24 24" fill="none" xmlns="http://www.w3.org/2000/svg">
<g clip-path="url(#clip0_428_22)">
<path d="M4.44751 8.74874C4.48501 8.70374 4.53751 8.68874 4.59001 8.69624C4.64251 8.70374 4.69501 8.74124 4.73251 8.79374L5.75251 10.2712C5.80501 10.3462 5.85751 10.4212 5.91001 10.5037C6.12001 10.8487 6.23251 11.2537 6.20251 11.6737C6.15001 12.5287 5.50501 13.1287 4.71001 13.0762C4.69126 13.0725 4.67251 13.071 4.65376 13.0687C4.63488 13.0673 4.61609 13.0648 4.59751 13.0612C3.70501 12.9337 2.97751 12.0487 2.97751 11.0887C2.97751 10.6762 3.10501 10.3237 3.32251 10.0537L3.36001 10.0162L4.44751 8.74874ZM5.79751 17.4637C5.79751 17.0137 6.13501 16.6912 6.55501 16.7512C6.97501 16.8037 7.31251 17.2162 7.31251 17.6737C7.31251 18.1237 6.97501 18.4462 6.55501 18.3862C6.13501 18.3262 5.79751 17.9137 5.79751 17.4637ZM9.74251 13.1737C9.32251 13.1137 8.98501 13.4362 8.98501 13.8862C8.98501 14.3362 9.32251 14.7487 9.74251 14.8087C10.1625 14.8612 10.5 14.5462 10.5 14.0962C10.5 13.6462 10.1625 13.2262 9.74251 13.1737ZM15.4725 10.0612C15.525 10.0537 15.57 10.0687 15.6075 10.1137L16.605 11.2762C16.6125 11.2837 16.62 11.2912 16.62 11.2987L16.6275 11.3137C16.83 11.5612 16.9425 11.8837 16.9425 12.2587C16.9425 13.1437 16.275 13.9537 15.4575 14.0662C15.42 14.0737 15.39 14.0737 15.3525 14.0737C14.625 14.1187 14.0325 13.5712 13.98 12.7912C13.9575 12.4087 14.055 12.0337 14.2425 11.7187C14.2875 11.6437 14.3325 11.5762 14.385 11.5087L15.3225 10.1512C15.375 10.0987 15.4275 10.0687 15.4725 10.0612ZM20.055 14.8162C20.475 14.7562 20.8125 15.0787 20.8125 15.5287C20.8125 15.9787 20.475 16.3912 20.055 16.4512C19.635 16.5112 19.2975 16.1887 19.2975 15.7387C19.2975 15.2887 19.635 14.8762 20.055 14.8162Z" fill="#87CEFA"/>
<path d="M12.8857 0.764989C12.3129 0.559538 11.6864 0.559538 11.1135 0.764989L2.24175 3.94874C1.80527 4.10497 1.4277 4.39222 1.16069 4.7712C0.893667 5.15018 0.750234 5.60239 0.75 6.06599V17.7C0.750015 18.1617 0.89209 18.6123 1.15694 18.9905C1.4218 19.3687 1.7966 19.6563 2.2305 19.8142L11.1023 23.043C11.6821 23.254 12.3179 23.254 12.8978 23.043L21.7695 19.8142C22.2035 19.6563 22.5784 19.3686 22.8433 18.9902C23.1081 18.6118 23.2501 18.1611 23.25 17.6992V6.06674C23.25 5.60319 23.1069 5.15095 22.8401 4.77184C22.5734 4.39273 22.1961 4.10526 21.7598 3.94874L12.8857 0.764989ZM11.6205 2.17724C11.8659 2.08932 12.1341 2.08932 12.3795 2.17724L20.775 5.18774L12.705 8.12624C12.2475 8.29124 11.745 8.29124 11.2882 8.12624L3.225 5.18849L11.6205 2.17724ZM2.25 6.42974L10.7108 9.51224V9.51449C11.0333 9.63149 11.2508 9.94049 11.2508 10.287V21.5002L2.74275 18.405C2.59822 18.3522 2.47342 18.2563 2.38527 18.1301C2.29712 18.004 2.2499 17.8539 2.25 17.7V6.42974ZM12.75 21.5002V10.2862C12.75 10.0807 12.723 9.87899 12.6713 9.68624C12.855 9.65099 13.0373 9.60149 13.215 9.53624L21.75 6.42974V17.7C21.75 17.8539 21.7027 18.0042 21.6144 18.1303C21.5261 18.2564 21.4012 18.3523 21.2565 18.405L12.75 21.5002Z" fill="#87CEFA"/>
</g>
<defs>
<clipPath id="clip0_428_22">
<rect width="24" height="24" fill="white"/>
</clipPath>
</defs>
</svg>
