<svg width="24" height="24" viewBox="0 0 24 24" fill="none" xmlns="http://www.w3.org/2000/svg">
<g clip-path="url(#clip0_431_50)">
<path d="M6.71245 19.3875C5.43745 21.5625 4.38745 21.6375 3.44995 21.1125C2.51245 20.5875 2.06245 19.65 3.33745 17.475C4.61245 15.3 7.16245 12.675 8.09995 13.2C9.03745 13.725 7.98745 17.175 6.71245 19.3875ZM20.6624 17.4375C21.9374 19.6125 21.4874 20.55 20.5499 21.075C19.6124 21.6 18.5624 21.5625 17.2874 19.35C16.0124 17.175 14.9624 13.6875 15.8999 13.1625C16.8374 12.6375 19.3874 15.2625 20.6624 17.4375Z" fill="#A8B2BA"/>
<path d="M12 22.6875C14.8788 22.6875 17.2125 21.2772 17.2125 19.5375C17.2125 17.7978 14.8788 16.3875 12 16.3875C9.12119 16.3875 6.78748 17.7978 6.78748 19.5375C6.78748 21.2772 9.12119 22.6875 12 22.6875Z" fill="#A8B2BA"/>
<path d="M12 20.9625C14.6924 20.9625 16.875 19.4011 16.875 17.475C16.875 15.5489 14.6924 13.9875 12 13.9875C9.30761 13.9875 7.125 15.5489 7.125 17.475C7.125 19.4011 9.30761 20.9625 12 20.9625Z" fill="#CFDAE8"/>
<path d="M23.25 5.175C23.25 7.6125 21.3751 9.6 19.0876 9.6C16.8 9.6 14.925 7.6125 14.925 5.175C14.925 2.7375 16.8 0.75 19.0876 0.75C21.3751 0.75 23.25 2.7375 23.25 5.175Z" fill="#A8B2BA"/>
<path d="M21.6 5.17501C21.6 6.63751 20.475 7.83751 19.0875 7.83751C17.7 7.83751 16.575 6.63751 16.575 5.17501C16.575 3.71251 17.7 2.51251 19.0875 2.51251C20.475 2.51251 21.6 3.71251 21.6 5.17501Z" fill="#CFDAE8"/>
<path d="M4.9125 9.6C7.21139 9.6 9.075 7.61886 9.075 5.175C9.075 2.73114 7.21139 0.75 4.9125 0.75C2.61362 0.75 0.75 2.73114 0.75 5.175C0.75 7.61886 2.61362 9.6 4.9125 9.6Z" fill="#A8B2BA"/>
<path d="M7.42502 5.17501C7.42502 6.63751 6.30002 7.83751 4.91252 7.83751C3.52502 7.83751 2.40002 6.63751 2.40002 5.17501C2.40002 3.71251 3.52502 2.51251 4.91252 2.51251C6.30002 2.51251 7.42502 3.71251 7.42502 5.17501Z" fill="#CFDAE8"/>
<path d="M4.5 13.3875C3.6375 12.6 3.375 11.4 3.375 11.4L3.9375 11.5125C3.9375 11.5125 3.2625 10.875 3.45 9.48751L4.0125 10.05C4.0125 10.05 3.45 8.62501 3.9375 7.35001L4.575 7.76251C4.575 7.76251 4.3875 7.23751 4.575 6.86251L4.8375 7.05001C4.8375 7.05001 4.35 5.85001 4.8 5.32501C5.0625 6.07501 5.325 6.03751 5.325 6.03751C5.325 6.03751 4.95 5.47501 5.25 5.25001C5.55 5.66251 5.775 5.40001 5.775 5.28751C5.775 5.13751 5.8125 4.87501 4.9875 4.76251C5.6625 4.38751 6.45 4.65001 6.45 4.65001C6.45 4.65001 6.4125 4.27501 5.85 4.27501C6.375 3.86251 7.125 4.12501 7.125 4.12501L6.15 6.48751L4.95 10.0125L4.5 13.3875Z" fill="#A8B2BA"/>
<path d="M12 2.8125C5.4 2.8125 3.9375 7.275 3.9375 12.675C3.9375 13.2375 7.5375 16.3125 12 16.3125C16.4625 16.3125 20.0625 13.2375 20.0625 12.675C20.0625 7.275 18.6 2.8125 12 2.8125Z" fill="#A8B2BA"/>
<path d="M19.5 13.3875C20.3625 12.6 20.625 11.4 20.625 11.4L20.0625 11.5125C20.0625 11.5125 20.7375 10.875 20.55 9.48751L19.9875 10.05C19.9875 10.05 20.55 8.62501 20.0625 7.35001L19.425 7.76251C19.425 7.76251 19.6125 7.23751 19.425 6.86251L19.1625 7.05001C19.1625 7.05001 19.65 5.85001 19.2 5.32501C18.9375 6.07501 18.675 6.03751 18.675 6.03751C18.675 6.03751 19.05 5.47501 18.75 5.25001C18.45 5.66251 18.225 5.40001 18.225 5.28751C18.225 5.13751 18.1875 4.87501 19.0125 4.76251C18.3375 4.38751 17.55 4.65001 17.55 4.65001C17.55 4.65001 17.5875 4.27501 18.15 4.27501C17.625 3.86251 16.875 4.12501 16.875 4.12501L17.85 6.48751L19.05 10.0125L19.5 13.3875Z" fill="#A8B2BA"/>
<path d="M7.42505 11.9625C8.25348 11.9625 8.92505 11.3077 8.92505 10.5C8.92505 9.69229 8.25348 9.03751 7.42505 9.03751C6.59662 9.03751 5.92505 9.69229 5.92505 10.5C5.92505 11.3077 6.59662 11.9625 7.42505 11.9625Z" fill="#D5FF83"/>
<path d="M7.42495 11.4375C7.96343 11.4375 8.39995 11.0178 8.39995 10.5C8.39995 9.98223 7.96343 9.5625 7.42495 9.5625C6.88647 9.5625 6.44995 9.98223 6.44995 10.5C6.44995 11.0178 6.88647 11.4375 7.42495 11.4375Z" fill="#3E4347"/>
<path d="M16.575 11.9625C17.4034 11.9625 18.075 11.3077 18.075 10.5C18.075 9.69229 17.4034 9.03751 16.575 9.03751C15.7465 9.03751 15.075 9.69229 15.075 10.5C15.075 11.3077 15.7465 11.9625 16.575 11.9625Z" fill="#D5FF83"/>
<path d="M16.575 11.4375C17.1135 11.4375 17.55 11.0178 17.55 10.5C17.55 9.98223 17.1135 9.5625 16.575 9.5625C16.0365 9.5625 15.6 9.98223 15.6 10.5C15.6 11.0178 16.0365 11.4375 16.575 11.4375Z" fill="#3E4347"/>
<path d="M9.30005 12.825C9.30005 10.6125 11.1 9.75 12 9.75C12.9 9.75 14.7 10.6125 14.7 12.825C14.7 15.6375 13.725 16.3125 12 16.3125C10.275 16.3125 9.30005 15.675 9.30005 12.825Z" fill="#555E63"/>
<path d="M10.3875 20.925C10.3875 22.8375 9.1875 23.25 7.725 23.25C6.2625 23.25 5.0625 22.8 5.0625 20.925C5.0625 19.0125 6.2625 17.475 7.725 17.475C9.1875 17.475 10.3875 19.0125 10.3875 20.925Z" fill="#96A2AA"/>
<path d="M9.59998 21.4125C9.59998 22.7625 8.73748 23.0625 7.72498 23.0625C6.71248 23.0625 5.84998 22.7625 5.84998 21.4125C5.84998 20.0625 6.71248 18.975 7.72498 18.975C8.73748 18.975 9.59998 20.1 9.59998 21.4125Z" fill="#CFDAE8"/>
<path d="M18.975 20.925C18.975 22.8375 17.775 23.25 16.3125 23.25C14.85 23.25 13.65 22.8 13.65 20.925C13.65 19.0125 14.85 17.475 16.3125 17.475C17.775 17.475 18.975 19.0125 18.975 20.925Z" fill="#96A2AA"/>
<path d="M18.1875 21.4125C18.1875 22.7625 17.325 23.0625 16.3125 23.0625C15.3 23.0625 14.4375 22.7625 14.4375 21.4125C14.4375 20.0625 15.3 18.975 16.3125 18.975C17.325 18.975 18.1875 20.1 18.1875 21.4125Z" fill="#CFDAE8"/>
</g>
<defs>
<clipPath id="clip0_431_50">
<rect width="24" height="24" fill="white"/>
</clipPath>
</defs>
</svg>
