<svg width="24" height="24" viewBox="0 0 24 24" fill="none" xmlns="http://www.w3.org/2000/svg">
<path opacity="0.75" d="M12 22.125C17.799 22.125 22.5 18.7448 22.5 14.5748C22.5 10.4048 17.799 7.02451 12 7.02451C6.201 7.02451 1.5 10.4048 1.5 14.5748C1.5 18.7448 6.201 22.125 12 22.125Z" fill="black"/>
<path d="M11.9077 21.8348C17.6557 21.8348 22.3155 18.4545 22.3155 14.2845C22.3155 10.1145 17.6565 6.73425 11.9077 6.73425C6.159 6.73425 1.5 10.1145 1.5 14.2845C1.5 18.4545 6.15975 21.8348 11.9077 21.8348Z" fill="#80B48E"/>
<path opacity="0.75" d="M3.92627 16.3935C4.51202 14.1128 7.67177 10.827 7.67177 10.827C7.67177 10.827 6.01277 5.02501 6.82952 3.58126C8.55452 3.45451 13.0913 8.20651 13.0913 8.20651C13.0913 8.20651 18.0683 5.74426 20.154 6.45901C19.944 8.63401 16.929 10.236 16.929 10.236C16.929 10.236 17.6408 16.752 16.6605 18.8048C15.0015 19.1205 11.415 15.2288 11.415 15.2288C11.415 15.2288 5.60252 18.4388 3.92627 16.3935Z" fill="black"/>
<path d="M4.11377 16.125C4.68227 13.9132 7.74602 10.725 7.74602 10.725C7.74602 10.725 6.13727 5.09999 6.92927 3.69899C8.60402 3.57599 12.9705 7.60274 12.9705 7.60274C12.9705 7.60274 17.8275 5.79599 19.8495 6.48974C19.65 8.60324 16.725 10.1542 16.725 10.1542C16.725 10.1542 17.415 16.473 16.4648 18.4635C14.856 18.7702 11.3775 14.9947 11.3775 14.9947C11.3775 14.9947 5.73902 18.108 4.11377 16.125Z" fill="#94A39D"/>
<path opacity="0.75" d="M10.521 18.417C12.6435 17.4105 14.7465 14.817 14.7465 14.817C14.7465 14.817 19.3073 13.206 20.5733 11.517C18.9728 9.73393 16.977 8.35048 14.7458 7.4775C14.7458 7.4775 14.625 3.417 13.3695 1.875C12.0195 2.8725 9.97952 7.2045 9.97952 7.2045C9.97952 7.2045 5.28377 6.375 3.66077 6.98625C4.72727 10.0702 8.03777 12.702 8.03777 12.702C8.72626 14.6645 9.55618 16.5745 10.521 18.417Z" fill="black"/>
<path d="M10.5038 18.108C12.5468 17.139 14.5718 14.5747 14.5718 14.5747C14.5718 14.5747 18.9615 13.0897 20.1795 11.4682C18.6588 9.75845 16.7332 8.45771 14.5793 7.68524C14.5793 7.68524 14.4563 3.66824 13.2465 2.18399C11.9438 3.14474 9.98327 7.31399 9.98327 7.31399C9.98327 7.31399 5.46227 6.51824 3.90002 7.10474C4.92827 10.0732 8.11427 12.6067 8.11427 12.6067C8.77666 14.4959 9.57525 16.3345 10.5038 18.108Z" fill="#C8E5DA"/>
<path opacity="0.75" d="M17.0407 11.5275C16.5442 9.76049 13.959 7.97399 13.959 7.97399C13.959 7.97399 11.7 4.19999 9.91949 3.77924C7.80374 7.17299 8.84999 13.2075 8.84999 13.2075C8.84999 13.2075 14.8132 13.9627 17.0407 11.5275Z" fill="black"/>
<path d="M16.8 11.3963C16.3253 9.70201 13.8435 7.99201 13.8435 7.99201C13.8435 7.99201 11.6783 4.37776 9.96752 3.97501C7.92977 7.23376 8.92502 13.0208 8.92502 13.0208C8.92502 13.0208 14.6573 13.7355 16.8 11.3963Z" fill="#EFE7E4"/>
<path opacity="0.75" d="M14.8732 16.5608L14.9917 4.48575C14.9919 4.46609 14.987 4.44671 14.9775 4.4295C14.9684 4.4125 14.955 4.39825 14.9385 4.38825C14.9225 4.37828 14.9041 4.37299 14.8852 4.37299C14.8664 4.37299 14.848 4.37828 14.832 4.38825L4.5195 11.1855C4.42918 11.2455 4.35664 11.3286 4.3095 11.4263C4.26129 11.5256 4.23948 11.6357 4.24618 11.7459C4.25288 11.8561 4.28786 11.9627 4.34775 12.0555C4.40636 12.1461 4.48856 12.2189 4.5855 12.2663L14.2845 16.9553C14.3472 16.9857 14.4167 16.9992 14.4862 16.9943C14.556 16.9891 14.6232 16.9659 14.6812 16.9268C14.7403 16.8869 14.7885 16.8331 14.8215 16.77C14.8551 16.7056 14.8728 16.6341 14.8732 16.5615V16.5608Z" fill="black"/>
<path d="M14.6317 16.3597L14.7457 4.70175C14.7459 4.68289 14.7412 4.66431 14.7322 4.64775C14.7233 4.63128 14.7101 4.61754 14.694 4.608C14.6786 4.59835 14.6608 4.59323 14.6426 4.59323C14.6244 4.59323 14.6066 4.59835 14.5912 4.608L4.63346 11.1675C4.54631 11.2254 4.47636 11.3057 4.43096 11.4C4.3845 11.4958 4.36347 11.6019 4.36991 11.7082C4.37635 11.8144 4.41003 11.9173 4.46771 12.0067C4.52427 12.0941 4.60363 12.1644 4.69721 12.21L14.0632 16.7385C14.1236 16.7678 14.1907 16.7808 14.2577 16.7761C14.3247 16.7713 14.3893 16.7491 14.445 16.7115C14.5019 16.6735 14.5485 16.6219 14.5807 16.5615C14.6135 16.4995 14.631 16.4299 14.6317 16.3597Z" fill="#F8ECE7"/>
<path d="M11.4675 13.6657C12.1959 13.6465 12.8868 13.3389 13.3886 12.8106C13.8903 12.2823 14.1619 11.5764 14.1435 10.848C14.1619 10.1196 13.8903 9.41372 13.3886 8.88539C12.8868 8.35706 12.1959 8.04949 11.4675 8.03024C10.7392 8.04949 10.0482 8.35706 9.54646 8.88539C9.04471 9.41372 8.77318 10.1196 8.79152 10.848C8.77318 11.5764 9.04471 12.2823 9.54646 12.8106C10.0482 13.3389 10.7392 13.6465 11.4675 13.6657Z" fill="url(#paint0_radial_431_22)"/>
<defs>
<radialGradient id="paint0_radial_431_22" cx="0" cy="0" r="1" gradientUnits="userSpaceOnUse" gradientTransform="translate(11.484 10.9008) scale(2.676 2.81775)">
<stop stop-color="#FF9D18"/>
<stop offset="0.22" stop-color="#FFA117"/>
<stop offset="0.44" stop-color="#FFAC14"/>
<stop offset="0.65" stop-color="#FFC00E"/>
<stop offset="0.86" stop-color="#FFDB06"/>
<stop offset="1" stop-color="#FFF100"/>
</radialGradient>
</defs>
</svg>
