<svg width="24" height="24" viewBox="0 0 24 24" fill="none" xmlns="http://www.w3.org/2000/svg">
<g clip-path="url(#clip0_431_179)">
<path d="M21.55 7.30533C21.55 7.30533 23.0933 7.32133 23.8907 8.09C23.6667 4.776 22.488 2.59067 19.928 1.33667C17.834 0.590667 15.884 2.30533 15.884 2.30533C15.884 2.30533 16.4587 0.978667 17.344 0.474667C15.8593 0.157333 14.0973 0 12 0C9.90935 0 8.14335 0.151333 6.66268 0.467333C7.55668 0.964 8.13935 2.306 8.13935 2.306C8.13935 2.306 6.12935 0.535333 4.00001 1.36867C1.48068 2.63267 0.32068 4.81533 0.105347 8.116C0.894013 7.32267 2.47201 7.306 2.47201 7.306C2.47201 7.306 -0.0699867 8.84467 0.188013 11.076C0.446013 13.0407 1.11735 15.054 2.10735 16.8907C2.02601 14.7667 3.94468 13.3333 3.94468 13.3333C3.94468 13.3333 2.28335 17.3067 3.55735 19.1587C4.84735 20.8533 6.43268 22.2527 8.20801 23.1027C7.57135 22.006 8.11735 21.0733 8.13935 21.1393C8.16735 21.2227 8.44535 23.214 9.56401 23.6347C10.3493 23.872 11.164 24 12 24C12.8613 24 13.7 23.862 14.5073 23.6113C15.5833 23.1507 15.8567 21.2213 15.8833 21.1393C15.9047 21.074 16.4453 21.9973 15.8233 23.0867C17.6273 22.214 19.2353 20.778 20.5327 19.038C21.6653 17.1407 20.0773 13.3333 20.0773 13.3333C20.0773 13.3333 21.9773 14.7533 21.9153 16.8587C22.9527 14.9213 23.6387 12.7893 23.856 10.7253C23.8327 8.68467 21.55 7.30533 21.55 7.30533Z" fill="#662113"/>
<path d="M9.23933 6.33C9.63667 7.92466 9.346 9.278 7.752 9.67466C6.15733 10.072 3.51 9.73266 3.11333 8.13866C2.716 6.544 3.426 4.54533 4.32 4.32266C5.214 4.1 8.84267 4.736 9.23933 6.33ZM15.3087 18.618C15.3148 19.0565 15.2338 19.4918 15.0703 19.8988C14.9067 20.3057 14.6639 20.676 14.356 20.9883C14.0481 21.3005 13.6812 21.5485 13.2766 21.7177C12.872 21.8869 12.4379 21.974 11.9993 21.974C11.5608 21.9739 11.1266 21.8867 10.7221 21.7174C10.3175 21.5481 9.95068 21.3001 9.64283 20.9878C9.33497 20.6755 9.09226 20.3051 8.92881 19.8981C8.76535 19.4912 8.6844 19.0558 8.69067 18.6173C8.7031 17.7479 9.05724 16.9182 9.67651 16.3078C10.2958 15.6974 11.1304 15.3552 12 15.3553C12.8695 15.3554 13.7041 15.6977 14.3233 16.3083C14.9424 16.9188 15.2964 17.7485 15.3087 18.618Z" fill="#FFCC4D"/>
<path d="M14.2059 18.618C14.2059 19.2031 13.9735 19.7642 13.5598 20.1779C13.1461 20.5916 12.585 20.824 11.9999 20.824C11.4149 20.824 10.8538 20.5916 10.4401 20.1779C10.0264 19.7642 9.79395 19.2031 9.79395 18.618C9.79395 18.0329 10.0264 17.4718 10.4401 17.0581C10.8538 16.6444 11.4149 16.412 11.9999 16.412C12.585 16.412 13.1461 16.6444 13.5598 17.0581C13.9735 17.4718 14.2059 18.0329 14.2059 18.618Z" fill="#DD2E44"/>
<path d="M7.36799 5.99801C7.6467 6.44413 7.73683 6.98268 7.61856 7.49524C7.5003 8.00781 7.18332 8.45242 6.73733 8.73134C5.80799 9.31201 4.99866 9.26267 4.41799 8.33401C3.83733 7.40467 4.29399 5.58001 4.63399 5.36734C4.97399 5.15467 6.78733 5.06867 7.36799 5.99801Z" fill="#E6AAAA"/>
<path d="M14.7607 6.33C14.3633 7.92466 14.6547 9.278 16.2487 9.67466C17.8433 10.072 20.4907 9.73266 20.888 8.13866C21.2853 6.544 20.5747 4.54533 19.6807 4.32266C18.786 4.1 15.1567 4.736 14.7607 6.33Z" fill="#FFCC4D"/>
<path d="M16.632 5.99801C16.3532 6.44405 16.263 6.98254 16.3811 7.4951C16.4993 8.00765 16.8161 8.45232 17.262 8.73134C18.1913 9.31201 19.0007 9.26267 19.5813 8.33401C20.162 7.40467 19.7047 5.58001 19.3653 5.36734C19.0253 5.15467 17.2127 5.06867 16.632 5.99801Z" fill="#E6AAAA"/>
<path d="M12 4.75H11.9986C3.44464 4.75067 4.74997 8.05533 5.66664 12.4447C6.58331 16.8333 6.92264 18 6.92264 18H17.0746C17.0746 18 17.4146 16.8333 18.3313 12.4447C19.248 8.05533 20.5526 4.75067 12 4.75Z" fill="#FFCC4D"/>
<path d="M8 10.6667C8 10.6667 8 9.66667 9 9.66667C10 9.66667 10 10.6667 10 10.6667V11.6667C10 11.6667 10 12.6667 9 12.6667C8 12.6667 8 11.6667 8 11.6667V10.6667ZM14 10.6667C14 10.6667 14 9.66667 15 9.66667C16 9.66667 16 10.6667 16 10.6667V11.6667C16 11.6667 16 12.6667 15 12.6667C14 12.6667 14 11.6667 14 11.6667V10.6667Z" fill="#272B2B"/>
<path d="M13.4453 14.3473C12.38 14.3473 12.522 14.9127 12 15.756C11.478 14.912 11.6193 14.3473 10.5547 14.3473C5.978 14.3473 5.99666 14.5973 5.978 16.2327C5.93933 19.5567 7.846 20.3207 9.48266 20.2727C10.5473 20.2407 11.4787 19.686 12.0007 18.852C12.5227 19.686 13.4533 20.2407 14.518 20.2727C16.1547 20.3207 18.0613 19.5573 18.0227 16.2327C18.0033 14.5973 18.022 14.3473 13.4453 14.3473Z" fill="#FFE8B6"/>
<path d="M9.72136 14.274C8.96136 14.4293 11.2407 17.228 12 17.228C12.7594 17.228 15.0394 14.4293 14.2794 14.274C13.5194 14.1193 10.4807 14.1193 9.72136 14.274Z" fill="#272B2B"/>
<path d="M7.66671 16.6667C7.8508 16.6667 8.00004 16.5174 8.00004 16.3333C8.00004 16.1492 7.8508 16 7.66671 16C7.48261 16 7.33337 16.1492 7.33337 16.3333C7.33337 16.5174 7.48261 16.6667 7.66671 16.6667Z" fill="#D99E82"/>
<path d="M6.99996 18C7.18405 18 7.33329 17.8508 7.33329 17.6667C7.33329 17.4826 7.18405 17.3333 6.99996 17.3333C6.81586 17.3333 6.66663 17.4826 6.66663 17.6667C6.66663 17.8508 6.81586 18 6.99996 18Z" fill="#D99E82"/>
<path d="M8.33333 18.6667C8.51743 18.6667 8.66667 18.5174 8.66667 18.3333C8.66667 18.1492 8.51743 18 8.33333 18C8.14924 18 8 18.1492 8 18.3333C8 18.5174 8.14924 18.6667 8.33333 18.6667Z" fill="#D99E82"/>
<path d="M16.3333 16.6667C16.5174 16.6667 16.6667 16.5174 16.6667 16.3333C16.6667 16.1492 16.5174 16 16.3333 16C16.1492 16 16 16.1492 16 16.3333C16 16.5174 16.1492 16.6667 16.3333 16.6667Z" fill="#D99E82"/>
<path d="M17 18C17.1841 18 17.3333 17.8508 17.3333 17.6667C17.3333 17.4826 17.1841 17.3333 17 17.3333C16.8159 17.3333 16.6666 17.4826 16.6666 17.6667C16.6666 17.8508 16.8159 18 17 18Z" fill="#D99E82"/>
<path d="M15.6667 18.6667C15.8508 18.6667 16 18.5174 16 18.3333C16 18.1492 15.8508 18 15.6667 18C15.4826 18 15.3334 18.1492 15.3334 18.3333C15.3334 18.5174 15.4826 18.6667 15.6667 18.6667Z" fill="#D99E82"/>
</g>
<defs>
<clipPath id="clip0_431_179">
<rect width="24" height="24" fill="white"/>
</clipPath>
</defs>
</svg>
