<svg width="24" height="24" viewBox="0 0 24 24" fill="none" xmlns="http://www.w3.org/2000/svg">
<path d="M10.1565 5.50051C10.3156 5.50051 10.4683 5.43729 10.5808 5.32477C10.6933 5.21225 10.7565 5.05964 10.7565 4.90051C10.7565 4.74138 10.6933 4.58876 10.5808 4.47624C10.4683 4.36372 10.3156 4.30051 10.1565 4.30051C9.99739 4.30051 9.84478 4.36372 9.73225 4.47624C9.61973 4.58876 9.55652 4.74138 9.55652 4.90051C9.55652 5.05964 9.61973 5.21225 9.73225 5.32477C9.84478 5.43729 9.99739 5.50051 10.1565 5.50051Z" fill="#32CD32"/>
<path d="M10.1355 1.3425C9.3315 0.436504 7.8555 0.371254 7.09725 1.39275C6.97425 1.55775 6.8235 1.7475 6.66225 1.95225C6.34125 2.35575 5.97675 2.8155 5.6895 3.258C5.23425 3.96 4.83225 4.80825 4.85175 5.7855C4.854 7.37325 5.51775 8.24625 6.0045 8.66025C6.02775 9.67125 6.1425 10.521 6.33975 11.2538H4.452C4.42125 11.2538 4.377 11.2433 4.3755 11.166C4.37442 11.0805 4.37442 10.995 4.3755 10.9095V10.8713C4.3755 10.8188 4.38825 10.7738 4.42575 10.7363L4.85925 10.2608C5.00925 10.1108 5.01675 9.82275 4.85925 9.68025C4.70925 9.54525 4.4715 9.53775 4.329 9.68025L4.224 9.76875C4.194 9.79875 4.1415 9.78375 4.1415 9.73875V9.54375C4.1415 9.32625 3.951 9.156 3.71925 9.156C3.51675 9.156 3.35025 9.34125 3.35025 9.54375V9.70875C3.35025 9.74625 3.29775 9.76875 3.26775 9.73875L3.18 9.69525C3.0375 9.54525 2.7825 9.55275 2.6325 9.69525C2.475 9.83775 2.4945 10.131 2.6445 10.281L3.11325 10.779C3.14395 10.8161 3.16043 10.8629 3.15975 10.911V11.4473C3.15975 11.91 3.54375 12.4958 4.305 12.4958H6.801C6.843 12.5805 6.88575 12.663 6.93 12.7433C7.50225 13.7858 8.28375 14.4833 9.0735 15.1253C9.342 15.3428 9.576 15.5483 9.7725 15.75H8.64225C8.01975 15.75 7.485 16.2345 7.485 16.8578V17.742C7.485 17.796 7.42575 17.8343 7.38 17.8343C7.29225 17.8343 7.248 17.7953 7.1805 17.7248L6.72675 17.3115C6.573 17.1578 6.27375 17.1345 6.12 17.2883C5.96625 17.442 5.97375 17.7098 6.105 17.8343L6.26625 18.0203C6.2895 18.051 6.26625 18.0975 6.22875 18.0975L5.97375 18.1553C5.6925 18.2048 5.619 18.378 5.634 18.5565C5.649 18.735 5.8035 18.864 5.97375 18.864L6.36 18.8348C6.399 18.8348 6.40125 18.8895 6.378 18.9203L6.1995 19.0958C6.04575 19.2495 6.06075 19.5158 6.2145 19.6703C6.369 19.824 6.6855 19.764 6.801 19.6958C6.9165 19.6283 7.27125 19.2533 7.27125 19.2533C7.40625 19.1183 7.55325 19.1033 7.737 19.0845L7.8225 19.0755C8.295 19.02 8.79525 18.5243 8.79525 17.9108V17.1533C8.79525 17.0993 8.841 17.061 8.8875 17.061H10.4895C10.497 17.1225 10.5 17.1855 10.5 17.25C10.5 20.1608 12.633 23.25 16.3005 23.25C19.1745 23.25 21.7433 21.129 21.7448 18.1433C21.7463 17.8245 21.6585 17.1428 21.543 16.3688C21.2594 14.5237 20.9401 12.6844 20.5853 10.8518C20.4375 10.092 20.3033 9.45825 20.2245 9.20625C20.0993 8.80875 19.9545 8.3985 19.7265 8.091C19.5954 7.90883 19.4239 7.75944 19.2255 7.6545C19.0202 7.55028 18.7927 7.49727 18.5625 7.5C18.2198 7.5 17.835 7.57875 17.5545 7.8735C17.2755 8.166 17.25 8.517 17.25 8.68875L17.2485 12.7463L17.247 17.625C17.247 18.1485 17.1105 18.4125 16.995 18.5408C16.884 18.6645 16.7175 18.7433 16.479 18.7508C16.1663 18.7583 16.038 18.651 15.9503 18.5183C15.8303 18.3353 15.75 18.0255 15.75 17.625C15.75 16.2038 15.4163 15.0855 14.9153 14.1623H15.435C16.0425 14.1623 16.728 13.761 16.728 12.8775V12.2228C16.728 12.2003 16.743 12.1703 16.758 12.1553L16.9043 11.9618L17.0978 11.7248C17.2238 11.5485 17.2268 11.3355 17.0775 11.1855C16.9275 11.0355 16.7138 11.0745 16.623 11.13L16.452 11.223C16.422 11.2455 16.377 11.223 16.377 11.1855V11.0025C16.377 10.7925 16.1925 10.6275 15.9825 10.6275C15.7725 10.6275 15.585 10.7925 15.585 11.0025V11.2035C15.585 11.241 15.54 11.2635 15.51 11.241L15.2985 11.13C15.1845 11.0798 15.009 11.0535 14.8598 11.2035C14.7098 11.3535 14.7 11.58 14.8448 11.7248L15.2985 12.2693C15.321 12.2918 15.3165 12.4943 15.3165 12.4943V12.6653C15.3165 12.7103 15.2813 12.762 15.2288 12.762H14.6625C14.4398 12.762 14.1983 12.774 13.983 12.8205C13.4753 12.2243 12.918 11.7158 12.396 11.2395L12.1583 11.022H13.2218C13.92 11.022 14.415 10.5375 14.415 9.915V9.36975C14.415 9.32175 14.4593 9.26775 14.49 9.23025L14.4975 9.2205L14.934 8.71875C15.084 8.56875 15.0165 8.301 14.8815 8.17875C14.7465 8.05725 14.505 8.02875 14.3625 8.17875L14.2695 8.23125C14.2395 8.26125 14.187 8.23875 14.187 8.20125L14.1593 7.9785C14.1593 7.8 13.9965 7.63275 13.7505 7.63275C13.5218 7.63275 13.3928 7.8435 13.3928 7.97775V8.20125C13.3928 8.24625 13.3403 8.26125 13.3103 8.23125L13.197 8.17875C13.0545 8.02875 12.7995 8.05875 12.6495 8.20125C12.492 8.34375 12.4995 8.60775 12.6495 8.75775L13.0995 9.19875C13.137 9.23625 13.1693 9.28125 13.1693 9.33375V9.66375C13.1693 9.71475 13.1708 9.75075 13.1168 9.75075H11.3438C11.2943 9.50175 11.262 9.177 11.25 8.7255C11.859 8.32575 12.4688 7.467 12.4688 5.77725C12.4688 3.87375 11.3498 2.66175 10.4723 1.71225C10.3545 1.58475 10.2413 1.461 10.1348 1.34175L10.1355 1.3425ZM8.301 2.2875C8.41725 2.13 8.7555 2.0475 9.0135 2.33775C9.14025 2.48025 9.26475 2.6175 9.3855 2.75025C10.2758 3.73125 10.9688 4.494 10.9688 5.77725C10.9688 7.11975 10.497 7.43025 10.4063 7.48425C10.1333 7.64625 9.73725 8.01675 9.74625 8.583C9.7605 9.46275 9.834 10.131 10.065 10.701C10.3043 11.292 10.6823 11.7023 11.1353 12.1185L11.3378 12.3053C12.876 13.713 14.25 14.9715 14.25 17.625C14.25 18.1755 14.352 18.8175 14.6978 19.3425C15.0765 19.917 15.6983 20.2718 16.5203 20.25C17.0918 20.2343 17.6753 20.0273 18.1095 19.545C18.54 19.0673 18.747 18.405 18.747 17.625L18.7485 12.747L18.75 9.5205L18.7935 9.6555C18.8415 9.8085 18.9585 10.3433 19.113 11.139C19.4635 12.9495 19.779 14.7666 20.0595 16.5893C20.1825 17.412 20.2463 17.9618 20.2448 18.1343V18.141C20.2448 20.1638 18.489 21.75 16.3005 21.75C13.6403 21.75 12 19.5225 12 17.25C12 15.6975 10.9275 14.6978 10.0193 13.9605C9.261 13.3455 8.67075 12.798 8.24475 12.0218C7.82175 11.2508 7.52625 10.1858 7.50225 8.49675C7.4955 8.0715 7.26 7.73925 7.01175 7.5465C6.846 7.41825 6.35175 6.9555 6.35175 5.7765V5.7615C6.34425 5.4465 6.4155 5.13075 6.552 4.8045C6.52845 4.94738 6.55729 5.09395 6.63323 5.21725C6.70916 5.34054 6.82707 5.43226 6.96526 5.47553C7.10345 5.51879 7.25261 5.51069 7.3853 5.4527C7.51799 5.39472 7.62527 5.29077 7.6874 5.15997C7.74952 5.02918 7.76232 4.88034 7.72343 4.74086C7.68453 4.60138 7.59657 4.48064 7.47573 4.40086C7.35488 4.32109 7.20929 4.28764 7.06575 4.30668C6.9222 4.32573 6.79036 4.39598 6.6945 4.5045C6.768 4.36425 6.85275 4.22175 6.948 4.0755C7.203 3.6825 7.47525 3.3405 7.761 2.982C7.9365 2.76225 8.1165 2.53575 8.301 2.2875Z" fill="#32CD32"/>
</svg>
