<svg width="24" height="24" viewBox="0 0 24 24" fill="none" xmlns="http://www.w3.org/2000/svg">
<path d="M7.72949 8.20125C7.9463 8.20125 8.15424 8.11512 8.30755 7.96181C8.46086 7.8085 8.54699 7.60057 8.54699 7.38375C8.54699 7.16694 8.46086 6.95901 8.30755 6.80569C8.15424 6.65238 7.9463 6.56625 7.72949 6.56625C7.51267 6.56625 7.30474 6.65238 7.15143 6.80569C6.99812 6.95901 6.91199 7.16694 6.91199 7.38375C6.91199 7.60057 6.99812 7.8085 7.15143 7.96181C7.30474 8.11512 7.51267 8.20125 7.72949 8.20125ZM12.957 15.3338C12.957 15.5506 12.8709 15.7585 12.7175 15.9118C12.5642 16.0651 12.3563 16.1513 12.1395 16.1513C11.9227 16.1513 11.7147 16.0651 11.5614 15.9118C11.4081 15.7585 11.322 15.5506 11.322 15.3338C11.322 15.1169 11.4081 14.909 11.5614 14.7557C11.7147 14.6024 11.9227 14.5163 12.1395 14.5163C12.3563 14.5163 12.5642 14.6024 12.7175 14.7557C12.8709 14.909 12.957 15.1169 12.957 15.3338ZM13.1362 13.497C13.3531 13.497 13.561 13.4109 13.7143 13.2576C13.8676 13.1043 13.9537 12.8963 13.9537 12.6795C13.9537 12.4627 13.8676 12.2548 13.7143 12.1014C13.561 11.9481 13.3531 11.862 13.1362 11.862C12.9194 11.862 12.7115 11.9481 12.5582 12.1014C12.4049 12.2548 12.3187 12.4627 12.3187 12.6795C12.3187 12.8963 12.4049 13.1043 12.5582 13.2576C12.7115 13.4109 12.9194 13.497 13.1362 13.497ZM16.737 14.5163C16.737 14.8425 16.6074 15.1553 16.3767 15.386C16.1461 15.6167 15.8332 15.7463 15.507 15.7463C15.1808 15.7463 14.8679 15.6167 14.6372 15.386C14.4066 15.1553 14.277 14.8425 14.277 14.5163C14.277 14.19 14.4066 13.8772 14.6372 13.6465C14.8679 13.4158 15.1808 13.2863 15.507 13.2863C15.8332 13.2863 16.1461 13.4158 16.3767 13.6465C16.6074 13.8772 16.737 14.19 16.737 14.5163Z" fill="#9ACD32"/>
<path d="M7.20674 2.71875L7.08374 2.14875C7.03228 1.94179 6.90233 1.76296 6.72138 1.6501C6.54043 1.53724 6.32267 1.49919 6.11417 1.54401C5.90567 1.58883 5.72278 1.71299 5.60419 1.89024C5.4856 2.0675 5.44061 2.28393 5.47874 2.49375L5.60249 3.06975C4.93686 3.34418 4.34225 3.76618 3.86349 4.30392C3.38473 4.84166 3.03434 5.4811 2.83874 6.174L2.39624 6.132C2.18042 6.11112 1.96515 6.17682 1.79777 6.31466C1.63039 6.4525 1.52463 6.65118 1.50374 6.867C1.48286 7.08282 1.54856 7.2981 1.6864 7.46548C1.82424 7.63285 2.02292 7.73862 2.23874 7.7595L2.66249 7.79925V9.34275C2.66249 9.999 2.71874 10.6425 2.82749 11.268L2.41124 11.3895C2.2061 11.4543 2.03457 11.597 1.93353 11.7869C1.83249 11.9768 1.81002 12.1988 1.87093 12.4052C1.93185 12.6115 2.07129 12.7857 2.25928 12.8903C2.44728 12.9949 2.66881 13.0215 2.87624 12.9645L3.22649 12.8618C3.559 13.8665 4.03275 14.8187 4.63349 15.69L4.36124 15.9263C4.20275 16.07 4.10683 16.2701 4.09401 16.4838C4.08119 16.6974 4.15248 16.9075 4.29263 17.0692C4.43278 17.2309 4.63066 17.3314 4.84392 17.349C5.05718 17.3667 5.26889 17.3002 5.43374 17.1638L5.65874 16.9688C6.41875 17.7858 7.29611 18.4852 8.26199 19.044L8.04449 19.4213C7.81949 19.8113 7.95449 20.3138 8.34449 20.5388C8.73449 20.7638 9.23699 20.6288 9.46199 20.2388L9.73949 19.7588C10.9717 20.2478 12.312 20.5238 13.7145 20.5418V20.9888C13.7145 21.4388 14.082 21.8063 14.532 21.8063C14.982 21.8063 15.3495 21.4388 15.3495 20.9888V20.5425H15.5602C16.9925 20.5446 18.3787 20.0368 19.4707 19.11L19.7445 19.3845C20.067 19.707 20.5845 19.707 20.907 19.3845C21.2295 19.062 21.2295 18.5445 20.907 18.222L20.5717 17.8868C21.2534 16.8844 21.617 15.6999 21.615 14.4878C21.6152 14.0687 21.5674 13.651 21.4725 13.2428L21.9112 13.1138C22.1164 13.049 22.2879 12.9063 22.389 12.7163C22.49 12.5264 22.5125 12.3044 22.4516 12.0981C22.3906 11.8918 22.2512 11.7176 22.0632 11.613C21.8752 11.5084 21.6537 11.4817 21.4462 11.5388L20.8582 11.7113C20.1943 10.5883 19.152 9.73877 17.9182 9.315L18.0345 8.847C18.0845 8.63626 18.0495 8.41432 17.9373 8.2291C17.825 8.04388 17.6444 7.91023 17.4345 7.857C17.2238 7.80704 17.0018 7.84196 16.8166 7.95422C16.6314 8.06647 16.4977 8.24706 16.4445 8.457L16.3027 9.02475C16.1903 9.02182 16.0777 9.02232 15.9652 9.02625L13.5615 9.10725L13.5937 9.0795C13.7522 8.93572 13.8482 8.73561 13.861 8.522C13.8738 8.30839 13.8025 8.09825 13.6624 7.93654C13.5222 7.77482 13.3243 7.67439 13.1111 7.65672C12.8978 7.63905 12.6861 7.70556 12.5212 7.842L12.15 8.1645V7.45875C12.15 6.7665 12.0015 6.10875 11.7352 5.51625L12.1762 5.26125C12.5662 5.03625 12.7012 4.53375 12.4762 4.14375C12.2512 3.75375 11.7487 3.61875 11.3587 3.84375L10.8142 4.15875C10.3491 3.67703 9.78704 3.29956 9.16515 3.05132C8.54325 2.80308 7.87573 2.68972 7.20674 2.71875ZM4.16249 7.45875C4.16249 6.59846 4.50424 5.7734 5.11257 5.16508C5.72089 4.55676 6.54595 4.215 7.40624 4.215C8.26654 4.215 9.0916 4.55676 9.69992 5.16508C10.3082 5.7734 10.65 6.59846 10.65 7.45875V8.27325C10.65 8.5889 10.7135 8.90132 10.8368 9.1919C10.9601 9.48248 11.1406 9.74529 11.3675 9.96467C11.5944 10.1841 11.8632 10.3555 12.1578 10.4689C12.4524 10.5822 12.7668 10.6352 13.0822 10.6245L16.0155 10.5255C16.5472 10.5075 17.077 10.5966 17.5735 10.7876C18.07 10.9787 18.523 11.2676 18.9055 11.6373C19.288 12.007 19.5922 12.4499 19.8 12.9396C20.0078 13.4293 20.1149 13.9558 20.115 14.4878C20.115 15.6957 19.6351 16.8543 18.7809 17.7084C17.9268 18.5626 16.7682 19.0425 15.5602 19.0425H13.8622C8.50499 19.0425 4.16249 14.7 4.16249 9.34275V7.45875Z" fill="#9ACD32"/>
</svg>
