<svg width="24" height="24" viewBox="0 0 24 24" fill="none" xmlns="http://www.w3.org/2000/svg">
<g filter="url(#filter0_d_431_200)">
<path fill-rule="evenodd" clip-rule="evenodd" d="M16.0425 8.0475C16.128 4.9695 19.8555 4.01775 21.609 6.33075C21.76 6.53716 21.8238 6.79463 21.7868 7.04768C21.7497 7.30072 21.6147 7.52908 21.4109 7.68353C21.207 7.83798 20.9507 7.90616 20.697 7.87337C20.4434 7.84059 20.2128 7.70946 20.055 7.50825C19.3125 6.5295 18.0217 7.03125 17.9925 8.10075C17.9812 8.48925 18.1162 8.82075 18.4282 9.20775C18.7132 9.56025 19.0822 9.88425 19.5472 10.2938L19.8457 10.5578C21.0052 11.589 22.4437 12.9938 22.5847 15.4718C22.7497 18.3765 19.926 20.31 17.4825 19.6958C17.2316 19.6326 17.0162 19.4724 16.8835 19.2504C16.7508 19.0283 16.7117 18.7627 16.7748 18.5119C16.838 18.261 16.9982 18.0456 17.2202 17.9129C17.4422 17.7802 17.7079 17.7411 17.9587 17.8043C19.2412 18.1268 20.7217 17.0565 20.6377 15.5828C20.544 13.9365 19.6477 12.9915 18.5497 12.015L18.2947 11.7908C17.8305 11.3828 17.3115 10.9268 16.9117 10.4333C16.4062 9.8085 16.0155 9.036 16.0425 8.0475Z" fill="url(#paint0_linear_431_200)"/>
<path fill-rule="evenodd" clip-rule="evenodd" d="M16.0425 8.0475C16.128 4.9695 19.8555 4.01775 21.609 6.33075C21.76 6.53716 21.8238 6.79463 21.7868 7.04768C21.7497 7.30072 21.6147 7.52908 21.4109 7.68353C21.207 7.83798 20.9507 7.90616 20.697 7.87337C20.4434 7.84059 20.2128 7.70946 20.055 7.50825C19.3125 6.5295 18.0217 7.03125 17.9925 8.10075C17.9812 8.48925 18.1162 8.82075 18.4282 9.20775C18.7132 9.56025 19.0822 9.88425 19.5472 10.2938L19.8457 10.5578C21.0052 11.589 22.4437 12.9938 22.5847 15.4718C22.7497 18.3765 19.926 20.31 17.4825 19.6958C17.2316 19.6326 17.0162 19.4724 16.8835 19.2504C16.7508 19.0283 16.7117 18.7627 16.7748 18.5119C16.838 18.261 16.9982 18.0456 17.2202 17.9129C17.4422 17.7802 17.7079 17.7411 17.9587 17.8043C19.2412 18.1268 20.7217 17.0565 20.6377 15.5828C20.544 13.9365 19.6477 12.9915 18.5497 12.015L18.2947 11.7908C17.8305 11.3828 17.3115 10.9268 16.9117 10.4333C16.4062 9.8085 16.0155 9.036 16.0425 8.0475Z" fill="url(#paint1_linear_431_200)"/>
<path fill-rule="evenodd" clip-rule="evenodd" d="M16.0425 8.0475C16.128 4.9695 19.8555 4.01775 21.609 6.33075C21.76 6.53716 21.8238 6.79463 21.7868 7.04768C21.7497 7.30072 21.6147 7.52908 21.4109 7.68353C21.207 7.83798 20.9507 7.90616 20.697 7.87337C20.4434 7.84059 20.2128 7.70946 20.055 7.50825C19.3125 6.5295 18.0217 7.03125 17.9925 8.10075C17.9812 8.48925 18.1162 8.82075 18.4282 9.20775C18.7132 9.56025 19.0822 9.88425 19.5472 10.2938L19.8457 10.5578C21.0052 11.589 22.4437 12.9938 22.5847 15.4718C22.7497 18.3765 19.926 20.31 17.4825 19.6958C17.2316 19.6326 17.0162 19.4724 16.8835 19.2504C16.7508 19.0283 16.7117 18.7627 16.7748 18.5119C16.838 18.261 16.9982 18.0456 17.2202 17.9129C17.4422 17.7802 17.7079 17.7411 17.9587 17.8043C19.2412 18.1268 20.7217 17.0565 20.6377 15.5828C20.544 13.9365 19.6477 12.9915 18.5497 12.015L18.2947 11.7908C17.8305 11.3828 17.3115 10.9268 16.9117 10.4333C16.4062 9.8085 16.0155 9.036 16.0425 8.0475Z" fill="url(#paint2_radial_431_200)"/>
<path fill-rule="evenodd" clip-rule="evenodd" d="M16.0425 8.0475C16.128 4.9695 19.8555 4.01775 21.609 6.33075C21.76 6.53716 21.8238 6.79463 21.7868 7.04768C21.7497 7.30072 21.6147 7.52908 21.4109 7.68353C21.207 7.83798 20.9507 7.90616 20.697 7.87337C20.4434 7.84059 20.2128 7.70946 20.055 7.50825C19.3125 6.5295 18.0217 7.03125 17.9925 8.10075C17.9812 8.48925 18.1162 8.82075 18.4282 9.20775C18.7132 9.56025 19.0822 9.88425 19.5472 10.2938L19.8457 10.5578C21.0052 11.589 22.4437 12.9938 22.5847 15.4718C22.7497 18.3765 19.926 20.31 17.4825 19.6958C17.2316 19.6326 17.0162 19.4724 16.8835 19.2504C16.7508 19.0283 16.7117 18.7627 16.7748 18.5119C16.838 18.261 16.9982 18.0456 17.2202 17.9129C17.4422 17.7802 17.7079 17.7411 17.9587 17.8043C19.2412 18.1268 20.7217 17.0565 20.6377 15.5828C20.544 13.9365 19.6477 12.9915 18.5497 12.015L18.2947 11.7908C17.8305 11.3828 17.3115 10.9268 16.9117 10.4333C16.4062 9.8085 16.0155 9.036 16.0425 8.0475Z" fill="url(#paint3_radial_431_200)"/>
</g>
<g filter="url(#filter1_f_431_200)">
<path d="M21.1072 6.84375C20.6152 6.117 19.572 5.508 18.5295 5.76525C17.106 6.11775 16.5607 8.27325 18.342 10.008C20.1232 11.742 21.3645 12.2812 21.834 15.2347C22.2165 17.646 20.0527 18.7035 18.9982 18.9142" stroke="url(#paint4_linear_431_200)" stroke-width="0.6" stroke-linecap="round"/>
</g>
<path fill-rule="evenodd" clip-rule="evenodd" d="M16.0425 8.0475C16.128 4.9695 19.8555 4.01775 21.609 6.33075C21.76 6.53716 21.8238 6.79463 21.7868 7.04768C21.7497 7.30072 21.6147 7.52908 21.4109 7.68353C21.207 7.83798 20.9507 7.90616 20.697 7.87337C20.4434 7.84059 20.2128 7.70946 20.055 7.50825C19.3125 6.5295 18.0217 7.03125 17.9925 8.10075C17.9812 8.48925 18.1162 8.82075 18.4282 9.20775C18.7132 9.56025 19.0822 9.88425 19.5472 10.2938L19.8457 10.5578C21.0052 11.589 22.4437 12.9938 22.5847 15.4718C22.7497 18.3765 19.926 20.31 17.4825 19.6958C17.2316 19.6326 17.0162 19.4724 16.8835 19.2504C16.7508 19.0283 16.7117 18.7627 16.7748 18.5119C16.838 18.261 16.9982 18.0456 17.2202 17.9129C17.4422 17.7802 17.7079 17.7411 17.9587 17.8043C19.2412 18.1268 20.7217 17.0565 20.6377 15.5828C20.544 13.9365 19.6477 12.9915 18.5497 12.015L18.2947 11.7908C17.8305 11.3828 17.3115 10.9268 16.9117 10.4333C16.4062 9.8085 16.0155 9.036 16.0425 8.0475Z" fill="url(#paint5_radial_431_200)"/>
<g filter="url(#filter2_d_431_200)">
<path d="M16.836 22.095L6.56702 12.5362C7.87952 11.247 10.4475 9.24599 12.2153 9.47624C16.9778 10.0942 18.5858 14.2192 18.7418 16.1445V19.8645C18.7418 21.7507 17.5215 22.0965 16.836 22.0965V22.095Z" fill="url(#paint6_radial_431_200)"/>
<path d="M16.836 22.095L6.56702 12.5362C7.87952 11.247 10.4475 9.24599 12.2153 9.47624C16.9778 10.0942 18.5858 14.2192 18.7418 16.1445V19.8645C18.7418 21.7507 17.5215 22.0965 16.836 22.0965V22.095Z" fill="url(#paint7_radial_431_200)"/>
<path d="M16.836 22.095L6.56702 12.5362C7.87952 11.247 10.4475 9.24599 12.2153 9.47624C16.9778 10.0942 18.5858 14.2192 18.7418 16.1445V19.8645C18.7418 21.7507 17.5215 22.0965 16.836 22.0965V22.095Z" fill="url(#paint8_radial_431_200)"/>
<path d="M16.836 22.095L6.56702 12.5362C7.87952 11.247 10.4475 9.24599 12.2153 9.47624C16.9778 10.0942 18.5858 14.2192 18.7418 16.1445V19.8645C18.7418 21.7507 17.5215 22.0965 16.836 22.0965V22.095Z" fill="url(#paint9_radial_431_200)"/>
<path d="M16.836 22.095L6.56702 12.5362C7.87952 11.247 10.4475 9.24599 12.2153 9.47624C16.9778 10.0942 18.5858 14.2192 18.7418 16.1445V19.8645C18.7418 21.7507 17.5215 22.0965 16.836 22.0965V22.095Z" fill="url(#paint10_radial_431_200)"/>
<path d="M16.836 22.095L6.56702 12.5362C7.87952 11.247 10.4475 9.24599 12.2153 9.47624C16.9778 10.0942 18.5858 14.2192 18.7418 16.1445V19.8645C18.7418 21.7507 17.5215 22.0965 16.836 22.0965V22.095Z" fill="url(#paint11_radial_431_200)"/>
</g>
<path d="M8.70751 11.2635C11.0048 11.967 10.5825 14.217 9.78601 14.5215C9.72976 14.5215 9.33301 14.5837 9.14176 14.6152C6.93826 15.5647 4.59451 18.6697 4.87576 22.092H2.34001C1.77451 21.8235 1.73176 21.381 1.72351 21.1545C1.81726 15.417 6.27076 12.0375 8.70826 11.2635H8.70751Z" fill="url(#paint12_radial_431_200)"/>
<path d="M8.70751 11.2635C11.0048 11.967 10.5825 14.217 9.78601 14.5215C9.72976 14.5215 9.33301 14.5837 9.14176 14.6152C6.93826 15.5647 4.59451 18.6697 4.87576 22.092H2.34001C1.77451 21.8235 1.73176 21.381 1.72351 21.1545C1.81726 15.417 6.27076 12.0375 8.70826 11.2635H8.70751Z" fill="url(#paint13_radial_431_200)"/>
<path d="M8.70751 11.2635C11.0048 11.967 10.5825 14.217 9.78601 14.5215C9.72976 14.5215 9.33301 14.5837 9.14176 14.6152C6.93826 15.5647 4.59451 18.6697 4.87576 22.092H2.34001C1.77451 21.8235 1.73176 21.381 1.72351 21.1545C1.81726 15.417 6.27076 12.0375 8.70826 11.2635H8.70751Z" fill="url(#paint14_radial_431_200)"/>
<path d="M8.70751 11.2635C11.0048 11.967 10.5825 14.217 9.78601 14.5215C9.72976 14.5215 9.33301 14.5837 9.14176 14.6152C6.93826 15.5647 4.59451 18.6697 4.87576 22.092H2.34001C1.77451 21.8235 1.73176 21.381 1.72351 21.1545C1.81726 15.417 6.27076 12.0375 8.70826 11.2635H8.70751Z" fill="url(#paint15_radial_431_200)"/>
<path d="M8.70751 11.2635C11.0048 11.967 10.5825 14.217 9.78601 14.5215C9.72976 14.5215 9.33301 14.5837 9.14176 14.6152C6.93826 15.5647 4.59451 18.6697 4.87576 22.092H2.34001C1.77451 21.8235 1.73176 21.381 1.72351 21.1545C1.81726 15.417 6.27076 12.0375 8.70826 11.2635H8.70751Z" fill="url(#paint16_radial_431_200)"/>
<path d="M12.36 17.0175C9.82123 17.0175 7.74148 19.2172 7.55098 21.729C7.53598 21.9352 7.70473 22.104 7.91173 22.104H16.8067C16.8555 22.1049 16.904 22.0957 16.9491 22.077C16.9942 22.0583 17.0349 22.0304 17.0687 21.9952C17.1025 21.96 17.1287 21.9182 17.1456 21.8723C17.1624 21.8265 17.1696 21.7777 17.1667 21.729C16.977 19.2172 14.898 17.0175 12.36 17.0175Z" fill="url(#paint17_radial_431_200)"/>
<path d="M12.36 17.0175C9.82123 17.0175 7.74148 19.2172 7.55098 21.729C7.53598 21.9352 7.70473 22.104 7.91173 22.104H16.8067C16.8555 22.1049 16.904 22.0957 16.9491 22.077C16.9942 22.0583 17.0349 22.0304 17.0687 21.9952C17.1025 21.96 17.1287 21.9182 17.1456 21.8723C17.1624 21.8265 17.1696 21.7777 17.1667 21.729C16.977 19.2172 14.898 17.0175 12.36 17.0175Z" fill="url(#paint18_radial_431_200)"/>
<path d="M12.36 17.0175C9.82123 17.0175 7.74148 19.2172 7.55098 21.729C7.53598 21.9352 7.70473 22.104 7.91173 22.104H16.8067C16.8555 22.1049 16.904 22.0957 16.9491 22.077C16.9942 22.0583 17.0349 22.0304 17.0687 21.9952C17.1025 21.96 17.1287 21.9182 17.1456 21.8723C17.1624 21.8265 17.1696 21.7777 17.1667 21.729C16.977 19.2172 14.898 17.0175 12.36 17.0175Z" fill="url(#paint19_radial_431_200)"/>
<path d="M12.36 17.0175C9.82123 17.0175 7.74148 19.2172 7.55098 21.729C7.53598 21.9352 7.70473 22.104 7.91173 22.104H16.8067C16.8555 22.1049 16.904 22.0957 16.9491 22.077C16.9942 22.0583 17.0349 22.0304 17.0687 21.9952C17.1025 21.96 17.1287 21.9182 17.1456 21.8723C17.1624 21.8265 17.1696 21.7777 17.1667 21.729C16.977 19.2172 14.898 17.0175 12.36 17.0175Z" fill="url(#paint20_radial_431_200)"/>
<g filter="url(#filter3_f_431_200)">
<path d="M9.1073 21.3277C9.5903 18.3652 13.7311 16.944 16.1033 19.7002" stroke="url(#paint21_linear_431_200)" stroke-linecap="round"/>
</g>
<g filter="url(#filter4_f_431_200)">
<path d="M16.584 20.5545C16.3628 18.3037 14.3108 16.8517 12.6698 16.5705" stroke="url(#paint22_linear_431_200)" stroke-width="0.5" stroke-linecap="round"/>
</g>
<g filter="url(#filter5_f_431_200)">
<path d="M13.9762 20.217C12.9315 20.217 12.084 20.9182 12.084 21.783H15.8692C15.8692 20.9182 15.0217 20.217 13.9762 20.217Z" fill="#602A33"/>
</g>
<path d="M4.23222 20.217C3.98366 20.217 3.73754 20.2659 3.50791 20.3611C3.27828 20.4562 3.06965 20.5957 2.89393 20.7715C2.71821 20.9473 2.57884 21.156 2.48379 21.3856C2.38874 21.6153 2.33987 21.8614 2.33997 22.11H6.12522C6.12531 21.8614 6.07642 21.6152 5.98132 21.3854C5.88622 21.1557 5.74679 20.947 5.57099 20.7712C5.39519 20.5954 5.18647 20.456 4.95675 20.3609C4.72704 20.2658 4.48084 20.2169 4.23222 20.217Z" fill="url(#paint23_radial_431_200)"/>
<path d="M4.23222 20.217C3.98366 20.217 3.73754 20.2659 3.50791 20.3611C3.27828 20.4562 3.06965 20.5957 2.89393 20.7715C2.71821 20.9473 2.57884 21.156 2.48379 21.3856C2.38874 21.6153 2.33987 21.8614 2.33997 22.11H6.12522C6.12531 21.8614 6.07642 21.6152 5.98132 21.3854C5.88622 21.1557 5.74679 20.947 5.57099 20.7712C5.39519 20.5954 5.18647 20.456 4.95675 20.3609C4.72704 20.2658 4.48084 20.2169 4.23222 20.217Z" fill="url(#paint24_radial_431_200)"/>
<path d="M4.23222 20.217C3.98366 20.217 3.73754 20.2659 3.50791 20.3611C3.27828 20.4562 3.06965 20.5957 2.89393 20.7715C2.71821 20.9473 2.57884 21.156 2.48379 21.3856C2.38874 21.6153 2.33987 21.8614 2.33997 22.11H6.12522C6.12531 21.8614 6.07642 21.6152 5.98132 21.3854C5.88622 21.1557 5.74679 20.947 5.57099 20.7712C5.39519 20.5954 5.18647 20.456 4.95675 20.3609C4.72704 20.2658 4.48084 20.2169 4.23222 20.217Z" fill="url(#paint25_radial_431_200)"/>
<path d="M4.23222 20.217C3.98366 20.217 3.73754 20.2659 3.50791 20.3611C3.27828 20.4562 3.06965 20.5957 2.89393 20.7715C2.71821 20.9473 2.57884 21.156 2.48379 21.3856C2.38874 21.6153 2.33987 21.8614 2.33997 22.11H6.12522C6.12531 21.8614 6.07642 21.6152 5.98132 21.3854C5.88622 21.1557 5.74679 20.947 5.57099 20.7712C5.39519 20.5954 5.18647 20.456 4.95675 20.3609C4.72704 20.2658 4.48084 20.2169 4.23222 20.217Z" fill="url(#paint26_radial_431_200)"/>
<g filter="url(#filter6_f_431_200)">
<path d="M5.18247 21.888C5.42934 21.888 5.62947 21.6879 5.62947 21.441C5.62947 21.1941 5.42934 20.994 5.18247 20.994C4.9356 20.994 4.73547 21.1941 4.73547 21.441C4.73547 21.6879 4.9356 21.888 5.18247 21.888Z" fill="#FFBBCF"/>
</g>
<path d="M14.6325 20.217C14.3839 20.217 14.1378 20.2659 13.9082 20.3611C13.6786 20.4562 13.4699 20.5957 13.2942 20.7715C13.1185 20.9473 12.9791 21.156 12.8841 21.3856C12.789 21.6153 12.7401 21.8614 12.7402 22.11H16.5255C16.5256 21.8614 16.4767 21.6152 16.3816 21.3854C16.2865 21.1557 16.1471 20.947 15.9713 20.7712C15.7955 20.5954 15.5867 20.456 15.357 20.3609C15.1273 20.2658 14.8811 20.2169 14.6325 20.217Z" fill="url(#paint27_radial_431_200)"/>
<path d="M14.6325 20.217C14.3839 20.217 14.1378 20.2659 13.9082 20.3611C13.6786 20.4562 13.4699 20.5957 13.2942 20.7715C13.1185 20.9473 12.9791 21.156 12.8841 21.3856C12.789 21.6153 12.7401 21.8614 12.7402 22.11H16.5255C16.5256 21.8614 16.4767 21.6152 16.3816 21.3854C16.2865 21.1557 16.1471 20.947 15.9713 20.7712C15.7955 20.5954 15.5867 20.456 15.357 20.3609C15.1273 20.2658 14.8811 20.2169 14.6325 20.217Z" fill="url(#paint28_radial_431_200)"/>
<path d="M14.6325 20.217C14.3839 20.217 14.1378 20.2659 13.9082 20.3611C13.6786 20.4562 13.4699 20.5957 13.2942 20.7715C13.1185 20.9473 12.9791 21.156 12.8841 21.3856C12.789 21.6153 12.7401 21.8614 12.7402 22.11H16.5255C16.5256 21.8614 16.4767 21.6152 16.3816 21.3854C16.2865 21.1557 16.1471 20.947 15.9713 20.7712C15.7955 20.5954 15.5867 20.456 15.357 20.3609C15.1273 20.2658 14.8811 20.2169 14.6325 20.217Z" fill="url(#paint29_radial_431_200)"/>
<path d="M14.6325 20.217C14.3839 20.217 14.1378 20.2659 13.9082 20.3611C13.6786 20.4562 13.4699 20.5957 13.2942 20.7715C13.1185 20.9473 12.9791 21.156 12.8841 21.3856C12.789 21.6153 12.7401 21.8614 12.7402 22.11H16.5255C16.5256 21.8614 16.4767 21.6152 16.3816 21.3854C16.2865 21.1557 16.1471 20.947 15.9713 20.7712C15.7955 20.5954 15.5867 20.456 15.357 20.3609C15.1273 20.2658 14.8811 20.2169 14.6325 20.217Z" fill="url(#paint30_radial_431_200)"/>
<g filter="url(#filter7_f_431_200)">
<path d="M15.5595 21.783C15.8064 21.783 16.0065 21.5829 16.0065 21.336C16.0065 21.0891 15.8064 20.889 15.5595 20.889C15.3127 20.889 15.1125 21.0891 15.1125 21.336C15.1125 21.5829 15.3127 21.783 15.5595 21.783Z" fill="#FFCCDB"/>
</g>
<g filter="url(#filter8_f_431_200)">
<path d="M10.3965 12.75C8.87323 12.867 5.05273 15.2107 4.20898 19.266" stroke="url(#paint31_linear_431_200)" stroke-linecap="round"/>
</g>
<g filter="url(#filter9_f_431_200)">
<path d="M9.89246 12C10.35 12.2227 10.638 13.7295 10.0567 14.4607" stroke="url(#paint32_linear_431_200)" stroke-width="0.25" stroke-linecap="round"/>
</g>
<g filter="url(#filter10_f_431_200)">
<path d="M16.7768 13.1437C18.585 16.167 17.3625 19.0342 17.0813 20.058C16.2548 18.288 14.5748 17.2237 12.3473 14.8545C11.271 13.7107 10.7768 13.1445 9.62854 11.2222C10.9635 9.51074 14.8133 9.86099 16.7768 13.1437Z" fill="url(#paint33_radial_431_200)"/>
</g>
<g filter="url(#filter11_f_431_200)">
<path d="M21.2798 7.1017C21.4352 6.95801 21.351 6.6142 21.0917 6.33379C20.8324 6.05338 20.4963 5.94255 20.3408 6.08625C20.1854 6.22995 20.2696 6.57375 20.5289 6.85416C20.7882 7.13457 21.1243 7.2454 21.2798 7.1017Z" fill="url(#paint34_radial_431_200)"/>
</g>
<g filter="url(#filter12_f_431_200)">
<path d="M18.7417 17.97V19.6815C18.8332 19.5652 18.8729 19.224 18.8729 18.7882C18.8729 18.3525 18.8332 18.0615 18.7417 17.9707V17.97Z" fill="url(#paint35_linear_431_200)"/>
</g>
<path d="M4.00504 10.212C5.14804 10.212 6.07429 9.3 6.07429 8.175C6.07429 7.05 5.14804 6.138 4.00429 6.138C2.86204 6.138 1.93579 7.05 1.93579 8.175C1.93579 9.3 2.86204 10.212 4.00504 10.212Z" fill="url(#paint36_linear_431_200)"/>
<path d="M4.00504 10.212C5.14804 10.212 6.07429 9.3 6.07429 8.175C6.07429 7.05 5.14804 6.138 4.00429 6.138C2.86204 6.138 1.93579 7.05 1.93579 8.175C1.93579 9.3 2.86204 10.212 4.00504 10.212Z" fill="url(#paint37_linear_431_200)"/>
<path d="M4.00504 10.212C5.14804 10.212 6.07429 9.3 6.07429 8.175C6.07429 7.05 5.14804 6.138 4.00429 6.138C2.86204 6.138 1.93579 7.05 1.93579 8.175C1.93579 9.3 2.86204 10.212 4.00504 10.212Z" fill="url(#paint38_radial_431_200)" fill-opacity="0.5"/>
<path d="M11.1427 10.212C12.285 10.212 13.212 9.3 13.212 8.175C13.212 7.05 12.285 6.138 11.142 6.138C9.99974 6.138 9.07349 7.05 9.07349 8.175C9.07349 9.3 9.99974 10.212 11.1427 10.212Z" fill="url(#paint39_linear_431_200)"/>
<g filter="url(#filter13_f_431_200)">
<path d="M11.6722 6.42899C12.042 6.48449 12.7567 6.97124 12.915 7.75349C13.0972 8.42549 12.8497 9.28649 12.2842 9.62249" stroke="url(#paint40_radial_431_200)" stroke-opacity="0.8" stroke-width="0.5" stroke-linecap="round"/>
</g>
<path d="M7.58331 12.8332C10.5893 12.8332 12.0908 10.8157 12.0908 8.32574C12.0908 5.83574 10.5893 3.81824 7.58331 3.81824C4.57731 3.81824 3.07581 5.83574 3.07581 8.32574C3.07581 10.8157 4.57731 12.8332 7.58331 12.8332Z" fill="url(#paint41_radial_431_200)"/>
<path d="M7.58331 12.8332C10.5893 12.8332 12.0908 10.8157 12.0908 8.32574C12.0908 5.83574 10.5893 3.81824 7.58331 3.81824C4.57731 3.81824 3.07581 5.83574 3.07581 8.32574C3.07581 10.8157 4.57731 12.8332 7.58331 12.8332Z" fill="url(#paint42_linear_431_200)"/>
<path d="M7.58331 12.8332C10.5893 12.8332 12.0908 10.8157 12.0908 8.32574C12.0908 5.83574 10.5893 3.81824 7.58331 3.81824C4.57731 3.81824 3.07581 5.83574 3.07581 8.32574C3.07581 10.8157 4.57731 12.8332 7.58331 12.8332Z" fill="url(#paint43_radial_431_200)"/>
<path d="M7.58331 12.8332C10.5893 12.8332 12.0908 10.8157 12.0908 8.32574C12.0908 5.83574 10.5893 3.81824 7.58331 3.81824C4.57731 3.81824 3.07581 5.83574 3.07581 8.32574C3.07581 10.8157 4.57731 12.8332 7.58331 12.8332Z" fill="url(#paint44_radial_431_200)"/>
<path d="M7.58331 12.8332C10.5893 12.8332 12.0908 10.8157 12.0908 8.32574C12.0908 5.83574 10.5893 3.81824 7.58331 3.81824C4.57731 3.81824 3.07581 5.83574 3.07581 8.32574C3.07581 10.8157 4.57731 12.8332 7.58331 12.8332Z" fill="url(#paint45_radial_431_200)"/>
<g filter="url(#filter14_f_431_200)">
<path d="M11.0316 8.13426C11.3851 7.98128 11.381 7.18544 11.0224 6.35673C10.6638 5.52801 10.0864 4.98022 9.73291 5.13321C9.37937 5.2862 9.38349 6.08203 9.74211 6.91075C10.1007 7.73947 10.678 8.28725 11.0316 8.13426Z" fill="#C58E7D"/>
</g>
<g filter="url(#filter15_f_431_200)">
<path d="M7.52707 4.28699C8.16532 4.28699 8.68357 4.35224 8.68357 4.43324C8.68357 4.51349 8.16607 4.57874 7.52707 4.57874C6.88957 4.57874 6.37207 4.51349 6.37207 4.43324C6.37207 4.35224 6.88957 4.28699 7.52707 4.28699Z" fill="#C58E7D"/>
</g>
<g filter="url(#filter16_f_431_200)">
<path d="M6.02776 5.20348C5.6947 5.20337 5.36817 5.29591 5.08468 5.47075C4.80119 5.64558 4.57192 5.89582 4.42251 6.19349C4.27309 6.49116 4.20941 6.82452 4.2386 7.1563C4.26778 7.48809 4.38867 7.80521 4.58776 8.07223C4.66276 8.17198 4.69726 8.29723 4.67851 8.42023C4.6169 8.8215 4.64276 9.23135 4.75434 9.62169C4.86592 10.012 5.06058 10.3736 5.32496 10.6817C5.58935 10.9898 5.91722 11.2371 6.2861 11.4066C6.65499 11.5761 7.05616 11.6639 7.46214 11.6639C7.86811 11.6639 8.26929 11.5761 8.63817 11.4066C9.00705 11.2371 9.33492 10.9898 9.59931 10.6817C9.8637 10.3736 10.0583 10.012 10.1699 9.62169C10.2815 9.23135 10.3074 8.8215 10.2458 8.42023C10.2369 8.35915 10.2403 8.29693 10.2558 8.23718C10.2712 8.17743 10.2984 8.12136 10.3358 8.07223C10.5351 7.80522 10.6561 7.48801 10.6854 7.15611C10.7147 6.82421 10.6511 6.49071 10.5017 6.19291C10.3522 5.89511 10.1229 5.64477 9.83925 5.4699C9.55563 5.29503 9.22895 5.20252 8.89576 5.20273H6.02851L6.02776 5.20348Z" fill="#561E25"/>
</g>
<path d="M6.03754 5.10974C5.01529 5.10974 4.18579 5.92274 4.18579 6.92474C4.18579 7.31474 4.43104 7.80824 4.74379 8.10224C4.86765 8.2202 4.94126 8.38138 4.94929 8.55224C4.95379 8.67899 4.96879 8.80949 4.96879 8.93249C5.15779 10.5727 6.52129 11.295 7.62154 11.295C8.76904 11.295 10.1723 10.3432 10.1723 8.77049V8.43299C10.1723 8.32949 10.215 8.23124 10.2923 8.16299C10.5698 7.91924 10.9268 7.60799 10.9268 6.92549C10.9268 5.92274 10.3583 5.10974 8.99704 5.10974H6.03754Z" fill="url(#paint46_linear_431_200)"/>
<path d="M6.03754 5.10974C5.01529 5.10974 4.18579 5.92274 4.18579 6.92474C4.18579 7.31474 4.43104 7.80824 4.74379 8.10224C4.86765 8.2202 4.94126 8.38138 4.94929 8.55224C4.95379 8.67899 4.96879 8.80949 4.96879 8.93249C5.15779 10.5727 6.52129 11.295 7.62154 11.295C8.76904 11.295 10.1723 10.3432 10.1723 8.77049V8.43299C10.1723 8.32949 10.215 8.23124 10.2923 8.16299C10.5698 7.91924 10.9268 7.60799 10.9268 6.92549C10.9268 5.92274 10.3583 5.10974 8.99704 5.10974H6.03754Z" fill="url(#paint47_radial_431_200)"/>
<path d="M6.03754 5.10974C5.01529 5.10974 4.18579 5.92274 4.18579 6.92474C4.18579 7.31474 4.43104 7.80824 4.74379 8.10224C4.86765 8.2202 4.94126 8.38138 4.94929 8.55224C4.95379 8.67899 4.96879 8.80949 4.96879 8.93249C5.15779 10.5727 6.52129 11.295 7.62154 11.295C8.76904 11.295 10.1723 10.3432 10.1723 8.77049V8.43299C10.1723 8.32949 10.215 8.23124 10.2923 8.16299C10.5698 7.91924 10.9268 7.60799 10.9268 6.92549C10.9268 5.92274 10.3583 5.10974 8.99704 5.10974H6.03754Z" fill="url(#paint48_radial_431_200)"/>
<path d="M6.03754 5.10974C5.01529 5.10974 4.18579 5.92274 4.18579 6.92474C4.18579 7.31474 4.43104 7.80824 4.74379 8.10224C4.86765 8.2202 4.94126 8.38138 4.94929 8.55224C4.95379 8.67899 4.96879 8.80949 4.96879 8.93249C5.15779 10.5727 6.52129 11.295 7.62154 11.295C8.76904 11.295 10.1723 10.3432 10.1723 8.77049V8.43299C10.1723 8.32949 10.215 8.23124 10.2923 8.16299C10.5698 7.91924 10.9268 7.60799 10.9268 6.92549C10.9268 5.92274 10.3583 5.10974 8.99704 5.10974H6.03754Z" fill="url(#paint49_radial_431_200)"/>
<g filter="url(#filter17_f_431_200)">
<path d="M3.70129 5.83499C3.09979 7.31849 3.16879 9.48899 3.82579 10.4122" stroke="url(#paint50_linear_431_200)" stroke-opacity="0.4" stroke-width="0.8" stroke-linecap="round"/>
</g>
<g filter="url(#filter18_f_431_200)">
<path d="M11.7038 6.63898C12.0165 7.87648 11.9865 9.49273 11.421 10.4122" stroke="url(#paint51_linear_431_200)" stroke-opacity="0.5" stroke-width="0.4" stroke-linecap="round"/>
</g>
<g filter="url(#filter19_f_431_200)">
<path d="M9.62854 5.34149C10.1175 5.53349 11.0205 6.28274 10.5698 7.56149" stroke="url(#paint52_linear_431_200)" stroke-width="0.4" stroke-linecap="round"/>
</g>
<path d="M6.07654 9.44998C6.07654 10.3162 6.69904 10.962 7.58404 10.962C8.53504 10.962 9.09004 10.2892 9.09004 9.45073L6.07654 9.44998Z" fill="url(#paint53_radial_431_200)"/>
<g filter="url(#filter20_f_431_200)">
<path d="M6.56699 7.16698C6.56699 6.99757 6.42965 6.86023 6.26024 6.86023C6.09083 6.86023 5.95349 6.99757 5.95349 7.16698V7.77973C5.95349 7.94914 6.09083 8.08648 6.26024 8.08648C6.42965 8.08648 6.56699 7.94914 6.56699 7.77973V7.16698Z" fill="#BB6F89" fill-opacity="0.6"/>
</g>
<g filter="url(#filter21_f_431_200)">
<path d="M8.89805 7.16698C8.89805 6.99757 8.76071 6.86023 8.5913 6.86023C8.42188 6.86023 8.28455 6.99757 8.28455 7.16698V7.77973C8.28455 7.94914 8.42188 8.08648 8.5913 8.08648C8.76071 8.08648 8.89805 7.94914 8.89805 7.77973V7.16698Z" fill="#BB6F89" fill-opacity="0.6"/>
</g>
<path d="M6.82798 6.82348C6.82798 6.61803 6.66143 6.45148 6.45598 6.45148C6.25053 6.45148 6.08398 6.61803 6.08398 6.82348V7.56748C6.08398 7.77293 6.25053 7.93948 6.45598 7.93948C6.66143 7.93948 6.82798 7.77293 6.82798 7.56748V6.82348Z" fill="url(#paint54_linear_431_200)"/>
<path d="M6.82798 6.82348C6.82798 6.61803 6.66143 6.45148 6.45598 6.45148C6.25053 6.45148 6.08398 6.61803 6.08398 6.82348V7.56748C6.08398 7.77293 6.25053 7.93948 6.45598 7.93948C6.66143 7.93948 6.82798 7.77293 6.82798 7.56748V6.82348Z" fill="url(#paint55_linear_431_200)"/>
<path d="M9.06077 6.82348C9.06077 6.61803 8.89422 6.45148 8.68877 6.45148C8.48332 6.45148 8.31677 6.61803 8.31677 6.82348V7.56748C8.31677 7.77293 8.48332 7.93948 8.68877 7.93948C8.89422 7.93948 9.06077 7.77293 9.06077 7.56748V6.82348Z" fill="url(#paint56_linear_431_200)"/>
<path d="M9.06077 6.82348C9.06077 6.61803 8.89422 6.45148 8.68877 6.45148C8.48332 6.45148 8.31677 6.61803 8.31677 6.82348V7.56748C8.31677 7.77293 8.48332 7.93948 8.68877 7.93948C8.89422 7.93948 9.06077 7.77293 9.06077 7.56748V6.82348Z" fill="url(#paint57_linear_431_200)"/>
<g filter="url(#filter22_f_431_200)">
<path d="M8.04975 8.08649H6.94575C6.6939 8.08649 6.48975 8.29065 6.48975 8.54249C6.48975 8.79433 6.6939 8.99849 6.94575 8.99849H8.04975C8.30159 8.99849 8.50575 8.79433 8.50575 8.54249C8.50575 8.29065 8.30159 8.08649 8.04975 8.08649Z" fill="#BB6F89"/>
</g>
<path d="M8.05652 7.93423H7.11002C6.89049 7.93423 6.71252 8.1122 6.71252 8.33173C6.71252 8.55127 6.89049 8.72923 7.11002 8.72923H8.05652C8.27606 8.72923 8.45402 8.55127 8.45402 8.33173C8.45402 8.1122 8.27606 7.93423 8.05652 7.93423Z" fill="url(#paint58_linear_431_200)"/>
<path d="M8.05652 7.93423H7.11002C6.89049 7.93423 6.71252 8.1122 6.71252 8.33173C6.71252 8.55127 6.89049 8.72923 7.11002 8.72923H8.05652C8.27606 8.72923 8.45402 8.55127 8.45402 8.33173C8.45402 8.1122 8.27606 7.93423 8.05652 7.93423Z" fill="url(#paint59_linear_431_200)"/>
<path d="M7.34621 8.45173C7.34621 8.50295 7.32586 8.55207 7.28965 8.58829C7.25343 8.62451 7.20431 8.64486 7.15309 8.64486C7.10187 8.64486 7.05274 8.62451 7.01653 8.58829C6.98031 8.55207 6.95996 8.50295 6.95996 8.45173C6.95996 8.40051 6.98031 8.35139 7.01653 8.31517C7.05274 8.27895 7.10187 8.25861 7.15309 8.25861C7.20431 8.25861 7.25343 8.27895 7.28965 8.31517C7.32586 8.35139 7.34621 8.40051 7.34621 8.45173Z" fill="url(#paint60_radial_431_200)"/>
<path d="M8.15771 8.44124C8.15771 8.48957 8.13851 8.53593 8.10433 8.57011C8.07015 8.60429 8.0238 8.62349 7.97546 8.62349C7.92713 8.62349 7.88077 8.60429 7.84659 8.57011C7.81241 8.53593 7.79321 8.48957 7.79321 8.44124C7.79321 8.3929 7.81241 8.34655 7.84659 8.31237C7.88077 8.27819 7.92713 8.25899 7.97546 8.25899C8.0238 8.25899 8.07015 8.27819 8.10433 8.31237C8.13851 8.34655 8.15771 8.3929 8.15771 8.44124Z" fill="url(#paint61_radial_431_200)"/>
<g filter="url(#filter23_f_431_200)">
<path d="M8.02576 8.15249C8.14801 8.12849 8.31826 8.21999 8.33776 8.40674" stroke="url(#paint62_linear_431_200)" stroke-width="0.05"/>
</g>
<g filter="url(#filter24_f_431_200)">
<path d="M8.78771 6.90223C8.86517 6.90223 8.92796 6.83944 8.92796 6.76198C8.92796 6.68453 8.86517 6.62173 8.78771 6.62173C8.71025 6.62173 8.64746 6.68453 8.64746 6.76198C8.64746 6.83944 8.71025 6.90223 8.78771 6.90223Z" fill="#795D72"/>
</g>
<g filter="url(#filter25_f_431_200)">
<path d="M6.588 6.97273C6.66546 6.97273 6.72825 6.90994 6.72825 6.83248C6.72825 6.75502 6.66546 6.69223 6.588 6.69223C6.51055 6.69223 6.44775 6.75502 6.44775 6.83248C6.44775 6.90994 6.51055 6.97273 6.588 6.97273Z" fill="#795D72"/>
</g>
<defs>
<filter id="filter0_d_431_200" x="15.3411" y="4.24575" width="8.05042" height="16.264" filterUnits="userSpaceOnUse" color-interpolation-filters="sRGB">
<feFlood flood-opacity="0" result="BackgroundImageFix"/>
<feColorMatrix in="SourceAlpha" type="matrix" values="0 0 0 0 0 0 0 0 0 0 0 0 0 0 0 0 0 0 127 0" result="hardAlpha"/>
<feOffset dx="0.05" dy="-0.05"/>
<feGaussianBlur stdDeviation="0.375"/>
<feComposite in2="hardAlpha" operator="out"/>
<feColorMatrix type="matrix" values="0 0 0 0 0.3375 0 0 0 0 0.106875 0 0 0 0 0.164531 0 0 0 1 0"/>
<feBlend mode="normal" in2="BackgroundImageFix" result="effect1_dropShadow_431_200"/>
<feBlend mode="normal" in="SourceGraphic" in2="effect1_dropShadow_431_200" result="shape"/>
</filter>
<filter id="filter1_f_431_200" x="15.9185" y="4.40479" width="7.26038" height="15.8095" filterUnits="userSpaceOnUse" color-interpolation-filters="sRGB">
<feFlood flood-opacity="0" result="BackgroundImageFix"/>
<feBlend mode="normal" in="SourceGraphic" in2="BackgroundImageFix" result="shape"/>
<feGaussianBlur stdDeviation="0.5" result="effect1_foregroundBlur_431_200"/>
</filter>
<filter id="filter2_d_431_200" x="5.56702" y="8.60799" width="14.1748" height="14.6385" filterUnits="userSpaceOnUse" color-interpolation-filters="sRGB">
<feFlood flood-opacity="0" result="BackgroundImageFix"/>
<feColorMatrix in="SourceAlpha" type="matrix" values="0 0 0 0 0 0 0 0 0 0 0 0 0 0 0 0 0 0 127 0" result="hardAlpha"/>
<feOffset dy="0.15"/>
<feGaussianBlur stdDeviation="0.5"/>
<feComposite in2="hardAlpha" operator="out"/>
<feColorMatrix type="matrix" values="0 0 0 0 0.705882 0 0 0 0 0.52549 0 0 0 0 0.509804 0 0 0 0.5 0"/>
<feBlend mode="normal" in2="BackgroundImageFix" result="effect1_dropShadow_431_200"/>
<feBlend mode="normal" in="SourceGraphic" in2="effect1_dropShadow_431_200" result="shape"/>
</filter>
<filter id="filter3_f_431_200" x="7.35718" y="16.4732" width="10.4961" height="6.60461" filterUnits="userSpaceOnUse" color-interpolation-filters="sRGB">
<feFlood flood-opacity="0" result="BackgroundImageFix"/>
<feBlend mode="normal" in="SourceGraphic" in2="BackgroundImageFix" result="shape"/>
<feGaussianBlur stdDeviation="0.625" result="effect1_foregroundBlur_431_200"/>
</filter>
<filter id="filter4_f_431_200" x="11.4198" y="15.3204" width="6.41431" height="6.48407" filterUnits="userSpaceOnUse" color-interpolation-filters="sRGB">
<feFlood flood-opacity="0" result="BackgroundImageFix"/>
<feBlend mode="normal" in="SourceGraphic" in2="BackgroundImageFix" result="shape"/>
<feGaussianBlur stdDeviation="0.5" result="effect1_foregroundBlur_431_200"/>
</filter>
<filter id="filter5_f_431_200" x="11.334" y="19.467" width="5.28528" height="3.06599" filterUnits="userSpaceOnUse" color-interpolation-filters="sRGB">
<feFlood flood-opacity="0" result="BackgroundImageFix"/>
<feBlend mode="normal" in="SourceGraphic" in2="BackgroundImageFix" result="shape"/>
<feGaussianBlur stdDeviation="0.375" result="effect1_foregroundBlur_431_200"/>
</filter>
<filter id="filter6_f_431_200" x="3.73547" y="19.994" width="2.89404" height="2.894" filterUnits="userSpaceOnUse" color-interpolation-filters="sRGB">
<feFlood flood-opacity="0" result="BackgroundImageFix"/>
<feBlend mode="normal" in="SourceGraphic" in2="BackgroundImageFix" result="shape"/>
<feGaussianBlur stdDeviation="0.5" result="effect1_foregroundBlur_431_200"/>
</filter>
<filter id="filter7_f_431_200" x="14.1125" y="19.889" width="2.89404" height="2.894" filterUnits="userSpaceOnUse" color-interpolation-filters="sRGB">
<feFlood flood-opacity="0" result="BackgroundImageFix"/>
<feBlend mode="normal" in="SourceGraphic" in2="BackgroundImageFix" result="shape"/>
<feGaussianBlur stdDeviation="0.5" result="effect1_foregroundBlur_431_200"/>
</filter>
<filter id="filter8_f_431_200" x="1.70886" y="10.25" width="11.1876" height="11.5161" filterUnits="userSpaceOnUse" color-interpolation-filters="sRGB">
<feFlood flood-opacity="0" result="BackgroundImageFix"/>
<feBlend mode="normal" in="SourceGraphic" in2="BackgroundImageFix" result="shape"/>
<feGaussianBlur stdDeviation="1" result="effect1_foregroundBlur_431_200"/>
</filter>
<filter id="filter9_f_431_200" x="9.01746" y="11.125" width="2.23926" height="4.21078" filterUnits="userSpaceOnUse" color-interpolation-filters="sRGB">
<feFlood flood-opacity="0" result="BackgroundImageFix"/>
<feBlend mode="normal" in="SourceGraphic" in2="BackgroundImageFix" result="shape"/>
<feGaussianBlur stdDeviation="0.375" result="effect1_foregroundBlur_431_200"/>
</filter>
<filter id="filter10_f_431_200" x="6.12854" y="6.71194" width="15.1178" height="16.846" filterUnits="userSpaceOnUse" color-interpolation-filters="sRGB">
<feFlood flood-opacity="0" result="BackgroundImageFix"/>
<feBlend mode="normal" in="SourceGraphic" in2="BackgroundImageFix" result="shape"/>
<feGaussianBlur stdDeviation="1.75" result="effect1_foregroundBlur_431_200"/>
</filter>
<filter id="filter11_f_431_200" x="19.2629" y="5.02335" width="3.09473" height="3.14127" filterUnits="userSpaceOnUse" color-interpolation-filters="sRGB">
<feFlood flood-opacity="0" result="BackgroundImageFix"/>
<feBlend mode="normal" in="SourceGraphic" in2="BackgroundImageFix" result="shape"/>
<feGaussianBlur stdDeviation="0.5" result="effect1_foregroundBlur_431_200"/>
</filter>
<filter id="filter12_f_431_200" x="18.6417" y="17.87" width="0.331226" height="1.9115" filterUnits="userSpaceOnUse" color-interpolation-filters="sRGB">
<feFlood flood-opacity="0" result="BackgroundImageFix"/>
<feBlend mode="normal" in="SourceGraphic" in2="BackgroundImageFix" result="shape"/>
<feGaussianBlur stdDeviation="0.05" result="effect1_foregroundBlur_431_200"/>
</filter>
<filter id="filter13_f_431_200" x="11.0222" y="5.77896" width="2.60188" height="4.49357" filterUnits="userSpaceOnUse" color-interpolation-filters="sRGB">
<feFlood flood-opacity="0" result="BackgroundImageFix"/>
<feBlend mode="normal" in="SourceGraphic" in2="BackgroundImageFix" result="shape"/>
<feGaussianBlur stdDeviation="0.2" result="effect1_foregroundBlur_431_200"/>
</filter>
<filter id="filter14_f_431_200" x="5.97046" y="1.60757" width="8.82361" height="10.0523" filterUnits="userSpaceOnUse" color-interpolation-filters="sRGB">
<feFlood flood-opacity="0" result="BackgroundImageFix"/>
<feBlend mode="normal" in="SourceGraphic" in2="BackgroundImageFix" result="shape"/>
<feGaussianBlur stdDeviation="1.75" result="effect1_foregroundBlur_431_200"/>
</filter>
<filter id="filter15_f_431_200" x="2.87207" y="0.786987" width="9.31152" height="7.29175" filterUnits="userSpaceOnUse" color-interpolation-filters="sRGB">
<feFlood flood-opacity="0" result="BackgroundImageFix"/>
<feBlend mode="normal" in="SourceGraphic" in2="BackgroundImageFix" result="shape"/>
<feGaussianBlur stdDeviation="1.75" result="effect1_foregroundBlur_431_200"/>
</filter>
<filter id="filter16_f_431_200" x="2.23169" y="3.20273" width="10.4607" height="10.4612" filterUnits="userSpaceOnUse" color-interpolation-filters="sRGB">
<feFlood flood-opacity="0" result="BackgroundImageFix"/>
<feBlend mode="normal" in="SourceGraphic" in2="BackgroundImageFix" result="shape"/>
<feGaussianBlur stdDeviation="1" result="effect1_foregroundBlur_431_200"/>
</filter>
<filter id="filter17_f_431_200" x="2.48879" y="5.03488" width="2.13704" height="6.1774" filterUnits="userSpaceOnUse" color-interpolation-filters="sRGB">
<feFlood flood-opacity="0" result="BackgroundImageFix"/>
<feBlend mode="normal" in="SourceGraphic" in2="BackgroundImageFix" result="shape"/>
<feGaussianBlur stdDeviation="0.2" result="effect1_foregroundBlur_431_200"/>
</filter>
<filter id="filter18_f_431_200" x="10.8209" y="6.03893" width="1.68135" height="4.97332" filterUnits="userSpaceOnUse" color-interpolation-filters="sRGB">
<feFlood flood-opacity="0" result="BackgroundImageFix"/>
<feBlend mode="normal" in="SourceGraphic" in2="BackgroundImageFix" result="shape"/>
<feGaussianBlur stdDeviation="0.2" result="effect1_foregroundBlur_431_200"/>
</filter>
<filter id="filter19_f_431_200" x="9.02847" y="4.74145" width="2.26375" height="3.42009" filterUnits="userSpaceOnUse" color-interpolation-filters="sRGB">
<feFlood flood-opacity="0" result="BackgroundImageFix"/>
<feBlend mode="normal" in="SourceGraphic" in2="BackgroundImageFix" result="shape"/>
<feGaussianBlur stdDeviation="0.2" result="effect1_foregroundBlur_431_200"/>
</filter>
<filter id="filter20_f_431_200" x="4.95349" y="5.86023" width="2.61353" height="3.22624" filterUnits="userSpaceOnUse" color-interpolation-filters="sRGB">
<feFlood flood-opacity="0" result="BackgroundImageFix"/>
<feBlend mode="normal" in="SourceGraphic" in2="BackgroundImageFix" result="shape"/>
<feGaussianBlur stdDeviation="0.5" result="effect1_foregroundBlur_431_200"/>
</filter>
<filter id="filter21_f_431_200" x="7.28455" y="5.86023" width="2.61353" height="3.22624" filterUnits="userSpaceOnUse" color-interpolation-filters="sRGB">
<feFlood flood-opacity="0" result="BackgroundImageFix"/>
<feBlend mode="normal" in="SourceGraphic" in2="BackgroundImageFix" result="shape"/>
<feGaussianBlur stdDeviation="0.5" result="effect1_foregroundBlur_431_200"/>
</filter>
<filter id="filter22_f_431_200" x="5.48975" y="7.08649" width="4.01599" height="2.912" filterUnits="userSpaceOnUse" color-interpolation-filters="sRGB">
<feFlood flood-opacity="0" result="BackgroundImageFix"/>
<feBlend mode="normal" in="SourceGraphic" in2="BackgroundImageFix" result="shape"/>
<feGaussianBlur stdDeviation="0.5" result="effect1_foregroundBlur_431_200"/>
</filter>
<filter id="filter23_f_431_200" x="7.821" y="7.92373" width="0.741675" height="0.685599" filterUnits="userSpaceOnUse" color-interpolation-filters="sRGB">
<feFlood flood-opacity="0" result="BackgroundImageFix"/>
<feBlend mode="normal" in="SourceGraphic" in2="BackgroundImageFix" result="shape"/>
<feGaussianBlur stdDeviation="0.1" result="effect1_foregroundBlur_431_200"/>
</filter>
<filter id="filter24_f_431_200" x="7.64746" y="5.62173" width="2.28052" height="2.28049" filterUnits="userSpaceOnUse" color-interpolation-filters="sRGB">
<feFlood flood-opacity="0" result="BackgroundImageFix"/>
<feBlend mode="normal" in="SourceGraphic" in2="BackgroundImageFix" result="shape"/>
<feGaussianBlur stdDeviation="0.5" result="effect1_foregroundBlur_431_200"/>
</filter>
<filter id="filter25_f_431_200" x="5.44775" y="5.69223" width="2.28052" height="2.28049" filterUnits="userSpaceOnUse" color-interpolation-filters="sRGB">
<feFlood flood-opacity="0" result="BackgroundImageFix"/>
<feBlend mode="normal" in="SourceGraphic" in2="BackgroundImageFix" result="shape"/>
<feGaussianBlur stdDeviation="0.5" result="effect1_foregroundBlur_431_200"/>
</filter>
<linearGradient id="paint0_linear_431_200" x1="18.1545" y1="17.2973" x2="23.1585" y2="13.0268" gradientUnits="userSpaceOnUse">
<stop stop-color="#66323A"/>
<stop offset="0.583" stop-color="#8A4F59"/>
<stop offset="1" stop-color="#985762"/>
</linearGradient>
<linearGradient id="paint1_linear_431_200" x1="17.7322" y1="23.391" x2="14.7922" y2="17.715" gradientUnits="userSpaceOnUse">
<stop offset="0.068" stop-color="#6D2379"/>
<stop offset="0.779" stop-color="#85356D" stop-opacity="0"/>
</linearGradient>
<radialGradient id="paint2_radial_431_200" cx="0" cy="0" r="1" gradientUnits="userSpaceOnUse" gradientTransform="translate(18.9277 17.5545) rotate(41.4965) scale(1.62718 3.05654)">
<stop stop-color="#3A1118"/>
<stop offset="0.97" stop-color="#682B35" stop-opacity="0"/>
</radialGradient>
<radialGradient id="paint3_radial_431_200" cx="0" cy="0" r="1" gradientUnits="userSpaceOnUse" gradientTransform="translate(19.7716 8.36776) rotate(-151.574) scale(2.90493)">
<stop stop-color="#A5438F"/>
<stop offset="1" stop-color="#863A75" stop-opacity="0"/>
</radialGradient>
<linearGradient id="paint4_linear_431_200" x1="20.3197" y1="8.12625" x2="16.2427" y2="10.3807" gradientUnits="userSpaceOnUse">
<stop stop-color="#BE8E8A"/>
<stop offset="1" stop-color="#B48682" stop-opacity="0"/>
</linearGradient>
<radialGradient id="paint5_radial_431_200" cx="0" cy="0" r="1" gradientUnits="userSpaceOnUse" gradientTransform="translate(21.2714 7.95646) rotate(-138.814) scale(1.74401 3.54332)">
<stop stop-color="#975564"/>
<stop offset="1" stop-color="#985762" stop-opacity="0"/>
</radialGradient>
<radialGradient id="paint6_radial_431_200" cx="0" cy="0" r="1" gradientUnits="userSpaceOnUse" gradientTransform="translate(10.8329 19.5061) rotate(-46.862) scale(8.67218 6.86718)">
<stop stop-color="#66323A"/>
<stop offset="1" stop-color="#8A4F59"/>
</radialGradient>
<radialGradient id="paint7_radial_431_200" cx="0" cy="0" r="1" gradientUnits="userSpaceOnUse" gradientTransform="translate(12.654 17.508) rotate(-43.6429) scale(3.61668 6.85909)">
<stop stop-color="#7C3D6E"/>
<stop offset="1" stop-color="#863A75" stop-opacity="0"/>
</radialGradient>
<radialGradient id="paint8_radial_431_200" cx="0" cy="0" r="1" gradientUnits="userSpaceOnUse" gradientTransform="translate(10.6215 16.4122) rotate(-41.3358) scale(3.37117 10.2127)">
<stop stop-color="#48161E"/>
<stop offset="0.97" stop-color="#682B35" stop-opacity="0"/>
</radialGradient>
<radialGradient id="paint9_radial_431_200" cx="0" cy="0" r="1" gradientUnits="userSpaceOnUse" gradientTransform="translate(9.07502 19.2487) rotate(-32.42) scale(4.24053 3.99739)">
<stop stop-color="#925990"/>
<stop offset="1" stop-color="#925990" stop-opacity="0"/>
</radialGradient>
<radialGradient id="paint10_radial_431_200" cx="0" cy="0" r="1" gradientUnits="userSpaceOnUse" gradientTransform="translate(8.87264 18.4681) rotate(-8.803) scale(10.7201 17.5131)">
<stop offset="0.83" stop-color="#682B35" stop-opacity="0"/>
<stop offset="1" stop-color="#521F27"/>
</radialGradient>
<radialGradient id="paint11_radial_431_200" cx="0" cy="0" r="1" gradientUnits="userSpaceOnUse" gradientTransform="translate(9.15302 10.3732) rotate(93.3665) scale(3.62353 3.15746)">
<stop stop-color="#3A1118"/>
<stop offset="0.97" stop-color="#682B35" stop-opacity="0"/>
</radialGradient>
<radialGradient id="paint12_radial_431_200" cx="0" cy="0" r="1" gradientUnits="userSpaceOnUse" gradientTransform="translate(14.8257 23.2642) rotate(-143.121) scale(13.1841 11.1499)">
<stop offset="0.748" stop-color="#722F3A"/>
<stop offset="0.881" stop-color="#92626A"/>
<stop offset="1" stop-color="#7E434D"/>
</radialGradient>
<radialGradient id="paint13_radial_431_200" cx="0" cy="0" r="1" gradientUnits="userSpaceOnUse" gradientTransform="translate(14.8253 23.2635) rotate(-144.55) scale(13.7227 11.6054)">
<stop offset="0.802" stop-color="#682B35" stop-opacity="0"/>
<stop offset="1" stop-color="#521F27"/>
</radialGradient>
<radialGradient id="paint14_radial_431_200" cx="0" cy="0" r="1" gradientUnits="userSpaceOnUse" gradientTransform="translate(7.25551 12.4687) rotate(141.694) scale(3.55424 1.52616)">
<stop stop-color="#3A1118"/>
<stop offset="0.97" stop-color="#682B35" stop-opacity="0"/>
</radialGradient>
<radialGradient id="paint15_radial_431_200" cx="0" cy="0" r="1" gradientUnits="userSpaceOnUse" gradientTransform="translate(1.46701 23.0625) rotate(-66.584) scale(6.4874 2.78562)">
<stop stop-color="#48161E"/>
<stop offset="0.97" stop-color="#682B35" stop-opacity="0"/>
</radialGradient>
<radialGradient id="paint16_radial_431_200" cx="0" cy="0" r="1" gradientUnits="userSpaceOnUse" gradientTransform="translate(10.1153 14.9295) rotate(-153.301) scale(2.24306 5.36125)">
<stop stop-color="#5B2430"/>
<stop offset="1" stop-color="#5B2430" stop-opacity="0"/>
</radialGradient>
<radialGradient id="paint17_radial_431_200" cx="0" cy="0" r="1" gradientUnits="userSpaceOnUse" gradientTransform="translate(8.87248 18.2812) rotate(23.422) scale(3.21831 4.15518)">
<stop stop-color="#722F3A"/>
<stop offset="1" stop-color="#854953"/>
</radialGradient>
<radialGradient id="paint18_radial_431_200" cx="0" cy="0" r="1" gradientUnits="userSpaceOnUse" gradientTransform="translate(18.1072 23.2972) rotate(-153.078) scale(10.0939 8.1849)">
<stop offset="0.802" stop-color="#5C2F31" stop-opacity="0"/>
<stop offset="1" stop-color="#5C2F31"/>
</radialGradient>
<radialGradient id="paint19_radial_431_200" cx="0" cy="0" r="1" gradientUnits="userSpaceOnUse" gradientTransform="translate(11.451 23.4375) rotate(-100.382) scale(3.12142 14.0631)">
<stop offset="0.372" stop-color="#6D2379"/>
<stop offset="0.825" stop-color="#85356D" stop-opacity="0"/>
</radialGradient>
<radialGradient id="paint20_radial_431_200" cx="0" cy="0" r="1" gradientUnits="userSpaceOnUse" gradientTransform="translate(15.8338 22.3128) rotate(-174.011) scale(2.00312 3.79854)">
<stop stop-color="#86444F"/>
<stop offset="1" stop-color="#602A33" stop-opacity="0"/>
</radialGradient>
<linearGradient id="paint21_linear_431_200" x1="13.8436" y1="16.1512" x2="9.71705" y2="21.9142" gradientUnits="userSpaceOnUse">
<stop stop-color="#B3817C"/>
<stop offset="1" stop-color="#B2817C" stop-opacity="0"/>
</linearGradient>
<linearGradient id="paint22_linear_431_200" x1="17.8058" y1="16.0987" x2="11.1158" y2="18.4395" gradientUnits="userSpaceOnUse">
<stop stop-color="#B3817C"/>
<stop offset="1" stop-color="#B2817C" stop-opacity="0"/>
</linearGradient>
<radialGradient id="paint23_radial_431_200" cx="0" cy="0" r="1" gradientUnits="userSpaceOnUse" gradientTransform="translate(5.8268 20.4612) rotate(136.439) scale(3.29903 3.38162)">
<stop stop-color="#EEB4BD"/>
<stop offset="1" stop-color="#B05D8C"/>
</radialGradient>
<radialGradient id="paint24_radial_431_200" cx="0" cy="0" r="1" gradientUnits="userSpaceOnUse" gradientTransform="translate(3.57597 22.5937) rotate(114.775) scale(1.3423 1.36166)">
<stop stop-color="#B05D8C"/>
<stop offset="1" stop-color="#BD6797" stop-opacity="0"/>
</radialGradient>
<radialGradient id="paint25_radial_431_200" cx="0" cy="0" r="1" gradientUnits="userSpaceOnUse" gradientTransform="translate(4.30272 21.6915) rotate(90) scale(3.52734 6.72029)">
<stop stop-color="#D29691" stop-opacity="0"/>
<stop offset="1" stop-color="#BA7973"/>
</radialGradient>
<radialGradient id="paint26_radial_431_200" cx="0" cy="0" r="1" gradientUnits="userSpaceOnUse" gradientTransform="translate(4.49022 22.11) rotate(180) scale(2.56641 2.44692)">
<stop offset="0.763" stop-color="#EDB7C5" stop-opacity="0"/>
<stop offset="1" stop-color="#EDB7C5"/>
</radialGradient>
<radialGradient id="paint27_radial_431_200" cx="0" cy="0" r="1" gradientUnits="userSpaceOnUse" gradientTransform="translate(15.9737 20.5322) rotate(134.15) scale(3.07046 3.14732)">
<stop stop-color="#EEB4BD"/>
<stop offset="1" stop-color="#B05D8C"/>
</radialGradient>
<radialGradient id="paint28_radial_431_200" cx="0" cy="0" r="1" gradientUnits="userSpaceOnUse" gradientTransform="translate(13.9762 22.5937) rotate(114.775) scale(1.3423 1.36166)">
<stop stop-color="#B05D8C"/>
<stop offset="1" stop-color="#BD6797" stop-opacity="0"/>
</radialGradient>
<radialGradient id="paint29_radial_431_200" cx="0" cy="0" r="1" gradientUnits="userSpaceOnUse" gradientTransform="translate(14.703 21.6915) rotate(90) scale(3.52734 6.72029)">
<stop stop-color="#D29691" stop-opacity="0"/>
<stop offset="1" stop-color="#BA7973"/>
</radialGradient>
<radialGradient id="paint30_radial_431_200" cx="0" cy="0" r="1" gradientUnits="userSpaceOnUse" gradientTransform="translate(15.6697 23.5312) rotate(-129.604) scale(4.30158 2.87472)">
<stop offset="0.728" stop-color="#E99B98" stop-opacity="0"/>
<stop offset="1" stop-color="#E99B98"/>
</radialGradient>
<linearGradient id="paint31_linear_431_200" x1="8.68048" y1="13.8322" x2="5.82598" y2="17.625" gradientUnits="userSpaceOnUse">
<stop stop-color="#B48682"/>
<stop offset="1" stop-color="#B48682" stop-opacity="0"/>
</linearGradient>
<linearGradient id="paint32_linear_431_200" x1="10.278" y1="12.5272" x2="10.278" y2="14.4607" gradientUnits="userSpaceOnUse">
<stop stop-color="#A1736F"/>
<stop offset="1" stop-color="#955093"/>
</linearGradient>
<radialGradient id="paint33_radial_431_200" cx="0" cy="0" r="1" gradientUnits="userSpaceOnUse" gradientTransform="translate(16.0035 13.683) rotate(140.418) scale(2.21993 11.9138)">
<stop stop-color="#CD9691"/>
<stop offset="0.857" stop-color="#CD9691" stop-opacity="0"/>
</radialGradient>
<radialGradient id="paint34_radial_431_200" cx="0" cy="0" r="1" gradientUnits="userSpaceOnUse" gradientTransform="translate(21.3178 6.98484) rotate(-137.489) scale(0.953839 0.529015)">
<stop stop-color="#C48980"/>
<stop offset="1" stop-color="#C48980" stop-opacity="0"/>
</radialGradient>
<linearGradient id="paint35_linear_431_200" x1="19.0627" y1="16.635" x2="19.0627" y2="19.8285" gradientUnits="userSpaceOnUse">
<stop offset="0.05" stop-color="#EDD1CE"/>
<stop offset="1" stop-color="#BE8E8A" stop-opacity="0"/>
</linearGradient>
<linearGradient id="paint36_linear_431_200" x1="4.00504" y1="6.7335" x2="4.00504" y2="10.8608" gradientUnits="userSpaceOnUse">
<stop stop-color="#A67874"/>
<stop offset="1" stop-color="#8F5872"/>
</linearGradient>
<linearGradient id="paint37_linear_431_200" x1="4.00504" y1="7.95975" x2="4.00504" y2="11.049" gradientUnits="userSpaceOnUse">
<stop stop-color="#B56595" stop-opacity="0"/>
<stop offset="1" stop-color="#CA6FA6"/>
</linearGradient>
<radialGradient id="paint38_radial_431_200" cx="0" cy="0" r="1" gradientUnits="userSpaceOnUse" gradientTransform="translate(5.46454 10.4595) rotate(-135.32) scale(5.96967 7.1254)">
<stop offset="0.632" stop-color="#F39585" stop-opacity="0"/>
<stop offset="1" stop-color="#F39585"/>
</radialGradient>
<linearGradient id="paint39_linear_431_200" x1="11.1427" y1="7.182" x2="11.1427" y2="11.049" gradientUnits="userSpaceOnUse">
<stop offset="0.094" stop-color="#FAB8A9"/>
<stop offset="1" stop-color="#B56595"/>
</linearGradient>
<radialGradient id="paint40_radial_431_200" cx="0" cy="0" r="1" gradientUnits="userSpaceOnUse" gradientTransform="translate(12.4965 9.50474) rotate(-131.065) scale(3.15898 6.65468)">
<stop stop-color="#FFDACC" stop-opacity="0"/>
<stop offset="0.448" stop-color="#FFDACC"/>
<stop offset="1" stop-color="#FFDACC" stop-opacity="0"/>
</radialGradient>
<radialGradient id="paint41_radial_431_200" cx="0" cy="0" r="1" gradientUnits="userSpaceOnUse" gradientTransform="translate(10.6996 5.88449) rotate(120.705) scale(8.08192 14.3227)">
<stop stop-color="#A06857"/>
<stop offset="1" stop-color="#5B3838"/>
</radialGradient>
<linearGradient id="paint42_linear_431_200" x1="7.58331" y1="8.32574" x2="7.58331" y2="14.6865" gradientUnits="userSpaceOnUse">
<stop stop-color="#682B5B" stop-opacity="0"/>
<stop offset="1" stop-color="#682B5B"/>
</linearGradient>
<radialGradient id="paint43_radial_431_200" cx="0" cy="0" r="1" gradientUnits="userSpaceOnUse" gradientTransform="translate(7.58406 7.19924) rotate(90) scale(7.79993 6.96551)">
<stop offset="0.688" stop-color="#FF7AF2" stop-opacity="0"/>
<stop offset="1" stop-color="#FFBCE6"/>
</radialGradient>
<radialGradient id="paint44_radial_431_200" cx="0" cy="0" r="1" gradientUnits="userSpaceOnUse" gradientTransform="translate(10.4108 5.44835) rotate(123.75) scale(7.18706)">
<stop stop-color="#A9705E"/>
<stop offset="1" stop-color="#A9705E" stop-opacity="0"/>
</radialGradient>
<radialGradient id="paint45_radial_431_200" cx="0" cy="0" r="1" gradientUnits="userSpaceOnUse" gradientTransform="translate(11.7646 6.25349) rotate(144.728) scale(3.58847 3.6811)">
<stop stop-color="#A9705E"/>
<stop offset="1" stop-color="#A9705E" stop-opacity="0"/>
</radialGradient>
<linearGradient id="paint46_linear_431_200" x1="7.51804" y1="4.57574" x2="7.51804" y2="11.919" gradientUnits="userSpaceOnUse">
<stop stop-color="#FFC8BC"/>
<stop offset="0.151" stop-color="#F6ACC1"/>
<stop offset="0.895" stop-color="#AC628E"/>
</linearGradient>
<radialGradient id="paint47_radial_431_200" cx="0" cy="0" r="1" gradientUnits="userSpaceOnUse" gradientTransform="translate(11.1 6.40049) rotate(159.755) scale(7.76903 10.2673)">
<stop offset="0.818" stop-color="#A55F89" stop-opacity="0"/>
<stop offset="1" stop-color="#A55F89"/>
</radialGradient>
<radialGradient id="paint48_radial_431_200" cx="0" cy="0" r="1" gradientUnits="userSpaceOnUse" gradientTransform="translate(7.51804 7.55999) rotate(90.0032) scale(4.7933 4.17475)">
<stop offset="0.813" stop-color="#EF5CF2" stop-opacity="0"/>
<stop offset="1" stop-color="#FF63C4"/>
</radialGradient>
<radialGradient id="paint49_radial_431_200" cx="0" cy="0" r="1" gradientUnits="userSpaceOnUse" gradientTransform="translate(10.7485 5.10973) rotate(128.731) scale(4.46366 4.86464)">
<stop stop-color="#FFC8BC"/>
<stop offset="0.493" stop-color="#FFC8BC" stop-opacity="0"/>
</radialGradient>
<linearGradient id="paint50_linear_431_200" x1="4.05454" y1="10.6492" x2="3.12529" y2="5.86949" gradientUnits="userSpaceOnUse">
<stop stop-color="#7C6160" stop-opacity="0"/>
<stop offset="0.503" stop-color="#7C6160"/>
<stop offset="1" stop-color="#7C6160" stop-opacity="0"/>
</linearGradient>
<linearGradient id="paint51_linear_431_200" x1="10.971" y1="10.4122" x2="12.213" y2="7.41598" gradientUnits="userSpaceOnUse">
<stop stop-color="#BE8B89" stop-opacity="0"/>
<stop offset="0.296" stop-color="#BE8B89" stop-opacity="0.6"/>
<stop offset="0.808" stop-color="#BE8B89" stop-opacity="0"/>
</linearGradient>
<linearGradient id="paint52_linear_431_200" x1="10.8008" y1="7.34774" x2="9.43804" y2="5.30324" gradientUnits="userSpaceOnUse">
<stop stop-color="#FFDACC" stop-opacity="0"/>
<stop offset="0.557" stop-color="#FFDACC"/>
<stop offset="1" stop-color="#FFDACC" stop-opacity="0"/>
</linearGradient>
<radialGradient id="paint53_radial_431_200" cx="0" cy="0" r="1" gradientUnits="userSpaceOnUse" gradientTransform="translate(7.83004 11.2605) rotate(-90) scale(3.42251 6.66694)">
<stop stop-color="#EF0084"/>
<stop offset="0.548" stop-color="#89029C"/>
</radialGradient>
<linearGradient id="paint54_linear_431_200" x1="7.86148" y1="6.99073" x2="5.71723" y2="6.99073" gradientUnits="userSpaceOnUse">
<stop stop-color="#432A3D"/>
<stop offset="0.568" stop-color="#684E61"/>
<stop offset="0.766" stop-color="#43253D"/>
</linearGradient>
<linearGradient id="paint55_linear_431_200" x1="6.62398" y1="6.91198" x2="6.62398" y2="8.07448" gradientUnits="userSpaceOnUse">
<stop offset="0.327" stop-color="#43253D" stop-opacity="0"/>
<stop offset="1" stop-color="#43253D"/>
</linearGradient>
<linearGradient id="paint56_linear_431_200" x1="10.0935" y1="6.99073" x2="7.94927" y2="6.99073" gradientUnits="userSpaceOnUse">
<stop stop-color="#432A3D"/>
<stop offset="0.568" stop-color="#684E61"/>
<stop offset="0.766" stop-color="#43253D"/>
</linearGradient>
<linearGradient id="paint57_linear_431_200" x1="8.85677" y1="6.91198" x2="8.85677" y2="8.07448" gradientUnits="userSpaceOnUse">
<stop offset="0.327" stop-color="#43253D" stop-opacity="0"/>
<stop offset="1" stop-color="#43253D"/>
</linearGradient>
<linearGradient id="paint58_linear_431_200" x1="7.58327" y1="7.93423" x2="7.58327" y2="8.69623" gradientUnits="userSpaceOnUse">
<stop stop-color="#E9A4A2"/>
<stop offset="1" stop-color="#DC89A8"/>
</linearGradient>
<linearGradient id="paint59_linear_431_200" x1="7.40252" y1="9.69148" x2="7.13927" y2="8.40448" gradientUnits="userSpaceOnUse">
<stop offset="0.07" stop-color="#C971B6"/>
<stop offset="1" stop-color="#DC90CC" stop-opacity="0"/>
</linearGradient>
<radialGradient id="paint60_radial_431_200" cx="0" cy="0" r="1" gradientUnits="userSpaceOnUse" gradientTransform="translate(7.17596 8.39248) rotate(133.174) scale(0.71806 0.431696)">
<stop stop-color="#3E2739"/>
<stop offset="1" stop-color="#684E61"/>
</radialGradient>
<radialGradient id="paint61_radial_431_200" cx="0" cy="0" r="1" gradientUnits="userSpaceOnUse" gradientTransform="translate(8.04521 8.27474) rotate(129.408) scale(0.43419 0.679367)">
<stop stop-color="#3C2737"/>
<stop offset="1" stop-color="#684E61"/>
</radialGradient>
<linearGradient id="paint62_linear_431_200" x1="8.18176" y1="8.14949" x2="8.18176" y2="8.40674" gradientUnits="userSpaceOnUse">
<stop stop-color="#FFDACC" stop-opacity="0"/>
<stop offset="0.349" stop-color="#FFEBE3"/>
</linearGradient>
</defs>
</svg>
