<svg width="24" height="24" viewBox="0 0 24 24" fill="none" xmlns="http://www.w3.org/2000/svg">
<path d="M12 22C17.5228 22 22 17.5228 22 12C22 6.47715 17.5228 2 12 2C6.47715 2 2 6.47715 2 12C2 17.5228 6.47715 22 12 22Z" stroke="#E6E6FA" stroke-width="1.5"/>
<path d="M7.63303 3.06699C8.17349 3.18342 8.67128 3.44689 9.07148 3.82833C9.47168 4.20977 9.75874 4.69434 9.90097 5.22859C10.0432 5.76284 10.0351 6.326 9.87754 6.85593C9.71998 7.38587 9.4191 7.86197 9.00808 8.23173C8.59706 8.60149 8.09189 8.85052 7.5483 8.95134C7.00472 9.05217 6.44384 9.00088 5.92756 8.80313C5.41127 8.60537 4.95965 8.26884 4.62252 7.83067C4.28539 7.3925 4.07585 6.86971 4.01703 6.31999M22 13.05C21.611 12.653 21.1329 12.3545 20.6055 12.179C20.0781 12.0035 19.5165 11.9561 18.9672 12.0408C18.4179 12.1255 17.8966 12.3398 17.4465 12.666C16.9965 12.9922 16.6306 13.4209 16.3791 13.9166C16.1277 14.4123 15.9979 14.9607 16.0005 15.5166C16.0032 16.0724 16.1381 16.6196 16.3943 17.1129C16.6504 17.6062 17.0204 18.0314 17.4735 18.3533C17.9266 18.6752 18.4499 18.8845 19 18.964" stroke="#E6E6FA" stroke-width="1.5"/>
<path d="M14.5 8.50999L14.51 8.49899M10 17C10.5304 17 11.0391 16.7893 11.4142 16.4142C11.7893 16.0391 12 15.5304 12 15C12 14.4696 11.7893 13.9609 11.4142 13.5858C11.0391 13.2107 10.5304 13 10 13C9.46957 13 8.96086 13.2107 8.58579 13.5858C8.21071 13.9609 8 14.4696 8 15C8 15.5304 8.21071 16.0391 8.58579 16.4142C8.96086 16.7893 9.46957 17 10 17Z" stroke="#E6E6FA" stroke-width="1.5" stroke-linecap="round" stroke-linejoin="round"/>
</svg>
