<svg width="24" height="23" viewBox="0 0 24 23" fill="none" xmlns="http://www.w3.org/2000/svg">
<path d="M8.22478 2.77521V2.77761L8.22838 2.78001L8.23798 2.78961L8.27278 2.82561C8.30158 2.85561 8.34478 2.90001 8.39638 2.95761C8.50198 3.07041 8.65078 3.23721 8.83078 3.45081C9.19078 3.87921 9.67438 4.49841 10.1784 5.27361C10.824 6.26601 11.5104 7.52721 12 8.97201C12.4908 7.52721 13.176 6.26601 13.8216 5.27361C14.2335 4.63931 14.6835 4.0306 15.1692 3.45081C15.3489 3.23691 15.535 3.02842 15.7272 2.82561L15.762 2.78961L15.7716 2.78001L15.774 2.77761C15.858 2.69373 15.9649 2.6354 16.0814 2.61221C16.1978 2.58903 16.3185 2.60083 16.4282 2.64613C16.5379 2.69144 16.6318 2.76821 16.698 2.86678C16.7641 2.96535 16.7996 3.0813 16.8 3.20001V9.32721C17.1012 8.70081 17.43 8.19081 17.7528 7.77921C18.204 7.20561 18.6408 6.82881 18.9744 6.59121C19.1454 6.47001 19.326 6.36286 19.5144 6.27081L19.554 6.25281L19.5672 6.24681L19.5732 6.24441H19.5756L19.5768 6.24321C19.6678 6.20673 19.7664 6.19312 19.8639 6.20357C19.9614 6.21402 20.0549 6.24821 20.1361 6.30316C20.2174 6.35811 20.2839 6.43213 20.3299 6.51875C20.3759 6.60537 20.4 6.70194 20.4 6.80001V15.8C20.4 16.7548 20.0207 17.6705 19.3456 18.3456C18.6704 19.0207 17.7548 19.4 16.8 19.4H7.19998C6.2452 19.4 5.32952 19.0207 4.65439 18.3456C3.97926 17.6705 3.59998 16.7548 3.59998 15.8V6.80001C3.6 6.70194 3.62406 6.60537 3.67006 6.51875C3.71606 6.43213 3.78258 6.35811 3.86382 6.30316C3.94505 6.24821 4.03852 6.21402 4.13604 6.20357C4.23355 6.19312 4.33214 6.20673 4.42318 6.24321L4.42678 6.24441L4.43278 6.24681L4.44598 6.25281C4.50351 6.27673 4.5596 6.30398 4.61398 6.33441C4.71718 6.38961 4.85878 6.47361 5.02558 6.59241C5.36038 6.82881 5.79598 7.20561 6.24718 7.78041C6.57118 8.19081 6.89878 8.70081 7.19998 9.32841V3.20001C7.19976 3.08119 7.23484 2.96497 7.30075 2.86611C7.36667 2.76724 7.46045 2.69017 7.57022 2.64467C7.67999 2.59917 7.80079 2.58729 7.91732 2.61053C8.03385 2.63377 8.14086 2.69108 8.22478 2.77521Z" fill="#228B22"/>
</svg>
