<svg width="24" height="24" viewBox="0 0 24 24" fill="none" xmlns="http://www.w3.org/2000/svg">
<path d="M11.8095 4.88849C11.8095 5.38229 11.6133 5.85586 11.2642 6.20503C10.915 6.5542 10.4414 6.75036 9.94762 6.75036C9.45382 6.75036 8.98024 6.5542 8.63107 6.20503C8.2819 5.85586 8.08574 5.38229 8.08574 4.88849C8.08574 4.39469 8.2819 3.92111 8.63107 3.57194C8.98024 3.22277 9.45382 3.02661 9.94762 3.02661C10.4414 3.02661 10.915 3.22277 11.2642 3.57194C11.6133 3.92111 11.8095 4.39469 11.8095 4.88849ZM5.56874 9.38249C5.78854 9.38249 5.99933 9.29517 6.15475 9.13975C6.31018 8.98433 6.39749 8.77353 6.39749 8.55374C6.39749 8.33394 6.31018 8.12314 6.15475 7.96772C5.99933 7.8123 5.78854 7.72499 5.56874 7.72499C5.34894 7.72499 5.13815 7.8123 4.98273 7.96772C4.8273 8.12314 4.73999 8.33394 4.73999 8.55374C4.73999 8.77353 4.8273 8.98433 4.98273 9.13975C5.13815 9.29517 5.34894 9.38249 5.56874 9.38249Z" fill="#778899"/>
<path d="M8.87175 0.912737C9.40943 0.754233 9.97441 0.710494 10.5301 0.784357C11.0857 0.85822 11.6197 1.04803 12.0973 1.3415C12.5749 1.63496 12.9855 2.02551 13.3025 2.48784C13.6194 2.95017 13.8357 3.47396 13.9373 4.02524L14.3175 3.92774L14.331 3.92474C19.005 2.91224 23.2035 6.60974 23.25 11.2995V15.4875C23.25 17.7075 21.4425 19.515 19.2225 19.515L14.9925 19.5075C14.58 19.5075 14.25 19.8375 14.25 20.25C14.25 20.6625 14.58 20.9925 14.9925 20.9925L18.0075 21C18.42 21 18.7575 21.3375 18.7575 21.75C18.75 22.17 18.4125 22.5 18 22.5L14.985 22.4925C14.4067 22.4907 13.8515 22.2656 13.4352 21.8642C13.0189 21.4628 12.7739 20.916 12.7511 20.3382C12.7284 19.7604 12.9297 19.1961 13.3131 18.7632C13.6966 18.3303 14.2324 18.0622 14.8088 18.015H12.78C11.964 18.015 11.22 17.3895 11.22 16.5075C11.22 16.47 11.2215 16.4325 11.2238 16.395C10.7585 16.2979 10.3031 16.1583 9.86325 15.978L9.6285 16.8832C9.54825 17.1907 9.396 17.493 9.12225 17.7112C8.87302 17.9043 8.5652 18.0062 8.25 18H6.63C5.961 18 5.529 17.361 5.6775 16.7677L5.67825 16.764L6.48825 13.5967C6.08806 13.1086 5.75068 12.5721 5.484 12H3.105C2.48054 11.9996 1.88176 11.7513 1.4402 11.3098C0.99864 10.8682 0.750397 10.2695 0.75 9.64499C0.75 8.87474 1.125 8.15849 1.752 7.71824L4.00275 6.14024C3.74199 5.44537 3.68021 4.69154 3.82435 3.96349C3.96848 3.23544 4.31283 2.56202 4.81868 2.01892C5.32453 1.47582 5.97183 1.08458 6.68783 0.889168C7.40383 0.693755 8.16014 0.701917 8.87175 0.912737ZM6.71475 2.47049C6.20098 2.70252 5.78115 3.10202 5.52392 3.60366C5.2667 4.1053 5.18732 4.67937 5.29875 5.23199L6 4.74074C6.0004 3.92869 6.24987 3.1363 6.71475 2.47049ZM14.52 15C14.4074 14.5036 14.408 13.9883 14.5218 13.4922C14.6356 12.9961 14.8596 12.532 15.1772 12.1343C15.4949 11.7366 15.898 11.4156 16.3566 11.195C16.8153 10.9744 17.3178 10.8599 17.8267 10.86C17.9262 10.86 18.0216 10.8995 18.0919 10.9698C18.1622 11.0401 18.2017 11.1355 18.2017 11.235C18.2017 11.3344 18.1622 11.4298 18.0919 11.5002C18.0216 11.5705 17.9262 11.61 17.8267 11.61C17.3893 11.6099 16.9587 11.7185 16.5736 11.926C16.1886 12.1336 15.8611 12.4335 15.6207 12.799C15.3802 13.1644 15.2344 13.5839 15.1962 14.0196C15.1581 14.4554 15.2288 14.8938 15.402 15.2955L15.4523 15.3817C15.6509 15.7264 15.9368 16.0126 16.2812 16.2115C16.6257 16.4105 17.0165 16.5151 17.4142 16.515H20.1517C20.5748 16.5156 20.9807 16.3482 21.2804 16.0497C21.5801 15.7511 21.749 15.3458 21.75 14.9227V11.325C21.7177 7.50224 18.3255 4.60499 14.6625 5.38799L12.4238 5.96399L12.4965 4.92599C12.5208 4.58387 12.4744 4.24041 12.3602 3.91699C12.246 3.59358 12.0665 3.29713 11.8328 3.0461C11.599 2.79508 11.3162 2.59485 11.0017 2.45789C10.6873 2.32092 10.348 2.25016 10.005 2.24999C9.34193 2.24998 8.70591 2.51287 8.23634 2.98103C7.76678 3.44919 7.50199 4.08442 7.5 4.74749C7.5 4.84499 7.506 4.93349 7.5165 5.02199L7.57275 5.46974L2.6355 8.93099C2.7525 9.00764 2.84764 9.11331 2.91162 9.23769C2.97561 9.36208 3.00627 9.50092 3.0006 9.64068C2.99494 9.78044 2.95314 9.91635 2.8793 10.0351C2.80545 10.1539 2.70207 10.2516 2.57925 10.3185C2.724 10.4317 2.907 10.5 3.105 10.5H6.4935L6.67875 10.98C6.9555 11.6992 7.36125 12.3457 7.86525 12.8955L8.13975 13.1955L7.4865 15.75H8.373L8.8635 13.86L9.68625 14.2575C10.5637 14.6812 11.4337 15.0075 12.3075 15.0075H12.6255C12.6768 15.0025 12.7284 15 12.78 15H14.52ZM19.2217 18.015H19.1925H19.2375H19.2217Z" fill="#778899"/>
</svg>
