<svg width="24" height="24" viewBox="0 0 24 24" fill="none" xmlns="http://www.w3.org/2000/svg">
<path d="M9 8.33335C9 8.33335 9.33333 6.66668 8.33333 5.66668C7.33333 4.66668 10.4443 5.38901 11.2223 7.69435C11.2223 7.69435 17.6667 7.00001 20 11.3333C20 11.3333 20.6667 12.6667 14.6667 12.6667C14.6667 12.6667 14 14.3333 11.6667 14.3333C11.6667 14.3333 11 14.3333 12 12.6667C12 12.6667 8.66667 12.5 6.83333 15.9167C6.74091 16.1007 6.67064 16.2951 6.624 16.4957C6.27467 17.8447 8.473 17.3067 8.84067 18.2467C8.97467 18.5907 9.225 19.636 9.02833 19.7757C9.01505 19.7852 8.9993 19.7906 8.983 19.7913C8.91933 19.7947 8.82633 19.7357 8.69533 19.5917C8.00867 19.0807 7.029 19.762 6.36633 19.374C6.09967 19.218 5.96567 18.966 5.869 18.777C5.71533 19.0237 5.51067 19.533 5.16133 19.651C4.54933 19.8347 3.63133 19.776 3.19567 20.9317C2.79833 19.7193 2.40133 18.8547 3.88233 17.8343C4.40233 17.482 5.199 16.9383 5.21833 16.4593C5.22267 16.3837 5.003 10.9993 9.00067 8.33401L9 8.33335Z" fill="#3F3F3F"/>
<path d="M16.3279 11.2043C15.9886 11.189 15.5846 11.221 15.0616 11.3423C13.6666 11.6667 13.9999 11.6667 13.9999 11.6667L14.9953 12.662C18.2909 12.6327 19.4469 12.185 19.8313 11.8153L19.6666 11.6667C19.6666 11.6667 18.4999 11.611 17.7499 11.472C17.2813 11.3853 16.8936 11.23 16.3279 11.2043Z" fill="white"/>
<path d="M19.6667 11.6667C19.6667 11.6667 18.5001 11.611 17.7501 11.4724C17.0001 11.3334 16.4571 11.0177 15.0621 11.3424C13.6667 11.6667 14.0001 11.6667 14.0001 11.6667L15.0001 12.6667" stroke="black" stroke-width="2" stroke-miterlimit="10" stroke-linecap="round" stroke-linejoin="round"/>
<path d="M9 8.33335C9 8.33335 9.33333 6.66668 8.33333 5.66668C7.33333 4.66668 10.4443 5.38901 11.2223 7.69435C11.2223 7.69435 17.6667 7.00001 20 11.3333C20 11.3333 20.6667 12.6667 14.6667 12.6667C14.6667 12.6667 14 14.3333 11.6667 14.3333C11.6667 14.3333 11 14.3333 12 12.6667C12 12.6667 8.66667 12.5 6.83333 15.9167C6.74091 16.1007 6.67064 16.2951 6.624 16.4957C6.27467 17.8447 8.473 17.3067 8.84067 18.2467C8.97467 18.5907 9.225 19.636 9.02833 19.7757C9.01505 19.7852 8.9993 19.7906 8.983 19.7913C8.91933 19.7947 8.82633 19.7357 8.69533 19.5917C8.00867 19.0807 7.029 19.762 6.36633 19.374C6.09967 19.218 5.96567 18.966 5.869 18.777C5.71533 19.0237 5.51067 19.533 5.16133 19.651C4.54933 19.8347 3.63133 19.776 3.19567 20.9317C2.79833 19.7193 2.40133 18.8547 3.88233 17.8343C4.40233 17.482 5.199 16.9383 5.21833 16.4593C5.22267 16.3837 5.003 10.9993 9.00067 8.33401L9 8.33335Z" stroke="black" stroke-width="2" stroke-miterlimit="10" stroke-linecap="round" stroke-linejoin="round"/>
</svg>
