<svg width="24" height="24" viewBox="0 0 24 24" fill="none" xmlns="http://www.w3.org/2000/svg">
<path d="M4.878 7.33333C1.06267 13.3887 5.51667 19.3333 5.51667 19.3333C5.51667 19.3333 7.43267 19.0387 10.1 15.8667C12.7667 12.6947 4.878 7.33333 4.878 7.33333ZM19.106 7.33333C22.9213 13.3887 18.4673 19.3333 18.4673 19.3333C18.4673 19.3333 16.5513 19.0387 13.884 15.8667C11.2167 12.6947 19.106 7.33333 19.106 7.33333Z" fill="#662113"/>
<path d="M10.1353 21.038C10.0537 20.8944 9.93018 20.779 9.78133 20.7073C8.42667 19.2593 9.38867 17.5627 9.38867 17.5627C9.38867 17.094 10.236 15.8667 9.38867 15.8667L8.54067 16.7147C7.69267 17.562 7.69266 20.1073 7.69266 20.1073H5.99667C5.77185 20.1073 5.55624 20.1966 5.39727 20.3556C5.23831 20.5146 5.149 20.7302 5.149 20.955C5.149 21.1798 5.23831 21.3954 5.39727 21.5544C5.55624 21.7134 5.77185 21.8027 5.99667 21.8027H6.93533L6.74733 21.9047C6.55874 22.0166 6.42076 22.1972 6.36228 22.4085C6.3038 22.6199 6.32935 22.8457 6.43359 23.0387C6.53782 23.2316 6.71266 23.3768 6.9215 23.4438C7.13033 23.5108 7.35698 23.4944 7.554 23.398L9.792 22.1873C9.98971 22.0802 10.1369 21.8991 10.2012 21.6836C10.2656 21.4682 10.2419 21.236 10.1353 21.038ZM13.866 21.038C13.948 20.8853 14.0773 20.782 14.2193 20.7073C15.5747 19.2593 14.612 17.5627 14.612 17.5627C14.612 17.094 13.7647 15.8667 14.612 15.8667L15.46 16.7147C16.3087 17.562 16.3087 20.1073 16.3087 20.1073H18.0047C18.116 20.1072 18.2263 20.1291 18.3292 20.1717C18.4321 20.2143 18.5255 20.2768 18.6043 20.3556C18.683 20.4343 18.7454 20.5278 18.7879 20.6308C18.8304 20.7337 18.8522 20.844 18.852 20.9553C18.8521 21.0666 18.8302 21.1769 18.7877 21.2797C18.7451 21.3825 18.6827 21.476 18.604 21.5547C18.5253 21.6334 18.4319 21.6958 18.329 21.7383C18.2262 21.7809 18.116 21.8028 18.0047 21.8027H17.066L17.2533 21.9047C17.3514 21.9577 17.438 22.0295 17.5083 22.116C17.5786 22.2025 17.6312 22.302 17.6631 22.4088C17.6949 22.5156 17.7054 22.6277 17.694 22.7385C17.6825 22.8494 17.6493 22.9569 17.5963 23.055C17.5433 23.1531 17.4715 23.2397 17.385 23.31C17.2985 23.3803 17.199 23.4329 17.0922 23.4647C16.9854 23.4966 16.8733 23.5071 16.7625 23.4956C16.6516 23.4842 16.5441 23.451 16.446 23.398L14.2087 22.1873C14.1107 22.1344 14.0241 22.0626 13.9539 21.9762C13.8836 21.8898 13.8311 21.7904 13.7993 21.6836C13.7675 21.5769 13.757 21.465 13.7684 21.3542C13.7799 21.2434 13.813 21.136 13.866 21.038Z" fill="#FFAC33"/>
<path d="M18.852 7.528C20.7793 3.46667 18.852 0.5 18.852 0.5C18.852 0.5 14.998 1.13933 14.356 2.41667C13.5433 4.03267 18.852 7.528 18.852 7.528Z" fill="#662113"/>
<path d="M19.708 8.49201C19.708 15.3567 17.6067 22.222 12 22.222C6.394 22.222 4.29133 15.3567 4.29133 8.49201C4.29133 1.62667 7.74267 1.38867 12 1.38867C16.258 1.38867 19.708 1.62667 19.708 8.49201Z" fill="#662113"/>
<path d="M18.444 11.8253C18.444 18.69 13.2613 21.5553 12 21.5553C10.7387 21.5553 5.556 18.69 5.556 11.8253C5.556 4.96 18.444 4.96 18.444 11.8253Z" fill="#C1694F"/>
<path d="M5.148 7.528C3.22067 3.46667 5.148 0.5 5.148 0.5C5.148 0.5 9.00267 1.13933 9.64534 2.41667C10.4573 4.03267 5.148 7.528 5.148 7.528Z" fill="#662113"/>
<path d="M9.95267 2.91533C7.13467 1.85933 5.148 0.5 5.148 0.5C5.148 0.5 3.764 2.64733 4.52933 5.784C4.82667 7.20867 5.82267 8.58067 7.132 8.892C8.89 9.31 12 8.85933 12 6.25C12 4.45333 11.284 3.41533 9.95267 2.91533ZM14.0473 2.91533C16.8653 1.85933 18.8513 0.5 18.8513 0.5C18.8513 0.5 20.2353 2.64733 19.47 5.784C19.1733 7.20867 18.1773 8.58067 16.8687 8.892C15.11 9.31 12 8.85933 12 6.25C12 4.45333 12.716 3.41533 14.0473 2.91533Z" fill="#C1694F"/>
<path d="M10.722 5.61133C10.722 6.28905 10.4528 6.93901 9.97356 7.41823C9.49434 7.89744 8.84438 8.16667 8.16667 8.16667C7.48895 8.16667 6.83899 7.89744 6.35977 7.41823C5.88055 6.93901 5.61133 6.28905 5.61133 5.61133C5.61133 4.93362 5.88055 4.28366 6.35977 3.80444C6.83899 3.32522 7.48895 3.056 8.16667 3.056C8.84438 3.056 9.49434 3.32522 9.97356 3.80444C10.4528 4.28366 10.722 4.93362 10.722 5.61133ZM18.3887 5.61133C18.3887 6.28905 18.1194 6.93901 17.6402 7.41823C17.161 7.89744 16.511 8.16667 15.8333 8.16667C15.1556 8.16667 14.5057 7.89744 14.0264 7.41823C13.5472 6.93901 13.278 6.28905 13.278 5.61133C13.278 4.93362 13.5472 4.28366 14.0264 3.80444C14.5057 3.32522 15.1556 3.056 15.8333 3.056C16.511 3.056 17.161 3.32522 17.6402 3.80444C18.1194 4.28366 18.3887 4.93362 18.3887 5.61133Z" fill="#FFD983"/>
<path d="M9.44467 5.61133C9.44856 5.78157 9.41838 5.95087 9.35592 6.10929C9.29346 6.26771 9.19997 6.41204 9.08094 6.53382C8.96192 6.6556 8.81975 6.75236 8.6628 6.81842C8.50585 6.88449 8.33729 6.91852 8.167 6.91852C7.99671 6.91852 7.82815 6.88449 7.6712 6.81842C7.51425 6.75236 7.37208 6.6556 7.25306 6.53382C7.13403 6.41204 7.04054 6.26771 6.97808 6.10929C6.91562 5.95087 6.88544 5.78157 6.88933 5.61133C6.89696 5.27753 7.03492 4.95996 7.2737 4.72657C7.51247 4.49319 7.83311 4.36252 8.167 4.36252C8.50089 4.36252 8.82153 4.49319 9.0603 4.72657C9.29908 4.95996 9.43704 5.27753 9.44467 5.61133ZM17.1113 5.61133C17.1152 5.78157 17.085 5.95087 17.0226 6.10929C16.9601 6.26771 16.8666 6.41204 16.7476 6.53382C16.6286 6.6556 16.4864 6.75236 16.3295 6.81842C16.1725 6.88449 16.004 6.91852 15.8337 6.91852C15.6634 6.91852 15.4948 6.88449 15.3379 6.81842C15.1809 6.75236 15.0388 6.6556 14.9197 6.53382C14.8007 6.41204 14.7072 6.26771 14.6447 6.10929C14.5823 5.95087 14.5521 5.78157 14.556 5.61133C14.5636 5.27753 14.7016 4.95996 14.9404 4.72657C15.1791 4.49319 15.4998 4.36252 15.8337 4.36252C16.1676 4.36252 16.4882 4.49319 16.727 4.72657C16.9657 4.95996 17.1037 5.27753 17.1113 5.61133Z" fill="#292F33"/>
<path d="M13.9167 8.486C13.9167 10.074 12 10.722 12 10.722C12 10.722 10.0833 10.0733 10.0833 8.486C10.0833 6.89867 12 6.25 12 6.25C12 6.25 13.9167 6.898 13.9167 8.486Z" fill="#FFCC4D"/>
<path d="M13.9167 8.48599C13.9167 10.074 12 10.722 12 10.722C12 10.722 10.0833 10.0733 10.0833 8.48599C10.882 9.28466 12 9.44466 12 9.44466C12 9.44466 13.118 9.28466 13.9167 8.48599Z" fill="#F4900C"/>
</svg>
