<svg width="24" height="24" viewBox="0 0 24 24" fill="none" xmlns="http://www.w3.org/2000/svg">
<path d="M12 9C13.59 16.61 10 22 10 22H13C14.88 16.2 14 12.09 13.5 10M15.66 7.16C15.83 7.37 16 7.59 16.13 7.82C16.9448 9.10809 17.3235 10.6242 17.21 12.1441C17.0966 13.6641 16.497 15.1072 15.5 16.26C15.932 15.2127 16.1075 14.0772 16.0119 12.9483C15.9162 11.8194 15.5521 10.7297 14.95 9.77C14.87 9.64 14.78 9.53 14.7 9.41C14.125 8.60744 13.3894 7.93317 12.54 7.43C11.1001 7.88958 9.84353 8.79505 8.95195 10.0156C8.06036 11.2361 7.57991 12.7085 7.58 14.22C7.58 14.96 7.69 15.67 7.89 16.33C7.02294 15.1239 6.55761 13.6754 6.56 12.19C6.56 9.84 7.7 7.76 9.45 6.46C8 6.35 6.46 6.67 5.12 7.5C4.5 7.91 3.96 8.38 3.5 8.91C4.05 7.58 5 6.39 6.3 5.57C7.8 4.63 9.5 4.32 11.14 4.56C10.73 4 10.23 3.47 9.63 3C9.05 2.58 8.42 2.24 7.76 2C9.2 2.04 10.64 2.5 11.87 3.43C12.5 3.9 13 4.47 13.4 5.07C13.5 5.07 13.59 5.06 13.69 5.06C16.89 5.06 19.6 7.17 20.5 10.08C19.9374 9.28667 19.2172 8.6179 18.3844 8.11548C17.5516 7.61306 16.6242 7.28779 15.66 7.16Z" fill="#32CD32"/>
</svg>
