<svg width="24" height="24" viewBox="0 0 24 24" fill="none" xmlns="http://www.w3.org/2000/svg">
<path d="M19.83 7.5L17.56 5.23C17.63 4.81 17.74 4.42 17.88 4.08C17.976 3.85229 18.0142 3.60437 17.9912 3.35832C17.9681 3.11228 17.8846 2.87575 17.7479 2.66983C17.6113 2.46391 17.4259 2.29498 17.2081 2.17811C16.9904 2.06124 16.7471 2.00005 16.5 2C14.86 2 13.41 2.79 12.5 4H7.5C4.46 4 2 6.46 2 9.5C2 12.54 4.5 21 4.5 21H10V19H12V21H17.5L19.18 15.41L22 14.47V7.5H19.83ZM16 11C15.45 11 15 10.55 15 10C15 9.45 15.45 9 16 9C16.55 9 17 9.45 17 10C17 10.55 16.55 11 16 11Z" fill="#F08080"/>
</svg>
