<svg width="24" height="24" viewBox="0 0 24 24" fill="none" xmlns="http://www.w3.org/2000/svg">
<g clip-path="url(#clip0_432_308)">
<path d="M20.6625 10.2525C20.6625 10.2525 22.6463 9.30376 23.1169 7.28251C23.5894 5.25939 22.08 3.99001 20.5744 4.56751C18.8438 5.22939 17.925 6.71251 17.925 6.71251L20.6625 10.2525Z" fill="white" stroke="#91BDCE" stroke-width="3" stroke-miterlimit="10"/>
<path d="M19.9387 9.87374C19.9387 9.87374 21.2137 7.67811 21.5118 6.93561C21.7293 6.39561 21.6374 6.14624 20.9849 6.40311C19.8487 6.85124 18.2681 7.50561 18.2681 7.50561L19.9387 9.87374Z" fill="#91BDCE"/>
<path d="M3.33756 10.2525C3.33756 10.2525 1.35381 9.30376 0.883181 7.28251C0.412556 5.26126 1.92006 3.99001 3.42568 4.56751C5.15631 5.22938 6.07506 6.71251 6.07506 6.71251L3.33756 10.2525Z" fill="white" stroke="#91BDCE" stroke-width="3" stroke-miterlimit="10"/>
<path d="M4.0613 9.87374C4.0613 9.87374 2.7863 7.67811 2.48817 6.93561C2.27067 6.39561 2.36255 6.14624 3.01505 6.40311C4.1513 6.85124 5.73192 7.50561 5.73192 7.50561L4.0613 9.87374Z" fill="#91BDCE"/>
<path d="M21.8906 11.8294C21 8.39811 19.0593 5.87436 16.515 4.59373C15.0656 3.86436 13.9762 4.13436 13.14 4.49248C12.6806 4.68936 12.285 4.73811 11.9662 4.73811C11.6475 4.73811 11.2875 4.68748 10.8281 4.49248C9.99183 4.13436 8.90246 3.86248 7.45308 4.59373C4.90871 5.87623 2.96808 8.39811 2.07746 11.8294C1.17746 15.3 2.51996 16.6594 3.62996 17.7619C5.24433 19.3631 8.74121 19.905 11.985 19.8656C15.2287 19.905 18.7256 19.3631 20.34 17.7619C21.4481 16.6594 22.7906 15.3 21.8906 11.8294Z" fill="white" stroke="#91BDCE" stroke-width="3" stroke-miterlimit="10"/>
<path d="M15.7387 10.9913C14.6962 8.36063 12.7181 8.03625 12 8.03625C11.2819 8.03625 9.30374 8.36063 8.26124 10.9913C7.70437 12.3975 7.34812 13.4813 7.57687 14.5706C8.03062 16.74 9.80812 17.7581 12.0019 17.7581C14.1956 17.7581 15.9731 16.7381 16.4269 14.5706C16.6519 13.4813 16.2975 12.3975 15.7387 10.9913Z" fill="#CFD8DC"/>
<path d="M14.1412 14.0756C13.9181 13.9069 13.515 13.6819 12.9881 13.4869C12.6806 13.3725 12.4537 13.1119 12.4687 12.7856C12.4856 12.4237 12.4987 12.0319 12.48 11.9906C12.435 11.8912 12.1593 11.82 12.0225 11.8312H11.9775C11.8406 11.82 11.5631 11.8912 11.52 11.9906C11.505 12.0262 11.5125 12.3262 11.5256 12.6412C11.5425 13.035 11.2856 13.3669 10.92 13.5131C10.4475 13.7006 10.0687 13.9181 9.86059 14.0775C9.73309 14.1731 9.63184 14.3587 9.69372 14.5256C9.77434 14.7394 10.1325 14.7094 10.335 14.6175C10.8787 14.37 11.3793 14.2406 12 14.2406C12.6225 14.2406 13.1212 14.37 13.665 14.6175C13.8675 14.7094 14.2256 14.7394 14.3062 14.5256C14.37 14.3569 14.2687 14.1712 14.1412 14.0756Z" fill="#231F20"/>
<path d="M13.23 9.79688C12.6731 9.44625 11.4394 9.46125 10.725 9.79688C10.3838 9.95625 9.60377 10.7569 9.82502 11.6119C9.92064 11.9831 10.185 12.2813 10.4606 12.4481C10.8 12.6525 11.8669 12.9169 11.9775 12.915C12.0881 12.9169 13.2019 12.6056 13.5413 12.4013C13.8169 12.2344 14.0813 11.9363 14.1769 11.565C14.4 10.7119 13.5488 9.9975 13.23 9.79688Z" fill="#231F20"/>
<path d="M16.365 9.68625C16.8227 9.68625 17.1938 9.3152 17.1938 8.8575C17.1938 8.39979 16.8227 8.02875 16.365 8.02875C15.9073 8.02875 15.5363 8.39979 15.5363 8.8575C15.5363 9.3152 15.9073 9.68625 16.365 9.68625Z" fill="#231F20"/>
<path d="M7.63502 9.68625C8.09273 9.68625 8.46377 9.3152 8.46377 8.8575C8.46377 8.39979 8.09273 8.02875 7.63502 8.02875C7.17732 8.02875 6.80627 8.39979 6.80627 8.8575C6.80627 9.3152 7.17732 9.68625 7.63502 9.68625Z" fill="#231F20"/>
</g>
<defs>
<clipPath id="clip0_432_308">
<rect width="24" height="24" fill="white"/>
</clipPath>
</defs>
</svg>
