<svg width="24" height="24" viewBox="0 0 24 24" fill="none" xmlns="http://www.w3.org/2000/svg">
<path d="M20.6667 14.6667C18.6667 22 17.3207 24 12 24C6.66669 24 5.33336 22 3.33336 14.6667C1.97669 9.69334 4.66669 5.33334 12 5.33334C19.3334 5.33334 22.0227 9.69334 20.6667 14.6667Z" fill="#F4900C"/>
<path d="M19.3334 7.33334C20.6667 10 17.3334 12.6667 12 12.6667C6.66669 12.6667 3.33336 10 4.66669 7.33334C5.65469 5.35734 7.58202 3.33334 12 3.33334C16.418 3.33334 18.346 5.35734 19.3334 7.33334Z" fill="#BE1931"/>
<path d="M12 11.3333C16.4183 11.3333 20 9.54248 20 7.33334C20 5.1242 16.4183 3.33334 12 3.33334C7.58172 3.33334 4 5.1242 4 7.33334C4 9.54248 7.58172 11.3333 12 11.3333Z" fill="#FFAC33"/>
<path d="M18 6.66666C18.6667 7.33332 19.3334 7.99999 19.3334 8.66666C19.3334 9.33332 18.6667 10.6667 18 9.99999C18 9.99999 19.9654 10.7693 19.3334 12.6667C18.6667 14.6667 16.6667 14 16.6667 12.6667C16.6667 11.3333 15.6314 10.4387 15.3334 11.3333C14.6667 13.3333 13.3334 13.3333 12.6667 12.6667C12 12 12 11.3333 12 11.3333C12 11.3333 10 11.3333 10.6667 9.99999C11.3334 8.66666 10.6667 8.66666 10.6667 8.66666C10.6667 8.66666 10.6667 7.99999 11.3334 7.99999C12 7.99999 16 7.33332 16.6667 6.66666C17.3334 5.99999 18 6.66666 18 6.66666Z" fill="#FFE8B6"/>
<path d="M18.6667 6.18534C18.6667 7.92401 15.682 9.33334 12 9.33334C8.31804 9.33334 5.33337 7.92401 5.33337 6.18534C5.33337 4.44668 8.31804 3.33334 12 3.33334C15.682 3.33334 18.6667 4.44668 18.6667 6.18534Z" fill="#662113"/>
<path d="M12 9.33332C15.032 9.33332 17.586 8.37666 18.3953 7.06932C18.2651 6.93361 18.1333 6.79938 18 6.66666C18 6.66666 16.6667 5.33332 16 5.99999C15.3333 6.66666 12 6.66666 11.3333 6.66666C10.6667 6.66666 10 7.33332 10 7.33332C10 7.33332 11.058 8.67399 10.9313 9.28932C11.28 9.31599 11.6353 9.33332 12 9.33332Z" fill="#F4900C"/>
<path d="M17.3333 5.66667C17.3333 6.95533 14.9453 8 12 8C9.05463 8 6.66663 6.95533 6.66663 5.66667C6.66663 4.378 9.05463 2 12 2C14.9453 2 17.3333 4.378 17.3333 5.66667Z" fill="#FFCC4D"/>
<path d="M12 2.66666C12.7363 2.66666 13.3333 2.21894 13.3333 1.66666C13.3333 1.11437 12.7363 0.666656 12 0.666656C11.2636 0.666656 10.6666 1.11437 10.6666 1.66666C10.6666 2.21894 11.2636 2.66666 12 2.66666Z" fill="#F4900C"/>
<path d="M3.79004 16.2733C4.27337 17.9113 4.74004 19.23 5.25937 20.282C7.33337 22 10.6667 22 12 22C13.3334 22 16.6667 22 18.7374 20.2827C19.2574 19.232 19.726 17.912 20.2094 16.2733C18.406 17.3153 15.408 18 12 18C8.59204 18 5.59337 17.3153 3.79004 16.2733Z" fill="#FFCC4D"/>
</svg>
