<svg width="24" height="24" viewBox="0 0 24 24" fill="none" xmlns="http://www.w3.org/2000/svg">
<g clip-path="url(#clip0_432_306)">
<path d="M23.845 3.00801C23.428 2.47501 22.699 2.90201 22.378 3.08801C20.094 4.43401 19.757 6.80401 18.961 8.16501C18.335 9.25501 17.309 10.055 16.381 10.117C15.695 10.166 14.951 10.033 14.213 9.71201C12.406 8.93101 11.433 7.92001 11.196 7.74201C10.709 7.37201 6.96602 3.72701 3.91602 3.57801C3.91602 3.57801 3.54402 2.82801 3.45102 2.81501C3.22902 2.79001 3.00102 3.26601 2.83502 3.31601C2.68502 3.36901 2.42202 2.80401 2.27002 2.82901C2.11702 2.84901 1.96802 3.41501 1.67002 3.70601C1.45002 3.91901 1.18402 3.90601 1.03302 4.16901C0.981019 4.26501 0.999019 4.43401 0.940019 4.58901C0.813019 4.90901 0.389019 4.94301 0.385019 5.28601C0.385019 5.66701 0.742019 5.74001 1.05402 6.00601C1.30202 6.21801 1.31902 6.36801 1.60802 6.46701C1.86602 6.55501 2.24002 6.28001 2.57202 6.37901C2.84902 6.46001 3.11502 6.51901 3.17402 6.80201C3.22802 7.05801 3.17402 7.46001 2.83402 7.41501C2.72202 7.40001 2.23602 7.24101 1.63602 7.30501C0.911019 7.38201 0.0830188 7.61401 0.00201878 8.41501C-0.0389812 8.86201 0.516019 9.38501 1.05702 9.28101C1.42802 9.21001 1.25302 8.77501 1.45602 8.56501C1.72302 8.29501 3.22802 9.50901 4.62802 9.50901C5.22102 9.50901 5.65902 9.35901 6.09502 8.90401C6.13502 8.87501 6.18802 8.80201 6.25002 8.79401C6.31955 8.81205 6.38549 8.84181 6.44502 8.88201C7.57602 9.77901 8.42902 11.582 12.575 11.603C13.157 11.61 13.825 11.882 14.371 12.38C14.851 12.813 15.135 13.505 15.408 14.205C15.826 15.258 16.569 16.274 17.7 17.408C17.76 17.476 18.69 18.188 18.76 18.241C18.772 18.251 18.844 18.408 18.813 18.496C18.793 19.186 18.69 21.166 20.178 21.249C20.544 21.269 20.453 21.018 20.453 20.839C20.448 20.498 20.388 20.154 20.566 19.799C20.819 19.321 20.04 19.09 20.057 18.043C20.076 17.259 19.412 17.392 19.073 16.793C18.883 16.45 18.705 16.261 18.723 15.847C18.796 13.467 18.206 11.899 17.918 11.52C17.691 11.226 17.495 11.117 17.711 10.98C18.951 10.165 19.236 9.40601 19.236 9.40601C19.896 7.86501 20.492 6.46101 21.311 5.83601C21.477 5.71601 21.9 5.39601 22.163 5.27601C22.926 4.91401 23.336 4.69801 23.551 4.48801C23.907 4.15101 24.186 3.43501 23.845 3.00801Z" fill="black"/>
</g>
<defs>
<clipPath id="clip0_432_306">
<rect width="24" height="24" fill="white"/>
</clipPath>
</defs>
</svg>
