<svg width="24" height="24" viewBox="0 0 24 24" fill="none" xmlns="http://www.w3.org/2000/svg">
<path d="M2.01936 10.6163C1.98561 10.6163 1.94998 10.6069 1.91811 10.5881L0.82498 9.81938C0.729355 9.76313 0.69748 9.63938 0.75373 9.54376C0.80998 9.44813 0.93373 9.41438 1.02936 9.4725L2.12248 10.2431C2.21811 10.2994 2.24998 10.4231 2.19373 10.5188C2.15436 10.5806 2.08686 10.6163 2.01936 10.6163Z" fill="#6BA3AB"/>
<path d="M0.328182 10.7756C0.219432 10.7756 0.129432 10.6894 0.127557 10.5806C0.123807 10.47 0.211932 10.3762 0.322557 10.3744L1.93693 10.5844C2.04943 10.5787 2.14131 10.6687 2.14318 10.7794C2.14693 10.89 2.05881 10.9837 1.94818 10.9856L0.333807 10.7756H0.328182ZM0.530682 11.8462C0.492465 11.8301 0.460163 11.8025 0.438185 11.7674C0.416207 11.7322 0.405624 11.6911 0.40788 11.6496C0.410136 11.6082 0.425121 11.5685 0.450791 11.5359C0.47646 11.5033 0.511562 11.4794 0.551307 11.4675L1.98756 11.0419C2.03878 11.0265 2.09402 11.032 2.14114 11.0573C2.16447 11.0699 2.18511 11.0869 2.20186 11.1074C2.21862 11.1279 2.23117 11.1515 2.23881 11.1769C2.24644 11.2022 2.249 11.2289 2.24635 11.2552C2.2437 11.2816 2.23588 11.3071 2.22334 11.3305C2.21081 11.3538 2.1938 11.3744 2.17329 11.3912C2.15278 11.4079 2.12917 11.4205 2.10381 11.4281L0.667557 11.8537C0.620682 11.8669 0.571932 11.8631 0.530682 11.8462Z" fill="#6BA3AB"/>
<path d="M16.2863 18.3C16.2863 18.3 15.195 18.06 14.3457 18.3C13.4963 18.54 13.1288 19.1494 13.2825 19.5037C13.425 19.83 14.4432 19.4756 15.4913 19.4756C16.5394 19.4756 18.3525 19.4325 18.6638 19.2356C18.975 19.0369 18.72 17.8894 18.72 17.8894L16.2863 18.3ZM7.36316 18.2587C7.36316 18.2587 7.12316 18.3712 6.86816 18.585C6.59816 18.81 6.27378 19.1231 6.48566 19.3931C6.69753 19.6631 7.12316 19.5056 7.12316 19.5056C7.12316 19.5056 7.06691 19.7175 7.49066 19.8037C7.91628 19.8881 8.83691 19.35 8.83691 19.35L7.36316 18.2587Z" fill="#FDD3B1"/>
<path d="M20.0531 15.3112C20.0531 15.3112 20.9456 15.3956 22.0219 16.1606C23.04 16.8844 24.225 18.21 23.7356 20.1825C23.2406 22.1794 21.03 23.3119 18.3113 23.1562C15.7069 23.0062 13.0088 21.3937 11.5969 21.4987C9.31689 21.6694 8.63626 22.9725 8.43751 22.8731C8.23877 22.7737 8.53689 21.2025 10.4344 20.6344C12.0038 20.1656 13.3238 20.4356 15.0938 20.9887C16.8638 21.5419 20.5613 22.4794 21.8363 20.4656C23.2238 18.27 20.9306 17.3925 20.2219 17.0512C19.515 16.7137 20.0531 15.3112 20.0531 15.3112Z" fill="#FDD3B1"/>
<path d="M10.0968 6.40313C10.0968 6.40313 10.1325 5.94563 9.85684 5.43938C9.63559 5.03251 9.29059 4.51876 8.35496 4.43438C6.26434 4.24501 5.74496 6.57376 5.72059 7.18126C5.69246 7.89001 5.90434 8.75251 5.90434 8.75251L9.03371 8.41313L10.0968 6.40313ZM7.97246 14.5763C7.97246 14.5763 7.90309 16.3088 7.87309 16.815C7.81684 17.7788 7.15121 17.8481 7.12309 18.2888C7.07996 18.9488 8.14309 18.615 8.14309 18.615L10.14 16.0931L7.97246 14.5763Z" fill="#6DA3AF"/>
<path d="M10.6631 17.1806C10.6631 17.1806 7.95751 18.9375 8.19938 19.1344C8.39813 19.2975 8.68688 19.4513 9.14813 19.4044C9.68626 19.3481 11.0044 18.8381 11.4844 18.3844C11.7975 18.09 12.0938 17.5913 12.0938 17.5913C12.0938 17.5913 12.9581 17.8463 13.5525 17.8744C14.1469 17.9025 15.0263 17.8313 15.0263 17.8313C15.0263 17.8313 16.4288 19.5019 18.525 19.035C20.6213 18.5681 20.6363 16.6275 20.6363 16.6275L18.6244 12.6638L14.4469 10.8938L10.6631 14.7881V17.1806Z" fill="#6DA3AF"/>
<path d="M11.3007 10.2975C11.3007 10.2975 12.1201 9.80624 12.6038 9.01874C13.0144 8.35124 13.1532 7.45311 12.6601 6.61499C12.1388 5.72999 11.1994 5.56124 10.4794 5.76374C9.12568 6.14436 8.9213 7.56374 8.9213 7.56374C8.9213 7.56374 8.51068 7.22436 7.60318 7.23749C6.69755 7.25249 5.55005 7.63499 4.55818 8.22936C3.5663 8.82374 3.36755 9.14999 2.6738 9.48936C1.98005 9.82874 1.59755 9.84374 1.56943 10.2112C1.5413 10.5787 1.68193 11.1037 2.23505 11.6569C2.78818 12.21 3.89255 12.5625 4.28818 12.69C4.6838 12.8175 5.1938 13.0444 5.74693 13.0875C6.30005 13.1306 6.69568 13.1306 6.69568 13.1306C6.69568 13.1306 6.87943 13.7119 7.4888 14.4619C8.09818 15.2119 9.15943 16.1194 9.15943 16.1194C9.15943 16.1194 9.0038 17.1675 8.80505 17.4506C8.6063 17.7337 7.6013 18.4144 7.99693 18.9525C8.39255 19.4906 9.34318 19.08 10.0782 18.7406C10.8132 18.4012 11.0982 18.33 11.4376 17.9044C11.6251 17.67 11.8913 17.1262 11.8913 17.1262C11.8913 17.1262 12.3863 17.2969 13.1944 17.4244C14.0026 17.5519 14.6401 17.4956 14.6401 17.4956C14.6401 17.4956 13.2526 15.8531 13.3519 14.4225C13.4513 12.9919 14.3157 11.8875 15.1219 11.7731C15.9301 11.6606 14.7507 12.6825 14.5276 13.1194C14.2444 13.6725 13.7626 15.0169 14.6269 16.3912C15.4913 17.7656 17.0194 18.8794 18.5213 18.63C19.9669 18.39 20.6607 17.4544 20.7169 16.1662C20.7563 15.2869 20.6738 12.6244 19.6688 11.2087C18.6638 9.79311 17.2369 8.89124 15.0282 9.14624C13.1176 9.36186 11.3007 10.2975 11.3007 10.2975Z" fill="#B5C2C8"/>
<path d="M11.64 6.96937C10.9668 6.3975 9.97871 6.96 9.74246 7.86563C9.50621 8.77125 9.82496 9.53813 11.0456 9.04688C12.075 8.63063 12.2081 7.45125 11.64 6.96937ZM1.79246 11.1338L2.56683 10.3781C2.56683 10.3781 2.41496 10.0856 2.00996 9.9525C1.60496 9.81938 1.49996 10.1044 1.52808 10.5206C1.55621 10.935 1.70621 11.1056 1.79246 11.1338Z" fill="#FFD3B0"/>
<path d="M7.00692 10.2825C6.81192 10.62 6.50442 10.7456 6.23067 10.6462C5.97567 10.5544 5.96254 10.1287 6.15754 9.79124C6.35254 9.45374 6.60567 9.29812 6.93942 9.41437C7.19442 9.50437 7.20004 9.94499 7.00692 10.2825Z" fill="#2D2B2E"/>
<path d="M9.6206 11.9831C9.8156 12.3038 9.05623 12.8025 8.5256 13.0313C7.53373 13.4569 6.69373 13.5131 5.21998 13.2113C3.86248 12.9319 2.88748 12.4275 2.33998 11.9738C1.9781 11.6738 1.77373 11.37 1.8206 11.2463C1.94435 10.9256 2.33623 11.5031 2.5856 11.6906C3.14248 12.1069 3.72185 12.27 4.0331 12.2831C4.63498 12.3056 5.23873 11.88 5.4281 12.0788C5.78623 12.4556 4.70998 12.645 4.70998 12.645C4.70998 12.645 5.9006 13.0031 6.68435 12.9094C7.4681 12.8156 8.29873 12.5231 8.71498 12.2475C9.12935 11.9738 9.48748 11.7656 9.6206 11.9831Z" fill="#6BA3AB"/>
<path d="M2.70752 10.4062C2.85565 10.5956 2.4619 10.9162 2.29127 11.0569C2.12065 11.1994 1.9144 11.4637 1.81877 11.2462C1.72502 11.0287 1.76252 10.9631 2.08315 10.6706C2.40565 10.3781 2.53877 10.1887 2.70752 10.4062Z" fill="#2D2B2E"/>
</svg>
