<svg width="24" height="24" viewBox="0 0 24 24" fill="none" xmlns="http://www.w3.org/2000/svg">
<path d="M16.4437 1.04437C16.3359 1.68844 16.2281 2.3414 16.125 2.99812H16.1531C16.214 2.99344 16.2797 2.99812 16.3453 3.00281C16.5562 3.02156 16.7625 3.08625 16.95 3.1889C17.0578 2.51531 17.1656 1.84547 17.2781 1.185L16.4437 1.04437ZM8.39998 1.05937L7.5656 1.1775C7.62185 1.57172 7.67811 1.96781 7.73436 2.36531C7.91717 2.2889 8.10936 2.2425 8.30623 2.22984C8.39061 2.22422 8.47967 2.22515 8.56404 2.23453C8.50779 1.84218 8.45623 1.45031 8.39998 1.06125V1.05937ZM8.41873 3.06984H8.36248C7.76717 3.10734 7.13904 3.62765 7.25154 4.97344L7.72967 10.9594C7.83748 12.3 8.55936 12.75 9.15467 12.7125C9.74998 12.675 10.3781 12.15 10.2703 10.8141L9.78748 4.82344C9.68436 3.52734 8.99998 3.06328 8.41873 3.06984ZM16.1812 3.83859C15.9703 3.84469 15.75 3.94031 15.5437 4.1714C15.3047 4.43625 15.0937 4.88906 15.0328 5.56406L14.5031 11.5406C14.4422 12.2203 14.5687 12.7031 14.7562 13.0031C14.9437 13.3078 15.1781 13.4391 15.4125 13.4578C15.6422 13.4812 15.9 13.3922 16.1344 13.1297C16.3734 12.8625 16.5844 12.4125 16.6453 11.7328L17.1797 5.75625C17.2406 5.08125 17.114 4.59797 16.9265 4.29515C16.739 3.99234 16.5047 3.8625 16.2703 3.8414C16.2422 3.83672 16.2094 3.83672 16.1812 3.83672V3.83859ZM1.21826 10.4672C3.69326 14.0578 5.93904 18.6469 5.85936 22.9547H7.51404C7.65936 21.9797 7.86561 21.1125 8.12342 20.3203C7.61248 18.6562 6.80154 16.8656 5.80311 15.2531C4.48404 13.1203 2.82936 11.3203 1.21826 10.4672ZM19.6547 12.6562C19.5937 12.6562 19.4812 12.6891 19.3359 12.8016C19.1672 12.9281 18.9703 13.1437 18.7781 13.4109C18.6234 13.6312 18.4687 13.8891 18.3281 14.1609C18.5625 14.0625 18.7969 13.9875 19.0312 13.9547C19.6547 13.8609 20.264 14.0016 20.8031 14.3344C21.5765 14.8125 22.214 15.6516 22.7812 16.7812C22.7672 16.05 22.6219 15.3141 22.3359 14.6719C21.8484 13.5797 21.0094 12.7828 19.6781 12.6562H19.6547ZM9.76873 13.4203C9.5906 13.4953 9.39842 13.5375 9.20623 13.5516C9.11248 13.5562 9.01873 13.5562 8.92967 13.5469C9.01404 15.0984 9.05623 16.6359 9.03748 18.1359C9.29529 17.6391 9.57654 17.1516 9.88592 16.6641C9.87185 15.5906 9.82967 14.5078 9.76873 13.4203ZM14.6672 14.0812C14.4094 16.7297 14.2312 19.3594 14.1703 21.8953C14.4469 20.9203 14.7656 19.95 15.1359 18.9844C15.2203 17.4469 15.3469 15.8812 15.4969 14.3062C15.4406 14.3062 15.389 14.3062 15.3375 14.3016C15.1031 14.2781 14.8734 14.2031 14.6672 14.0812ZM18.8062 14.8734C18.4781 14.9812 18.1172 15.1734 17.7281 15.4781C16.3172 17.925 15.4312 20.4047 14.7562 22.9547H18.5297C17.939 20.2687 18.2953 17.5641 18.8062 14.8734ZM11.9297 15.1359C10.125 17.6953 8.90154 19.5984 8.37654 22.9172H11.1094C10.5 21.4594 10.5422 19.9734 10.9078 18.3891C11.1422 17.3766 11.5125 16.2984 11.9297 15.1359Z" fill="#A0522D"/>
</svg>
