<svg width="24" height="24" viewBox="0 0 24 24" fill="none" xmlns="http://www.w3.org/2000/svg">
<path d="M12.88 16.9053C12.8047 16.9053 12.7353 16.9073 12.6667 16.9087V16.632C15.87 16.3127 18.3653 13.7893 18.3653 11.7647C18.3653 9.59867 18.3653 12.7447 11.9907 12.7447C5.61865 12.7447 5.61865 9.59867 5.61865 11.7647C5.61865 13.7933 8.12332 16.3233 11.3333 16.6347V16.9087C11.264 16.9073 11.1953 16.9053 11.1193 16.9053C9.41732 16.9053 6.71732 15.5387 6.71732 16.0253C6.71732 16.456 9.50865 18.7033 11.3333 19.2227V23.3333C11.3333 23.5101 11.4036 23.6797 11.5286 23.8047C11.6536 23.9298 11.8232 24 12 24C12.1768 24 12.3464 23.9298 12.4714 23.8047C12.5964 23.6797 12.6667 23.5101 12.6667 23.3333V19.2227C14.492 18.7033 17.2827 16.456 17.2827 16.0253C17.2827 15.5393 14.5827 16.9053 12.88 16.9053Z" fill="#3E721D"/>
<path d="M17.6846 4.902C15.0933 1.96067 18.6886 0.980667 15.9566 0.980667C15.4813 0.980667 14.6759 1.274 13.7633 1.77333C13.3006 0.725333 12.6819 0 11.9999 0C10.6333 0 9.51594 2.89467 9.41794 5.51267C8.67927 6.54133 8.18127 7.66933 8.18127 8.82333C8.18127 12.8847 9.90861 14.7053 12.5006 14.7053C17.6846 14.706 21.5966 9.34067 17.6846 4.902Z" fill="#A0041E"/>
<path d="M15.8186 8.82334C15.8186 12.8847 14.092 14.7053 11.4986 14.7053C6.31463 14.7053 2.4033 9.34001 6.31463 4.90134C8.9073 1.96001 5.3113 0.980011 8.04263 0.980011C9.7713 0.980678 15.8186 4.76268 15.8186 8.82334Z" fill="#BE1931"/>
</svg>
