<svg width="24" height="24" viewBox="0 0 24 24" fill="none" xmlns="http://www.w3.org/2000/svg">
<g clip-path="url(#clip0_427_2)">
<path d="M0 16.7682L11.5781 23.3307V17.7057L0 12.5495V16.7682ZM24 12.5503L12.4219 17.7057V23.3307L24 16.7924V12.5503V12.5503ZM21.3358 13.0268L23.1527 12.2234L19.1642 10.7118L18.795 11.7094C19.5229 12.0314 20.3911 12.4916 21.3358 13.0268ZM16.7506 0.66922L15.9962 2.78722C15.8287 3.37302 16.1291 4.271 17.0935 4.45944L15.8366 7.96616C14.8151 7.53945 13.9034 7.8335 13.3553 8.42698L11.9776 7.89791L0.846562 12.2217L2.65997 13.0136C5.63944 11.2379 9.16416 10.0123 12.5395 10.2062L12.0503 11.5204C10.7685 11.5583 9.67238 11.8803 8.7113 12.4087C12.0645 11.8691 15.5574 12.7655 18.1405 14.0933C18.0781 13.7891 17.9068 13.513 17.6212 13.2397L18.5349 10.6499C18.8106 9.91011 18.593 8.51019 16.8811 8.25631L18.1432 4.76014C19.3259 5.0578 20.0298 4.28745 20.196 3.77759L20.885 1.81527L16.7506 0.66922ZM19.1063 3.5105C19.0721 3.65267 18.8215 3.76916 18.6228 3.68113L17.3886 3.3342C17.1483 3.23966 17.0552 3.09266 17.1326 2.88486L17.4227 2.06586L19.4361 2.62892L19.1063 3.5105Z" fill="#EEE8AA"/>
</g>
<defs>
<clipPath id="clip0_427_2">
<rect width="24" height="24" fill="white"/>
</clipPath>
</defs>
</svg>
