<svg width="24" height="24" viewBox="0 0 24 24" fill="none" xmlns="http://www.w3.org/2000/svg">
<path d="M12.48 17.602C12.1687 19.242 13.63 21.0547 13.63 21.0547C13.63 21.0547 13.3474 18.9153 14.1674 17.8267C14.732 17.076 14.332 16.2453 13.8667 16.1827C13.4 16.1207 12.6554 16.6793 12.48 17.602Z" fill="#583529"/>
<path d="M10.4167 17.6533C8.73537 18.9093 7.1267 18.1607 6.3207 16.9333C5.51604 15.7053 4.6667 16.4067 5.4667 17.736C6.26604 19.064 8.6827 21.0393 11.5807 18.7927C13.78 17.09 10.9414 17.262 10.4167 17.6533Z" fill="#583529"/>
<path d="M6.42604 17.404C5.38004 18.89 2.61338 18.5333 1.54404 16.0633C0.510711 13.6753 1.31471 11.5033 1.85271 10.8307C2.07204 10.5573 1.51138 14.0393 3.34404 14.9987C4.14738 15.4187 1.71404 12.7327 2.88071 10.2433C3.23071 9.49667 2.84804 12.768 5.05604 13.7067C6.01938 14.116 7.96004 15.2273 6.42604 17.404ZM8.20938 14.5553C8.60538 14.0533 9.30338 13.5193 13.8754 13.5193C17.292 13.5193 18.262 11.908 19.4 11.506C23.292 10.132 21.9047 19.3407 15.4187 19.3407C8.93205 19.3413 7.67738 15.2287 8.20938 14.5553Z" fill="#7C533E"/>
<path d="M15.448 13.3873C19.7067 12.6733 20.8027 7.61001 19.3887 5.00001C18.062 2.55068 14.7354 1.40201 11.9534 3.69468C12.0594 4.38001 12.29 7.44468 9.72603 7.81668C10.544 6.14068 8.03403 4.90068 8.7967 2.72801C9.5607 0.555344 11.6347 1.07668 11.812 1.64068C13.9167 -0.0546556 16.6387 -0.221322 17.7 0.834011C20.8647 0.862011 22.8427 2.99001 22.8414 4.55534C24.6667 6.37468 23.756 10.8707 22.992 11.3667C23.3334 14.056 22.5514 16.5367 19.584 17.3953C19.0714 17.544 11.64 14.026 15.448 13.3873Z" fill="#7C533E"/>
<path d="M12.0086 17.0307C11.302 18.184 10.0433 18.6393 8.82665 18.498C7.17265 18.3067 7.16665 19.556 8.90465 19.8253C9.90332 19.98 11.4833 19.8333 12.6613 18.8753C14.1593 17.656 12.4153 16.3627 12.0086 17.0307Z" fill="#AF7E57"/>
<path d="M9.31328 18.7487C9.84528 20.738 7.52461 22.888 4.59794 22.0227C1.76861 21.186 0.462611 18.9093 0.269278 17.952C0.191278 17.5633 2.81328 20.5807 4.97928 19.6833C5.92794 19.29 1.82261 19.4533 0.503944 16.63C0.108611 15.784 2.67661 18.4933 5.09794 17.2553C6.15594 16.714 8.53195 15.8327 9.31328 18.7487Z" fill="#AF7E57"/>
<path d="M11.3774 15.15C11.3774 15.2616 11.3554 15.3722 11.3127 15.4753C11.2699 15.5784 11.2073 15.6721 11.1284 15.751C11.0495 15.83 10.9558 15.8926 10.8526 15.9353C10.7495 15.978 10.639 16 10.5274 16C10.4157 16 10.3052 15.978 10.2021 15.9353C10.099 15.8926 10.0053 15.83 9.92633 15.751C9.8474 15.6721 9.78479 15.5784 9.74207 15.4753C9.69935 15.3722 9.67737 15.2616 9.67737 15.15C9.67737 14.9246 9.76692 14.7084 9.92633 14.549C10.0857 14.3896 10.3019 14.3 10.5274 14.3C10.7528 14.3 10.969 14.3896 11.1284 14.549C11.2878 14.7084 11.3774 14.9246 11.3774 15.15Z" fill="#292F33"/>
<path d="M20.4941 17.0487C21.4461 18.4207 20.8474 20.6707 20.8474 20.6707C20.8474 20.6707 20.2361 18.6013 19.0441 17.94C18.2234 17.4833 18.2507 16.562 18.6507 16.3153C19.0521 16.0693 19.9587 16.2767 20.4941 17.0487ZM18.5967 18.1013C19.3387 19.5967 18.4201 21.736 18.4201 21.736C18.4201 21.736 18.1154 19.6 17.0327 18.7727C16.2867 18.202 16.4474 17.294 16.8794 17.1087C17.3114 16.9227 18.1794 17.26 18.5967 18.1013ZM16.4081 18.8247C16.7201 20.4647 15.2581 22.2773 15.2581 22.2773C15.2581 22.2773 15.5407 20.138 14.7207 19.0493C14.1554 18.2987 14.5561 17.468 15.0214 17.4053C15.4887 17.3433 16.2341 17.902 16.4081 18.8247Z" fill="#AF7E57"/>
<path d="M19.6667 9.55C19.514 9.54133 18.9 10.67 18.9453 10.8987C19.096 11.6533 22.1813 11.75 22.992 11.3667C23.5967 11.0813 23.914 9.66666 23.8327 9.014C22.4833 9.68066 20.0067 9.56933 19.6667 9.55ZM22.0447 2.692C21.906 3.38533 20.0933 4.604 19.2833 4.78466C19.158 4.81266 19.5407 5.78133 19.7533 5.908C19.9667 6.03466 22.724 5.228 22.8407 4.554C22.906 4.17733 22.6873 3.06266 22.0447 2.692ZM17.7 0.83333C17.6993 0.682663 17.1767 0.154663 16.3013 0.21333C16.5833 1.198 16.0313 2.14533 15.7587 2.48866C15.668 2.60266 16.7247 2.82733 16.8833 2.77466C17.168 2.68 17.702 1.59733 17.7 0.83333Z" fill="#583529"/>
<path d="M11.9307 1.63865C11.5694 0.907318 10.3194 0.680652 9.40271 1.59732C8.48605 2.51399 8.30538 3.70865 8.87471 4.90265C9.44405 6.09732 10.1107 6.86132 9.58271 7.90265C10.944 7.72199 11.7687 6.43665 11.9994 5.79132C12.4167 4.62532 12.5 2.79199 11.9307 1.63865Z" fill="#292F33"/>
</svg>
