<svg width="24" height="24" viewBox="0 0 24 24" fill="none" xmlns="http://www.w3.org/2000/svg">
<path d="M4.89422 3.16983L4.9785 3.10444L5.05866 3.04026C5.09044 3.01519 5.12639 2.98701 5.16356 2.95922C5.23017 2.91314 5.30546 2.85905 5.39447 2.80547C5.60571 2.67466 5.8292 2.56478 6.06178 2.47739C6.35974 2.36478 6.67096 2.29097 6.98775 2.25778C7.07367 2.24705 7.16189 2.24376 7.25119 2.23865C7.34058 2.23748 7.43147 2.23486 7.52321 2.23992L7.59225 2.24292L7.62694 2.24461C7.61428 2.24428 7.75392 2.24803 7.69608 2.24662L7.69889 2.24705L7.70452 2.24789L7.71581 2.24962L7.80699 2.26359L7.89956 2.2778L7.95221 2.28605L8.03639 2.30067C8.14814 2.32111 8.26374 2.34426 8.37319 2.3715C8.46825 2.40112 8.56383 2.43244 8.65936 2.46525C8.70755 2.4803 8.75386 2.50176 8.80074 2.52192L8.94108 2.58426C9.03572 2.62387 9.12474 2.67736 9.21516 2.72826C9.57427 2.93653 9.90324 3.2123 10.173 3.53962C10.4432 3.86639 10.654 4.24467 10.7877 4.64461C10.9232 5.04403 10.9755 5.46562 10.955 5.86617L10.9525 5.94122L10.9522 5.95055L10.9508 6.00131L10.9502 6.00469L10.9482 6.01819L10.944 6.04519L10.9275 6.15276L10.9193 6.20634L10.9152 6.23311L10.913 6.24708L10.9092 6.26775C10.889 6.37666 10.8662 6.48506 10.8405 6.59283C10.8274 6.6443 10.8111 6.6863 10.7963 6.73294C10.7645 6.8235 10.7382 6.9143 10.6968 6.999L10.639 7.12626C10.6193 7.16812 10.6016 7.21045 10.5777 7.24964C10.5333 7.32811 10.4879 7.40601 10.4415 7.48331C10.3912 7.55513 10.3402 7.62642 10.2885 7.69715C10.2642 7.73269 10.2348 7.76423 10.2073 7.79653L10.124 7.89159C10.0707 7.95572 10.0099 8.01145 9.95114 8.06672C9.89241 8.12203 9.83555 8.17669 9.77264 8.22286C9.71105 8.27034 9.65189 8.31797 9.5911 8.36081L9.40631 8.47786C9.34735 8.51742 9.28289 8.54583 9.22289 8.57723L9.13308 8.62205L9.08902 8.6437L9.04383 8.6618C8.92341 8.70811 8.81213 8.75583 8.70085 8.78264L8.54217 8.82595C8.49089 8.83842 8.44008 8.84531 8.39217 8.85426L8.25422 8.87742C8.21049 8.88497 8.1676 8.88539 8.12771 8.88914C8.0475 8.89439 7.97649 8.90076 7.91471 8.90175L7.75786 8.8972L7.62825 8.89223C7.3365 8.88108 7.10906 8.6355 7.12022 8.34375C7.12983 8.09287 7.31278 7.88953 7.54936 7.84462L7.62825 7.82972L7.71061 7.81406L7.80835 7.79667C7.84627 7.78767 7.88892 7.7729 7.93655 7.75983C7.96013 7.75214 7.98572 7.74792 8.01094 7.73686L8.08988 7.70423C8.11697 7.69251 8.14594 7.68337 8.1743 7.66917L8.26083 7.62276C8.32181 7.59539 8.37891 7.55015 8.44121 7.51097L8.4645 7.49573L8.48639 7.47736L8.53083 7.44061C8.56017 7.4152 8.59308 7.39416 8.62003 7.36336C8.64835 7.33458 8.67722 7.30594 8.70671 7.27739C8.73431 7.2465 8.75972 7.21247 8.78719 7.1805C8.81602 7.1498 8.83856 7.11234 8.86271 7.07634C8.88685 7.04039 8.91305 7.0058 8.93185 6.96506L8.96335 6.90665C8.97371 6.88711 8.98599 6.86878 8.99321 6.84712C9.00994 6.80536 9.02728 6.76406 9.04538 6.72319C9.05813 6.6795 9.07088 6.636 9.0848 6.5932C9.0931 6.57234 9.09535 6.549 9.09994 6.52673L9.11321 6.45984C9.12553 6.41648 9.12427 6.36909 9.13003 6.32423C9.13149 6.30253 9.1366 6.27703 9.13575 6.25884C9.13388 6.24197 9.13252 6.22551 9.13181 6.20934C9.1311 6.1934 9.13103 6.17743 9.13158 6.16148L9.13181 6.15558L9.13121 6.14269L9.1298 6.11564L9.12703 6.0615L9.12146 5.9528L9.12005 5.92556L9.11935 5.91192L9.11916 5.9085C9.11677 5.9999 9.11822 5.93264 9.11756 5.95247L9.11653 5.94825L9.10852 5.91455C9.07505 5.73459 9.01027 5.56626 8.91539 5.42119C8.82468 5.27997 8.70829 5.15702 8.57227 5.0587C8.44888 4.96948 8.31021 4.90359 8.1631 4.86431C8.12827 4.85653 8.09649 4.84355 8.06114 4.84195C8.04435 4.83981 8.02759 4.83734 8.01089 4.83455C7.99439 4.83206 7.97874 4.82747 7.96158 4.82869C7.92933 4.82842 7.8971 4.82686 7.86497 4.824C7.84617 4.82925 7.83431 4.83473 7.82072 4.83548L7.67639 4.84261L7.58428 4.84734L7.57289 4.84795L7.56717 4.84823L7.56431 4.84837C7.5046 4.84697 7.64236 4.85044 7.62783 4.85025L7.61728 4.85306L7.59647 4.85836C7.56872 4.8637 7.5428 4.87415 7.51725 4.88067C7.49241 4.89112 7.46775 4.89731 7.44506 4.90861C7.36367 4.9423 7.28739 4.9872 7.21842 5.04201C7.16735 5.08204 7.12051 5.1272 7.07864 5.17678C7.06078 5.196 7.04785 5.21644 7.03495 5.23158C7.03392 5.23626 7.03496 5.23875 7.03453 5.24147L7.03425 5.24484C7.03383 5.24615 7.03594 5.24456 7.02783 5.2538L6.9585 5.33484C6.41878 5.96592 5.46971 6.03994 4.83863 5.50026C4.20755 4.96055 4.13353 4.01147 4.67321 3.38039C4.73902 3.30356 4.81753 3.23011 4.89422 3.16983Z" fill="#E89E34"/>
<path d="M6.32213 7.91367C5.2433 8.9925 5.65013 11.2947 4.84599 12.3573C4.04184 13.4199 2.03156 13.0681 2.03156 13.0681C2.03156 13.0681 0.473579 12.6704 0.473579 10.7835C0.473579 8.89673 1.51097 6.60918 3.93235 4.81293C6.35372 3.01668 6.32213 7.91367 6.32213 7.91367Z" fill="#E9EAE5"/>
<path d="M3.45586 6.98925C3.0622 6.96825 2.72601 7.27031 2.70497 7.66402L2.63915 8.89664C2.61815 9.2903 2.92022 9.62649 3.31392 9.64753C3.70758 9.66853 4.04376 9.36647 4.06481 8.97277L4.13062 7.74014C4.15162 7.34644 3.84951 7.01025 3.45586 6.98925Z" fill="#2B3B47"/>
<path d="M18.2106 5.88272C14.994 5.88272 15.5301 6.47114 12.7156 6.47114C10.3955 6.47114 9.89653 5.6716 8.046 5.39063C7.66496 4.49503 6.92846 3.4823 5.54517 3.4823C4.13789 3.4823 3.60178 4.21946 2.84335 5.74046L2.84396 5.74055C3.17025 5.42067 3.53203 5.10999 3.93244 4.81294C5.36166 3.75267 5.93607 5.02435 6.16702 6.2445C6.17105 6.26574 6.17494 6.28697 6.17878 6.30816L6.18113 6.3211C6.32705 7.14038 6.32222 7.91367 6.32222 7.91367C5.24339 8.9925 5.65022 11.2947 4.84608 12.3573C4.32488 13.0461 3.297 13.1405 2.63822 13.1218L4.85789 13.4398C5.02754 13.4641 5.18367 13.546 5.30013 13.6718C5.41659 13.7975 5.48631 13.9594 5.4976 14.1304C5.61178 15.8616 6.20977 16.9059 6.73191 17.4986C7.20516 18.0358 7.52639 18.6897 7.68057 19.3888C8.04249 21.0298 8.6948 21.7631 9.83405 21.7631C10.6382 21.7631 11.1743 19.8335 11.1743 19.0964C11.1743 18.3592 13.2517 18.1757 14.793 18.1757C16.3343 18.1757 16.9039 18.5101 16.9039 19.2974C16.9039 20.0847 16.7364 21.7631 18.3447 21.7631C19.4804 21.7631 20.2485 19.9744 20.6019 18.9231C20.7446 18.4986 21.0053 18.1223 21.357 17.845C22.0936 17.2642 23.3668 15.7738 23.6704 12.2903C24.0867 7.51271 21.4272 5.88272 18.2106 5.88272Z" fill="#CECECA"/>
<path d="M5.16281 4.01752L5.24836 3.95349L5.33485 3.88486C5.36935 3.85786 5.40844 3.82749 5.44875 3.79772C5.51996 3.74897 5.60063 3.69197 5.69574 3.63544C5.92151 3.49761 6.16021 3.38216 6.40842 3.29072C6.72601 3.17306 7.05742 3.09676 7.39449 3.0637C7.48585 3.05302 7.57955 3.04997 7.67433 3.04533C7.76921 3.04463 7.86567 3.04266 7.96289 3.04861L8.17313 3.06014L8.26421 3.07575L8.50092 3.11663C8.62111 3.13885 8.74566 3.16449 8.86289 3.19453C8.96349 3.22645 9.0645 3.2603 9.16533 3.29597C9.21619 3.31242 9.26513 3.33535 9.31463 3.357L9.46271 3.42408C9.56246 3.46697 9.65635 3.52392 9.7516 3.57853C10.1298 3.80156 10.4749 4.09556 10.7566 4.44291C11.0388 4.78974 11.2575 5.18986 11.3946 5.61169C11.5336 6.03295 11.5848 6.47634 11.5597 6.89583L11.5562 6.97444L11.5558 6.98424L11.5541 7.04316L11.5535 7.04653L11.5512 7.06003L11.5466 7.08699L11.5283 7.19447L11.508 7.31072C11.4861 7.42627 11.4611 7.5412 11.433 7.65539L11.4278 7.67644L11.4218 7.69453L11.4098 7.73049L11.3854 7.80192C11.3514 7.89638 11.3228 7.99092 11.2789 8.07919L11.2173 8.21166C11.1963 8.2552 11.1773 8.29913 11.152 8.33995C11.1049 8.42148 11.0568 8.50235 11.0075 8.58253C10.9545 8.65702 10.9006 8.73089 10.8458 8.80411C10.8201 8.84086 10.7892 8.87353 10.7602 8.90695L10.6725 9.00516C10.6162 9.0713 10.5524 9.12881 10.4907 9.18577C10.429 9.24272 10.3692 9.29888 10.3034 9.34636C10.2389 9.39516 10.1768 9.444 10.1131 9.48783C10.0475 9.52936 9.98302 9.56925 9.91992 9.60755C9.85819 9.64786 9.79106 9.67688 9.72844 9.70884L9.63469 9.75436L9.58871 9.7763L9.5416 9.79463C9.41616 9.84159 9.30024 9.88945 9.18464 9.91622L9.01978 9.9593C8.96653 9.97163 8.91385 9.97828 8.86416 9.987L8.72114 10.0094C8.67581 10.0166 8.63147 10.0167 8.59013 10.0201C8.50711 10.0247 8.43366 10.0304 8.36981 10.0307L8.20786 10.0243L8.07417 10.0175C7.73283 10.0003 7.47005 9.70964 7.48725 9.3683C7.5016 9.08414 7.70536 8.85445 7.97016 8.79539L8.07417 8.77238L8.1525 8.75494L8.24517 8.73567C8.28108 8.72597 8.32125 8.7105 8.36611 8.69672C8.38828 8.68866 8.41238 8.68411 8.436 8.67281L8.50988 8.63939C8.53519 8.62744 8.56228 8.61806 8.58867 8.60372L8.66902 8.55703C8.72569 8.52961 8.7781 8.48456 8.83542 8.44603L8.85685 8.43108L8.87681 8.41299L8.91736 8.37689C8.94403 8.352 8.97427 8.33161 8.99846 8.30156C9.02413 8.27342 9.05021 8.24565 9.07669 8.21827C9.10144 8.18841 9.12394 8.15555 9.1485 8.12489C9.17442 8.0955 9.19397 8.05955 9.21516 8.02524C9.23635 7.99092 9.2596 7.95816 9.27535 7.91949L9.30239 7.86427C9.31125 7.8458 9.32208 7.8286 9.32785 7.80816C9.34167 7.76878 9.35611 7.73006 9.37139 7.69195C9.38133 7.65103 9.39127 7.61053 9.40252 7.57088C9.40946 7.55156 9.41039 7.52991 9.41367 7.50933L9.42314 7.44764C9.43299 7.4078 9.42938 7.36416 9.43289 7.32324L9.43481 7.29235L9.43594 7.27702L9.4365 7.26942L9.43528 7.26427C9.43222 7.25107 9.42977 7.23775 9.42792 7.22433C9.42616 7.21178 9.42515 7.19913 9.42488 7.18645L9.41836 7.08778L9.41091 6.97899L9.40903 6.9517L9.4081 6.93806L9.40786 6.93464C9.40505 7.04199 9.40674 6.96333 9.40599 6.98677L9.40481 6.98297L9.39591 6.95283C9.3578 6.79186 9.29194 6.64528 9.20053 6.5221C9.11039 6.39858 8.99939 6.29724 8.88071 6.22341C8.76206 6.1493 8.63667 6.10331 8.51869 6.08203C8.48864 6.07795 8.46174 6.06844 8.4315 6.07013C8.41731 6.06959 8.40313 6.0687 8.38899 6.06745C8.37511 6.06647 8.36208 6.06338 8.3476 6.06595C8.31942 6.06839 8.2928 6.06942 8.2673 6.06895C8.25633 6.07702 8.25333 6.08494 8.24822 6.08752C8.24726 6.08819 8.2462 6.08873 8.24508 6.08911L8.20481 6.09197L8.11121 6.09839L8.019 6.10472L8.00756 6.10552L8.00185 6.10589L7.99899 6.10608C7.92914 6.10439 8.09077 6.10856 8.07389 6.10828L8.06541 6.11147L8.04872 6.11747C8.02646 6.1237 8.00611 6.13481 7.98605 6.14185C7.96674 6.15277 7.94752 6.15919 7.93031 6.17058C7.86884 6.20406 7.81271 6.24653 7.76377 6.29658C7.72813 6.33243 7.69647 6.37204 7.66936 6.4147C7.65764 6.43097 7.65005 6.4485 7.64175 6.46097C7.64381 6.46364 7.64803 6.46397 7.65033 6.46472L7.65394 6.46524C7.65469 6.46566 7.65839 6.4628 7.64991 6.4726L7.58185 6.555C6.96108 7.30683 5.84841 7.41305 5.09658 6.79233C4.34475 6.17161 4.23853 5.05889 4.85925 4.30706C4.94864 4.19869 5.05571 4.0987 5.16281 4.01752Z" fill="#FFB941"/>
</svg>
