<svg width="24" height="24" viewBox="0 0 24 24" fill="none" xmlns="http://www.w3.org/2000/svg">
<path d="M18.8438 13.6163C18.6713 13.6163 18.5044 13.5394 18.3938 13.395C18.3011 13.2759 18.2595 13.1248 18.2781 12.9751C18.2968 12.8253 18.3741 12.689 18.4931 12.5962L21.6413 10.17C21.7609 10.0779 21.9122 10.037 22.062 10.0563C22.2117 10.0757 22.3477 10.1536 22.44 10.2731C22.6331 10.5225 22.5844 10.8787 22.335 11.0719L19.1906 13.4981C19.0894 13.5787 18.9656 13.6163 18.8438 13.6163Z" fill="#2F2F2F"/>
<path d="M20.2369 12.54C19.9594 12.54 19.7156 12.3375 19.6744 12.0563L19.4063 10.2956C19.3594 9.98438 19.5731 9.69375 19.8844 9.64688C20.1956 9.60188 20.4844 9.81375 20.5331 10.125L20.7994 11.8875C20.8481 12.1988 20.6344 12.4875 20.3231 12.5344C20.295 12.5381 20.265 12.54 20.2369 12.54ZM5.04 13.4963C4.905 13.4963 4.77 13.4494 4.66125 13.3519L1.53563 10.5563C1.47966 10.5065 1.43407 10.4462 1.4015 10.3788C1.36892 10.3114 1.35 10.2382 1.34582 10.1634C1.34163 10.0887 1.35227 10.0138 1.37713 9.94319C1.40198 9.87256 1.44055 9.80754 1.49063 9.75188C1.59156 9.63963 1.73282 9.57189 1.88353 9.56346C2.03425 9.55503 2.18218 9.60659 2.295 9.70688L5.42063 12.5006C5.65313 12.7106 5.67375 13.0706 5.46375 13.3031C5.34938 13.4325 5.19563 13.4963 5.04 13.4963Z" fill="#2F2F2F"/>
<path d="M3.7125 12.3075C3.62477 12.3078 3.53817 12.2878 3.45947 12.249C3.38078 12.2102 3.31213 12.1537 3.25891 12.084C3.20569 12.0143 3.16935 11.9331 3.15273 11.847C3.13612 11.7609 3.13967 11.672 3.16313 11.5875L3.63375 9.87562C3.71813 9.57187 4.03125 9.39187 4.33313 9.47812C4.63875 9.56062 4.81313 9.87375 4.73063 10.1775L4.26 11.8894C4.22669 12.0092 4.1552 12.1148 4.05639 12.1903C3.95758 12.2657 3.83683 12.3069 3.7125 12.3075Z" fill="#2F2F2F"/>
<path d="M4.38375 19.035C5.36063 21.2569 7.545 22.7981 10.2244 23.1562C10.7381 23.2238 11.2706 23.2669 11.8106 23.2838C12.3506 23.2669 12.885 23.2238 13.4025 23.1562C16.0819 22.7981 18.2663 21.2569 19.2431 19.0331C20.145 16.9781 19.8881 14.6906 18.5344 12.7537C18.4313 12.6056 18.3206 12.4594 18.1988 12.3075C17.8242 11.8443 17.3955 11.4276 16.9219 11.0663L16.8975 11.0475C16.8405 11.0042 16.7928 10.9499 16.7573 10.8878C16.7218 10.8257 16.6991 10.7571 16.6907 10.686C16.6823 10.6149 16.6883 10.5429 16.7084 10.4742C16.7285 10.4055 16.7622 10.3416 16.8075 10.2863L16.8263 10.2638C17.6738 9.21938 18.1238 7.9725 18.1238 6.65625C18.1238 3.39937 15.3488 0.75 11.9363 0.75C8.52375 0.75 5.74875 3.39937 5.74875 6.65625C5.74875 7.91813 6.16688 9.12562 6.95625 10.1475L6.97313 10.17C7.14188 10.3894 7.11563 10.7025 6.91125 10.8881L6.89063 10.9069C6.85313 10.9406 6.81375 10.9763 6.76688 11.0138L6.75 11.0269C6.27188 11.3831 5.82563 11.8144 5.42438 12.3094C5.29875 12.4669 5.18813 12.6131 5.09063 12.7537C3.73875 14.6906 3.48188 16.98 4.38375 19.035Z" fill="#E0E0E0"/>
<path d="M10.4794 6.76312C10.4625 7.35937 10.0406 7.8225 9.5475 7.80562C9.0525 7.785 8.66437 7.28999 8.68687 6.69562C8.7075 6.10312 9.12375 5.63625 9.62062 5.655C10.1156 5.67 10.5 6.16874 10.4794 6.76312ZM13.1381 6.76312C13.1569 7.35937 13.5769 7.8225 14.07 7.80562C14.565 7.785 14.9531 7.28999 14.9306 6.69562C14.91 6.10312 14.4919 5.63625 13.995 5.655C13.5 5.67 13.1156 6.16874 13.1381 6.76312ZM12.9675 9.39C12.8719 9.435 12.7744 9.46875 12.705 9.495C12.2662 9.64687 11.8031 9.62812 11.3531 9.555C11.1956 9.52875 11.0306 9.49312 10.8825 9.43687C10.6575 9.3525 10.2937 9.27562 10.2169 8.9925C10.1775 8.84437 10.2487 8.63437 10.3537 8.52374C10.5037 8.36437 10.6612 8.45812 10.8281 8.54062C11.0175 8.63624 11.2087 8.70937 11.4206 8.73937C11.6831 8.77875 11.9344 8.81437 12.2006 8.7525C12.4012 8.70562 12.5681 8.64937 12.7519 8.54999C12.8644 8.48812 12.9244 8.42812 13.0519 8.49187C13.17 8.55 13.245 8.68875 13.3087 8.79562C13.4944 9.10875 13.2169 9.27375 12.9675 9.39Z" fill="#2F2F2F"/>
</svg>
