<svg width="24" height="24" viewBox="0 0 24 24" fill="none" xmlns="http://www.w3.org/2000/svg">
<path d="M9.66258 1.10475C6.75665 1.10971 3.41826 2.90095 1.51748 5.1045C1.51748 5.1045 5.94867 4.71131 6.66117 6.76748C7.81195 10.0884 1.79705 9.71273 1.71028 14.9061C1.64494 18.8188 5.89903 22.8635 9.96497 22.866C10.1625 22.9319 18.494 22.866 18.494 22.866C19.4213 22.8529 19.4599 21.8089 16.206 21.1486C23.0306 14.218 12.1399 13.6921 12.2002 19.0027C11.3585 18.1214 12.2272 14.3239 16.7795 14.5106C18.3222 15.6112 19.2084 15.7937 20.9308 15.4146C21.258 15.3425 21.4956 14.2115 20.6747 14.1459L19.185 14.0269C17.8676 12.8233 17.5529 12.317 18.8724 11.3333C22.1007 12.1798 22.484 11.8994 22.4825 10.7084C22.4811 9.54337 22.0359 6.46003 19.3966 6.31087C19.0357 5.82754 19.8555 4.34015 19.2113 4.29726C18.3201 4.23792 16.845 5.62931 17.0426 6.34978C16.1832 6.71329 15.2272 7.81021 14.27 9.14418C11.0208 10.3362 8.66887 15.8304 8.63794 17.1426C8.61079 8.59092 15.8212 8.67721 15.2106 5.66896C14.551 2.4194 12.0703 1.10062 9.66258 1.10475ZM20.2878 7.96734C20.6236 7.96734 20.8959 8.23959 20.8959 8.57545C20.8959 8.91126 20.6236 9.18351 20.2878 9.18351C19.952 9.18351 19.6797 8.91126 19.6797 8.57545C19.6797 8.23959 19.952 7.96734 20.2878 7.96734Z" fill="#FF4500"/>
</svg>
