<svg width="24" height="24" viewBox="0 0 24 24" fill="none" xmlns="http://www.w3.org/2000/svg">
<path d="M10.6008 1.08783C6.82242 1.06955 4.62033 3.11231 4.5442 4.70142C6.11189 4.53638 8.39672 4.58175 8.62551 6.51455C7.54589 5.5185 6.05226 5.49385 4.66945 5.67305C-1.43508 6.4642 1.20211 15.0823 6.09858 13.3409C6.49387 14.2275 6.80958 16.6055 8.59983 16.7598C10.3342 16.9094 10.2888 17.9949 10.5578 20.0441C10.7806 21.7406 13.4069 22.6816 14.6576 22.9123C14.6576 22.9123 12.4765 19.1647 14.0789 17.4991C18.2344 11.8236 12.8029 8.81541 9.52008 9.76134C7.28648 10.4049 7.83787 11.7617 9.31434 13.2266C7.18068 12.4508 6.97092 11.4508 7.0319 10.4326C7.13048 8.7877 10.2319 7.54467 12.2407 7.97747C17.3034 9.06825 18.48 12.7658 15.24 17.3221C18.5493 18.6344 22.8161 16.9955 22.8765 14.2915C22.9142 12.605 21.871 11.2428 20.465 10.7922C19.1891 10.4532 18.6388 11.0401 18.2056 11.9037C18.0807 10.959 19.0325 9.34556 20.2433 10.1555C20.8106 5.00888 18.9462 1.12819 10.6008 1.08783Z" fill="#FFFAF0"/>
</svg>
