<svg width="24" height="24" viewBox="0 0 24 24" fill="none" xmlns="http://www.w3.org/2000/svg">
<path d="M15.3984 1.54031L14.8734 1.65563L13.7203 6.85781L10.8094 4.57969C10.7391 4.69219 10.6875 4.79531 10.6688 4.89844C10.6266 5.07188 10.6453 5.25469 10.7766 5.50781L13.5047 7.73906L12.9 12.1219L12.7875 12.225C10.0922 14.7328 6.67031 17.0484 3.48188 19.3969C3.93703 19.5094 4.35985 19.7203 4.66406 20.0672C4.99219 20.4328 5.12813 20.925 5.1375 21.4125C10.6266 16.5609 17.6156 10.4766 22.1719 5.35313C22.275 4.95469 22.2141 4.84219 22.1109 4.725C22.0453 4.64391 21.9047 4.55485 21.75 4.45172C20.025 6.17344 17.0063 9.22969 14.85 10.7531L14.0578 11.3156L15.3984 1.54031ZM13.7063 17.5734C12.5156 17.8922 11.3625 18.0094 10.2141 18.0469C9.89063 18.3328 9.57188 18.6188 9.25313 18.9047C10.0594 18.9047 10.875 18.8813 11.7094 18.7922C12.2625 19.8703 13.2984 20.4938 14.1938 21.1125L14.6719 20.4188C13.8563 19.8563 13.0828 19.3594 12.6188 18.6703C13.0453 18.6 13.4813 18.5063 13.9219 18.3891L13.7063 17.5734ZM2.71266 20.1516C2.31703 20.1609 1.97953 20.2922 1.8286 20.475C1.76531 20.5547 1.7475 20.7094 1.83328 20.9578C1.91906 21.2109 2.10469 21.5016 2.26969 21.6797C2.49375 21.9234 2.85235 22.2 3.18703 22.3453C3.52125 22.4859 3.77766 22.4953 3.94125 22.3875C4.11328 22.275 4.26844 21.9563 4.29 21.5813C4.31156 21.2016 4.1911 20.8078 4.03313 20.6297C3.82641 20.3953 3.35344 20.1891 2.88563 20.1563C2.82703 20.1516 2.76938 20.1516 2.71313 20.1516H2.71266Z" fill="#A0522D"/>
</svg>
