<svg width="24" height="24" viewBox="0 0 24 24" fill="none" xmlns="http://www.w3.org/2000/svg">
<path d="M10.7256 1.07812L3.22266 3.38812L1.85156 8.5357L4.07953 7.54102L4.56891 7.32281L4.68609 7.8457L5.09625 9.67969L5.39648 11.017L4.37695 10.1016L3.64008 9.43945L2.31736 10.9556L8.91066 17.3306L9.36328 15.4232L9.71625 13.9291L10.2041 15.3852L12.7691 23.0536L20.2661 21.8203L22.4106 12.3076L18.4467 5.33644L10.7256 1.07812ZM8.02148 3.41602L6.71775 5.28661L6.56541 8.72911L5.29102 4.56005L8.02148 3.41602ZM8.85792 7.79442L14.1606 15.0718L19.0781 16.6597L14.0449 16.6201L8.85792 10.6201V7.79452V7.79442ZM3.71775 15.4805L10.2861 22.6582L10.0253 19.5703L3.71775 15.4805Z" fill="#808080"/>
</svg>
