<svg width="24" height="24" viewBox="0 0 24 24" fill="none" xmlns="http://www.w3.org/2000/svg">
<g clip-path="url(#clip0_432_302)">
<path d="M18.6666 18C13.3333 18 13.3333 22 13.3333 22V14.6667H10.6666V22C10.6666 22 10.6666 18 5.33329 18C2.66663 18 0.666626 16.6667 0.666626 16.6667C0.666626 16.6667 0.666626 22.6667 6.66663 22.6667H10.6666C10.6666 22.6667 10.6666 24 12 24C13.3333 24 13.3333 22.6667 13.3333 22.6667H17.3333C23.3333 22.6667 23.3333 16.6667 23.3333 16.6667C23.3333 16.6667 21.3333 18 18.6666 18Z" fill="#3E721D"/>
<path d="M14.0834 18.4413C13.8647 18.4413 13.6494 18.3767 13.4654 18.2527L11.9167 17.2027L10.3687 18.2527C10.2372 18.3408 10.0884 18.3998 9.9323 18.4258C9.77617 18.4518 9.61628 18.4441 9.46335 18.4033C9.31056 18.3628 9.16833 18.2898 9.04637 18.1892C8.9244 18.0886 8.82559 17.9629 8.75669 17.8207L7.94002 16.136L6.07535 16.272C6.04869 16.2733 6.02269 16.2747 5.99602 16.2747C5.84458 16.2746 5.69477 16.2433 5.55592 16.1829C5.41707 16.1224 5.29214 16.0341 5.1889 15.9233C5.08567 15.8125 5.00633 15.6816 4.95583 15.5388C4.90533 15.396 4.88474 15.2444 4.89535 15.0933L5.02935 13.2267L3.34735 12.41C3.20513 12.3407 3.07944 12.2417 2.97878 12.1196C2.87812 11.9976 2.80483 11.8553 2.76388 11.7025C2.72293 11.5497 2.71526 11.3898 2.74139 11.2338C2.76752 11.0778 2.82684 10.9291 2.91535 10.798L3.96402 9.24934L2.91535 7.70134C2.82641 7.57037 2.76678 7.42174 2.74055 7.26561C2.71431 7.10948 2.72209 6.94952 2.76335 6.79667C2.80455 6.644 2.878 6.50192 2.97874 6.38003C3.07948 6.25813 3.20517 6.15923 3.34735 6.09001L5.02935 5.27334L4.89535 3.40867C4.88395 3.25076 4.90665 3.09224 4.96191 2.94387C5.01717 2.7955 5.1037 2.66075 5.21562 2.54876C5.32754 2.43678 5.46224 2.35017 5.61058 2.29483C5.75892 2.23949 5.91743 2.2167 6.07535 2.22801L7.94002 2.36201L8.75669 0.680008C8.82616 0.53794 8.92527 0.412411 9.04735 0.311879C9.16943 0.211346 9.31163 0.138146 9.46439 0.0972095C9.61714 0.0562728 9.7769 0.0485507 9.93289 0.0745634C10.0889 0.100576 10.2375 0.159719 10.3687 0.248009L11.9167 1.29668L13.4654 0.248009C13.596 0.158929 13.7444 0.0992152 13.9004 0.0729757C14.0563 0.0467361 14.2161 0.054594 14.3687 0.0960086C14.6787 0.179342 14.938 0.392009 15.0767 0.680008L15.8934 2.36201L17.76 2.22801C17.7847 2.22601 17.812 2.22601 17.8374 2.22601C17.989 2.22589 18.139 2.25704 18.2781 2.3175C18.4172 2.37796 18.5423 2.46645 18.6457 2.57743C18.749 2.68841 18.8284 2.8195 18.8788 2.96252C18.9292 3.10554 18.9496 3.25742 18.9387 3.40867L18.8027 5.27334L20.4874 6.09001C20.776 6.22934 20.988 6.48867 21.07 6.79667C21.1527 7.10667 21.0987 7.43667 20.9187 7.70134L19.8687 9.24934L20.9187 10.798C21.098 11.0633 21.1527 11.3927 21.07 11.702C21.0296 11.855 20.9566 11.9975 20.856 12.1197C20.7555 12.2418 20.6297 12.3409 20.4874 12.41L18.8027 13.2267L18.9387 15.0933C18.9614 15.412 18.8434 15.724 18.6187 15.952C18.5067 16.0635 18.3721 16.1497 18.224 16.2049C18.0759 16.2601 17.9177 16.283 17.76 16.272L15.8934 16.136L15.0767 17.8207C15.0077 17.9631 14.9087 18.0889 14.7865 18.1895C14.6643 18.2901 14.5217 18.363 14.3687 18.4033C14.2758 18.4293 14.1798 18.442 14.0834 18.4413Z" fill="#FFAC33"/>
<path d="M12 14C14.5774 14 16.6667 11.9107 16.6667 9.33332C16.6667 6.75599 14.5774 4.66666 12 4.66666C9.42271 4.66666 7.33337 6.75599 7.33337 9.33332C7.33337 11.9107 9.42271 14 12 14Z" fill="#732700"/>
</g>
<defs>
<clipPath id="clip0_432_302">
<rect width="24" height="24" fill="white"/>
</clipPath>
</defs>
</svg>
