<svg width="24" height="24" viewBox="0 0 24 24" fill="none" xmlns="http://www.w3.org/2000/svg">
<path d="M15.7359 4.16907C15.5136 4.17816 15.2877 4.23872 15.0701 4.3643C13.2451 5.41805 10.8621 5.39335 9.07995 4.3644C8.79448 4.19958 8.50409 4.1483 8.2294 4.18196C8.51689 4.56068 8.67229 5.0232 8.6718 5.49868C8.6718 6.58383 7.8732 7.50633 6.83543 7.6125C6.2366 8.31188 5.82513 9.10346 5.69234 9.95546C7.78905 8.8403 9.95548 8.28802 12.1172 8.29102C14.2805 8.29402 16.4389 8.85291 18.5185 9.96071C18.3924 9.10993 17.9927 8.31807 17.4031 7.62071C17.3757 7.62193 17.3483 7.62296 17.3206 7.62296C16.1872 7.62296 15.284 6.65265 15.284 5.49868C15.284 4.99993 15.4528 4.53568 15.7359 4.16907ZM6.63513 4.31982C6.04123 4.31982 5.54402 4.82841 5.54402 5.49872C5.54402 6.1689 6.04127 6.67749 6.63518 6.67749C7.22909 6.67749 7.72624 6.1689 7.72624 5.49868C7.72624 4.82846 7.22909 4.31977 6.63523 4.31977L6.63513 4.31982ZM17.3206 4.31982C16.7267 4.31982 16.2295 4.82841 16.2295 5.49872C16.2295 6.1689 16.7267 6.67749 17.3205 6.67749C17.9144 6.67749 18.4116 6.1689 18.4116 5.49868C18.4116 4.82846 17.9144 4.31977 17.3205 4.31977L17.3206 4.31982ZM20.488 8.6964C20.0884 8.70052 19.6493 8.76886 19.1824 8.89529C19.5071 9.80733 19.5841 10.8043 19.3087 11.8323C19.109 12.5774 19.3525 13.5889 19.8572 14.3991L20.077 14.752L19.7479 15.0066C18.8215 15.7228 18.0398 16.1835 17.5868 16.6596C17.1338 17.1357 16.9359 17.5778 17.0752 18.5756L17.1467 19.087C17.3152 19.3073 17.5066 19.529 17.7158 19.7461C18.6475 19.064 19.4038 18.6263 20.9194 19.5541C20.6036 18.6727 21.6665 18.1591 23.1094 18.1582C21.3793 17.4138 20.0635 16.9573 19.0577 16.7343C22.2214 13.3505 23.6131 10.7362 22.1514 9.2724C21.7684 8.88882 21.2441 8.7083 20.5914 8.69677C20.557 8.69614 20.5225 8.69599 20.4881 8.6963L20.488 8.6964ZM3.53721 8.69649C3.49976 8.69602 3.4623 8.69611 3.42485 8.69677C2.77212 8.7084 2.24641 8.88896 1.8633 9.27249C0.401648 10.7363 1.79337 13.3506 4.95706 16.7344C3.95131 16.9574 2.63543 17.414 0.905273 18.1583C2.34818 18.1592 3.41112 18.6728 3.09527 19.5542C4.61084 18.6264 5.36721 19.0642 6.29885 19.7461C6.61352 19.4198 6.88816 19.0831 7.10454 18.7561L7.12971 18.5757C7.26902 17.578 7.07112 17.1359 6.61812 16.6597C6.16512 16.1836 5.38343 15.723 4.4569 15.0067L4.12784 14.7523L4.34777 14.3993C4.85074 13.5917 5.09112 12.5603 4.89621 11.8324C4.62518 10.8212 4.70004 9.84305 5.01509 8.9468C4.48371 8.78799 3.98599 8.7023 3.53726 8.69658L3.53721 8.69649ZM12.1171 9.1493C9.95637 9.14626 7.79056 9.75057 5.66834 10.9702C5.69108 11.1809 5.73017 11.3895 5.78524 11.5941V11.5942C6.04085 12.5483 5.81304 13.6066 5.34068 14.5144C6.08552 15.0597 6.76301 15.4765 7.28496 16.0252C7.77059 16.5356 8.07223 17.2032 8.07973 18.0742C8.02835 18.8386 7.65049 19.9151 7.03221 20.8512C8.18487 20.1839 9.00724 20.1325 9.15518 21.0149C9.81598 20.1813 10.3598 20.0593 10.9826 20.6383C10.8071 19.164 10.4615 18.1592 10.1736 17.5868C9.47538 15.8728 8.16663 14.7048 6.71698 13.6763L7.24948 12.9257C9.06766 14.2156 10.8494 15.863 11.4272 18.5303C11.8785 18.5634 12.3295 18.5608 12.7795 18.5228C13.359 15.8599 15.1389 14.2142 16.9554 12.9256L17.4879 13.6763C16.0258 14.7136 14.7066 15.8926 14.013 17.6309C13.7297 18.2101 13.3971 19.2008 13.2259 20.6383C13.8488 20.0594 14.3926 20.1813 15.0534 21.0149C15.2012 20.1325 16.0235 20.1838 17.1762 20.8512C16.543 19.8924 16.1616 18.786 16.1253 18.0188C16.1448 17.1746 16.4445 16.5248 16.9198 16.0251C17.4418 15.4764 18.1192 15.0597 18.8639 14.5143C18.3922 13.6101 18.1613 12.558 18.4196 11.5939C18.4745 11.3899 18.5139 11.1821 18.5372 10.9721C16.4349 9.76318 14.2785 9.1524 12.117 9.1493H12.1171Z" fill="#228B22"/>
</svg>
