<svg width="24" height="24" viewBox="0 0 24 24" fill="none" xmlns="http://www.w3.org/2000/svg">
<path d="M10.5 2.99999C9.75445 2.99639 9.01978 3.17888 8.36256 3.53091C7.70534 3.88294 7.14635 4.3934 6.73623 5.01603C6.32611 5.63865 6.07783 6.35377 6.01388 7.09658C5.94993 7.8394 6.07233 8.58643 6.37 9.26999C5.5 10.12 5 11.28 5 12.5C5 15 7 17 9.5 17C10 17 10.5 16.89 11 16.72V21H13V15.77C13.5 15.91 14 16 14.5 16C15.2223 16 15.9375 15.8577 16.6048 15.5813C17.272 15.3049 17.8784 14.8998 18.3891 14.3891C18.8998 13.8784 19.3049 13.272 19.5813 12.6048C19.8577 11.9375 20 11.2223 20 10.5C20 9.77772 19.8577 9.06252 19.5813 8.39523C19.3049 7.72794 18.8998 7.12163 18.3891 6.6109C17.8784 6.10018 17.272 5.69505 16.6048 5.41865C15.9375 5.14225 15.2223 4.99999 14.5 4.99999H14.24C13.41 3.75999 12 2.99999 10.5 2.99999ZM10.5 4.99999C11.82 4.99999 12.91 6.02999 13 7.34999C13.46 7.11999 14 6.99999 14.5 6.99999C15.4283 6.99999 16.3185 7.36874 16.9749 8.02512C17.6313 8.6815 18 9.57173 18 10.5C18 11.4282 17.6313 12.3185 16.9749 12.9749C16.3185 13.6312 15.4283 14 14.5 14C13.54 14 12.63 13.61 11.96 12.91C11.8648 13.4937 11.565 14.0245 11.1143 14.4074C10.6636 14.7903 10.0914 15.0003 9.5 15C8.83696 15 8.20107 14.7366 7.73223 14.2678C7.26339 13.7989 7 13.163 7 12.5C7 11.12 7.8 10.54 9 9.78999C8.2 8.75999 8 8.15999 8 7.49999C8 6.83695 8.26339 6.20107 8.73223 5.73222C9.20107 5.26338 9.83696 4.99999 10.5 4.99999Z" fill="#228B22"/>
</svg>
