<svg width="24" height="24" viewBox="0 0 24 24" fill="none" xmlns="http://www.w3.org/2000/svg">
<path d="M12 22C9.88333 22 8.02067 21.2627 6.412 19.788C4.80333 18.3133 3.99933 16.3173 4 13.8C4 12.2167 4.6 10.5 5.8 8.65C7 6.8 8.81667 4.8 11.25 2.65C11.35 2.56667 11.4667 2.5 11.6 2.45C11.7333 2.4 11.8667 2.375 12 2.375C12.1333 2.375 12.2667 2.4 12.4 2.45C12.5333 2.5 12.65 2.56667 12.75 2.65C15.1833 4.8 17 6.8 18.2 8.65C19.4 10.5 20 12.2167 20 13.8C20 16.3167 19.1957 18.3127 17.587 19.788C15.9783 21.2633 14.116 22.0007 12 22ZM12.275 19C12.475 18.9833 12.646 18.904 12.788 18.762C12.93 18.62 13.0007 18.4493 13 18.25C13 18.0167 12.925 17.829 12.775 17.687C12.625 17.545 12.4333 17.4827 12.2 17.5C11.5167 17.55 10.7917 17.3623 10.025 16.937C9.25833 16.5117 8.775 15.741 8.575 14.625C8.54167 14.4417 8.45433 14.2917 8.313 14.175C8.17167 14.0583 8.009 14 7.825 14C7.59167 14 7.4 14.0877 7.25 14.263C7.1 14.4383 7.05 14.6423 7.1 14.875C7.38333 16.3917 8.05 17.475 9.1 18.125C10.15 18.775 11.2083 19.0667 12.275 19Z" fill="#87CEEB"/>
</svg>
