<svg width="24" height="24" viewBox="0 0 24 24" fill="none" xmlns="http://www.w3.org/2000/svg">
<path d="M11.6378 11.0933C11.4676 11.0921 11.3047 11.024 11.1843 10.9037C11.0639 10.7835 10.9956 10.6207 10.9943 10.4505V9.6435C10.9943 9.29175 11.286 9 11.6378 9C11.9895 9 12.2813 9.2925 12.2813 9.6435V10.4497C12.2814 10.5343 12.2648 10.618 12.2325 10.6961C12.2002 10.7742 12.1528 10.8452 12.093 10.905C12.0332 10.9648 11.9623 11.0122 11.8841 11.0445C11.806 11.0768 11.7223 11.0933 11.6378 11.0933Z" fill="#87CEFA"/>
<path d="M18.1178 0.815995C18.4965 0.890245 18.7328 1.12425 18.885 1.30725C19.0935 1.55625 19.1888 1.878 19.2375 2.136C19.29 2.41725 19.3058 2.733 19.2885 3.0525C19.2615 3.55275 19.1483 4.131 18.9008 4.6485C21.2775 6.53625 22.4693 9.07949 22.5 12.345V12.3525C22.5 15.1312 22.0275 17.421 20.889 19.1895C20.34 20.2057 19.4025 21.0615 18.4545 21.681C17.5905 22.2442 16.6395 22.6635 15.8355 22.8202C15.7779 22.8834 15.7143 22.9409 15.6458 22.992C15.1943 23.328 14.6573 23.3047 14.1503 23.079C13.4955 23.1892 12.8003 23.2687 12.0638 23.3197C10.2861 23.4513 8.50775 23.0722 6.93827 22.227C6.7114 22.538 6.42386 22.7997 6.09302 22.9965C5.94452 23.082 5.69627 23.2035 5.41427 23.2035C4.57877 23.2035 3.58877 22.896 2.92877 21.8887C2.30852 20.9415 2.06852 19.5037 2.33252 17.4412C1.45427 15.7702 0.934522 13.8982 0.849022 12.0345H0.852023L0.816772 11.322V11.3032C0.816772 9.99 1.64027 8.8455 2.58452 8.07075C3.53252 7.2915 4.77227 6.74249 5.87552 6.74249H10.788C11.3153 6.74249 11.8253 6.8175 12.3083 6.95775C12.2665 6.8343 12.2455 6.7048 12.246 6.57449C12.246 6.41324 12.2925 6.28425 12.321 6.2145C12.3508 6.14345 12.3859 6.07475 12.426 6.009C12.495 5.8965 12.582 5.77799 12.6683 5.66624C12.7658 5.54024 12.8933 5.38425 13.029 5.217C13.1258 5.09849 13.2263 4.97474 13.3238 4.85249C13.9065 4.12349 14.5973 3.82199 15.225 3.76199C15.2234 3.63681 15.2314 3.51169 15.249 3.38775C15.3068 2.997 15.4635 2.655 15.705 2.31675C15.906 2.0355 16.1363 1.74225 16.3703 1.5C16.4865 1.37925 16.6148 1.26 16.749 1.1595C16.8765 1.06425 17.0483 0.955495 17.253 0.897745C17.4855 0.833245 17.799 0.753745 18.1178 0.815995ZM3.75077 19.5787C3.81302 20.2957 3.98702 20.7652 4.18352 21.066C4.48127 21.5197 4.89752 21.684 5.33477 21.702L5.34227 21.6967C5.46428 21.6199 5.57402 21.5251 5.66777 21.4155C4.9579 20.8815 4.31435 20.2654 3.75077 19.5787ZM12.6113 21.7687C12.1958 21.1717 11.9543 20.49 11.8178 19.8067C11.5913 18.6757 11.6333 17.4517 11.6678 16.4617L11.6723 16.311C11.7113 15.1402 11.1855 14.2732 10.371 13.671C9.53402 13.0537 8.39477 12.726 7.31252 12.726H2.40902C2.98202 17.7097 6.88502 22.1745 11.9603 21.8235C12.1823 21.8077 12.399 21.7897 12.6113 21.7687ZM2.31902 11.2267H7.31252C8.66402 11.2267 10.128 11.628 11.2613 12.4642C12.417 13.3177 13.2293 14.6302 13.1715 16.3612L13.1685 16.455C13.1333 17.49 13.0973 18.5572 13.2885 19.512C13.4805 20.472 13.881 21.213 14.6685 21.6607C14.7053 21.6817 14.7375 21.6982 14.7645 21.7102L14.7675 21.6982L14.8485 17.8882L14.856 17.8395C14.871 17.7442 14.8725 17.4172 14.7098 17.022C14.6723 16.9309 14.6531 16.8333 14.6534 16.7348C14.6536 16.6363 14.6733 16.5388 14.7112 16.4479C14.7491 16.3569 14.8046 16.2744 14.8744 16.2049C14.9442 16.1354 15.027 16.0803 15.1181 16.0429C15.2093 16.0054 15.3068 15.9862 15.4054 15.9865C15.5039 15.9867 15.6014 16.0064 15.6923 16.0443C15.7832 16.0822 15.8658 16.1377 15.9353 16.2075C16.0047 16.2773 16.0598 16.3601 16.0973 16.4512C16.3455 17.0557 16.3928 17.631 16.3463 18.0112L16.2795 21.1275C16.7539 20.94 17.2078 20.7042 17.634 20.424C18.4673 19.8795 19.194 19.1835 19.5803 18.456L19.5953 18.426L19.6133 18.3982C20.5433 16.968 21 15.0007 21 12.3555C20.9715 9.38325 19.8713 7.2135 17.6753 5.60025L17.6213 5.5605L17.5748 5.51175L17.5673 5.50349C17.4225 5.36082 17.3193 5.1814 17.2688 4.9845C17.1893 4.632 17.3355 4.3515 17.4375 4.197C17.6415 3.8895 17.766 3.429 17.7908 2.97225C17.8029 2.78477 17.7934 2.59652 17.7623 2.41125C17.7548 2.37375 17.748 2.34375 17.742 2.31975C17.7227 2.32456 17.7035 2.32956 17.6843 2.33475C17.6719 2.3425 17.6599 2.35076 17.6483 2.3595C17.5777 2.41509 17.5115 2.47602 17.4503 2.54175C17.2604 2.74497 17.0849 2.96125 16.9253 3.189C16.7903 3.37874 16.749 3.50025 16.7333 3.60525C16.716 3.7215 16.722 3.87675 16.7723 4.15275C16.7813 4.18425 16.7925 4.22775 16.8008 4.278C16.8098 4.33275 16.8233 4.4355 16.8068 4.557C16.7835 4.74143 16.6976 4.91227 16.5633 5.04089C16.4291 5.16951 16.2548 5.2481 16.0695 5.2635C15.9863 5.271 15.903 5.26575 15.8738 5.2635H15.8678L15.8468 5.26199C15.721 5.2533 15.5949 5.24929 15.4688 5.25C15.2153 5.25 14.8568 5.337 14.496 5.7885C14.3885 5.92306 14.2802 6.05706 14.1713 6.19049L13.962 6.44775C14.3528 6.51975 14.6235 6.52725 14.8508 6.483C15.1208 6.42975 15.4133 6.2835 15.8175 5.88C15.972 5.7255 16.2023 5.5905 16.4993 5.5905C16.7603 5.5905 16.9665 5.6955 17.094 5.77725L17.1788 5.8305L17.2463 5.9055C18.924 7.74675 19.4948 10.5562 19.095 12.906C18.9803 13.578 18.6458 14.106 18.138 14.415C17.6445 14.715 17.0745 14.7547 16.5735 14.634C15.5948 14.3977 14.6625 13.485 14.7405 12.1725C14.7338 11.1284 14.3145 10.1293 13.5741 9.39306C12.8336 8.65685 11.8322 8.24327 10.788 8.2425H5.87552C5.21552 8.2425 4.30202 8.601 3.53552 9.2295C2.79527 9.837 2.35052 10.5645 2.31902 11.2267ZM14.2695 8.00025C14.8865 8.51128 15.3831 9.15223 15.7238 9.87734C16.0645 10.6024 16.241 11.3938 16.2405 12.195V12.2212L16.2383 12.2475C16.2045 12.7282 16.5308 13.08 16.9253 13.1752C17.1143 13.221 17.2635 13.1902 17.3588 13.1332C17.439 13.0845 17.5628 12.9675 17.616 12.654C17.925 10.8367 17.526 8.75325 16.464 7.314C16.0538 7.64175 15.6263 7.8585 15.141 7.9545C14.8538 8.00841 14.5607 8.02429 14.2695 8.00025Z" fill="#87CEFA"/>
</svg>
