<svg width="24" height="24" viewBox="0 0 24 24" fill="none" xmlns="http://www.w3.org/2000/svg">
<path d="M19.9035 8.96999L22.4835 13.47C22.671 13.7925 22.431 14.1975 22.041 14.1975C21.711 14.19 21.501 14.5575 21.606 14.8725L21.9405 15.8025H2.1135L2.4435 14.8275C2.46803 14.7548 2.47491 14.6774 2.46357 14.6016C2.45223 14.5257 2.42299 14.4537 2.37829 14.3914C2.33358 14.3291 2.27468 14.2783 2.20647 14.2433C2.13825 14.2083 2.06268 14.19 1.986 14.19C1.611 14.19 1.3785 13.7925 1.566 13.47L4.1535 8.95499C4.2585 8.76749 4.371 8.54999 4.4835 8.32499L4.506 2.00249C4.4835 1.55999 5.0235 1.32749 5.3235 1.64999L10.626 5.69999C10.8285 5.85749 11.0835 5.99999 11.3385 5.99999H12.651C12.906 5.99999 13.161 5.85749 13.3635 5.69999L18.666 1.64999C18.966 1.32749 19.506 1.55999 19.4835 2.00249L19.506 8.21999C19.6185 8.43749 19.7535 8.67749 19.9035 8.95499V8.96999Z" fill="#9B9B9B"/>
<path d="M5.2485 7.32749C5.241 7.54499 5.466 7.70249 5.676 7.62749L8.901 6.45749C9.1335 6.37499 9.186 6.05999 8.9835 5.90249L5.7735 3.44999C5.586 3.23999 5.241 3.38999 5.256 3.66749L5.2485 7.32749ZM18.756 7.32749C18.756 7.54499 18.5385 7.70249 18.3285 7.62749L15.096 6.45749C15.0423 6.43753 14.9949 6.40351 14.9588 6.35899C14.9227 6.31447 14.8992 6.26107 14.8907 6.20437C14.8823 6.14767 14.8893 6.08975 14.9109 6.03665C14.9324 5.98355 14.9679 5.93722 15.0135 5.90249L18.2235 3.44999C18.411 3.24749 18.756 3.39749 18.741 3.67499L18.756 7.32749ZM10.5735 22.5H13.491C14.3535 22.5 15.1185 21.9 15.411 21.09L15.921 18.705C15.996 18.36 16.3185 18.135 16.6635 18.1725C17.8035 18.315 20.1735 18.6 20.6535 18.6C21.4035 18.6 21.1635 17.97 21.1635 17.97L20.901 17.1825C20.8635 17.07 20.766 16.4175 21.486 16.425C22.296 16.44 21.8985 15.6825 21.8985 15.6825L18.3285 14.1825C18.3285 14.1825 16.3935 13.2375 15.441 14.1975L13.251 16.4025C13.206 16.455 13.146 16.4925 13.086 16.53C12.7575 16.71 12.399 16.8 12.0322 16.8075C11.6638 16.801 11.3023 16.7059 10.9785 16.53C10.9174 16.4961 10.8618 16.4531 10.8135 16.4025L8.6235 14.1975C7.671 13.2375 5.736 14.1825 5.736 14.1825L2.15625 15.6825C2.15625 15.6825 1.7685 16.44 2.5785 16.425C3.2985 16.4175 3.201 17.07 3.1635 17.1825L2.901 17.97C2.901 17.97 2.661 18.6 3.411 18.6C3.891 18.6 6.261 18.315 7.401 18.1725C7.746 18.135 8.0685 18.36 8.1435 18.705L8.6535 21.09C8.946 21.9 9.711 22.5 10.5735 22.5Z" fill="#D3D3D3"/>
<path d="M8.25 11.25C8.25 11.0511 8.32902 10.8603 8.46967 10.7197C8.61032 10.579 8.80109 10.5 9 10.5C9.19891 10.5 9.38968 10.579 9.53033 10.7197C9.67098 10.8603 9.75 11.0511 9.75 11.25V12C9.75 12.1989 9.67098 12.3897 9.53033 12.5303C9.38968 12.671 9.19891 12.75 9 12.75C8.80109 12.75 8.61032 12.671 8.46967 12.5303C8.32902 12.3897 8.25 12.1989 8.25 12V11.25ZM14.25 11.25C14.25 11.0511 14.329 10.8603 14.4697 10.7197C14.6103 10.579 14.8011 10.5 15 10.5C15.1989 10.5 15.3897 10.579 15.5303 10.7197C15.671 10.8603 15.75 11.0511 15.75 11.25V12C15.75 12.1989 15.671 12.3897 15.5303 12.5303C15.3897 12.671 15.1989 12.75 15 12.75C14.8011 12.75 14.6103 12.671 14.4697 12.5303C14.329 12.3897 14.25 12.1989 14.25 12V11.25ZM11.0482 15H12.9532C13.7707 15 14.187 16.1408 13.6005 16.8038L12.6442 17.6887C12.282 18.1035 11.7037 18.1035 11.3415 17.6887L10.3853 16.8038C9.82275 16.1318 10.2315 15 11.0482 15Z" fill="#1C1C1C"/>
<path d="M12.375 18.375C12.375 18.2755 12.3355 18.1802 12.2652 18.1098C12.1948 18.0395 12.0995 18 12 18C11.9005 18 11.8052 18.0395 11.7348 18.1098C11.6645 18.1802 11.625 18.2755 11.625 18.375C11.625 18.834 11.457 19.3155 11.175 19.677C10.8937 20.037 10.5255 20.25 10.125 20.25C10.0255 20.25 9.93016 20.2895 9.85983 20.3598C9.78951 20.4302 9.75 20.5255 9.75 20.625C9.75 20.7245 9.78951 20.8198 9.85983 20.8902C9.93016 20.9605 10.0255 21 10.125 21C10.812 21 11.3812 20.6317 11.766 20.1382C11.8522 20.028 11.931 19.9095 12 19.7858C12.0698 19.9095 12.1478 20.028 12.234 20.1382C12.6188 20.6325 13.188 21 13.875 21C13.9745 21 14.0698 20.9605 14.1402 20.8902C14.2105 20.8198 14.25 20.7245 14.25 20.625C14.25 20.5255 14.2105 20.4302 14.1402 20.3598C14.0698 20.2895 13.9745 20.25 13.875 20.25C13.4745 20.25 13.1063 20.037 12.825 19.677C12.538 19.3032 12.3801 18.8463 12.375 18.375Z" fill="#1C1C1C"/>
</svg>
