<svg width="24" height="24" viewBox="0 0 24 24" fill="none" xmlns="http://www.w3.org/2000/svg">
<path d="M12 4.5C12 2.01562 14.0156 0 16.5 0H18.3C20.6203 0 22.5 1.87969 22.5 4.2V17.625C22.5 21.1453 19.6453 24 16.125 24C12.6047 24 9.75 21.1453 9.75 17.625V13.875C9.75 12.8391 8.91094 12 7.875 12C6.83906 12 6 12.8391 6 13.875V21.75C6 22.9922 4.99219 24 3.75 24C2.50781 24 1.5 22.9922 1.5 21.75V13.875C1.5 10.3547 4.35469 7.5 7.875 7.5C11.3953 7.5 14.25 10.3547 14.25 13.875V17.625C14.25 18.6609 15.0891 19.5 16.125 19.5C17.1609 19.5 18 18.6609 18 17.625V9H16.5C14.0156 9 12 6.98438 12 4.5ZM18.75 4.125C18.75 3.97726 18.7209 3.83097 18.6644 3.69448C18.6078 3.55799 18.525 3.43397 18.4205 3.3295C18.316 3.22504 18.192 3.14217 18.0555 3.08564C17.919 3.0291 17.7727 3 17.625 3C17.4773 3 17.331 3.0291 17.1945 3.08564C17.058 3.14217 16.934 3.22504 16.8295 3.3295C16.725 3.43397 16.6422 3.55799 16.5856 3.69448C16.5291 3.83097 16.5 3.97726 16.5 4.125C16.5 4.27274 16.5291 4.41903 16.5856 4.55552C16.6422 4.69201 16.725 4.81603 16.8295 4.9205C16.934 5.02496 17.058 5.10783 17.1945 5.16436C17.331 5.2209 17.4773 5.25 17.625 5.25C17.7727 5.25 17.919 5.2209 18.0555 5.16436C18.192 5.10783 18.316 5.02496 18.4205 4.9205C18.525 4.81603 18.6078 4.69201 18.6644 4.55552C18.7209 4.41903 18.75 4.27274 18.75 4.125Z" fill="#F08080"/>
</svg>
