<svg width="24" height="24" viewBox="0 0 24 24" fill="none" xmlns="http://www.w3.org/2000/svg">
<path d="M2.9835 0.882935L1.95666 1.12762L2.15232 1.94831L3.17907 1.70362L2.9835 0.882935ZM5.58085 1.33181C5.07403 1.33265 4.67649 1.50365 4.43218 1.81668C4.17155 2.15058 4.11028 2.61412 4.26839 3.14714C4.42646 3.68011 4.81224 4.25554 5.39213 4.70751C5.97207 5.15939 6.62447 5.39306 7.18041 5.4165C7.73616 5.43993 8.17116 5.26753 8.43178 4.93368C8.69241 4.59975 8.75363 4.13625 8.59552 3.60328C8.57913 3.54899 8.56081 3.49529 8.54058 3.44231C8.12855 3.7589 7.85471 4.31278 7.50868 4.08187C7.41399 4.01873 7.70578 3.27168 8.14102 2.72343C8.00947 2.54772 7.86179 2.38466 7.69993 2.2364L6.51267 2.80687L5.87067 2.21418C5.96574 2.13239 6.7245 2.00498 7.34911 1.95154C6.80114 1.55958 6.20053 1.35567 5.68355 1.33392C5.6493 1.33247 5.61503 1.33176 5.58075 1.33181H5.58085ZM11.9191 1.86501L10.9287 2.23017L11.2205 3.02179L12.211 2.65664L11.9191 1.86501H11.9191ZM14.4002 2.90925L13.7676 3.46753L14.4659 4.25892L15.0986 3.70073L14.4002 2.9092L14.4002 2.90925ZM1.94086 4.06847L1.20985 4.49006L1.73719 5.4044L2.46807 4.9829L1.94072 4.06861L1.94086 4.06847ZM9.2318 5.25581C9.19108 5.32401 9.1462 5.38963 9.09741 5.45231C8.64038 6.03792 7.90336 6.29114 7.14469 6.25917C6.86471 6.24736 6.57844 6.19847 6.29316 6.11404C6.26072 6.52195 6.26213 6.93543 6.29232 7.35028L6.6345 7.19231L6.65794 7.98379L7.2631 8.10028L6.91397 8.79862L7.72866 9.52026L6.96047 9.82293L7.35628 10.2652L7.02971 10.5675C7.53113 11.9258 8.21175 13.1701 8.85793 14.128C9.64449 15.2941 10.4239 17.4301 10.4566 18.7382L8.69443 23.2053L14.0183 23.2609L14.0554 22.297L13.7003 22.2351L13.1062 22.8127L12.6173 22.3936H12.1982L12.1367 21.9627L11.1392 21.7889L12.4691 18.8212C12.5316 17.0757 11.9916 15.8597 11.5916 14.1142C12.4044 14.6714 13.1914 15.2165 13.9456 15.777C14.1046 15.629 14.3089 15.5112 14.6427 15.4797C14.8667 15.8542 14.8793 16.1685 14.8495 16.4705C16.0301 17.4108 17.1131 18.4229 18.0622 19.6278L20.6592 15.105L19.8916 14.6801L17.7653 16.6992C16.5784 15.0876 14.8569 13.8871 12.989 12.5479C12.8477 12.1 12.6472 11.6802 12.4173 11.2797C12.26 11.5045 12.0483 11.7074 11.8723 11.8481C11.5295 12.1223 10.9213 11.9485 10.7783 11.6618C10.6353 11.3752 11.2983 11.2091 11.1507 10.9402C11.0032 10.6712 10.3467 11.0882 10.1264 10.8471C9.90624 10.6059 9.84399 10.233 10.1264 9.91589C10.303 9.7177 10.7086 9.63384 11.0991 9.63675C11.1768 9.63738 11.2545 9.64155 11.3319 9.64922C10.9188 9.06014 10.5391 8.49009 10.3234 7.90509C11.7046 8.05556 13.0856 8.20659 14.3936 8.72268C14.6592 9.43598 14.4493 10.1493 14.1632 10.8626C14.3749 10.9054 14.6197 10.9098 14.8387 10.6049C15.4074 9.81272 15.792 8.82665 15.5131 7.86675C15.4483 7.64381 13.6369 7.20037 11.8664 6.8249C13.17 6.66098 14.5847 6.55265 16.062 6.47559C16.7348 6.70856 17.0588 7.38684 17.0852 8.36306C17.8155 8.00948 18.018 7.6387 18.0464 7.10822C18.0903 6.28884 17.4637 5.57667 17.0222 5.44336C16.8459 5.38523 10.5799 5.45568 9.2318 5.25562V5.25581ZM20.0166 6.39093L19.2049 7.06565L19.7444 7.7145L20.556 7.03968L20.0166 6.39093H20.0166ZM3.93164 6.60703L3.67585 7.41112L4.68178 7.73118L4.93753 6.92704L3.9316 6.60708L3.93164 6.60703ZM18.8458 12.3991L18.0934 13.1394L18.6851 13.7409L19.4376 13.0005L18.8458 12.399V12.3991ZM6.74836 13.8004L6.49266 14.6044L7.4986 14.9244L7.75425 14.1204L6.74832 13.8004L6.74836 13.8004Z" fill="#32CD32"/>
</svg>
